<svg width="447" height="398" viewBox="0 0 447 398" fill="none" xmlns="http://www.w3.org/2000/svg">
<path d="M207.602 207.351C197.767 208.006 188.205 203.8 184.654 201.615H183.014L181.375 210.628V220.46L185.473 231.111C185.473 231.111 188.751 235.208 189.571 235.208C190.39 235.208 178.096 260.607 178.096 260.607V306.489L175.638 328.611L178.916 337.624C175.911 336.804 174.491 336.641 192.849 342.54C211.208 348.439 219.623 330.25 221.535 320.418C222.355 309.494 223.994 288.3 223.994 290.922C223.994 293.544 235.468 298.569 241.205 300.754C254.865 305.124 283.496 313.863 288.741 313.863C293.987 313.863 300.215 311.678 302.674 310.586C310.87 303.212 305.952 282.729 305.133 280.271C304.477 278.304 300.489 275.082 298.576 273.716C295.931 272.2 293.958 271.31 288.741 269.62L266.612 263.884L264.973 267.981C264.889 267.229 264.377 266.687 262.514 265.523L259.236 259.788L255.958 263.884L252.679 265.523V263.065L254.318 258.149L252.679 255.691C252.133 255.418 250.876 254.708 250.221 254.052C249.565 253.397 248.855 252.141 248.581 251.594L247.762 244.22C249.752 240.436 253.893 230.98 256.777 224.557C259.681 218.088 260.056 205.166 259.236 199.157L252.679 190.145C225.633 208.989 219.896 206.531 207.602 207.351Z" fill="#263238"/>
<path d="M188.275 236.716C188.125 236.714 187.977 236.678 187.844 236.61C187.71 236.542 187.594 236.443 187.505 236.322C184.931 232.717 180.227 222.197 179.735 217.347C179.243 212.496 182.014 200.96 182.128 200.436C182.191 200.196 182.344 199.991 182.556 199.863C182.767 199.734 183.02 199.694 183.262 199.749C183.503 199.805 183.713 199.952 183.847 200.16C183.981 200.367 184.029 200.619 183.981 200.862C183.981 200.993 181.178 212.627 181.62 217.248C182.063 221.869 186.653 231.996 189.046 235.274C189.119 235.375 189.171 235.489 189.2 235.611C189.229 235.732 189.234 235.858 189.214 235.981C189.194 236.105 189.151 236.223 189.085 236.329C189.02 236.435 188.934 236.528 188.833 236.601C188.662 236.693 188.468 236.733 188.275 236.716V236.716Z" fill="#263238"/>
<path d="M201.766 343.834L195.521 343.392C202.29 341.573 206.487 330.676 209.109 323.187C209.601 321.778 210.076 320.434 210.552 319.205C212.879 313.126 213.092 294.199 212.961 286.924C211.994 283.499 209.388 275.158 207.552 272.454C207.17 271.907 206.903 271.288 206.767 270.634C206.632 269.981 206.631 269.306 206.765 268.653C207.339 265.9 210.158 264.114 212.634 262.557C213.47 262.062 214.275 261.515 215.043 260.918C215.6 257.411 219.682 256.314 222.714 255.511C223.665 255.248 224.567 255.003 225.272 254.74C228.206 252.053 241.057 227.506 243.876 214.315C246.269 203.188 242.237 199.256 242.237 199.223L245.942 194.897C246.63 195.47 252.613 200.96 249.499 215.511C247.073 226.818 233.025 257.788 227.681 259.935C226.555 260.356 225.406 260.712 224.239 261C223.014 261.271 221.822 261.672 220.682 262.196C220.321 264.49 218.092 265.9 215.764 267.391C214.613 268.027 213.526 268.774 212.519 269.619C215.207 273.978 218.207 284.498 218.551 285.727L218.649 286.432C218.649 289.119 219.075 312.88 215.863 321.237C215.42 322.417 214.961 323.695 214.486 325.039C211.552 333.527 211.453 341.245 201.766 343.834Z" fill="white"/>
<path d="M307.411 287.006C302.936 284.81 291.282 282.516 284.299 281.041C281.316 280.418 278.742 279.861 276.808 279.402C273.598 278.64 270.221 279.047 267.284 280.549C266.412 280.931 265.514 281.248 264.596 281.5C261.055 282.385 258.646 278.911 256.908 276.371C256.712 276.092 256.498 275.764 256.269 275.469C254.056 276.764 251.007 278.534 248.073 277.698C247.393 277.493 246.762 277.15 246.221 276.691C245.679 276.231 245.238 275.665 244.926 275.027C244.179 273.417 243.628 271.722 243.287 269.98C242.746 267.702 242.369 266.26 241.238 265.359C237.369 262.278 237.386 260.82 237.304 260.443L240.205 255.707C241.518 257.644 243.059 259.415 244.795 260.984C247.025 263.007 248.456 265.763 248.827 268.751C249.075 269.957 249.437 271.137 249.909 272.274C251.118 271.868 252.274 271.318 253.351 270.635C254.155 270.106 255.026 269.687 255.941 269.39C258.515 268.751 260.088 271.029 261.596 273.208C262.214 274.165 262.916 275.064 263.694 275.896C264.104 275.764 264.596 275.568 265.137 275.338C269.212 273.357 273.853 272.87 278.25 273.962C280.07 274.421 282.594 274.945 285.512 275.601C292.461 276.923 299.237 279.034 305.707 281.893L307.411 287.006Z" fill="white"/>
<path d="M339.703 317.845C339.518 317.845 339.337 317.794 339.179 317.698C328.59 310.799 304.756 308.849 304.494 308.833C304.36 308.837 304.228 308.812 304.105 308.761C303.981 308.71 303.87 308.634 303.778 308.538C303.686 308.441 303.616 308.326 303.571 308.201C303.527 308.075 303.509 307.942 303.52 307.809C303.53 307.676 303.568 307.547 303.632 307.429C303.695 307.312 303.783 307.21 303.889 307.129C303.994 307.048 304.116 306.99 304.246 306.959C304.375 306.927 304.51 306.924 304.641 306.948C305.641 306.948 329.229 308.948 340.211 316.108C340.317 316.175 340.408 316.262 340.48 316.365C340.552 316.467 340.602 316.583 340.628 316.705C340.654 316.827 340.655 316.954 340.631 317.076C340.608 317.199 340.56 317.316 340.49 317.419C340.404 317.55 340.287 317.656 340.15 317.731C340.013 317.805 339.859 317.844 339.703 317.845Z" fill="#263238"/>
<path d="M331.179 299.197C330.439 299.181 329.705 299.06 328.999 298.837C325.606 297.87 307.69 288.251 306.968 287.841C306.748 287.723 306.583 287.523 306.509 287.283C306.435 287.044 306.459 286.785 306.575 286.563C306.697 286.341 306.9 286.176 307.142 286.103C307.384 286.029 307.646 286.053 307.87 286.17C314.246 289.611 326.966 296.281 329.507 297.018C330.187 297.295 330.933 297.369 331.654 297.231C331.713 297.011 331.849 296.819 332.038 296.691C332.226 296.563 332.454 296.506 332.681 296.532C332.907 296.558 333.117 296.664 333.271 296.832C333.426 296.999 333.515 297.216 333.523 297.444C333.514 297.696 333.448 297.942 333.328 298.163C333.209 298.385 333.04 298.576 332.835 298.722C332.35 299.058 331.768 299.225 331.179 299.197V299.197Z" fill="#263238"/>
<path d="M341.194 286.53C341.194 286.53 332.179 295.314 332.179 296.264C332.179 297.215 338.588 302.901 339.063 304.801C339.539 306.702 343.817 304.326 344.997 304.801C346.177 305.277 345.948 308.603 342.62 309.308C339.293 310.012 339.539 318.566 340.719 319.746C341.899 320.926 352.193 326.153 357.815 332.085C363.438 338.017 366.601 343.949 368.962 344.899C371.322 345.85 373.715 346.538 374.42 341.819C375.125 337.099 375.846 326.874 369.683 319.517C363.52 312.159 360.897 311.438 358.996 311.438C357.094 311.438 354.078 311.684 355.209 309.078C356.34 306.473 358.996 304.162 358.045 301.95C357.094 299.738 349.669 285.826 341.194 286.53Z" fill="#263238"/>
<path d="M374.109 348.373C373.416 348.408 372.728 348.253 372.118 347.923C371.508 347.594 371 347.103 370.65 346.505C370.594 346.395 370.561 346.274 370.552 346.15C370.543 346.027 370.559 345.903 370.599 345.785C370.638 345.668 370.701 345.559 370.783 345.466C370.865 345.373 370.965 345.298 371.076 345.243C371.298 345.134 371.555 345.115 371.791 345.192C372.026 345.268 372.223 345.434 372.338 345.653C372.42 345.784 373.06 346.849 375.059 346.358C377.797 345.67 379.977 344.883 380.534 341.638C381.302 334.557 379.853 327.411 376.387 321.188C374.281 318.012 371.756 315.135 368.88 312.634C366.306 310.225 364.29 308.325 364.142 306.293C364.142 305.555 364.142 304.818 364.06 304.048C364.199 301.107 363.637 298.175 362.421 295.494C360.274 291.217 355.176 285.662 350.341 283.614C345.898 281.795 343.882 282.598 342.145 286.891C342.047 287.123 341.861 287.308 341.627 287.403C341.393 287.498 341.132 287.497 340.899 287.399C340.666 287.301 340.482 287.115 340.387 286.881C340.292 286.648 340.293 286.386 340.391 286.154C342.604 280.877 345.718 279.599 351.127 281.844C356.537 284.089 361.913 290.037 364.241 294.642C365.611 297.559 366.263 300.762 366.142 303.982C366.142 304.725 366.175 305.446 366.241 306.145C366.323 307.423 368.208 309.193 370.371 311.225C373.379 313.842 376.015 316.858 378.207 320.188C381.928 326.804 383.465 334.426 382.6 341.966C381.78 346.309 378.747 347.423 375.715 348.177C375.192 348.319 374.651 348.385 374.109 348.373V348.373Z" fill="#263238"/>
<path d="M205.143 199.714C200.471 199.714 192.029 199.108 187.62 195.011C185.856 193.384 184.313 191.533 183.03 189.506C182.181 188.104 181.15 186.82 179.965 185.688C178.91 184.778 178.15 183.577 177.779 182.235C177.408 180.893 177.445 179.471 177.883 178.15C177.978 177.918 178.16 177.733 178.39 177.635C178.62 177.537 178.88 177.533 179.113 177.625C179.23 177.669 179.338 177.735 179.429 177.821C179.52 177.907 179.593 178.011 179.644 178.125C179.694 178.24 179.721 178.363 179.723 178.489C179.724 178.614 179.701 178.738 179.654 178.854C179.36 179.822 179.359 180.854 179.651 181.822C179.942 182.79 180.514 183.65 181.293 184.295C182.559 185.537 183.66 186.935 184.571 188.457C185.768 190.36 187.212 192.096 188.866 193.619C193.423 197.846 203.618 197.896 206.536 197.797C206.788 197.797 207.03 197.897 207.208 198.076C207.387 198.254 207.487 198.496 207.487 198.748C207.487 199 207.387 199.241 207.208 199.42C207.03 199.598 206.788 199.698 206.536 199.698L205.143 199.714Z" fill="#263238"/>
<path d="M212.126 208.17C204.23 208.258 196.374 207.028 188.883 204.532C178.834 200.599 179.048 196.339 179.457 195.175C179.582 194.747 179.73 194.326 179.9 193.914C180.293 192.931 180.441 192.57 179.9 191.685C178.556 189.653 179.654 185.245 179.785 184.754C179.847 184.511 180.002 184.302 180.217 184.174C180.432 184.045 180.689 184.006 180.933 184.065C181.177 184.131 181.385 184.289 181.514 184.507C181.643 184.724 181.681 184.983 181.621 185.229C181.178 186.867 180.851 189.686 181.49 190.636C181.911 191.206 182.158 191.885 182.201 192.591C182.245 193.298 182.083 194.002 181.736 194.618C181.58 194.962 181.454 195.318 181.359 195.683C180.916 197.322 182.818 200.091 189.555 202.762C197.751 206.04 218.666 208.76 231.042 202.762C251.122 193.094 252.548 189.522 252.499 188.654C252.45 187.785 252.368 187.015 252.269 186.032C251.771 183.41 251.872 180.71 252.565 178.133C253.679 175.249 254.794 172.382 253.646 168.793C252.885 165.51 252.495 162.151 252.483 158.781C252.368 156.552 252.269 154.438 252.04 152.833C251.761 149.939 250.848 147.142 249.368 144.639C249.271 144.562 249.191 144.465 249.132 144.356C249.073 144.247 249.036 144.127 249.024 144.003C249.012 143.88 249.024 143.755 249.061 143.636C249.097 143.517 249.157 143.407 249.237 143.312C249.4 143.119 249.631 142.998 249.882 142.973C250.134 142.949 250.384 143.023 250.581 143.181C251.958 144.344 253.368 148.9 253.859 152.636C254.122 154.275 254.22 156.487 254.335 158.765C254.338 161.974 254.701 165.173 255.417 168.302C256.761 172.529 255.417 175.856 254.335 178.789C253.736 181.119 253.657 183.553 254.105 185.917C254.204 186.867 254.302 187.785 254.351 188.637C254.45 190.767 252.237 194.733 231.813 204.549C226.338 207.17 219.175 208.17 212.126 208.17Z" fill="#263238"/>
<path d="M297.543 209.809C293.286 209.699 289.051 209.149 284.905 208.17C281.086 207.285 280.332 202.287 279.775 198.633C279.678 197.363 279.373 196.118 278.873 194.946C276.611 193.439 276.251 192.111 276.251 188.637C276.061 186.848 275.276 185.175 274.021 183.885C273.221 182.86 272.519 181.763 271.923 180.608C270.595 177.953 265.989 164.975 267.104 161.239C267.891 158.634 264.711 152.734 259.465 150.703C253.761 148.474 242.369 141.428 241.893 141.133C241.787 141.067 241.694 140.981 241.62 140.88C241.547 140.779 241.494 140.664 241.465 140.542C241.436 140.42 241.432 140.294 241.452 140.17C241.472 140.047 241.516 139.928 241.582 139.822C241.717 139.61 241.93 139.458 242.175 139.4C242.419 139.342 242.677 139.382 242.893 139.51C243.008 139.51 254.613 146.77 260.154 148.933C266.137 151.26 269.989 158.06 268.923 161.78C268.12 164.5 271.956 176.429 273.612 179.805C274.193 180.852 274.868 181.845 275.628 182.771C277.135 184.389 278.053 186.467 278.234 188.67C278.234 191.947 278.545 192.423 280.021 193.406C281.07 194.111 281.348 195.897 281.66 198.322C282.168 201.599 282.791 205.696 285.332 206.286C294.118 208.301 304.051 208.826 305.1 205.253C305.985 202.255 305.608 197.503 305.264 193.308C304.947 190.704 304.881 188.075 305.067 185.458C305.477 182.558 300.15 162.386 296.871 150.342C295.314 144.476 294.085 139.855 293.691 138.019C292.544 132.612 259.4 108.622 250.909 105.246C243.598 102.28 232.681 98.3802 222.191 98.6916C222.052 98.704 221.912 98.6822 221.783 98.6279C221.654 98.5736 221.541 98.4886 221.453 98.3802C219.887 96.5446 218.14 94.8703 216.24 93.3823L215.667 94.005C213.405 96.4466 208.11 102.198 200.521 101.215C196.348 100.769 192.262 99.7202 188.391 98.1017C188.418 98.973 188.113 99.8222 187.538 100.478L187.391 100.592C187.227 100.707 183.342 103.132 172.638 102.231C162.312 101.297 156.64 100.789 146.739 90.8916C143.969 88.1223 140.756 84.7466 137.33 81.158C129.43 72.6861 120.414 63.2311 116.972 61.5105C113.038 59.5441 105.957 58.7575 103.4 58.5281C103.121 61.5269 101.662 70.2773 94.253 73.276C94.253 74.4559 94.7775 77.9298 99.318 83.8781L101.826 87.1555C109.481 97.2823 127.43 120.994 133.118 123.435C134.954 124.222 138.035 125.32 141.543 126.582C151.132 130.023 163.082 134.3 166.639 137.872C169.655 140.871 172.245 152.325 174.54 162.452C175.884 168.351 177.277 174.463 178.097 175.446C179.779 177.041 181.733 178.323 183.867 179.232C185.294 179.77 186.587 180.615 187.653 181.706C187.789 181.917 187.837 182.173 187.784 182.419C187.732 182.664 187.585 182.879 187.375 183.017C187.164 183.15 186.911 183.198 186.666 183.149C186.422 183.1 186.206 182.959 186.063 182.755C185.133 182.011 184.107 181.394 183.014 180.919C180.643 179.907 178.481 178.462 176.638 176.659C175.572 175.397 174.507 170.825 172.688 162.878C170.72 153.931 167.918 141.805 165.295 139.166C162.016 135.889 149.821 131.514 140.904 128.318C137.347 127.04 134.347 125.942 132.364 125.041C126.217 122.403 108.711 99.2815 100.318 88.1714L97.81 84.8941C91.5483 76.7008 92.3188 72.6533 92.4335 72.2273C92.4664 72.0718 92.5398 71.9277 92.6463 71.8098C92.7528 71.6918 92.8886 71.604 93.04 71.5554C101.236 68.8025 101.564 57.5122 101.58 57.3975C101.584 57.2712 101.614 57.147 101.666 57.0322C101.719 56.9174 101.794 56.8142 101.887 56.7288C101.98 56.6434 102.09 56.5773 102.209 56.5346C102.328 56.4918 102.454 56.4732 102.58 56.4798C102.99 56.4798 112.645 57.1517 117.824 59.7571C121.545 61.6907 130.298 70.8508 138.757 79.716C142.166 83.2882 145.313 86.6639 148.133 89.4168C157.542 98.8227 162.656 99.2487 172.851 100.216C181.834 101.035 185.604 99.3307 186.243 98.9865C186.439 98.5379 186.523 98.049 186.489 97.5609C186.489 97.0202 186.489 95.7748 187.653 95.7748C188.061 95.8263 188.456 95.9542 188.817 96.1517C192.609 97.7852 196.627 98.8349 200.734 99.2651C207.29 100.101 212.208 94.8735 214.257 92.7105C214.621 92.2506 215.052 91.8474 215.536 91.5143C216.093 91.2521 217.175 90.7441 222.551 96.7907C233.239 96.5941 244.238 100.51 251.614 103.509C260.154 107 294.118 131.039 295.527 137.724C295.904 139.511 297.166 144.115 298.691 149.949C303.461 167.777 307.362 182.722 306.887 185.819C306.726 188.3 306.797 190.791 307.1 193.258C307.444 197.617 307.838 202.55 306.854 205.876C306.002 208.891 301.986 209.809 297.543 209.809Z" fill="#263238"/>
<path d="M200.373 109.146C197.447 109.161 194.539 108.69 191.767 107.753C182.293 104.476 182.391 101.281 182.506 100.674C182.545 100.424 182.682 100.2 182.886 100.051C183.091 99.9021 183.346 99.8404 183.596 99.8795C183.846 99.9186 184.07 100.055 184.219 100.26C184.368 100.464 184.43 100.719 184.391 100.969C184.391 101.133 184.768 103.329 192.39 105.885C197.554 107.539 203.1 107.577 208.285 105.992C213.47 104.408 218.047 101.277 221.404 97.02C221.48 96.922 221.576 96.8403 221.684 96.7797C221.793 96.7191 221.913 96.6808 222.036 96.6671C222.16 96.6534 222.285 96.6644 222.405 96.6997C222.524 96.735 222.635 96.7938 222.731 96.8726C222.927 97.0329 223.051 97.2632 223.079 97.5144C223.107 97.7655 223.035 98.0174 222.879 98.2163C220.19 101.611 216.77 104.357 212.874 106.249C208.977 108.141 204.705 109.131 200.373 109.146Z" fill="#263238"/>
<path d="M117.398 34.0956L0 13.5305L108.53 17.3322L117.398 34.0956Z" fill="#E8E8E8"/>
<path d="M98.0719 16.9553V11.6296L0 13.5305L98.0719 16.9553Z" fill="#D9D9D9"/>
<path d="M104.432 11.515L84.1717 0.880127L0 13.5305L104.432 11.515Z" fill="#E8E8E8"/>
<path d="M93.3512 73.4725C93.2138 73.4777 93.077 73.4507 92.9518 73.3938C92.8266 73.3369 92.7164 73.2517 92.6299 73.1448C92.4824 72.9809 78.0741 56.2502 73.7794 52.8746C72.8943 52.1864 71.9763 51.4326 71.0256 50.6624C67.2007 47.2279 62.9271 44.3284 58.322 42.0431C52.421 39.5523 44.8808 27.4263 44.5693 26.9019C44.5047 26.7943 44.462 26.6751 44.4435 26.551C44.425 26.4268 44.4312 26.3003 44.4616 26.1786C44.4921 26.0569 44.5462 25.9423 44.6209 25.8415C44.6957 25.7407 44.7895 25.6556 44.8971 25.591C45.0048 25.5264 45.1241 25.4837 45.2482 25.4652C45.3724 25.4468 45.4989 25.4529 45.6207 25.4834C45.7425 25.5138 45.8571 25.5679 45.9579 25.6426C46.0588 25.7173 46.1439 25.8111 46.2085 25.9187C46.2085 26.0334 53.7487 38.0284 59.1088 40.3061C63.7968 42.2889 68.2882 45.9595 72.2222 49.1876L74.9432 51.3834C79.4018 54.8738 93.4659 71.2112 94.0724 71.9158C94.154 72.009 94.2163 72.1175 94.2556 72.2349C94.2948 72.3524 94.3103 72.4765 94.3012 72.6C94.292 72.7235 94.2584 72.844 94.2022 72.9544C94.1461 73.0648 94.0685 73.163 93.9741 73.2431C93.8023 73.3946 93.5802 73.4764 93.3512 73.4725V73.4725Z" fill="#263238"/>
<path d="M64.5836 24.7061L2.52441 13.5305L66.8457 32.8667L64.5836 24.7061Z" fill="#9E9E9E"/>
<path d="M76.3038 35.7015L99.367 42.633L101.006 31.2443L73.5991 26.3284C73.5991 26.3284 74.2056 29.8843 74.5498 31.2443C75.0284 32.7696 75.6145 34.259 76.3038 35.7015V35.7015Z" fill="#9E9E9E"/>
<path d="M192.029 99.3468H191.767C191.646 99.3129 191.533 99.2553 191.435 99.1775C191.336 99.0997 191.254 99.0031 191.193 98.8935C191.132 98.7838 191.094 98.6631 191.08 98.5384C191.065 98.4137 191.076 98.2875 191.111 98.167C191.111 98.167 192.898 91.8582 191.111 87.5157C191.048 87.398 191.011 87.2683 191.001 87.1351C190.992 87.002 191.011 86.8683 191.056 86.7428C191.102 86.6174 191.174 86.503 191.266 86.407C191.359 86.3111 191.471 86.2358 191.595 86.186C191.719 86.1362 191.852 86.1131 191.986 86.1181C192.119 86.1231 192.25 86.1562 192.37 86.2152C192.49 86.2742 192.596 86.3577 192.681 86.4604C192.766 86.5631 192.829 86.6826 192.865 86.8111C194.881 91.7271 192.98 98.4128 192.865 98.6914C192.807 98.8714 192.696 99.03 192.547 99.1467C192.398 99.2635 192.218 99.3332 192.029 99.3468V99.3468Z" fill="#263238"/>
<path d="M213.207 96.037C213.057 96.037 212.908 96.0014 212.775 95.933C212.641 95.8646 212.525 95.7655 212.437 95.6437C209.847 92.0714 205.519 85.8118 205.683 84.0584C205.712 83.8106 205.836 83.5836 206.028 83.4248C206.221 83.266 206.467 83.1877 206.716 83.2063C206.965 83.2352 207.194 83.3581 207.355 83.55C207.517 83.7419 207.599 83.9883 207.585 84.2387C207.585 85.2382 210.863 90.3672 213.977 94.5294C214.051 94.6305 214.103 94.7451 214.132 94.8665C214.161 94.988 214.166 95.1139 214.146 95.2372C214.126 95.3604 214.082 95.4786 214.017 95.5849C213.951 95.6912 213.866 95.7836 213.764 95.8567C213.601 95.972 213.407 96.0349 213.207 96.037V96.037Z" fill="#263238"/>
<path d="M319.279 243.647C319.052 243.643 318.827 243.616 318.606 243.565C315.984 242.992 305.723 232.488 303.854 229.932C302.409 228.106 300.564 226.637 298.461 225.638C297.416 227.087 296.762 228.78 296.56 230.554C296.363 232.979 295.986 235.355 294.576 236.322C294.239 236.545 293.855 236.686 293.453 236.734C293.052 236.782 292.645 236.737 292.265 236.601C289.347 235.716 289.79 233.012 290.413 229.276L290.626 227.949C291.275 225.025 292.382 222.221 293.904 219.641C294.166 219.149 294.445 218.608 294.593 218.281C293.839 217.019 290.757 211.939 288.642 208.449C288.513 208.233 288.474 207.975 288.532 207.73C288.59 207.485 288.742 207.273 288.954 207.138C289.06 207.072 289.179 207.028 289.302 207.008C289.426 206.988 289.552 206.992 289.674 207.021C289.796 207.05 289.911 207.103 290.012 207.176C290.114 207.25 290.2 207.342 290.265 207.449C291.265 209.088 296.215 217.166 296.445 217.642C296.674 218.117 296.445 218.772 295.576 220.46C294.158 222.863 293.124 225.473 292.511 228.195L292.281 229.522C291.642 233.422 291.609 234.356 292.806 234.716C293.265 234.864 293.429 234.716 293.511 234.716C294.363 234.143 294.593 231.308 294.675 230.374C294.848 227.918 295.875 225.6 297.576 223.819C297.746 223.702 297.94 223.624 298.144 223.59C298.348 223.556 298.557 223.567 298.756 223.623C301.329 224.746 303.582 226.492 305.313 228.703C307.837 231.98 317.41 241.287 319 241.632C319.18 241.632 319.492 241.713 319.574 241.55C319.656 241.386 319.574 240.075 318.164 238.748C316.279 237.109 310.066 228.916 310.607 227.031C310.664 226.826 310.777 226.64 310.933 226.496C311.09 226.351 311.283 226.253 311.492 226.212C312.378 226.032 313.263 226.671 318.328 231.128C320.934 233.438 324.885 236.912 325.868 237.109C326.247 237.184 326.63 237.238 327.015 237.273C326.809 236.908 326.579 236.558 326.327 236.224C325.54 235.126 323.983 233.422 322.475 231.767C320.632 229.91 318.959 227.892 317.475 225.737C317.359 225.515 317.336 225.256 317.409 225.017C317.483 224.777 317.648 224.577 317.869 224.458C318.091 224.34 318.351 224.314 318.593 224.384C318.835 224.454 319.04 224.616 319.164 224.835C320.576 226.845 322.149 228.735 323.868 230.489C325.507 232.258 327.015 233.93 327.868 235.11C328.72 236.29 329.507 237.519 328.835 238.387C328.163 239.256 326.835 239.174 325.557 238.895C324.278 238.616 321.442 236.29 317.131 232.488C315.984 231.472 314.607 230.243 313.492 229.325C315.189 232.19 317.201 234.856 319.492 237.273C321.311 238.911 322.049 240.943 321.328 242.336C321.157 242.735 320.87 243.073 320.505 243.307C320.139 243.541 319.712 243.659 319.279 243.647V243.647Z" fill="#263238"/>
<path d="M328.884 235.716C327.541 235.643 326.231 235.274 325.048 234.634C324.863 234.495 324.734 234.294 324.687 234.067C324.64 233.84 324.677 233.604 324.792 233.403C324.907 233.201 325.091 233.049 325.31 232.974C325.529 232.899 325.769 232.907 325.983 232.996C326.977 233.569 328.114 233.847 329.261 233.799L329.343 233.7C329.343 233.7 329.343 233.143 327.523 231.488C324.576 228.396 321.838 225.112 319.328 221.656C319.193 221.467 319.12 221.241 319.12 221.009C319.12 220.777 319.193 220.55 319.328 220.362C320.459 218.985 330.13 223.508 330.228 223.639C330.293 223.652 330.36 223.652 330.425 223.639C330.425 223.639 330.425 222.869 329.212 221.853C327.704 220.624 319.262 217.527 306.608 213.561L306.378 213.479C303.69 212.644 302.559 208.825 302.444 208.399C302.407 208.169 302.456 207.933 302.582 207.737C302.708 207.54 302.902 207.397 303.127 207.334C303.352 207.271 303.592 207.293 303.802 207.396C304.011 207.499 304.176 207.675 304.264 207.891C304.526 208.776 305.493 211.169 306.935 211.677H307.165C316.541 214.626 328.195 218.51 330.408 220.312C332.621 222.115 332.572 223.721 332.048 224.638C331.77 225.046 331.349 225.333 330.869 225.442C330.388 225.552 329.884 225.475 329.458 225.228C328.474 224.737 324.835 223.295 322.409 222.459C324.428 225.137 326.619 227.683 328.966 230.079C330.687 231.717 331.408 232.815 331.375 233.799C331.353 234.099 331.266 234.392 331.118 234.655C330.971 234.918 330.768 235.146 330.523 235.323C330.044 235.652 329.46 235.792 328.884 235.716V235.716Z" fill="#263238"/>
<path d="M178.49 16.9716C178.49 16.9716 166.753 19.9867 165.18 26.4103C163.606 32.8338 165.18 39.5195 170.245 38.8477C175.31 38.1758 181.948 33.7842 186.374 34.0956C190.8 34.4069 189.866 36.0783 188.276 38.8804C186.686 41.6825 189.538 46.4346 197.455 44.2225C205.372 42.0103 205.651 37.8972 211.372 39.4704C217.092 41.0435 211.88 54.0216 213.207 55.8569C214.535 57.6922 214.847 60.2813 217.83 55.8569C220.813 51.4325 225.305 45.4187 230.042 47.0082C234.779 48.5977 225.616 57.7578 220.879 59.6586L216.125 61.5594C216.125 61.5594 214.224 74.8325 211.372 76.7334C211.372 76.7334 230.37 74.2099 237.598 67.5569C244.827 60.904 238.549 61.0023 239.811 57.4464C241.073 53.8905 248.351 53.7103 248.351 49.4006C248.351 45.0909 247.401 45.73 240.762 42.5674C234.123 39.4048 236.008 37.8317 236.959 36.2422C237.91 34.6527 238.86 31.8178 233.484 30.2283C228.107 28.6388 215.453 24.8535 217.781 21.3796C220.108 17.9056 221.321 10.9414 213.158 11.5477C204.995 12.154 197.193 17.4632 192.554 16.8897C187.915 16.3161 183.637 15.0872 178.49 16.9716Z" fill="#263238"/>
<path d="M193.98 88.4991H193.75L191.619 88.0239C186.095 86.8113 174.605 84.3042 168.474 79.9617C160.983 74.6525 162.344 61.4449 163.688 57.2336C165.032 53.0223 168.064 38.7823 168.097 38.5693C168.122 38.4442 168.173 38.3256 168.246 38.2212C168.32 38.1168 168.414 38.0289 168.523 37.963C168.628 37.8927 168.747 37.846 168.871 37.8262C168.996 37.8064 169.123 37.8139 169.245 37.8483C169.436 37.8659 169.628 37.8659 169.818 37.8483C169.916 37.7984 170.021 37.7652 170.13 37.75C172.619 37.2692 175.041 36.4878 177.342 35.4231C180.621 34.0794 183.801 32.8012 186.44 32.9979C187.898 33.1126 189.718 33.3748 190.308 34.6365C190.898 35.8983 190.161 37.3731 189.111 39.2248C188.875 39.6803 188.779 40.1955 188.834 40.7056C188.889 41.2158 189.094 41.6982 189.423 42.0924C190.734 43.7311 193.652 44.2063 197.193 43.2067C199.595 42.5371 201.866 41.468 203.913 40.0441C206.175 38.5857 207.946 37.4386 211.634 38.4054C216.191 39.6836 215.142 46.1891 214.388 50.9575C214.056 52.3632 213.924 53.8084 213.994 55.2508C214.24 55.5949 214.453 55.9718 214.666 56.3323C214.832 56.6871 215.054 57.0134 215.322 57.2991C215.963 56.6912 216.514 55.9962 216.961 55.2344C219.633 51.3508 224.6 44.1244 230.271 46.0252C230.826 46.1684 231.319 46.4895 231.674 46.9393C232.03 47.3891 232.228 47.9429 232.238 48.5159C232.353 52.2685 225.304 58.7903 221.141 60.4454L216.846 62.166C216.273 64.4601 213.814 74.0626 212.125 77.1105L211.798 77.7332C210.749 79.7979 208.519 84.1239 204.307 86.3525C204.085 86.4685 203.826 86.4923 203.586 86.4187C203.347 86.345 203.146 86.1799 203.028 85.9592C202.911 85.7349 202.887 85.4737 202.961 85.2317C203.034 84.9897 203.2 84.7861 203.421 84.6647C207.126 82.7147 209.142 78.7655 210.109 76.8647L210.47 76.1928C212.207 73.0138 215.092 61.4449 215.125 61.2483C215.159 61.1024 215.227 60.9667 215.324 60.8526C215.421 60.7385 215.544 60.6494 215.682 60.5928L220.436 58.692C224.091 57.2336 230.419 51.1378 230.271 48.5651C230.271 48.3193 230.271 48.0244 229.599 47.8113C225.813 46.5496 222.01 51.0886 218.469 56.316C217.01 58.4298 215.994 59.2164 215.01 59.1836C214.027 59.1508 213.371 58.1512 212.863 57.2664C212.683 56.955 212.503 56.6273 212.289 56.316C211.634 55.3983 211.863 53.7433 212.289 50.6462C212.945 46.5987 213.83 41.0601 210.913 40.2407C207.995 39.4214 206.88 40.2407 204.733 41.5844C202.606 43.1445 200.236 44.3406 197.717 45.1239C191.505 46.8609 188.8 44.4685 187.882 43.3542C187.325 42.6739 186.982 41.8435 186.898 40.9684C186.813 40.0932 186.99 39.2126 187.407 38.4382C187.98 37.4059 188.767 36.013 188.571 35.6525C188.571 35.6525 188.276 35.2101 186.259 35.0626C184.243 34.9151 180.981 36.1441 178.063 37.3567C175.658 38.4384 173.14 39.2517 170.556 39.7819C170.304 39.8747 170.037 39.9192 169.769 39.913C169.064 43.1903 166.638 54.2349 165.491 57.8071C164.344 61.3794 163.032 73.7676 169.573 78.4214C175.375 82.5344 186.62 84.976 192.013 86.1722L194.193 86.6475C194.315 86.6763 194.429 86.7289 194.531 86.8023C194.632 86.8756 194.718 86.9682 194.784 87.0747C194.849 87.1813 194.893 87.2997 194.912 87.4232C194.932 87.5468 194.927 87.6729 194.898 87.7945C194.846 87.998 194.728 88.1782 194.561 88.306C194.395 88.4338 194.19 88.5019 193.98 88.4991V88.4991Z" fill="#263238"/>
<path d="M166.082 52.8091C165.926 52.8118 165.773 52.7722 165.639 52.6943C163.473 51.4363 161.583 49.7548 160.082 47.7502C158.581 45.7455 157.5 43.459 156.902 41.0271C156.41 39.6102 156.41 38.0688 156.902 36.6519C157.155 36.284 157.505 35.994 157.913 35.8144C158.321 35.6349 158.772 35.5731 159.214 35.6359C160.853 35.7834 162.984 37.2746 164.492 40.7977C165.344 43.0066 166.444 45.112 167.77 47.0738C167.924 47.2737 167.993 47.5267 167.961 47.7771C167.928 48.0276 167.798 48.255 167.598 48.4093C167.398 48.5635 167.145 48.6321 166.894 48.5998C166.644 48.5676 166.416 48.4371 166.262 48.2372C164.804 46.1592 163.599 43.9148 162.672 41.5515C161.394 38.52 159.738 37.5859 158.951 37.5204C158.574 37.5204 158.443 37.6515 158.41 37.7006C157.869 38.8969 159.787 47.5326 166.475 51.0229C166.66 51.1232 166.807 51.2821 166.892 51.4747C166.977 51.6674 166.996 51.8828 166.945 52.0872C166.895 52.2916 166.777 52.4734 166.612 52.6041C166.447 52.7347 166.243 52.8068 166.033 52.8091H166.082Z" fill="#263238"/>
<path d="M204.783 50.1873H204.291C203.882 50.1159 203.505 49.9203 203.212 49.627C202.919 49.3337 202.723 48.9572 202.652 48.5486C202.389 47.4343 200.029 45.8448 198.423 45.0747C198.309 45.0204 198.207 44.9442 198.124 44.8503C198.04 44.7565 197.975 44.6469 197.934 44.528C197.893 44.4091 197.876 44.2833 197.884 44.1577C197.892 44.0321 197.924 43.9093 197.98 43.7965C198.033 43.6836 198.107 43.5823 198.2 43.4986C198.292 43.415 198.4 43.3506 198.518 43.3094C198.635 43.2682 198.76 43.2509 198.885 43.2586C199.009 43.2662 199.131 43.2987 199.242 43.3541C200.029 43.731 203.947 45.7465 204.504 48.1226C204.504 48.27 204.504 48.27 204.635 48.2864C204.842 48.2931 205.048 48.2488 205.233 48.1573C205.419 48.0659 205.58 47.9301 205.701 47.7621C205.806 47.6073 205.862 47.4247 205.862 47.2377C205.862 47.0507 205.806 46.868 205.701 46.7133C204.455 44.4028 203.602 43.1083 202.553 42.8297C202.425 42.8062 202.302 42.7565 202.194 42.6837C202.086 42.6108 201.993 42.5164 201.923 42.4063C201.853 42.2962 201.806 42.1728 201.785 42.0438C201.765 41.9148 201.771 41.783 201.804 41.6565C201.837 41.5301 201.895 41.4117 201.976 41.3089C202.056 41.206 202.157 41.1209 202.272 41.0587C202.387 40.9966 202.513 40.9588 202.644 40.9478C202.774 40.9367 202.905 40.9526 203.029 40.9944C204.93 41.486 206.078 43.3869 207.373 45.8284C207.647 46.3051 207.773 46.8526 207.735 47.4012C207.697 47.9499 207.497 48.4748 207.159 48.9091C206.883 49.285 206.526 49.5948 206.115 49.8158C205.704 50.0369 205.249 50.1638 204.783 50.1873V50.1873Z" fill="#263238"/>
<path d="M170.72 43.5836C170.617 43.5993 170.512 43.5993 170.408 43.5836C169.918 43.4759 169.463 43.2426 169.089 42.9065C168.716 42.5704 168.436 42.1431 168.277 41.6664C168.202 41.1882 168.233 40.6991 168.369 40.2345C168.505 39.7698 168.743 39.341 169.064 38.979C169.245 38.8048 169.486 38.7074 169.736 38.7074C169.987 38.7074 170.228 38.8048 170.408 38.979C170.582 39.1565 170.679 39.3947 170.679 39.6426C170.679 39.8906 170.582 40.1288 170.408 40.3063V40.3063C170.244 40.5029 169.966 40.9781 170.048 41.2403C170.13 41.5025 170.294 41.5681 170.605 41.7155C172.351 40.9186 174.229 40.4519 176.145 40.3391C176.426 40.3284 176.696 40.2313 176.919 40.0612C177.142 39.891 177.307 39.6561 177.391 39.3887C177.638 38.8258 177.684 38.1954 177.522 37.6025C177.307 37.6352 177.087 37.5927 176.899 37.4823C176.711 37.372 176.566 37.2003 176.49 36.9962C176.402 36.7699 176.407 36.5185 176.502 36.2953C176.596 36.072 176.774 35.8944 176.998 35.8C177.296 35.6745 177.625 35.6402 177.943 35.7015C178.261 35.7627 178.554 35.9167 178.785 36.1441C179.19 36.6911 179.442 37.3367 179.514 38.0137C179.586 38.6908 179.476 39.3749 179.194 39.995C178.986 40.6257 178.59 41.1781 178.06 41.579C177.531 41.9799 176.891 42.2104 176.227 42.2399C174.445 42.3462 172.702 42.8028 171.097 43.5836C170.973 43.6117 170.844 43.6117 170.72 43.5836V43.5836Z" fill="#263238"/>
<path d="M173.097 49.2367C172.139 48.841 171.152 48.5179 170.146 48.2699C169.709 48.1532 169.266 48.0602 168.818 47.9914C168.31 47.893 167.769 47.8439 167.064 47.6473C167.437 47.0633 167.985 46.6123 168.63 46.3591C169.275 46.1059 169.984 46.0635 170.654 46.238C171.343 46.3839 171.96 46.761 172.405 47.3066C172.849 47.8521 173.093 48.5332 173.097 49.2367V49.2367Z" fill="#263238"/>
<path d="M190.391 51.8586C190.982 51.06 191.825 50.483 192.784 50.2199C193.749 49.9413 194.769 49.9075 195.751 50.1216C196.72 50.3449 197.62 50.8004 198.373 51.4489C199.131 52.0727 199.698 52.8957 200.013 53.825C199.078 53.4972 198.373 53.1203 197.554 52.8418C196.832 52.5529 196.086 52.3281 195.325 52.1699C194.573 51.9841 193.804 51.8743 193.03 51.8422C192.145 51.8422 191.309 51.8422 190.391 51.8586Z" fill="#263238"/>
<path d="M178.637 63.149H178.457C176.775 62.8114 175.129 62.3177 173.539 61.6743C173.246 61.548 172.984 61.3572 172.774 61.1161C172.564 60.8749 172.411 60.5897 172.326 60.2814C172.174 59.1246 172.467 57.9533 173.146 57.0041L177.834 47.7785L177.998 47.549C178.308 47.1846 178.7 46.8983 179.141 46.7132C179.582 46.5282 180.061 46.4496 180.539 46.4839C181.046 46.5883 181.526 46.7984 181.947 47.1005C182.367 47.4026 182.72 47.7899 182.981 48.2373C183.084 48.4277 183.124 48.6455 183.096 48.86C183.096 48.86 182.03 55.8406 181.916 58.6919C181.963 59.6588 181.697 60.6152 181.156 61.4184C180.615 62.2216 179.83 62.8287 178.916 63.149H178.637ZM179.408 48.7289L174.736 57.9217C174.333 58.4489 174.114 59.0936 174.113 59.757C174.113 59.757 174.113 59.8717 174.293 59.9373C175.669 60.5003 177.097 60.9284 178.555 61.2154C179.015 60.9579 179.393 60.5744 179.642 60.1099C179.892 59.6455 180.004 59.1194 179.965 58.5936C180.08 55.9717 180.883 50.4003 181.112 48.9091C180.9 48.6255 180.6 48.4185 180.26 48.3192C180.096 48.3271 179.936 48.369 179.789 48.4424C179.642 48.5158 179.512 48.6189 179.408 48.7453V48.7289Z" fill="#263238"/>
<path d="M167.065 51.8096C167.435 51.6891 167.825 51.6473 168.212 51.6868C168.599 51.7263 168.973 51.8463 169.311 52.039C170.353 52.6121 171.185 53.5028 171.687 54.5814C172.188 55.6601 172.332 56.8705 172.097 58.0365C171.573 59.3802 169.868 57.8562 167.409 56.8894C166.606 56.5781 166.524 56.8894 165.77 56.6272L167.065 51.8096Z" fill="#263238"/>
<path d="M186.489 60.9696C186.21 62.6083 189.242 62.215 192.799 62.7885C196.356 63.3621 199.061 64.7549 199.356 63.0507C199.651 61.3465 197.356 57.1516 193.816 56.578C190.275 56.0045 186.767 59.2654 186.489 60.9696Z" fill="#263238"/>
<path d="M177.621 70.31C179.768 69.6545 181.588 69.3268 183.325 68.786C184.197 68.5365 185.051 68.2299 185.883 67.8684C186.751 67.5242 187.522 67.0326 188.604 66.5247C188.386 67.6528 187.811 68.6811 186.964 69.4579C186.12 70.2242 185.111 70.785 184.014 71.0965C182.95 71.4043 181.836 71.4989 180.736 71.3751C179.624 71.2906 178.552 70.924 177.621 70.31V70.31Z" fill="#263238"/>
<path d="M219.289 149.588C219.289 158.666 215.486 165.975 201.865 165.975C192.259 165.975 186.473 158.633 186.473 149.588C186.473 140.543 190.341 133.201 201.865 133.201C213.388 133.201 219.289 140.526 219.289 149.588Z" fill="#E8E8E8"/>
<path d="M200.226 151.637H199.914C199.39 151.637 198.39 151.637 198.095 150.735C197.8 149.834 198.472 149.408 198.931 149.097C199.163 148.91 199.377 148.702 199.57 148.474L199.422 148.376C198.193 147.524 189.964 147.786 182.719 148.54C182.595 148.556 182.469 148.546 182.349 148.513C182.228 148.479 182.116 148.422 182.018 148.344C181.92 148.266 181.839 148.169 181.779 148.059C181.719 147.949 181.682 147.828 181.67 147.704C181.647 147.452 181.723 147.202 181.883 147.006C182.042 146.81 182.271 146.684 182.522 146.655C185.096 146.393 198.078 145.131 200.553 146.819C200.839 146.989 201.077 147.228 201.246 147.515C201.415 147.801 201.51 148.125 201.52 148.458C201.528 148.717 201.483 148.974 201.391 149.216C201.298 149.458 201.158 149.679 200.98 149.867C201.766 149.867 202.848 149.687 204.094 149.539C209.585 148.884 218.847 147.786 226.879 149.932C227.115 150.004 227.315 150.164 227.436 150.38C227.556 150.596 227.588 150.85 227.524 151.089C227.46 151.327 227.305 151.532 227.093 151.659C226.881 151.785 226.627 151.825 226.387 151.768C218.633 149.719 209.684 150.785 204.323 151.424C202.455 151.456 201.094 151.637 200.226 151.637Z" fill="#263238"/>
<path d="M67.7142 40.7323C67.5288 40.7336 67.3472 40.6798 67.1925 40.5777C67.0378 40.4756 66.917 40.3297 66.8454 40.1587C66.1495 37.8375 65.8285 35.4202 65.8947 32.9978L63.649 25.0995C63.6093 24.9448 63.6085 24.7826 63.6468 24.6275C63.6851 24.4724 63.7612 24.3292 63.8684 24.2108C63.9755 24.0923 64.1104 24.0022 64.2609 23.9485C64.4114 23.8948 64.5729 23.8793 64.7309 23.9033L72.6645 25.2961C73.0579 25.2961 74.9593 25.9188 75.3036 30.2121C75.4611 32.0315 76.0819 33.7802 77.1067 35.2919C77.1738 35.3974 77.2187 35.5155 77.2386 35.639C77.2585 35.7625 77.2529 35.8887 77.2222 36.0099C77.1915 36.1312 77.1363 36.2448 77.0601 36.344C76.9838 36.4431 76.8881 36.5256 76.7788 36.5865C76.6726 36.6513 76.5546 36.6943 76.4315 36.7129C76.3085 36.7316 76.183 36.7254 76.0624 36.6949C75.9418 36.6644 75.8285 36.6101 75.7291 36.5352C75.6298 36.4603 75.5464 36.3663 75.4839 36.2587C74.305 34.5059 73.594 32.4808 73.4185 30.376C73.189 27.5411 72.2711 27.0987 72.2547 27.0987L65.8947 25.9844L67.7633 32.539C67.7713 32.6317 67.7713 32.7249 67.7633 32.8176C67.6901 35.0298 67.9555 37.2401 68.5501 39.3722C68.6491 39.6026 68.653 39.8629 68.5609 40.0961C68.4688 40.3294 68.2881 40.5168 68.0584 40.6176C67.9515 40.6761 67.8349 40.715 67.7142 40.7323V40.7323Z" fill="#263238"/>
<path d="M102.53 58.4462C102.357 58.4535 102.185 58.4078 102.038 58.3151C99.8745 57.0369 80.8273 45.5991 78.2702 40.8798C78.1853 40.7328 78.1406 40.5661 78.1406 40.3964C78.1406 40.2266 78.1853 40.0599 78.2702 39.9129C78.8011 38.954 79.1197 37.8922 79.2045 36.7995C79.2153 36.6747 79.2505 36.5532 79.3083 36.442C79.366 36.3308 79.445 36.2321 79.5409 36.1515C79.6368 36.0708 79.7477 36.0098 79.8671 35.972C79.9866 35.9342 80.1124 35.9203 80.2372 35.931C80.3621 35.9418 80.4836 35.977 80.5948 36.0347C80.706 36.0924 80.8048 36.1715 80.8855 36.2673C80.9661 36.3632 81.0271 36.474 81.065 36.5934C81.1028 36.7128 81.1167 36.8386 81.106 36.9634C80.9934 38.1501 80.6773 39.3086 80.1716 40.3882C82.9582 44.2718 97.4321 53.3827 102.973 56.7747C103.082 56.8356 103.178 56.9181 103.254 57.0172C103.33 57.1164 103.385 57.23 103.416 57.3513C103.447 57.4725 103.452 57.5987 103.432 57.7222C103.412 57.8457 103.368 57.9638 103.3 58.0693C103.211 58.188 103.094 58.284 102.96 58.3495C102.826 58.415 102.679 58.4481 102.53 58.4462Z" fill="#263238"/>
<path d="M198.947 383.31C198.947 383.31 198.045 369.446 197.308 368.775C196.57 368.103 187.145 369.381 185.211 368.414C183.276 367.447 182.211 372.74 180.965 373.33C179.719 373.92 177.097 371.397 178.883 368.103C180.67 364.809 173.327 358.894 171.491 359.041C169.655 359.189 157.951 363.957 148.903 364.514C139.855 365.071 132.659 363.367 130.167 364.678C127.676 365.989 125.364 367.464 128.839 371.462C132.314 375.46 140.314 383.375 150.935 383.473C161.557 383.572 164.049 381.835 165.36 380.294C166.672 378.754 168.639 375.952 170.065 378.82C171.491 381.687 171.524 385.571 173.999 386.308C176.474 387.046 193.423 390.978 198.947 383.31Z" fill="#263238"/>
<path d="M183.112 397.435C180.631 397.455 178.155 397.185 175.736 396.632C172.324 395.683 169.185 393.943 166.573 391.552C165.95 391.044 165.327 390.536 164.705 390.077C163.524 389.209 160.672 389.52 157.394 389.881C153.049 390.525 148.637 390.569 144.28 390.012C136.101 388.399 128.642 384.24 122.971 378.131C119.939 374.379 121.184 371.085 122.709 368.021C123.062 367.074 123.731 366.277 124.602 365.764C125.474 365.25 126.495 365.052 127.495 365.202C127.714 365.283 127.895 365.441 128.005 365.647C128.115 365.852 128.145 366.091 128.09 366.317C128.036 366.543 127.9 366.742 127.709 366.875C127.517 367.008 127.284 367.066 127.053 367.038C126.889 367.038 125.413 366.776 124.397 368.873C123.004 371.675 122.119 374.051 124.397 376.935C129.795 382.676 136.848 386.594 144.575 388.144C148.759 388.66 152.994 388.61 157.164 387.996C160.984 387.57 164.016 387.242 165.786 388.553C166.442 389.029 167.081 389.553 167.737 390.077C170.132 392.295 173.02 393.913 176.162 394.797C181.309 396.075 189.718 395.813 194.865 393.158C199.635 390.7 200.406 388.406 198.144 383.736C198.098 383.53 198.123 383.316 198.212 383.125C198.302 382.935 198.453 382.78 198.64 382.685C198.828 382.589 199.042 382.558 199.248 382.597C199.455 382.636 199.643 382.743 199.783 382.9C202.569 388.471 201.422 391.929 195.75 394.829C191.79 396.646 187.468 397.537 183.112 397.435V397.435Z" fill="#263238"/>
<path d="M174.9 365.579C174.725 365.58 174.554 365.532 174.406 365.439C174.258 365.346 174.139 365.213 174.064 365.055C174.008 364.947 173.973 364.83 173.962 364.709C173.951 364.588 173.964 364.466 174.001 364.35C174.037 364.234 174.096 364.127 174.175 364.034C174.253 363.941 174.349 363.865 174.458 363.809C174.589 363.711 178.867 360.794 183.539 341.589C183.555 341.456 183.599 341.328 183.668 341.213C183.737 341.098 183.83 340.999 183.94 340.922C184.05 340.846 184.175 340.793 184.307 340.768C184.439 340.744 184.575 340.747 184.705 340.779C184.836 340.81 184.958 340.869 185.064 340.951C185.171 341.033 185.258 341.137 185.321 341.255C185.384 341.373 185.422 341.504 185.431 341.638C185.44 341.771 185.421 341.906 185.375 342.032C180.457 362.416 175.835 365.235 175.326 365.481C175.194 365.546 175.048 365.58 174.9 365.579V365.579Z" fill="#263238"/>
<path d="M194.16 372.2C193.921 372.2 193.69 372.108 193.517 371.944C193.343 371.779 193.239 371.554 193.226 371.315C192.767 364.17 202.209 344.375 202.619 343.54C202.758 343.385 202.944 343.281 203.148 343.242C203.353 343.203 203.564 343.233 203.75 343.326C203.936 343.419 204.086 343.57 204.178 343.757C204.27 343.943 204.298 344.155 204.258 344.359C204.159 344.555 194.636 364.547 195.046 371.184C195.055 371.309 195.039 371.434 194.999 371.553C194.959 371.671 194.896 371.781 194.814 371.875C194.732 371.97 194.632 372.047 194.52 372.103C194.408 372.158 194.285 372.191 194.16 372.2V372.2Z" fill="#263238"/>
<path d="M201.57 344.998C195.341 344.998 184.145 341.72 178.785 338.558C173.179 335.28 174.884 323.187 176.376 312.503C176.556 311.192 176.736 309.898 176.9 308.669C177.556 303.589 177.392 293.822 177.212 284.367C177.015 273.208 176.835 262.655 177.867 258.28C179.769 250.087 196.242 219.935 196.947 218.657C197.004 218.546 197.083 218.448 197.179 218.368C197.275 218.288 197.386 218.229 197.505 218.194C197.625 218.159 197.751 218.148 197.875 218.163C197.998 218.178 198.118 218.218 198.226 218.28C198.335 218.339 198.432 218.418 198.51 218.514C198.589 218.611 198.647 218.721 198.682 218.84C198.718 218.959 198.729 219.084 198.715 219.207C198.701 219.331 198.663 219.45 198.603 219.559C198.439 219.87 181.555 250.857 179.703 258.706C178.736 262.852 178.933 273.782 179.113 284.335C179.277 293.855 179.457 303.703 178.785 308.914C178.621 310.16 178.441 311.454 178.244 312.765C176.917 322.351 175.245 334.297 179.736 336.919C185.326 340.196 198.455 343.851 203.291 342.966C205.668 342.54 213.732 340.213 218.24 328.382C221.912 318.763 222.928 286.94 222.928 283.63C222.29 281.702 221.379 279.876 220.224 278.206C217.945 274.372 216.945 272.487 217.863 271.422C218.781 270.357 219.978 271.16 220.469 271.422C222.529 272.456 224.451 273.744 226.19 275.256L227.305 276.125C227.305 276.125 227.305 275.945 227.305 275.846C226.895 274.355 226.436 273.028 226.059 271.963C225.272 269.652 224.83 268.374 225.567 267.522C225.812 267.285 226.117 267.118 226.449 267.04C226.781 266.962 227.127 266.976 227.452 267.08C229.944 267.571 231.304 267.391 232.37 266.391C233.648 265.015 256.154 228.702 257.744 220.837C259.547 212.119 259.383 202.418 257.4 199.239C255.072 195.519 252.253 191.751 252.22 191.718C252.071 191.516 252.007 191.262 252.044 191.013C252.081 190.765 252.215 190.541 252.417 190.39C252.515 190.313 252.628 190.257 252.749 190.224C252.869 190.192 252.995 190.183 253.119 190.2C253.243 190.217 253.362 190.258 253.469 190.322C253.577 190.386 253.67 190.47 253.745 190.571C253.745 190.571 256.646 194.438 259.006 198.223C261.613 202.402 261.269 213.184 259.613 221.164C257.957 229.145 234.976 266.342 233.566 267.751C231.731 269.587 229.354 269.39 227.01 268.964C227.204 269.777 227.45 270.576 227.747 271.356C228.124 272.454 228.6 273.814 229.026 275.371C229.354 276.6 229.6 277.846 228.731 278.403C227.862 278.96 226.78 278.222 224.961 276.764C223.34 275.353 221.55 274.148 219.633 273.175H219.535C220.203 274.616 220.964 276.012 221.814 277.354C223.649 280.467 224.78 282.45 224.78 283.745C224.78 284.072 224.043 318.484 219.978 329.168C215.06 341.933 206.209 344.473 203.586 344.948C202.917 345.026 202.242 345.042 201.57 344.998V344.998Z" fill="#263238"/>
<path d="M287.79 315.092C286.954 315.092 286.15 315.092 285.511 314.994C281.577 314.699 267.906 310.209 255.842 306.26C248.597 303.884 241.762 301.639 238.352 300.738C232.431 299.014 227.143 295.597 223.141 290.906C223.046 290.811 222.972 290.698 222.924 290.573C222.876 290.448 222.855 290.314 222.862 290.181C222.869 290.047 222.904 289.916 222.966 289.797C223.027 289.678 223.113 289.573 223.217 289.49C223.322 289.406 223.443 289.345 223.572 289.312C223.702 289.278 223.837 289.272 223.969 289.295C224.101 289.317 224.227 289.367 224.339 289.441C224.45 289.516 224.545 289.613 224.616 289.726C228.389 294.064 233.318 297.241 238.828 298.886C242.303 299.804 249.171 302.049 256.432 304.441C267.808 308.161 281.954 312.815 285.659 313.093C291.199 313.519 300.592 312.339 303.69 307.358C306.788 302.376 307.279 290.234 306.427 287.251L306.312 286.842C305.296 283.253 302.919 274.814 295.166 272.241C285.462 268.964 268.529 264.359 266.726 264.671C266.349 264.671 265.939 265.687 265.694 266.228C265.317 267.08 264.923 267.948 264.054 267.965C263.186 267.981 262.612 266.965 262.415 266.539C262.071 265.851 261.727 265.048 261.383 264.212C260.858 262.95 259.743 260.328 259.137 260.181C258.355 260.901 257.647 261.697 257.022 262.557C255.514 264.491 254.498 265.834 253.351 265.359C252.203 264.884 252.334 263.72 252.334 263.262C252.368 262.114 252.51 260.973 252.761 259.853C253.285 257.199 253.301 256.281 251.531 255.609C247.335 253.97 246.4 247.072 246.4 244.532C246.4 244.28 246.501 244.038 246.679 243.86C246.857 243.681 247.099 243.581 247.351 243.581C247.603 243.581 247.845 243.681 248.023 243.86C248.202 244.038 248.302 244.28 248.302 244.532C248.302 246.17 248.974 252.627 252.203 253.839C255.432 255.052 255.088 257.821 254.629 260.214C254.454 261.155 254.35 262.108 254.318 263.065C254.728 262.606 255.219 261.967 255.596 261.426C256.293 260.441 257.102 259.539 258.006 258.739C258.234 258.56 258.501 258.434 258.784 258.372C259.068 258.309 259.362 258.312 259.645 258.378C261.153 258.788 262.071 260.984 263.136 263.507C263.432 264.212 263.727 264.917 264.005 265.523C264.448 264.54 265.054 263.212 266.333 262.885C268.759 262.295 289.429 268.374 295.838 270.504C304.526 273.405 307.197 282.844 308.197 286.399L308.312 286.793C309.296 290.201 308.935 302.819 305.362 308.439C301.969 313.732 293.363 315.092 287.79 315.092Z" fill="#263238"/>
<path d="M414.482 377.099C414.149 377.123 413.815 377.123 413.482 377.099C413.232 377.062 413.007 376.927 412.856 376.724C412.706 376.522 412.642 376.267 412.679 376.017C412.716 375.768 412.85 375.543 413.053 375.392C413.256 375.241 413.51 375.178 413.76 375.214C413.892 375.214 425.235 376.591 435.217 357.484C443.823 341.098 444.233 336.182 444.102 334.936C443.79 335.166 443.38 335.543 443.003 335.887C442.031 336.881 440.887 337.691 439.627 338.279C437.742 339.033 417.399 356.304 413.236 374.493C413.209 374.615 413.158 374.729 413.086 374.83C413.015 374.931 412.923 375.017 412.818 375.083C412.713 375.148 412.596 375.192 412.473 375.212C412.351 375.232 412.225 375.227 412.105 375.198C411.982 375.173 411.866 375.123 411.763 375.053C411.66 374.982 411.572 374.891 411.505 374.785C411.438 374.68 411.392 374.562 411.371 374.439C411.351 374.315 411.355 374.189 411.384 374.067C415.744 355.026 436.693 337.411 438.922 336.509C439.966 336.014 440.911 335.331 441.708 334.494C442.345 333.736 443.179 333.169 444.118 332.855C444.388 332.797 444.67 332.82 444.927 332.923C445.183 333.025 445.404 333.201 445.561 333.429C447.823 336.444 441.102 350.323 436.889 358.32C427.792 375.624 417.662 377.099 414.482 377.099Z" fill="#263238"/>
<path d="M415.925 374.87C415.787 374.869 415.651 374.837 415.526 374.778C415.401 374.718 415.291 374.633 415.203 374.526C415.122 374.431 415.061 374.32 415.023 374.201C414.984 374.081 414.97 373.955 414.981 373.831C414.992 373.706 415.027 373.584 415.085 373.473C415.143 373.362 415.222 373.263 415.318 373.183C415.449 373.084 428.284 362.187 433.841 350.389C433.954 350.173 434.147 350.008 434.379 349.93C434.61 349.852 434.863 349.866 435.084 349.97C435.306 350.073 435.479 350.258 435.568 350.485C435.657 350.713 435.655 350.966 435.562 351.192C429.825 363.383 417.088 374.133 416.547 374.641C416.373 374.789 416.153 374.87 415.925 374.87V374.87Z" fill="#263238"/>
<path d="M413.679 351.978H413.597C413.473 351.97 413.351 351.937 413.24 351.881C413.129 351.825 413.03 351.748 412.949 351.653C412.868 351.559 412.807 351.449 412.769 351.33C412.731 351.211 412.717 351.086 412.728 350.962C414.023 335.379 421.629 319.304 435.333 303.212C435.906 302.524 436.3 302.065 436.464 301.835C436.794 301.306 437.095 300.759 437.365 300.197C438.48 298.099 439.381 296.461 440.644 296.821C441.906 297.182 442.283 298.46 441.938 305.014C441.25 318.124 432.317 343.49 431.94 344.555C431.908 344.684 431.851 344.805 431.77 344.911C431.689 345.016 431.587 345.103 431.471 345.167C431.354 345.23 431.225 345.269 431.093 345.28C430.961 345.29 430.828 345.274 430.702 345.23C430.577 345.186 430.462 345.117 430.365 345.026C430.268 344.935 430.192 344.825 430.14 344.703C430.088 344.581 430.062 344.449 430.065 344.316C430.067 344.184 430.097 344.053 430.153 343.933C430.251 343.67 439.381 317.796 439.988 304.916C440.137 303.035 440.137 301.144 439.988 299.263C439.644 299.804 439.234 300.574 438.972 301.065C438.709 301.557 438.25 302.425 437.955 302.851C437.66 303.277 437.332 303.622 436.693 304.375C423.252 320.172 415.81 335.87 414.548 351.044C414.545 351.28 414.454 351.506 414.294 351.679C414.133 351.851 413.914 351.958 413.679 351.978V351.978Z" fill="#263238"/>
<path d="M414.154 361.384H413.892C413.651 361.312 413.448 361.148 413.329 360.926C413.209 360.705 413.182 360.446 413.253 360.204C418.777 341.294 431.661 317.599 431.792 317.304C431.85 317.195 431.93 317.098 432.026 317.02C432.122 316.941 432.233 316.883 432.352 316.848C432.471 316.813 432.596 316.802 432.719 316.815C432.843 316.829 432.962 316.867 433.07 316.928C433.18 316.986 433.277 317.065 433.355 317.162C433.433 317.258 433.492 317.369 433.527 317.488C433.562 317.607 433.573 317.731 433.559 317.855C433.546 317.978 433.508 318.097 433.447 318.206C433.316 318.451 420.547 342.032 415.072 360.811C414.998 360.99 414.869 361.141 414.705 361.244C414.54 361.347 414.348 361.396 414.154 361.384V361.384Z" fill="#263238"/>
<path d="M408.401 375.182C408.156 375.184 407.921 375.089 407.745 374.92C407.089 374.297 391.747 359.271 393.533 340.508C395.091 324.121 399.074 308.702 402.221 306.686C402.431 306.534 402.674 306.434 402.931 306.394C403.187 306.354 403.45 306.375 403.696 306.457C405.581 307.112 405.975 309.881 406.466 313.405C406.735 316.205 407.363 318.958 408.335 321.598C410.974 327.808 417.351 356.255 413.925 371.659C413.857 371.89 413.704 372.087 413.496 372.209C413.289 372.332 413.042 372.371 412.807 372.319C412.572 372.267 412.365 372.127 412.229 371.929C412.092 371.73 412.036 371.487 412.072 371.249C415.351 356.223 409.171 328.415 406.581 322.335C405.552 319.559 404.88 316.662 404.581 313.716C404.27 311.537 403.893 308.8 403.188 308.358C401.418 309.472 397.156 322.515 395.418 340.737C393.779 358.533 408.909 373.396 409.056 373.51C409.203 373.638 409.306 373.807 409.352 373.996C409.398 374.185 409.384 374.383 409.312 374.563C409.24 374.743 409.113 374.896 408.95 375.002C408.787 375.107 408.595 375.158 408.401 375.149V375.182Z" fill="#263238"/>
<path d="M409.712 372.937C409.53 372.935 409.351 372.882 409.197 372.784C409.043 372.685 408.921 372.545 408.843 372.38C400.648 354.256 399.32 328.808 399.32 328.562C399.311 328.438 399.327 328.313 399.367 328.196C399.407 328.078 399.47 327.969 399.552 327.876C399.635 327.783 399.735 327.707 399.847 327.653C399.959 327.6 400.081 327.569 400.205 327.562V327.562C400.45 327.558 400.687 327.65 400.865 327.819C401.043 327.987 401.147 328.219 401.156 328.464C401.156 328.709 402.549 353.814 410.532 371.609C410.632 371.838 410.638 372.096 410.549 372.329C410.46 372.562 410.283 372.751 410.056 372.855C409.949 372.906 409.831 372.934 409.712 372.937V372.937Z" fill="#263238"/>
<path d="M408.597 326.038C408.356 326.039 408.123 325.948 407.947 325.784C407.77 325.619 407.663 325.394 407.646 325.154C406.187 300.148 416.563 278.567 421.546 268.21C422.46 266.421 423.275 264.583 423.989 262.704C425.087 259.017 426.497 258.395 427.464 258.526C428.89 258.706 430.824 260.443 431.168 273.143C431.611 289.169 426.939 317.19 426.906 317.386C426.886 317.51 426.841 317.629 426.775 317.735C426.709 317.842 426.622 317.934 426.52 318.007C426.418 318.08 426.303 318.132 426.181 318.161C426.058 318.189 425.932 318.193 425.808 318.173C425.684 318.152 425.566 318.108 425.459 318.042C425.353 317.975 425.26 317.889 425.187 317.787C425.114 317.685 425.062 317.57 425.033 317.447C425.005 317.325 425.001 317.199 425.021 317.075C425.021 316.796 429.693 288.939 429.267 273.11C428.955 261.295 427.201 260.328 427.185 260.312C426.5 261.136 426.027 262.115 425.808 263.163C425.073 265.141 424.219 267.073 423.251 268.948C418.333 279.173 408.121 300.443 409.547 324.957C409.554 325.082 409.536 325.207 409.494 325.325C409.453 325.442 409.388 325.551 409.304 325.644C409.22 325.737 409.119 325.812 409.006 325.866C408.893 325.919 408.771 325.95 408.646 325.957L408.597 326.038Z" fill="#263238"/>
<path d="M413.318 347.931C413.083 347.929 412.857 347.841 412.682 347.684C412.507 347.527 412.395 347.312 412.367 347.079C412.056 344.244 413.072 339.918 414.941 332.053C415.875 328.087 417.022 323.155 418.334 317.059C421.073 302.969 423.092 288.749 424.382 274.454C424.411 274.205 424.534 273.976 424.726 273.815C424.918 273.653 425.164 273.571 425.415 273.585C425.539 273.596 425.66 273.631 425.771 273.688C425.882 273.746 425.98 273.825 426.059 273.922C426.139 274.018 426.198 274.129 426.234 274.249C426.269 274.368 426.281 274.494 426.267 274.618C424.974 288.989 422.95 303.286 420.202 317.452C418.875 323.564 417.711 328.497 416.776 332.462C414.973 340.131 413.974 344.342 414.252 346.866C414.28 347.116 414.207 347.366 414.051 347.563C413.894 347.759 413.666 347.886 413.416 347.915L413.318 347.931Z" fill="#263238"/>
<path d="M427.939 381.851C427.735 381.851 427.536 381.785 427.371 381.665C427.206 381.544 427.083 381.374 427.021 381.179C426.95 380.938 426.977 380.679 427.097 380.457C427.217 380.236 427.419 380.072 427.66 380L429.595 379.393C429.501 379.343 429.413 379.282 429.332 379.213C429.147 379.042 429.012 378.823 428.943 378.58C428.873 378.337 428.872 378.08 428.939 377.837C429.263 376.858 429.745 375.94 430.365 375.116L430.578 374.805C427.021 376.149 422.087 377.607 418.694 376.132C418.579 376.084 418.474 376.013 418.386 375.925C418.298 375.836 418.229 375.731 418.182 375.615C418.135 375.499 418.111 375.375 418.111 375.251C418.112 375.126 418.137 375.002 418.186 374.887C418.29 374.656 418.481 374.475 418.717 374.383C418.953 374.291 419.215 374.296 419.448 374.395C422.726 375.805 428.398 373.609 430.283 372.888C430.955 372.626 432.184 372.15 432.84 372.986C433.496 373.822 432.84 374.805 431.955 376.165C431.644 376.624 431.299 377.148 431.053 377.607C431.594 377.476 432.332 377.247 432.922 377.066C434.503 376.486 436.159 376.133 437.84 376.018V376.018C438.889 376.018 439.2 376.526 439.249 376.952C439.38 377.837 439.479 378.41 428.234 381.868L427.939 381.851Z" fill="#263238"/>
<path d="M405.286 374.625C405.131 374.627 404.978 374.588 404.844 374.51C402.254 373.093 399.899 371.286 397.861 369.152C396.304 367.513 395.156 367.07 394.582 367.218C394.477 367.261 394.385 367.333 394.318 367.426C394.252 367.519 394.212 367.628 394.205 367.742C394.178 367.988 394.084 368.221 393.934 368.418C393.784 368.614 393.583 368.766 393.353 368.857C392.452 369.201 391.566 368.48 390.534 367.644L390.271 367.447C390.271 367.562 390.271 367.677 390.271 367.775C390.435 369.692 390.698 372.576 388.632 373.527C388.518 373.578 388.395 373.607 388.27 373.611C388.145 373.615 388.02 373.595 387.903 373.55C387.785 373.506 387.678 373.44 387.587 373.354C387.495 373.268 387.422 373.166 387.37 373.051C387.318 372.937 387.29 372.814 387.286 372.689C387.282 372.564 387.302 372.439 387.346 372.322C387.391 372.205 387.457 372.098 387.543 372.006C387.629 371.915 387.731 371.841 387.845 371.79C388.681 371.413 388.485 369.233 388.37 367.939C388.255 366.644 388.173 365.596 388.96 365.153C389.747 364.711 390.681 365.366 391.697 366.169L392.484 366.792C392.621 366.46 392.83 366.162 393.097 365.921C393.363 365.68 393.681 365.502 394.025 365.399C394.861 365.153 396.631 365.153 399.156 367.857C401.052 369.808 403.229 371.465 405.614 372.773C405.727 372.83 405.827 372.909 405.909 373.005C405.991 373.102 406.053 373.214 406.091 373.334C406.129 373.455 406.143 373.582 406.131 373.708C406.12 373.833 406.083 373.956 406.024 374.067C405.957 374.215 405.855 374.343 405.726 374.44C405.597 374.537 405.446 374.601 405.286 374.625V374.625Z" fill="#263238"/>
<path d="M76.5 373.461C74.8058 373.46 73.1136 373.345 71.4349 373.117C63.9931 372.117 53.1417 368.201 43.7656 355.682C28.2099 334.822 27.6034 317.845 27.3739 310.586C27.3739 309.488 27.3739 308.636 27.2264 308.013C26.8166 304.736 27.2264 300.869 29.1442 300.066C29.6359 299.836 30.6358 299.672 31.7013 300.967C32.3914 301.929 32.8001 303.064 32.8815 304.244C33.2257 306.342 33.6191 308.734 38.258 311.438C47.9619 317.059 80.2865 337.804 89.2364 368.611C89.2843 368.734 89.3061 368.865 89.3003 368.997C89.2946 369.129 89.2613 369.259 89.2027 369.377C89.1442 369.496 89.0616 369.6 88.9602 369.685C88.8588 369.77 88.7408 369.832 88.6139 369.869C88.4869 369.906 88.3537 369.915 88.2228 369.898C88.0919 369.88 87.9661 369.835 87.8534 369.766C87.7408 369.697 87.6438 369.605 87.5686 369.497C87.4935 369.388 87.4418 369.265 87.4169 369.135C78.6637 339.017 46.8473 318.615 37.3073 313.077C31.8816 309.93 31.3735 306.817 31.0129 304.556C30.9632 303.726 30.6977 302.924 30.2424 302.229C30.1328 302.071 29.9866 301.941 29.8163 301.852C29.5048 302.049 28.6524 304.179 29.1114 307.833C29.1114 308.488 29.2261 309.472 29.2753 310.57C29.5212 317.649 30.1113 334.215 45.3065 354.6C54.2564 366.628 64.5504 370.299 71.6152 371.282C76.0805 371.94 80.6336 371.672 84.9909 370.495C85.23 370.418 85.4902 370.438 85.7144 370.551C85.9387 370.665 86.1088 370.863 86.1875 371.101C86.2282 371.22 86.2448 371.345 86.2362 371.47C86.2276 371.595 86.194 371.716 86.1375 371.828C86.0809 371.939 86.0025 372.039 85.9069 372.119C85.8113 372.2 85.7005 372.261 85.581 372.298C82.6287 373.135 79.568 373.527 76.5 373.461V373.461Z" fill="#263238"/>
<path d="M85.483 370.118H85.3191C84.7126 370.004 70.2223 367.415 54.6009 353.486C44.9208 344.529 37.8799 333.093 34.2424 320.418C34.2133 320.296 34.2085 320.17 34.2282 320.047C34.2479 319.923 34.2917 319.805 34.3572 319.699C34.4226 319.592 34.5084 319.499 34.6097 319.426C34.7109 319.353 34.8256 319.3 34.9472 319.271C35.0688 319.242 35.195 319.237 35.3185 319.257C35.442 319.276 35.5604 319.32 35.6669 319.386C35.7735 319.451 35.8661 319.537 35.9395 319.638C36.0129 319.739 36.0656 319.854 36.0946 319.976C39.622 332.287 46.4595 343.396 55.8631 352.093C71.0419 365.645 85.4994 368.25 85.6469 368.267C85.8924 368.315 86.1098 368.456 86.2535 368.66C86.3971 368.865 86.4559 369.117 86.4173 369.365C86.375 369.58 86.2582 369.774 86.0873 369.911C85.9164 370.049 85.7025 370.122 85.483 370.118V370.118Z" fill="#263238"/>
<path d="M94.7606 369.791C94.5128 369.812 94.2665 369.735 94.0759 369.575C93.8853 369.415 93.766 369.186 93.7443 368.938C93.7226 368.691 93.8002 368.445 93.96 368.254C94.1199 368.063 94.3489 367.944 94.5967 367.923C94.777 367.923 112.628 364.17 113.3 331.086C114.119 294.593 106.743 277.108 102.17 272.536C101.219 271.57 100.383 271.111 99.9732 271.275C98.2192 271.963 98.0717 280.009 97.9898 284.81C97.8586 291.233 94.7114 297.411 90.4823 305.981C89.0235 308.898 87.3843 312.208 85.6632 315.813C79.254 329.594 82.6963 353.371 82.729 353.601C82.7636 353.73 82.7704 353.865 82.7491 353.997C82.7278 354.129 82.6788 354.256 82.6053 354.367C82.5318 354.479 82.4355 354.574 82.3227 354.647C82.2099 354.719 82.0832 354.766 81.9507 354.786C81.8183 354.806 81.6832 354.797 81.5543 354.761C81.4253 354.725 81.3055 354.662 81.2025 354.577C81.0996 354.491 81.0159 354.385 80.9569 354.264C80.898 354.144 80.8651 354.013 80.8604 353.879C80.7129 352.896 77.287 329.299 83.942 315.01C85.5812 311.323 87.3351 308.013 88.8596 305.08C93.0231 296.739 96.0391 290.725 96.1539 284.728C96.3014 276.207 96.6129 270.537 99.3339 269.456C101.186 268.718 102.989 270.554 103.579 271.094C109.923 277.502 115.988 298.525 115.267 331.02C114.48 365.759 95.7933 369.528 95.0065 369.676L94.7606 369.791Z" fill="#263238"/>
<path d="M72.6151 378.246C67.0255 378.05 66.8288 377.066 66.7305 376.608C66.6321 376.149 67.0255 375.362 67.9927 374.969C69.3493 374.363 70.8435 374.131 72.3201 374.297C73.4227 374.416 74.538 374.31 75.5984 373.986C78.1064 373.216 78.4998 372.265 78.4998 372.265C78.5286 372.146 78.5808 372.033 78.6533 371.934C78.7258 371.834 78.8172 371.75 78.9223 371.686C79.0274 371.622 79.1441 371.58 79.2656 371.561C79.3872 371.542 79.5113 371.548 79.6308 371.577C79.8756 371.643 80.0856 371.8 80.217 372.017C80.3483 372.234 80.3908 372.493 80.3357 372.74C80.3357 373.052 79.7292 374.707 76.1558 375.805C74.8662 376.193 73.5132 376.327 72.1726 376.198C71.4706 376.108 70.76 376.108 70.058 376.198C70.8284 376.296 71.6972 376.362 72.6315 376.395C72.8837 376.395 73.1255 376.495 73.3038 376.673C73.4821 376.851 73.5822 377.093 73.5822 377.345C73.5822 377.597 73.4821 377.839 73.3038 378.017C73.1255 378.195 72.8837 378.295 72.6315 378.295L72.6151 378.246Z" fill="#263238"/>
<path d="M101.35 372.855C101.221 372.855 101.094 372.829 100.976 372.778C100.857 372.728 100.75 372.653 100.662 372.56C100.483 372.382 100.383 372.14 100.383 371.888C100.383 371.636 100.483 371.395 100.662 371.216C101.262 370.667 101.811 370.064 102.301 369.414L102.202 369.512C101.53 370.315 100.563 371.511 99.2027 370.84C98.6697 370.519 98.2055 370.097 97.8369 369.596C97.4683 369.095 97.2027 368.527 97.0554 367.923C96.9967 367.677 97.038 367.418 97.1702 367.203C97.3023 366.988 97.5146 366.834 97.7602 366.776C98.0058 366.717 98.2647 366.758 98.4799 366.89C98.6951 367.023 98.849 367.235 98.9076 367.48C99.0851 368.153 99.5055 368.737 100.088 369.119C100.285 368.809 100.51 368.519 100.76 368.25C101.448 367.448 102.612 366.087 104.038 367.038C104.24 367.177 104.408 367.36 104.53 367.572C104.652 367.785 104.725 368.022 104.743 368.267C104.841 369.791 102.874 371.79 102.022 372.577C101.84 372.749 101.601 372.848 101.35 372.855Z" fill="#263238"/>
<path d="M94.646 365.645C94.5215 365.669 94.3934 365.669 94.269 365.645C94.1531 365.595 94.0485 365.523 93.9614 365.432C93.8743 365.341 93.8065 365.233 93.7621 365.115C93.7177 364.997 93.6976 364.872 93.703 364.746C93.7084 364.62 93.7392 364.497 93.7936 364.383C102.995 341.356 106.449 316.435 103.858 291.774C103.83 291.523 103.902 291.27 104.059 291.071C104.215 290.872 104.443 290.742 104.694 290.709C104.818 290.693 104.944 290.702 105.065 290.736C105.185 290.77 105.298 290.827 105.396 290.905C105.493 290.983 105.575 291.08 105.634 291.19C105.694 291.3 105.731 291.42 105.743 291.545C110.464 331.495 95.6623 364.825 95.5147 365.17C95.4276 365.321 95.3004 365.445 95.1471 365.529C94.9939 365.613 94.8205 365.653 94.646 365.645V365.645Z" fill="#263238"/>
<path d="M81.2046 350.012C81.0295 350.014 80.8573 349.968 80.7069 349.878C80.5565 349.789 80.4337 349.659 80.3522 349.504C80.2375 349.258 67.8289 324.613 71.8285 287.694C73.4366 271.644 77.1512 255.876 82.8766 240.796C84.778 235.536 86.0238 232.062 85.6795 229.899C85.4992 228.784 84.0404 218.952 86.745 217.74C87.2859 217.494 88.1711 217.461 89.1874 218.707C92.0395 222.213 100.662 248.76 100.153 270.668C100.153 270.793 100.129 270.917 100.081 271.032C100.033 271.147 99.9633 271.252 99.875 271.341C99.7867 271.429 99.6819 271.499 99.5666 271.547C99.4512 271.594 99.3276 271.619 99.2027 271.619C99.0779 271.619 98.9543 271.594 98.8389 271.547C98.7236 271.499 98.6188 271.429 98.5305 271.341C98.4422 271.252 98.3722 271.147 98.3244 271.032C98.2766 270.917 98.252 270.793 98.252 270.668C98.7602 248.579 89.9086 222.639 87.7121 219.87L87.4499 219.592C86.9581 220.64 86.7778 224.639 87.5646 229.571C87.9744 232.209 86.6631 235.863 84.6633 241.402C78.9993 256.343 75.3181 271.961 73.7136 287.858C69.7796 324.187 81.9094 348.357 82.0406 348.603C82.0997 348.713 82.136 348.834 82.1473 348.959C82.1587 349.084 82.1448 349.21 82.1066 349.329C82.0684 349.448 82.0065 349.558 81.9248 349.653C81.8431 349.748 81.7431 349.826 81.6308 349.881C81.5011 349.958 81.355 350.003 81.2046 350.012Z" fill="#263238"/>
<path d="M81.5163 328.709C81.2698 328.709 81.0328 328.614 80.8554 328.443C80.678 328.271 80.5741 328.038 80.5656 327.792C80.5656 327.448 80.3525 319.467 83.4506 302.196C86.5486 284.924 90.0073 244.04 90.0073 243.614C90.0361 243.365 90.1591 243.136 90.3511 242.975C90.5431 242.813 90.7895 242.731 91.04 242.745C91.1644 242.756 91.2854 242.791 91.3961 242.848C91.5067 242.906 91.6047 242.986 91.6841 243.082C91.7636 243.178 91.8229 243.289 91.8587 243.409C91.8944 243.528 91.9059 243.654 91.8923 243.778C91.8923 244.187 88.3681 285.334 85.3356 302.54C82.3031 319.746 82.4671 327.644 82.4835 327.726C82.4838 327.979 82.3869 328.221 82.213 328.405C82.0391 328.588 81.8013 328.697 81.5491 328.709H81.5163Z" fill="#263238"/>
<path d="M58.0762 327.448C57.9398 327.446 57.8053 327.416 57.6811 327.36C57.557 327.303 57.4459 327.221 57.355 327.12C57.2238 326.956 43.6187 311.176 40.2912 289.988C36.9636 268.8 35.5539 261.737 33.4066 258.69C32.1609 256.903 32.1117 254.986 33.2919 253.888C33.9312 253.282 36.5702 251.676 42.3893 256.461C50.1098 262.77 68.3047 285.957 72.8944 301.082C72.9498 301.318 72.9128 301.566 72.7911 301.776C72.6694 301.985 72.4722 302.141 72.2397 302.21C72.0072 302.279 71.7571 302.256 71.5406 302.147C71.3241 302.038 71.1575 301.85 71.0749 301.622C66.6655 287.087 48.569 263.933 41.1763 257.936C37.4882 254.921 35.2097 254.658 34.6196 255.281C34.259 255.625 34.259 256.527 35.013 257.592C37.4062 260.984 38.7667 267.85 42.209 289.693C45.4873 310.34 58.7155 325.743 58.8466 325.874C58.9287 325.969 58.9913 326.079 59.0308 326.198C59.0703 326.316 59.0859 326.442 59.0768 326.567C59.0676 326.692 59.0339 326.813 58.9775 326.925C58.9212 327.037 58.8432 327.137 58.7483 327.218C58.5615 327.377 58.3212 327.459 58.0762 327.448V327.448Z" fill="#263238"/>
<path d="M78.9265 344.785C78.7857 344.786 78.6465 344.755 78.519 344.696C78.3914 344.636 78.2787 344.549 78.1889 344.441C78.1889 344.342 70.1897 334.773 59.6662 319.484C49.1427 304.195 43.422 276.436 43.1761 275.24C43.1523 275.118 43.1529 274.991 43.1779 274.869C43.203 274.747 43.2519 274.63 43.3219 274.527C43.392 274.423 43.4817 274.335 43.5861 274.266C43.6904 274.197 43.8073 274.149 43.9301 274.126C44.1751 274.082 44.4277 274.134 44.6353 274.271C44.843 274.409 44.9896 274.621 45.0447 274.863C45.0447 275.158 50.8638 303.31 61.2398 318.402C71.6158 333.494 79.5822 343.113 79.6641 343.212C79.8219 343.408 79.8965 343.659 79.872 343.91C79.8475 344.161 79.7258 344.393 79.533 344.555C79.364 344.7 79.1493 344.782 78.9265 344.785V344.785Z" fill="#263238"/>
<path d="M51.2568 268.227C51.0532 268.221 50.8564 268.152 50.6945 268.028C50.5326 267.905 50.4139 267.733 50.3552 267.538C50.3552 267.342 44.3231 247.252 42.4544 234.175C42.0118 231.013 41.5857 228.424 41.2414 226.293C40.3235 220.738 39.9793 218.641 41.0775 217.592C41.3715 217.348 41.7213 217.18 42.0958 217.102C42.4703 217.025 42.8581 217.041 43.2248 217.15C46.3065 217.756 72.2546 237.551 78.5163 260.41C78.5528 260.532 78.5646 260.66 78.5508 260.786C78.537 260.913 78.498 261.035 78.436 261.146C78.374 261.257 78.2904 261.355 78.19 261.433C78.0896 261.511 77.9746 261.569 77.8517 261.601C77.7287 261.634 77.6005 261.642 77.4745 261.625C77.3484 261.607 77.2272 261.565 77.118 261.499C77.0088 261.434 76.9138 261.348 76.8386 261.245C76.7634 261.142 76.7096 261.026 76.6804 260.902C70.7302 239.239 45.7 219.559 42.8642 219.001C42.6962 218.971 42.5241 218.971 42.3561 219.001C42.0282 219.477 42.5364 222.508 43.1101 226.031C43.4543 228.145 43.8805 230.767 44.3395 233.946C46.1753 246.891 52.1092 266.834 52.1747 267.03C52.246 267.272 52.2187 267.531 52.0989 267.752C51.9791 267.973 51.7765 268.138 51.5354 268.21C51.4443 268.233 51.3499 268.238 51.2568 268.227V268.227Z" fill="#263238"/>
<path d="M72.1566 296.559C71.9348 296.563 71.7189 296.487 71.5478 296.346C71.3766 296.205 71.2612 296.007 71.2223 295.789C69.4747 288.484 66.3541 281.577 62.0265 275.437C54.4208 264.36 49.7983 239.649 49.618 238.6C49.5942 238.477 49.5948 238.351 49.6198 238.229C49.6449 238.106 49.6938 237.99 49.7638 237.887C49.8339 237.783 49.9236 237.694 50.028 237.626C50.1323 237.557 50.2492 237.509 50.372 237.486C50.6211 237.447 50.8757 237.505 51.0831 237.648C51.2906 237.792 51.435 238.009 51.4866 238.256C51.4866 238.502 56.2075 263.622 63.5837 274.306C68.0899 280.654 71.3189 287.816 73.091 295.396C73.1145 295.519 73.1131 295.645 73.0868 295.767C73.0606 295.89 73.01 296.005 72.9382 296.108C72.8663 296.21 72.7746 296.297 72.6685 296.363C72.5624 296.43 72.4441 296.474 72.3205 296.494L72.1566 296.559Z" fill="#263238"/>
<path d="M83.3517 243.205C83.2268 243.2 83.104 243.172 82.9903 243.12C82.8765 243.068 82.7741 242.994 82.6889 242.903C82.6036 242.812 82.5372 242.705 82.4934 242.588C82.4497 242.471 82.4294 242.346 82.4338 242.221C82.778 233.16 81.6633 227.178 78.4506 220.919L78.0736 220.214C71.7463 207.777 64.3209 192.832 63.239 187.654C62.5342 184.377 61.4359 183.049 60.9114 183.033C60.7966 183.033 59.4361 183.148 57.7806 188.637C54.9612 197.912 61.5835 232.471 61.6654 232.881C61.7132 233.129 61.6607 233.385 61.5193 233.594C61.3778 233.803 61.1592 233.947 60.9114 233.995C60.6636 234.043 60.4069 233.991 60.1979 233.849C59.9889 233.708 59.8446 233.489 59.7968 233.242C59.5181 231.8 53.0106 197.863 55.9611 188.146C57.3708 183.459 58.9936 181.181 60.8786 181.181H60.895C63.3538 181.28 64.5176 185.065 64.9929 187.31C66.1731 192.898 75.9754 212.152 79.7455 219.395L80.1061 220.116C83.4828 226.67 84.663 232.979 84.3024 242.385C84.2706 242.614 84.1565 242.823 83.9815 242.974C83.8066 243.125 83.5827 243.207 83.3517 243.205V243.205Z" fill="#263238"/>
<path d="M76.5657 258.379C76.3282 258.376 76.1 258.286 75.9247 258.126C75.7494 257.965 75.6391 257.746 75.615 257.51C75.615 257.395 74.697 245.368 73.7955 237.699C72.894 230.03 63.9605 215.905 63.8293 215.774C63.6946 215.556 63.6516 215.294 63.7101 215.045C63.7685 214.796 63.9234 214.581 64.1408 214.446C64.3581 214.311 64.6201 214.269 64.8691 214.327C65.1181 214.385 65.3337 214.54 65.4685 214.758C65.8455 215.347 74.779 229.505 75.7133 237.469C76.6477 245.433 77.5328 257.248 77.5492 257.363C77.5673 257.612 77.4863 257.859 77.3237 258.049C77.161 258.239 76.9299 258.358 76.6805 258.379H76.5657Z" fill="#263238"/>
</svg>
