<svg width="282" height="224" viewBox="0 0 282 224" fill="none" xmlns="http://www.w3.org/2000/svg">
<path d="M257.591 141.145C257.591 141.145 251.511 137.777 251.061 145.405C250.611 153.033 249.483 202.65 249.483 202.65" stroke="#263238" stroke-width="2" stroke-linecap="round" stroke-linejoin="round"/>
<path d="M247.885 146.08C247.885 146.08 252.832 157.081 250.591 201.975" stroke="#263238" stroke-width="2" stroke-linecap="round" stroke-linejoin="round"/>
<path d="M252.777 142.678C252.777 142.678 250.447 144.157 249.127 142.466C247.806 140.775 250.022 137.649 248.068 136.317C246.114 134.986 242.736 137.018 242.736 137.018C242.736 137.018 245.333 137.777 245.248 139.192C245.164 140.607 243.913 141.164 243.764 140.523C243.616 139.882 242.355 136.791 240.242 138.088C239.635 138.446 239.107 138.924 238.689 139.492C238.272 140.06 237.974 140.706 237.814 141.391C237.814 141.391 242.726 140.868 243.022 142.713C243.319 144.557 241.009 142.392 238.981 142.274C236.953 142.155 235.103 142.451 235.236 143.674C235.281 144.756 235.217 145.84 235.043 146.909C236.153 145.987 237.557 145.494 239.001 145.518C241.232 145.646 241.148 147.061 239.12 146.943C237.091 146.825 235.35 148.748 235.35 148.748C235.35 148.748 237.2 151.898 239.55 153.457C241.9 155.015 242.745 154.443 243.013 153.254C243.28 152.066 242.656 148.975 244.076 149.058C245.496 149.142 241.726 154.398 243.537 154.709C245.347 155.02 246.807 154.492 247.282 153.304L247.776 152.115C247.776 152.115 247.143 149.039 247.42 147.836C247.697 146.632 248.028 147.87 248.35 149.315C248.672 150.759 248.874 154.216 249.493 154.048C250.111 153.881 252.095 151.361 252.56 150.375C253.025 149.389 249.948 146.366 249.982 145.76C250.017 145.153 252.391 146.307 252.762 146.938C253.031 147.418 253.274 147.912 253.49 148.417C253.49 148.417 254.974 147.49 254.934 144.65C254.894 141.81 252.777 142.678 252.777 142.678Z" fill="white"/>
<path opacity="0.3" d="M252.777 142.678C252.777 142.678 250.447 144.157 249.127 142.466C247.806 140.775 250.022 137.649 248.068 136.317C246.114 134.986 242.736 137.018 242.736 137.018C242.736 137.018 245.333 137.777 245.248 139.192C245.164 140.607 243.913 141.164 243.764 140.523C243.616 139.882 242.355 136.791 240.242 138.088C239.635 138.446 239.107 138.924 238.689 139.492C238.272 140.06 237.974 140.706 237.814 141.391C237.814 141.391 242.726 140.868 243.022 142.713C243.319 144.557 241.009 142.392 238.981 142.274C236.953 142.155 235.103 142.451 235.236 143.674C235.281 144.756 235.217 145.84 235.043 146.909C236.153 145.987 237.557 145.494 239.001 145.518C241.232 145.646 241.148 147.061 239.12 146.943C237.091 146.825 235.35 148.748 235.35 148.748C235.35 148.748 237.2 151.898 239.55 153.457C241.9 155.015 242.745 154.443 243.013 153.254C243.28 152.066 242.656 148.975 244.076 149.058C245.496 149.142 241.726 154.398 243.537 154.709C245.347 155.02 246.807 154.492 247.282 153.304L247.776 152.115C247.776 152.115 247.143 149.039 247.42 147.836C247.697 146.632 248.028 147.87 248.35 149.315C248.672 150.759 248.874 154.216 249.493 154.048C250.111 153.881 252.095 151.361 252.56 150.375C253.025 149.389 249.948 146.366 249.982 145.76C250.017 145.153 252.391 146.307 252.762 146.938C253.031 147.418 253.274 147.912 253.49 148.417C253.49 148.417 254.974 147.49 254.934 144.65C254.894 141.81 252.777 142.678 252.777 142.678Z" fill="#263238"/>
<path d="M240.984 149.339C242.503 147.471 244.734 144.941 246.609 143.733" stroke="#263238" stroke-linecap="round" stroke-linejoin="round"/>
<path d="M239.224 151.617C239.224 151.617 239.614 151.075 240.248 150.266" stroke="#263238" stroke-linecap="round" stroke-linejoin="round"/>
<path d="M247.598 144.197C247.598 144.197 249.854 147.372 250.269 150.641" stroke="#263238" stroke-linecap="round" stroke-linejoin="round"/>
<path d="M245.046 146.075C245.046 146.075 245.679 145.71 245.442 149.749" stroke="#263238" stroke-linecap="round" stroke-linejoin="round"/>
<path d="M246.693 142.308C246.693 142.308 247.979 141.164 247.301 138.896" stroke="#263238" stroke-linecap="round" stroke-linejoin="round"/>
<path d="M244.952 144.246L244.032 142.57" stroke="#263238" stroke-linecap="round" stroke-linejoin="round"/>
<path d="M243.018 145.957C243.018 145.957 240.099 143.758 238.274 143.649" stroke="#263238" stroke-linecap="round" stroke-linejoin="round"/>
<path d="M261.068 136.687C261.068 136.687 260.974 140.02 258.362 140.183C255.75 140.346 254.138 136.012 251.466 137.052C248.795 138.093 248.538 142.851 248.538 142.851C248.538 142.851 251.071 140.775 252.436 141.825C253.801 142.875 253.485 144.488 252.748 144.231C252.011 143.975 248.038 143.092 247.905 146.08C247.85 146.931 247.968 147.785 248.253 148.589C248.538 149.393 248.983 150.132 249.562 150.76C249.562 150.76 252.387 145.503 254.444 146.46C256.502 147.416 252.748 148.25 251.244 150.192C249.74 152.135 248.771 154.181 250.101 154.887C251.218 155.579 252.262 156.382 253.218 157.283C253.218 157.283 252.861 154.532 254.514 152.397C256.166 150.262 257.526 151.307 256.027 153.25C254.528 155.192 255.27 158.239 255.27 158.239C255.27 158.239 259.693 158.545 262.859 157.253C266.025 155.961 266.044 154.744 265.025 153.649C264.006 152.554 260.484 151.09 261.533 149.729C262.582 148.368 265.292 155.715 266.841 154.117C268.389 152.52 268.849 150.71 267.983 149.423L267.113 148.136C267.113 148.136 263.591 146.657 262.572 145.577C261.553 144.498 263.022 144.991 264.689 145.651C266.356 146.312 269.962 148.467 270.219 147.737C270.477 147.007 269.294 143.299 268.622 142.175C267.949 141.051 262.814 142.047 262.23 141.598C261.647 141.15 264.422 139.567 265.307 139.626C266.193 139.685 267.286 139.897 267.286 139.897C267.286 139.897 267.365 137.792 264.486 135.888C261.607 133.985 261.068 136.687 261.068 136.687Z" fill="white"/>
<path opacity="0.2" d="M261.068 136.687C261.068 136.687 260.974 140.02 258.362 140.183C255.75 140.346 254.138 136.012 251.466 137.052C248.795 138.093 248.538 142.851 248.538 142.851C248.538 142.851 251.071 140.775 252.436 141.825C253.801 142.875 253.485 144.488 252.748 144.231C252.011 143.975 248.038 143.092 247.905 146.08C247.85 146.931 247.968 147.785 248.253 148.589C248.538 149.393 248.983 150.132 249.562 150.76C249.562 150.76 252.387 145.503 254.444 146.46C256.502 147.416 252.748 148.25 251.244 150.192C249.74 152.135 248.771 154.181 250.101 154.887C251.218 155.579 252.262 156.382 253.218 157.283C253.218 157.283 252.861 154.532 254.514 152.397C256.166 150.262 257.526 151.307 256.027 153.25C254.528 155.192 255.27 158.239 255.27 158.239C255.27 158.239 259.693 158.545 262.859 157.253C266.025 155.961 266.044 154.744 265.025 153.649C264.006 152.554 260.484 151.09 261.533 149.729C262.582 148.368 265.292 155.715 266.841 154.117C268.389 152.52 268.849 150.71 267.983 149.423L267.113 148.136C267.113 148.136 263.591 146.657 262.572 145.577C261.553 144.498 263.022 144.991 264.689 145.651C266.356 146.312 269.962 148.467 270.219 147.737C270.477 147.007 269.294 143.299 268.622 142.175C267.949 141.051 262.814 142.047 262.23 141.598C261.647 141.15 264.422 139.567 265.307 139.626C266.193 139.685 267.286 139.897 267.286 139.897C267.286 139.897 267.365 137.792 264.486 135.888C261.607 133.985 261.068 136.687 261.068 136.687Z" fill="#263238"/>
<path d="M259.717 152.998C258.876 150.207 257.857 146.253 257.927 143.561" stroke="#263238" stroke-linecap="round" stroke-linejoin="round"/>
<path d="M260.806 156.302C260.806 156.302 260.529 155.547 260.148 154.364" stroke="#263238" stroke-linecap="round" stroke-linejoin="round"/>
<path d="M259.064 142.89C259.064 142.89 263.789 142.806 267.355 144.616" stroke="#263238" stroke-linecap="round" stroke-linejoin="round"/>
<path d="M259.213 146.716C259.213 146.716 259.272 145.839 263.17 148.832" stroke="#263238" stroke-linecap="round" stroke-linejoin="round"/>
<path d="M256.561 142.515C256.561 142.515 256.294 140.449 253.549 139.582" stroke="#263238" stroke-linecap="round" stroke-linejoin="round"/>
<path d="M257.309 145.568L254.999 145.341" stroke="#263238" stroke-linecap="round" stroke-linejoin="round"/>
<path d="M257.709 148.659C257.709 148.659 253.51 150.079 252.159 151.825" stroke="#263238" stroke-linecap="round" stroke-linejoin="round"/>
<path d="M233.045 158.875C233.045 158.875 246.332 167.632 246.104 201.526" stroke="#263238" stroke-width="2" stroke-linecap="round" stroke-linejoin="round"/>
<path d="M249.428 156.563C249.428 156.563 249.003 160.399 245.966 160.345C242.928 160.291 241.484 155.128 238.308 156.08C235.132 157.031 234.376 162.49 234.376 162.49C234.376 162.49 237.497 160.335 238.976 161.671C240.455 163.007 239.931 164.842 239.105 164.477C238.279 164.112 233.782 162.721 233.342 166.158C233.199 167.136 233.256 168.133 233.512 169.088C233.767 170.044 234.214 170.937 234.826 171.715C234.826 171.715 238.585 165.912 240.866 167.208C243.146 168.505 238.739 169.117 236.819 171.217C234.9 173.318 233.599 175.591 235.053 176.527C236.279 177.429 237.41 178.454 238.427 179.584C238.427 179.584 238.274 176.375 240.406 174.067C242.538 171.759 243.987 173.081 242.073 175.191C240.158 177.302 240.727 180.881 240.727 180.881C240.727 180.881 245.807 181.65 249.582 180.467C253.356 179.284 253.49 177.874 252.416 176.522C251.343 175.171 247.42 173.14 248.761 171.671C250.101 170.201 252.53 178.929 254.469 177.233C256.408 175.536 257.111 173.49 256.23 171.922L255.305 170.354C255.305 170.354 251.382 168.328 250.309 166.972C249.235 165.616 250.883 166.341 252.743 167.258C254.603 168.175 258.565 171.005 258.926 170.182C259.287 169.358 258.273 164.99 257.625 163.614C256.977 162.238 250.937 162.924 250.304 162.352C249.671 161.78 253.03 160.212 254.044 160.379C254.799 160.505 255.547 160.669 256.284 160.872C256.284 160.872 256.571 158.447 253.43 155.981C250.289 153.516 249.428 156.563 249.428 156.563Z" fill="white"/>
<path opacity="0.3" d="M249.428 156.563C249.428 156.563 249.003 160.399 245.966 160.345C242.928 160.291 241.484 155.128 238.308 156.08C235.132 157.031 234.376 162.49 234.376 162.49C234.376 162.49 237.497 160.335 238.976 161.671C240.455 163.007 239.931 164.842 239.105 164.477C238.279 164.112 233.782 162.721 233.342 166.158C233.199 167.136 233.256 168.133 233.512 169.088C233.767 170.044 234.214 170.937 234.826 171.715C234.826 171.715 238.585 165.912 240.866 167.208C243.146 168.505 238.739 169.117 236.819 171.217C234.9 173.318 233.599 175.591 235.053 176.527C236.279 177.429 237.41 178.454 238.427 179.584C238.427 179.584 238.274 176.375 240.406 174.067C242.538 171.759 243.987 173.081 242.073 175.191C240.158 177.302 240.727 180.881 240.727 180.881C240.727 180.881 245.807 181.65 249.582 180.467C253.356 179.284 253.49 177.874 252.416 176.522C251.343 175.171 247.42 173.14 248.761 171.671C250.101 170.201 252.53 178.929 254.469 177.233C256.408 175.536 257.111 173.49 256.23 171.922L255.305 170.354C255.305 170.354 251.382 168.328 250.309 166.972C249.235 165.616 250.883 166.341 252.743 167.258C254.603 168.175 258.565 171.005 258.926 170.182C259.287 169.358 258.273 164.99 257.625 163.614C256.977 162.238 250.937 162.924 250.304 162.352C249.671 161.78 253.03 160.212 254.044 160.379C254.799 160.505 255.547 160.669 256.284 160.872C256.284 160.872 256.571 158.447 253.43 155.981C250.289 153.516 249.428 156.563 249.428 156.563Z" fill="#263238"/>
<path d="M246.332 175.255C245.62 171.962 244.823 167.302 245.15 164.201" stroke="#263238" stroke-linecap="round" stroke-linejoin="round"/>
<path d="M247.272 179.17C247.272 179.17 247.024 178.273 246.693 176.873" stroke="#263238" stroke-linecap="round" stroke-linejoin="round"/>
<path d="M246.53 163.51C246.53 163.51 251.971 163.86 255.928 166.286" stroke="#263238" stroke-linecap="round" stroke-linejoin="round"/>
<path d="M246.337 167.948C246.337 167.948 246.49 166.962 250.705 170.759" stroke="#263238" stroke-linecap="round" stroke-linejoin="round"/>
<path d="M243.676 162.864C243.676 162.864 243.562 160.458 240.48 159.196" stroke="#263238" stroke-linecap="round" stroke-linejoin="round"/>
<path d="M244.249 166.455L241.608 165.976" stroke="#263238" stroke-linecap="round" stroke-linejoin="round"/>
<path d="M244.423 170.063C244.423 170.063 239.441 171.301 237.715 173.189" stroke="#263238" stroke-linecap="round" stroke-linejoin="round"/>
<path d="M238.224 185.59C238.224 185.59 246.782 192.099 247.682 201.753L245.906 169.427" stroke="#263238" stroke-width="2" stroke-linecap="round" stroke-linejoin="round"/>
<path d="M258.941 180.876C247.682 178.855 247.682 201.753 247.682 201.753" stroke="#263238" stroke-width="2" stroke-linecap="round" stroke-linejoin="round"/>
<path d="M249.033 201.526C249.033 201.526 242.503 154.162 261.4 154.162" stroke="#263238" stroke-width="2" stroke-linecap="round" stroke-linejoin="round"/>
<path d="M254.652 179.51C253.114 177.79 249.844 177.79 247.925 182.198C246.005 186.606 247.732 185.837 247.732 185.837C247.732 185.837 251.382 184.688 253.668 183.919C255.953 183.149 259.05 181.236 259.243 182.39C259.436 183.544 257.704 184.688 255.587 185.072C253.47 185.457 247.9 186.985 248.474 188.139C249.048 189.293 250.398 192.735 250.398 192.735C252.041 191.346 253.775 190.066 255.587 188.904C258.09 187.37 259.628 187.947 258.283 189.668C256.937 191.389 253.089 193.312 253.861 195.609C254.632 197.907 259.262 200.787 259.262 200.787C259.262 200.787 259.836 195.994 261.187 194.46C262.537 192.927 262.532 194.653 262.146 197.335C261.953 198.477 261.824 199.63 261.76 200.787L267.142 202.7C268.023 201.364 268.986 200.084 270.026 198.868L271.016 197.912C271.016 197.912 266.786 194.268 266.593 191.995C266.4 189.722 269.477 191.995 270.437 192.38C271.397 192.764 272.935 195.442 272.935 195.442C272.935 195.442 273.9 191.039 274.092 189.525L274.285 187.991C274.285 187.991 270.244 186.458 268.706 186.458C267.167 186.458 266.4 187.607 266.4 186.073C266.4 184.54 267.939 183.583 269.67 183.776C271.237 184.034 272.781 184.418 274.285 184.924C274.285 184.924 275.438 183.963 275.052 181.088C274.666 178.214 273.707 178.214 271.401 178.983C269.096 179.752 267.553 181.448 265.822 181.448C264.09 181.448 265.055 179.343 266.207 178.766C267.36 178.189 270.244 177.04 270.823 176.848C271.401 176.656 267.746 173.973 265.822 173.594C263.897 173.214 261.409 174.58 261.592 176.468C261.958 180.472 256.19 181.261 254.652 179.51Z" fill="white"/>
<path d="M267.029 199.243C267.088 199.82 267.128 200.402 267.148 200.979" stroke="#263238" stroke-linecap="round" stroke-linejoin="round"/>
<path d="M263.166 185.487C264.855 189.283 266.071 193.273 266.786 197.365" stroke="#263238" stroke-linecap="round" stroke-linejoin="round"/>
<path d="M262.473 183.948C261.523 181.907 260.806 180.664 260.806 180.664C261.845 180.165 262.708 179.362 263.279 178.362C263.73 177.455 264.389 176.668 265.203 176.064" stroke="#263238" stroke-linecap="round" stroke-linejoin="round"/>
<path d="M254.073 187.178C254.073 187.178 260.999 184.303 260.999 184.88" stroke="#263238" stroke-linecap="round" stroke-linejoin="round"/>
<path d="M264.842 183.539C264.842 183.539 267.919 182.005 270.61 182.005" stroke="#263238" stroke-linecap="round" stroke-linejoin="round"/>
<path d="M263.715 188.164C262.381 189.256 261.157 190.475 260.059 191.803C258.937 193.123 258.029 194.61 257.368 196.211" stroke="#263238" stroke-linecap="round" stroke-linejoin="round"/>
<path d="M265.802 188.903C265.802 188.903 269.843 187.755 271.955 189.668" stroke="#263238" stroke-linecap="round" stroke-linejoin="round"/>
<path d="M273.113 163.017C271.021 161.785 268.706 161.755 267.568 160.453C266.43 159.152 268.661 158.481 269.853 158.974C271.045 159.467 273.811 160.882 274.33 161.193C274.849 161.504 274.493 156.992 273.524 155.276C272.554 153.56 269.898 152.589 268.577 153.974C265.782 156.903 261.419 153.062 261.716 150.774C262.013 148.486 259.871 146.026 255.285 147.471C250.7 148.915 252.401 149.709 252.401 149.709C252.401 149.709 255.666 151.706 257.764 152.944C259.861 154.181 263.324 155.237 262.577 156.134C261.83 157.031 259.826 156.484 258.149 155.148C256.473 153.812 251.659 150.617 251.165 151.805C250.67 152.993 248.939 156.243 248.939 156.243C251.07 156.568 253.177 157.034 255.246 157.638C258.046 158.511 258.619 160.044 256.433 160.162C254.247 160.281 250.269 158.644 249.013 160.729C247.757 162.815 248.622 168.175 248.622 168.175C248.622 168.175 252.629 165.468 254.672 165.478C256.715 165.488 255.409 166.617 253.124 168.086C252.134 168.691 251.178 169.35 250.26 170.058L252.337 175.369C253.926 175.154 255.527 175.04 257.13 175.029L258.486 175.122C258.486 175.122 258.486 169.55 260.089 167.899C261.691 166.247 261.978 170.068 262.319 171.045C262.661 172.021 261.637 174.935 261.637 174.935C261.637 174.935 265.594 172.77 266.89 171.912L268.181 171.049C268.181 171.049 266.697 167.006 265.708 165.848C264.719 164.689 263.329 164.861 264.486 163.875C265.644 162.889 267.385 163.382 268.374 164.827C269.202 166.176 269.922 167.589 270.526 169.052C270.526 169.052 272.01 169.294 273.934 167.12C275.858 164.945 275.21 164.245 273.113 163.017ZM254.919 169.151C253.381 168.387 257.032 166.853 257.032 166.853C258.382 166.651 256.458 169.92 254.924 169.141L254.919 169.151ZM257.506 161.997C256.853 161.671 258.817 161.011 258.817 161.011C261.667 161.538 258.169 162.317 257.511 161.987L257.506 161.997Z" fill="white"/>
<path d="M254.88 173.046C254.481 173.47 254.07 173.88 253.648 174.274" stroke="#263238" stroke-linecap="round" stroke-linejoin="round"/>
<path d="M262.77 161.119C261.003 164.881 258.778 168.411 256.146 171.631" stroke="#263238" stroke-linecap="round" stroke-linejoin="round"/>
<path d="M263.482 159.59C264.407 157.534 264.877 156.178 264.877 156.178C265.94 156.646 267.121 156.777 268.26 156.553C269.243 156.297 270.271 156.277 271.263 156.494" stroke="#263238" stroke-linecap="round" stroke-linejoin="round"/>
<path d="M261.81 159.073C262.245 158.698 255.533 155.37 255.533 155.37" stroke="#263238" stroke-linecap="round" stroke-linejoin="round"/>
<path d="M265.347 161.104C265.347 161.104 268.527 162.416 270.293 164.442" stroke="#263238" stroke-linecap="round" stroke-linejoin="round"/>
<path d="M261.107 163.249C259.405 162.965 257.679 162.844 255.953 162.889C254.218 162.908 252.497 163.2 250.853 163.752" stroke="#263238" stroke-linecap="round" stroke-linejoin="round"/>
<path d="M261.914 165.345C261.914 165.345 265.431 167.632 265.377 170.477" stroke="#263238" stroke-linecap="round" stroke-linejoin="round"/>
<path d="M243.24 189.564C241.559 188.578 239.694 188.549 238.788 187.498C237.883 186.448 239.664 185.92 240.624 186.32C241.583 186.719 243.804 187.853 244.23 188.1C244.655 188.346 244.358 184.722 243.577 183.356C242.795 181.991 240.658 181.192 239.62 182.311C237.369 184.663 233.857 181.576 234.099 179.732C234.341 177.888 232.615 175.911 228.91 177.075C225.205 178.238 226.59 178.879 226.59 178.879C226.59 178.879 229.217 180.487 230.903 181.478C232.59 182.469 235.355 183.322 234.777 184.047C234.198 184.772 232.566 184.328 231.215 183.248C229.865 182.168 225.991 179.599 225.591 180.556C225.19 181.512 223.805 184.15 223.805 184.15C225.52 184.411 227.215 184.785 228.88 185.27C231.131 185.975 231.591 187.212 229.83 187.306C228.069 187.4 224.883 186.083 223.894 187.76C222.905 189.436 223.582 193.75 223.582 193.75C223.582 193.75 226.808 191.576 228.45 191.581C230.092 191.586 229.044 192.498 227.208 193.681C226.41 194.166 225.638 194.694 224.898 195.264L226.57 199.539C227.849 199.366 229.138 199.273 230.429 199.263L231.522 199.342C231.522 199.342 231.522 194.855 232.813 193.529C234.104 192.202 234.332 195.274 234.604 196.058C234.876 196.842 234.055 199.189 234.055 199.189C234.055 199.189 237.25 197.448 238.284 196.753L239.323 196.063C239.323 196.063 238.126 192.809 237.314 191.877C236.503 190.945 235.395 191.083 236.325 190.274C237.255 189.466 238.655 189.895 239.451 191.043C240.119 192.13 240.7 193.268 241.188 194.446C241.188 194.446 242.38 194.638 243.928 192.888C245.476 191.137 244.917 190.555 243.24 189.564ZM228.598 194.495C227.362 193.879 230.3 192.646 230.3 192.646C231.383 192.493 229.835 195.116 228.593 194.5L228.598 194.495ZM230.686 188.736C230.157 188.475 231.739 187.947 231.739 187.947C234.035 188.391 231.21 189.007 230.686 188.741V188.736Z" fill="white"/>
<path d="M228.593 197.641C228.272 197.981 227.94 198.311 227.604 198.627" stroke="#263238" stroke-linecap="round" stroke-linejoin="round"/>
<path d="M234.915 188.046C233.491 191.071 231.7 193.911 229.583 196.502" stroke="#263238" stroke-linecap="round" stroke-linejoin="round"/>
<path d="M235.489 186.813C236.231 185.161 236.612 184.067 236.612 184.067C237.466 184.442 238.416 184.547 239.332 184.367C240.122 184.162 240.949 184.145 241.746 184.318" stroke="#263238" stroke-linecap="round" stroke-linejoin="round"/>
<path d="M229.088 183.43C229.088 183.43 234.495 186.108 234.143 186.389" stroke="#263238" stroke-linecap="round" stroke-linejoin="round"/>
<path d="M237.002 188.031C237.002 188.031 239.56 189.086 240.96 190.713" stroke="#263238" stroke-linecap="round" stroke-linejoin="round"/>
<path d="M233.574 189.757C232.205 189.525 230.817 189.428 229.429 189.466C228.032 189.482 226.647 189.717 225.323 190.161" stroke="#263238" stroke-linecap="round" stroke-linejoin="round"/>
<path d="M234.223 191.443C234.223 191.443 237.057 193.282 237.003 195.575" stroke="#263238" stroke-linecap="round" stroke-linejoin="round"/>
<path d="M236.374 157.919C236.374 157.919 234.257 159.452 232.912 157.919C231.566 156.385 233.49 153.319 231.561 152.17C229.632 151.021 226.565 153.126 226.565 153.126C226.565 153.126 229.063 153.703 229.063 155.044C229.063 156.385 227.91 156.957 227.718 156.385C227.525 155.813 226.179 152.934 224.255 154.275C223.7 154.648 223.227 155.129 222.864 155.689C222.501 156.249 222.255 156.877 222.143 157.534C222.143 157.534 226.753 156.765 227.139 158.491C227.525 160.217 225.215 158.299 223.295 158.299C221.376 158.299 219.64 158.683 219.833 159.832C219.937 160.852 219.937 161.879 219.833 162.899C220.829 161.969 222.125 161.426 223.488 161.365C225.6 161.365 225.6 162.707 223.681 162.707C221.762 162.707 220.218 164.625 220.218 164.625C220.218 164.625 222.143 167.499 224.448 168.84C226.753 170.182 227.525 169.61 227.718 168.456C227.91 167.302 227.139 164.432 228.484 164.432C229.83 164.432 226.565 169.61 228.291 169.797C230.018 169.984 231.368 169.417 231.754 168.264L232.14 167.115C232.14 167.115 231.368 164.24 231.561 163.091C231.754 161.942 232.14 163.091 232.521 164.432C232.902 165.773 233.292 169.033 233.866 168.84C234.44 168.648 236.176 166.158 236.562 165.202C236.948 164.245 233.866 161.558 233.866 160.986C233.866 160.414 236.176 161.365 236.562 161.942C236.84 162.376 237.096 162.824 237.329 163.283C237.329 163.283 238.674 162.327 238.482 159.64C238.289 156.952 236.374 157.919 236.374 157.919Z" fill="white"/>
<path d="M225.625 164.866C226.956 163.017 228.924 160.503 230.631 159.26" stroke="#263238" stroke-linecap="round" stroke-linejoin="round"/>
<path d="M224.067 167.115C224.067 167.115 224.408 166.582 224.957 165.783" stroke="#263238" stroke-linecap="round" stroke-linejoin="round"/>
<path d="M231.561 159.64C231.561 159.64 233.866 162.514 234.445 165.581" stroke="#263238" stroke-linecap="round" stroke-linejoin="round"/>
<path d="M229.261 161.538C229.261 161.538 229.835 161.153 229.835 164.99" stroke="#263238" stroke-linecap="round" stroke-linejoin="round"/>
<path d="M230.606 157.919C230.606 157.919 231.759 156.765 230.987 154.66" stroke="#263238" stroke-linecap="round" stroke-linejoin="round"/>
<path d="M229.068 159.832L228.104 158.299" stroke="#263238" stroke-linecap="round" stroke-linejoin="round"/>
<path d="M227.337 161.538C227.337 161.538 224.453 159.62 222.722 159.62" stroke="#263238" stroke-linecap="round" stroke-linejoin="round"/>
<path d="M255.79 200.851H240.925V222.176H255.79V200.851Z" fill="#263238" stroke="#263238" stroke-width="2" stroke-linecap="round" stroke-linejoin="round"/>
<path d="M121.904 36.9783C121.904 36.9783 122.083 30.6769 121.859 25.258C121.636 19.8392 122.088 8.22241 122.088 8.22241" stroke="#263238" stroke-miterlimit="10"/>
<path d="M121.983 15.0564L119.514 13.1187" stroke="#263238" stroke-miterlimit="10"/>
<path d="M121.953 16.3876L122.834 14.9725" stroke="#263238" stroke-miterlimit="10"/>
<path d="M121.755 21.9939L123.946 20.1843" stroke="#263238" stroke-miterlimit="10"/>
<path d="M122.087 10.604L120.929 9.55371" stroke="#263238" stroke-miterlimit="10"/>
<path d="M121.736 22.9751L120.286 21.4269" stroke="#263238" stroke-miterlimit="10"/>
<path d="M121.859 29.0596L118.847 26.3181" stroke="#263238" stroke-miterlimit="10"/>
<path d="M121.938 32.4371C122.706 32.1404 123.453 31.7928 124.174 31.3967" stroke="#263238" stroke-miterlimit="10"/>
<path d="M120.261 16.0277C119.049 15.0957 114.983 15.2585 114.202 17.1962C113.42 19.134 115.908 22.2946 118.283 22.0727C119.218 21.984 119.623 21.9199 119.989 21.3972L116.65 18.1429L120.266 21.0422C120.368 20.8535 120.451 20.6553 120.514 20.4505C120.553 20.3075 120.593 20.1497 120.622 19.987C120.875 18.8283 121.404 16.9004 120.261 16.0277Z" fill="white"/>
<path d="M128.131 13.7793V13.8483C127.805 15.293 126.153 16.1115 124.753 15.9883C124.559 15.9718 124.367 15.9372 124.179 15.8847C123.852 16.4009 123.649 16.9858 123.588 17.5933C123.526 18.2008 123.606 18.8143 123.823 19.3855C123.881 19.5488 123.959 19.7044 124.055 19.849C124.466 19.5137 128.859 15.7762 128.859 15.7762L124.298 20.1547C125.673 21.6339 128.898 21.4219 130.021 18.7051C131.144 15.9883 129.714 14.1688 128.131 13.7793Z" fill="white"/>
<path d="M125.896 8.72536C123.531 8.23229 121.414 9.2776 121.444 11.738C121.457 12.2804 121.581 12.8145 121.809 13.3071C122.037 13.7998 122.364 14.2408 122.769 14.6028L125.208 11.2893L123.16 14.9035C123.619 15.2155 124.15 15.4056 124.704 15.4558C126.098 15.5741 127.756 14.7556 128.082 13.3109C128.423 11.6986 128.26 9.24309 125.896 8.72536Z" fill="white"/>
<path d="M123.136 0.170532C123.136 0.170532 122.893 0.244494 121.379 0.97917C120.493 1.46624 119.837 2.28322 119.553 3.25153C119.269 4.21983 119.382 5.26069 119.866 6.14656C120.285 6.97422 121.01 7.60714 121.889 7.91175L122.497 2.04913L122.24 7.99064C122.355 8.00245 122.471 8.00245 122.586 7.99064C123.576 7.89203 125.124 6.71852 125.272 4.31726C125.421 1.916 123.136 0.170532 123.136 0.170532Z" fill="white"/>
<path d="M116.225 5.50061L120.791 9.13947C120.836 8.97923 120.851 8.81209 120.835 8.6464C120.622 6.56564 118.54 5.35762 117.165 4.92372C115.789 4.48981 114.835 5.26393 115.72 7.25594C116.606 9.24795 118.926 10.2144 119.96 9.9136C120.205 9.85327 120.426 9.71898 120.593 9.529L116.225 5.50061Z" fill="white"/>
<path d="M119.366 10.165C118.666 10.1147 117.987 9.90662 117.379 9.55642C116.772 9.20623 116.252 8.72309 115.859 8.14345C115.374 8.09758 114.89 8.24266 114.511 8.54765C114.132 8.85264 113.888 9.29335 113.831 9.77551C113.366 11.945 114.939 14.2132 117.209 13.937C117.922 13.9 118.599 13.6116 119.119 13.1235L115.062 9.43036L119.406 12.729C119.491 12.5768 119.545 12.4091 119.564 12.2359C119.704 11.5413 119.635 10.8208 119.366 10.165V10.165Z" fill="white"/>
<path d="M119.341 22.2305C118.972 22.388 118.579 22.4814 118.179 22.5067C116.695 22.6447 115.181 21.486 114.429 20.1251C113.988 20.1549 113.569 20.3314 113.24 20.6263C112.911 20.9213 112.69 21.3177 112.614 21.7523C112.164 24.2916 114.523 27.6395 116.907 27.107C117.527 26.9867 118.101 26.6965 118.565 26.2688L113.361 21.2789L118.866 25.9434C119.181 25.541 119.384 25.0631 119.455 24.5578C119.716 23.7959 119.675 22.9635 119.341 22.2305Z" fill="white"/>
<path d="M129.813 27.4226C128.062 25.4011 125.98 27.2106 125.98 27.2106C125.98 27.2106 124.703 27.6297 124.219 29.4344C124.07 29.9819 124.093 30.5615 124.283 31.096L129.546 28.039L124.411 31.382C124.906 32.2893 125.935 32.8612 127.379 32.4421C129.685 31.811 131.559 29.459 129.813 27.4226Z" fill="white"/>
<path d="M125.451 35.0751H118.164V45.829H125.451V35.0751Z" fill="#263238"/>
<path d="M205.873 45.7402H109.77V222.866H205.873V45.7402Z" fill="white" stroke="#263238" stroke-miterlimit="10"/>
<path d="M192.32 47.9838H111.768V220.169H192.32V47.9838Z" fill="#263238" stroke="#263238" stroke-linecap="round" stroke-linejoin="round"/>
<path d="M192.32 74.6885H111.768V77.2278H192.32V74.6885Z" fill="white" stroke="#263238" stroke-miterlimit="10"/>
<path d="M192.32 104.046H111.768V106.585H192.32V104.046Z" fill="white" stroke="#263238" stroke-miterlimit="10"/>
<path d="M166.359 48.0133H164.648V74.6835H166.359V48.0133Z" fill="white" stroke="#263238" stroke-miterlimit="10"/>
<path d="M138.975 48.0133H137.263V74.6835H138.975V48.0133Z" fill="white" stroke="#263238" stroke-miterlimit="10"/>
<path d="M166.359 106.615H164.648V133.285H166.359V106.615Z" fill="white" stroke="#263238" stroke-miterlimit="10"/>
<path d="M138.975 106.615H137.263V133.285H138.975V106.615Z" fill="white" stroke="#263238" stroke-miterlimit="10"/>
<path d="M152.533 77.3708H150.822V104.041H152.533V77.3708Z" fill="white" stroke="#263238" stroke-miterlimit="10"/>
<path d="M192.32 133.29H111.768V135.829H192.32V133.29Z" fill="white" stroke="#263238" stroke-miterlimit="10"/>
<path d="M192.32 162.549H111.768V221.067H192.32V162.549Z" fill="white" stroke="#263238" stroke-miterlimit="10"/>
<path d="M152.533 135.874H150.822V162.544H152.533V135.874Z" fill="white" stroke="#263238" stroke-miterlimit="10"/>
<path d="M194.293 45.7255V222.827L205.879 222.866V45.7255H194.293Z" fill="#263238" stroke="#263238" stroke-linecap="round" stroke-linejoin="round"/>
<path d="M171.682 50.0842H167.546V74.6244H171.682V50.0842Z" fill="white" stroke="#263238" stroke-miterlimit="10"/>
<path d="M171.682 69.3534H167.546V71.3651H171.682V69.3534Z" fill="white" stroke="#263238" stroke-miterlimit="10"/>
<path d="M171.682 52.5742H167.546V54.5859H171.682V52.5742Z" fill="white" stroke="#263238" stroke-miterlimit="10"/>
<path d="M175.911 50.0842H171.776V74.6244H175.911V50.0842Z" fill="white" stroke="#263238" stroke-miterlimit="10"/>
<path d="M175.911 69.3534H171.776V71.3651H175.911V69.3534Z" fill="white" stroke="#263238" stroke-miterlimit="10"/>
<path d="M175.911 52.5742H171.776V54.5859H175.911V52.5742Z" fill="white" stroke="#263238" stroke-miterlimit="10"/>
<path d="M180.146 50.0842H176.01V74.6244H180.146V50.0842Z" fill="white" stroke="#263238" stroke-miterlimit="10"/>
<path d="M180.146 69.3534H176.01V71.3651H180.146V69.3534Z" fill="white" stroke="#263238" stroke-miterlimit="10"/>
<path d="M180.146 52.5742H176.01V54.5859H180.146V52.5742Z" fill="white" stroke="#263238" stroke-miterlimit="10"/>
<path d="M184.375 50.0842H180.24V74.6244H184.375V50.0842Z" fill="white" stroke="#263238" stroke-miterlimit="10"/>
<path d="M191.266 50.0842H184.34V74.6244H191.266V50.0842Z" fill="white" stroke="#263238" stroke-miterlimit="10"/>
<path d="M184.375 69.3534H180.24V71.3651H184.375V69.3534Z" fill="white" stroke="#263238" stroke-miterlimit="10"/>
<path d="M184.375 52.5742H180.24V54.5859H184.375V52.5742Z" fill="white" stroke="#263238" stroke-miterlimit="10"/>
<path d="M144.015 50.0842H139.88V74.6244H144.015V50.0842Z" fill="white" stroke="#263238" stroke-miterlimit="10"/>
<path d="M144.015 69.3534H139.88V71.3651H144.015V69.3534Z" fill="white" stroke="#263238" stroke-miterlimit="10"/>
<path d="M144.015 52.5742H139.88V54.5859H144.015V52.5742Z" fill="white" stroke="#263238" stroke-miterlimit="10"/>
<path d="M148.245 50.0842H144.109V74.6244H148.245V50.0842Z" fill="white" stroke="#263238" stroke-miterlimit="10"/>
<path d="M148.245 69.3534H144.109V71.3651H148.245V69.3534Z" fill="white" stroke="#263238" stroke-miterlimit="10"/>
<path d="M148.245 52.5742H144.109V54.5859H148.245V52.5742Z" fill="white" stroke="#263238" stroke-miterlimit="10"/>
<path d="M152.479 50.0842H148.344V74.6244H152.479V50.0842Z" fill="white" stroke="#263238" stroke-miterlimit="10"/>
<path d="M152.479 69.3534H148.344V71.3651H152.479V69.3534Z" fill="white" stroke="#263238" stroke-miterlimit="10"/>
<path d="M152.479 52.5742H148.344V54.5859H152.479V52.5742Z" fill="white" stroke="#263238" stroke-miterlimit="10"/>
<path d="M156.709 50.0842H152.573V74.6244H156.709V50.0842Z" fill="white" stroke="#263238" stroke-miterlimit="10"/>
<path d="M163.599 50.0842H156.674V74.6244H163.599V50.0842Z" fill="white" stroke="#263238" stroke-miterlimit="10"/>
<path d="M156.709 69.3534H152.573V71.3651H156.709V69.3534Z" fill="white" stroke="#263238" stroke-miterlimit="10"/>
<path d="M156.709 52.5742H152.573V54.5859H156.709V52.5742Z" fill="white" stroke="#263238" stroke-miterlimit="10"/>
<path d="M144.015 108.775H139.88V133.315H144.015V108.775Z" fill="white" stroke="#263238" stroke-miterlimit="10"/>
<path d="M144.015 128.044H139.88V130.055H144.015V128.044Z" fill="white" stroke="#263238" stroke-miterlimit="10"/>
<path d="M144.015 111.269H139.88V113.281H144.015V111.269Z" fill="white" stroke="#263238" stroke-miterlimit="10"/>
<path d="M148.245 108.775H144.109V133.315H148.245V108.775Z" fill="white" stroke="#263238" stroke-miterlimit="10"/>
<path d="M148.245 128.044H144.109V130.055H148.245V128.044Z" fill="white" stroke="#263238" stroke-miterlimit="10"/>
<path d="M148.245 111.269H144.109V113.281H148.245V111.269Z" fill="white" stroke="#263238" stroke-miterlimit="10"/>
<path d="M152.479 108.775H148.344V133.315H152.479V108.775Z" fill="white" stroke="#263238" stroke-miterlimit="10"/>
<path d="M152.479 128.044H148.344V130.055H152.479V128.044Z" fill="white" stroke="#263238" stroke-miterlimit="10"/>
<path d="M152.479 111.269H148.344V113.281H152.479V111.269Z" fill="white" stroke="#263238" stroke-miterlimit="10"/>
<path d="M156.709 108.775H152.573V133.315H156.709V108.775Z" fill="white" stroke="#263238" stroke-miterlimit="10"/>
<path d="M163.599 108.775H156.674V133.315H163.599V108.775Z" fill="white" stroke="#263238" stroke-miterlimit="10"/>
<path d="M156.709 128.044H152.573V130.055H156.709V128.044Z" fill="white" stroke="#263238" stroke-miterlimit="10"/>
<path d="M156.709 111.269H152.573V113.281H156.709V111.269Z" fill="white" stroke="#263238" stroke-miterlimit="10"/>
<path d="M171.326 108.775H167.19V133.315H171.326V108.775Z" fill="white" stroke="#263238" stroke-miterlimit="10"/>
<path d="M171.326 128.044H167.19V130.055H171.326V128.044Z" fill="white" stroke="#263238" stroke-miterlimit="10"/>
<path d="M171.326 111.269H167.19V113.281H171.326V111.269Z" fill="white" stroke="#263238" stroke-miterlimit="10"/>
<path d="M175.56 108.775H171.425V133.315H175.56V108.775Z" fill="white" stroke="#263238" stroke-miterlimit="10"/>
<path d="M175.56 128.044H171.425V130.055H175.56V128.044Z" fill="white" stroke="#263238" stroke-miterlimit="10"/>
<path d="M175.56 111.269H171.425V113.281H175.56V111.269Z" fill="white" stroke="#263238" stroke-miterlimit="10"/>
<path d="M179.79 108.775H175.654V133.315H179.79V108.775Z" fill="white" stroke="#263238" stroke-miterlimit="10"/>
<path d="M179.79 128.044H175.654V130.055H179.79V128.044Z" fill="white" stroke="#263238" stroke-miterlimit="10"/>
<path d="M179.79 111.269H175.654V113.281H179.79V111.269Z" fill="white" stroke="#263238" stroke-miterlimit="10"/>
<path d="M184.024 108.775H179.889V133.315H184.024V108.775Z" fill="white" stroke="#263238" stroke-miterlimit="10"/>
<path d="M190.91 108.775H183.984V133.315H190.91V108.775Z" fill="white" stroke="#263238" stroke-miterlimit="10"/>
<path d="M184.024 128.044H179.889V130.055H184.024V128.044Z" fill="white" stroke="#263238" stroke-miterlimit="10"/>
<path d="M184.024 111.269H179.889V113.281H184.024V111.269Z" fill="white" stroke="#263238" stroke-miterlimit="10"/>
<path d="M116.878 108.775H112.743V133.315H116.878V108.775Z" fill="white" stroke="#263238" stroke-miterlimit="10"/>
<path d="M116.878 128.044H112.743V130.055H116.878V128.044Z" fill="white" stroke="#263238" stroke-miterlimit="10"/>
<path d="M116.878 111.269H112.743V113.281H116.878V111.269Z" fill="white" stroke="#263238" stroke-miterlimit="10"/>
<path d="M121.112 108.775H116.977V133.315H121.112V108.775Z" fill="white" stroke="#263238" stroke-miterlimit="10"/>
<path d="M121.112 128.044H116.977V130.055H121.112V128.044Z" fill="white" stroke="#263238" stroke-miterlimit="10"/>
<path d="M121.112 111.269H116.977V113.281H121.112V111.269Z" fill="white" stroke="#263238" stroke-miterlimit="10"/>
<path d="M125.341 108.775H121.206V133.315H125.341V108.775Z" fill="white" stroke="#263238" stroke-miterlimit="10"/>
<path d="M125.341 128.044H121.206V130.055H125.341V128.044Z" fill="white" stroke="#263238" stroke-miterlimit="10"/>
<path d="M125.341 111.269H121.206V113.281H125.341V111.269Z" fill="white" stroke="#263238" stroke-miterlimit="10"/>
<path d="M129.576 108.775H125.44V133.315H129.576V108.775Z" fill="white" stroke="#263238" stroke-miterlimit="10"/>
<path d="M136.462 108.775H129.537V133.315H136.462V108.775Z" fill="white" stroke="#263238" stroke-miterlimit="10"/>
<path d="M129.576 128.044H125.44V130.055H129.576V128.044Z" fill="white" stroke="#263238" stroke-miterlimit="10"/>
<path d="M129.576 111.269H125.44V113.281H129.576V111.269Z" fill="white" stroke="#263238" stroke-miterlimit="10"/>
<path d="M116.349 50.0842H112.213V74.6244H116.349V50.0842Z" fill="white" stroke="#263238" stroke-miterlimit="10"/>
<path d="M116.349 69.3534H112.213V71.3651H116.349V69.3534Z" fill="white" stroke="#263238" stroke-miterlimit="10"/>
<path d="M116.349 52.5742H112.213V54.5859H116.349V52.5742Z" fill="white" stroke="#263238" stroke-miterlimit="10"/>
<path d="M120.578 50.0842H116.442V74.6244H120.578V50.0842Z" fill="white" stroke="#263238" stroke-miterlimit="10"/>
<path d="M120.578 69.3534H116.442V71.3651H120.578V69.3534Z" fill="white" stroke="#263238" stroke-miterlimit="10"/>
<path d="M120.578 52.5742H116.442V54.5859H120.578V52.5742Z" fill="white" stroke="#263238" stroke-miterlimit="10"/>
<path d="M124.812 50.0842H120.677V74.6244H124.812V50.0842Z" fill="white" stroke="#263238" stroke-miterlimit="10"/>
<path d="M124.812 69.3534H120.677V71.3651H124.812V69.3534Z" fill="white" stroke="#263238" stroke-miterlimit="10"/>
<path d="M124.812 52.5742H120.677V54.5859H124.812V52.5742Z" fill="white" stroke="#263238" stroke-miterlimit="10"/>
<path d="M129.042 50.0842H124.906V74.6244H129.042V50.0842Z" fill="white" stroke="#263238" stroke-miterlimit="10"/>
<path d="M135.933 50.0842H129.007V74.6244H135.933V50.0842Z" fill="white" stroke="#263238" stroke-miterlimit="10"/>
<path d="M129.042 69.3534H124.906V71.3651H129.042V69.3534Z" fill="white" stroke="#263238" stroke-miterlimit="10"/>
<path d="M129.042 52.5742H124.906V54.5859H129.042V52.5742Z" fill="white" stroke="#263238" stroke-miterlimit="10"/>
<path d="M128.587 79.3282H124.451V103.868H128.587V79.3282Z" fill="white" stroke="#263238" stroke-miterlimit="10"/>
<path d="M128.587 98.5975H124.451V100.609H128.587V98.5975Z" fill="white" stroke="#263238" stroke-miterlimit="10"/>
<path d="M128.587 81.8232H124.451V83.835H128.587V81.8232Z" fill="white" stroke="#263238" stroke-miterlimit="10"/>
<path d="M124.506 79.3282H120.37V103.868H124.506V79.3282Z" fill="white" stroke="#263238" stroke-miterlimit="10"/>
<path d="M124.506 98.5975H120.37V100.609H124.506V98.5975Z" fill="white" stroke="#263238" stroke-miterlimit="10"/>
<path d="M124.506 81.8232H120.37V83.835H124.506V81.8232Z" fill="white" stroke="#263238" stroke-miterlimit="10"/>
<path d="M120.424 79.3282H116.289V103.868H120.424V79.3282Z" fill="white" stroke="#263238" stroke-miterlimit="10"/>
<path d="M120.424 98.5975H116.289V100.609H120.424V98.5975Z" fill="white" stroke="#263238" stroke-miterlimit="10"/>
<path d="M120.424 81.8232H116.289V83.835H120.424V81.8232Z" fill="white" stroke="#263238" stroke-miterlimit="10"/>
<path d="M116.349 79.3282H112.213V103.868H116.349V79.3282Z" fill="white" stroke="#263238" stroke-miterlimit="10"/>
<path d="M116.349 98.5975H112.213V100.609H116.349V98.5975Z" fill="white" stroke="#263238" stroke-miterlimit="10"/>
<path d="M116.349 81.8232H112.213V83.835H116.349V81.8232Z" fill="white" stroke="#263238" stroke-miterlimit="10"/>
<path d="M132.816 79.3282H128.681V103.868H132.816V79.3282Z" fill="white" stroke="#263238" stroke-miterlimit="10"/>
<path d="M132.816 98.5975H128.681V100.609H132.816V98.5975Z" fill="white" stroke="#263238" stroke-miterlimit="10"/>
<path d="M132.816 81.8232H128.681V83.835H132.816V81.8232Z" fill="white" stroke="#263238" stroke-miterlimit="10"/>
<path d="M137.046 79.3282H132.91V103.868H137.046V79.3282Z" fill="white" stroke="#263238" stroke-miterlimit="10"/>
<path d="M137.046 98.5975H132.91V100.609H137.046V98.5975Z" fill="white" stroke="#263238" stroke-miterlimit="10"/>
<path d="M137.046 81.8232H132.91V83.835H137.046V81.8232Z" fill="white" stroke="#263238" stroke-miterlimit="10"/>
<path d="M141.28 79.3282H137.145V103.868H141.28V79.3282Z" fill="white" stroke="#263238" stroke-miterlimit="10"/>
<path d="M148.17 79.3282H141.245V103.868H148.17V79.3282Z" fill="white" stroke="#263238" stroke-miterlimit="10"/>
<path d="M141.28 98.5975H137.145V100.609H141.28V98.5975Z" fill="white" stroke="#263238" stroke-miterlimit="10"/>
<path d="M141.28 81.8232H137.145V83.835H141.28V81.8232Z" fill="white" stroke="#263238" stroke-miterlimit="10"/>
<path d="M157.989 79.3282H153.854V103.868H157.989V79.3282Z" fill="white" stroke="#263238" stroke-miterlimit="10"/>
<path d="M157.989 98.5975H153.854V100.609H157.989V98.5975Z" fill="white" stroke="#263238" stroke-miterlimit="10"/>
<path d="M157.989 81.8232H153.854V83.835H157.989V81.8232Z" fill="white" stroke="#263238" stroke-miterlimit="10"/>
<path d="M162.224 79.3282H158.088V103.868H162.224V79.3282Z" fill="white" stroke="#263238" stroke-miterlimit="10"/>
<path d="M162.224 98.5975H158.088V100.609H162.224V98.5975Z" fill="white" stroke="#263238" stroke-miterlimit="10"/>
<path d="M162.224 81.8232H158.088V83.835H162.224V81.8232Z" fill="white" stroke="#263238" stroke-miterlimit="10"/>
<path d="M170.691 79.3222L166.835 80.9447L176.531 103.834L180.386 102.212L170.691 79.3222Z" fill="white" stroke="#263238" stroke-miterlimit="10"/>
<path d="M178.305 97.2933L174.449 98.9158L175.244 100.792L179.099 99.1693L178.305 97.2933Z" fill="white" stroke="#263238" stroke-miterlimit="10"/>
<path d="M171.678 81.6485L167.822 83.271L168.617 85.147L172.472 83.5245L171.678 81.6485Z" fill="white" stroke="#263238" stroke-miterlimit="10"/>
<path d="M176.535 103.824H185.167L189.05 102.212L180.388 102.202L176.535 103.824Z" fill="white" stroke="#263238" stroke-miterlimit="10"/>
<path d="M170.693 79.3135H178.8L189.05 102.212L180.388 102.202L170.693 79.3135Z" fill="white" stroke="#263238" stroke-miterlimit="10"/>
<path d="M166.305 79.3282H162.169V103.868H166.305V79.3282Z" fill="white" stroke="#263238" stroke-miterlimit="10"/>
<path d="M166.305 98.5975H162.169V100.609H166.305V98.5975Z" fill="white" stroke="#263238" stroke-miterlimit="10"/>
<path d="M166.305 81.8232H162.169V83.835H166.305V81.8232Z" fill="white" stroke="#263238" stroke-miterlimit="10"/>
<path d="M166.305 79.3282H170.693L166.834 80.9357L176.535 103.824H166.305V79.3282Z" fill="white" stroke="#263238" stroke-miterlimit="10"/>
<path d="M128.587 137.915H124.451V162.455H128.587V137.915Z" fill="white" stroke="#263238" stroke-miterlimit="10"/>
<path d="M128.587 157.184H124.451V159.196H128.587V157.184Z" fill="white" stroke="#263238" stroke-miterlimit="10"/>
<path d="M128.587 140.405H124.451V142.417H128.587V140.405Z" fill="white" stroke="#263238" stroke-miterlimit="10"/>
<path d="M124.506 137.915H120.37V162.455H124.506V137.915Z" fill="white" stroke="#263238" stroke-miterlimit="10"/>
<path d="M124.506 157.184H120.37V159.196H124.506V157.184Z" fill="white" stroke="#263238" stroke-miterlimit="10"/>
<path d="M124.506 140.405H120.37V142.417H124.506V140.405Z" fill="white" stroke="#263238" stroke-miterlimit="10"/>
<path d="M120.424 137.915H116.289V162.455H120.424V137.915Z" fill="white" stroke="#263238" stroke-miterlimit="10"/>
<path d="M120.424 157.184H116.289V159.196H120.424V157.184Z" fill="white" stroke="#263238" stroke-miterlimit="10"/>
<path d="M120.424 140.405H116.289V142.417H120.424V140.405Z" fill="white" stroke="#263238" stroke-miterlimit="10"/>
<path d="M116.349 137.915H112.213V162.455H116.349V137.915Z" fill="white" stroke="#263238" stroke-miterlimit="10"/>
<path d="M116.349 157.184H112.213V159.196H116.349V157.184Z" fill="white" stroke="#263238" stroke-miterlimit="10"/>
<path d="M116.349 140.405H112.213V142.417H116.349V140.405Z" fill="white" stroke="#263238" stroke-miterlimit="10"/>
<path d="M132.816 137.915H128.681V162.455H132.816V137.915Z" fill="white" stroke="#263238" stroke-miterlimit="10"/>
<path d="M132.816 157.184H128.681V159.196H132.816V157.184Z" fill="white" stroke="#263238" stroke-miterlimit="10"/>
<path d="M132.816 140.405H128.681V142.417H132.816V140.405Z" fill="white" stroke="#263238" stroke-miterlimit="10"/>
<path d="M137.046 137.915H132.91V162.455H137.046V137.915Z" fill="white" stroke="#263238" stroke-miterlimit="10"/>
<path d="M137.046 157.184H132.91V159.196H137.046V157.184Z" fill="white" stroke="#263238" stroke-miterlimit="10"/>
<path d="M137.046 140.405H132.91V142.417H137.046V140.405Z" fill="white" stroke="#263238" stroke-miterlimit="10"/>
<path d="M141.28 137.915H137.145V162.455H141.28V137.915Z" fill="white" stroke="#263238" stroke-miterlimit="10"/>
<path d="M148.17 137.915H141.245V162.455H148.17V137.915Z" fill="white" stroke="#263238" stroke-miterlimit="10"/>
<path d="M141.28 157.184H137.145V159.196H141.28V157.184Z" fill="white" stroke="#263238" stroke-miterlimit="10"/>
<path d="M141.28 140.405H137.145V142.417H141.28V140.405Z" fill="white" stroke="#263238" stroke-miterlimit="10"/>
<path d="M157.989 137.915H153.854V162.455H157.989V137.915Z" fill="white" stroke="#263238" stroke-miterlimit="10"/>
<path d="M157.989 157.184H153.854V159.196H157.989V157.184Z" fill="white" stroke="#263238" stroke-miterlimit="10"/>
<path d="M157.989 140.405H153.854V142.417H157.989V140.405Z" fill="white" stroke="#263238" stroke-miterlimit="10"/>
<path d="M162.224 137.915H158.088V162.455H162.224V137.915Z" fill="white" stroke="#263238" stroke-miterlimit="10"/>
<path d="M162.224 157.184H158.088V159.196H162.224V157.184Z" fill="white" stroke="#263238" stroke-miterlimit="10"/>
<path d="M162.224 140.405H158.088V142.417H162.224V140.405Z" fill="white" stroke="#263238" stroke-miterlimit="10"/>
<path d="M170.687 137.906L166.832 139.529L176.527 162.418L180.383 160.795L170.687 137.906Z" fill="white" stroke="#263238" stroke-miterlimit="10"/>
<path d="M178.204 155.441L174.354 157.068L175.15 158.941L179 157.314L178.204 155.441Z" fill="white" stroke="#263238" stroke-width="0.99925" stroke-miterlimit="10"/>
<path d="M171.674 140.232L167.819 141.855L168.613 143.731L172.469 142.108L171.674 140.232Z" fill="white" stroke="#263238" stroke-miterlimit="10"/>
<path d="M176.535 162.411H185.167L189.05 160.798L180.388 160.784L176.535 162.411Z" fill="white" stroke="#263238" stroke-miterlimit="10"/>
<path d="M170.693 137.895H178.8L189.05 160.798L180.388 160.784L170.693 137.895Z" fill="white" stroke="#263238" stroke-miterlimit="10"/>
<path d="M166.305 137.915H162.169V162.455H166.305V137.915Z" fill="white" stroke="#263238" stroke-miterlimit="10"/>
<path d="M166.305 157.184H162.169V159.196H166.305V157.184Z" fill="white" stroke="#263238" stroke-miterlimit="10"/>
<path d="M166.305 140.405H162.169V142.417H166.305V140.405Z" fill="white" stroke="#263238" stroke-miterlimit="10"/>
<path d="M166.305 137.915H170.693L166.834 139.518L176.535 162.411H166.305V137.915Z" fill="white" stroke="#263238" stroke-miterlimit="10"/>
<path d="M150.822 162.544V220.085" stroke="#263238" stroke-miterlimit="10"/>
<path d="M112.421 169.669H192.3" stroke="#263238" stroke-miterlimit="10"/>
<path d="M128.814 174.535V184.969" stroke="#263238" stroke-width="2" stroke-miterlimit="10"/>
<path d="M132.302 174.535V184.969" stroke="#263238" stroke-width="2" stroke-miterlimit="10"/>
<path d="M168.932 174.535V184.969" stroke="#263238" stroke-width="2" stroke-miterlimit="10"/>
<path d="M172.419 174.535V184.969" stroke="#263238" stroke-width="2" stroke-miterlimit="10"/>
<path d="M214.564 46.6573V28.9659H240.376" stroke="#263238" stroke-miterlimit="10"/>
<path d="M242.276 28.9659H253.148V72.8493H214.564V49.3397" stroke="#263238" stroke-miterlimit="10"/>
<path d="M239.11 66.9325H219.763V34.8828H247.944V66.9325H241.326" stroke="#263238" stroke-miterlimit="10"/>
<path d="M239.273 44.7443H228.435V57.0711H239.273V44.7443Z" stroke="#263238" stroke-miterlimit="10"/>
<path d="M256.577 67.11V56.0751H272.678" stroke="#263238" stroke-miterlimit="10"/>
<path d="M273.86 56.0751H280.642V83.4455H256.577V68.7815" stroke="#263238" stroke-miterlimit="10"/>
<path d="M271.886 79.7572H259.821V59.7632H277.397V79.7572H273.266" stroke="#263238" stroke-miterlimit="10"/>
<path d="M271.99 65.9167H265.228V73.6037H271.99V65.9167Z" stroke="#263238" stroke-miterlimit="10"/>
<path d="M1.44238 222.866H280.434" stroke="#263238" stroke-linecap="round" stroke-linejoin="round"/>
<path d="M21.2291 153.836C21.2291 153.836 18.2611 114.391 19.7451 109.953C21.2291 105.515 30.3804 105.762 32.1118 105.762C33.8431 105.762 69.9538 105.762 75.1478 108.227C80.3418 110.693 81.0838 171.34 81.0838 171.34H23.7024L21.2291 153.836Z" fill="#263238" stroke="#263238" stroke-miterlimit="10"/>
<path d="M83.0575 150.631C83.0575 150.631 77.1215 150.631 75.9343 156.548C74.7471 162.465 79.4217 186.872 79.768 193.775C80.1143 200.678 81.3311 210.293 81.3311 210.293H102.354L107.054 150.631H83.0575Z" fill="#263238" stroke="#263238" stroke-miterlimit="10"/>
<path d="M107.054 150.631C107.054 150.631 101.118 150.631 99.6339 156.548C98.1499 162.465 101.613 186.872 101.613 193.775C101.613 200.678 102.355 210.293 102.355 210.293H109.775C109.775 210.293 110.517 192.542 110.517 190.077C110.517 187.612 113.485 161.972 112.001 156.795C110.517 151.617 109.28 151.124 107.054 150.631Z" fill="#636363" stroke="#263238" stroke-miterlimit="10"/>
<path d="M44.3549 108.35C44.3549 108.35 24.6919 116.363 24.6919 117.226C24.6919 118.089 31.3699 141.263 33.8432 144.838C36.3166 148.413 38.0479 152.357 38.7899 153.836C39.5319 155.316 42.7472 159.014 45.3442 159.014C47.9412 159.014 51.0329 155.932 59.3186 154.699C67.6042 153.466 75.0242 153.59 76.5082 152.48C77.9922 151.371 76.1372 148.413 75.8899 147.796C75.6425 147.18 74.6532 144.961 74.6532 144.961C74.6532 144.961 82.6915 151.617 85.9069 151.864C89.1222 152.111 91.4719 150.508 91.9665 148.413C92.4612 146.317 90.6062 141.263 89.3695 138.551C88.1329 135.839 82.3205 131.525 79.7235 128.197C77.1265 124.868 73.7875 120.924 71.4379 118.212C69.3903 115.825 66.8624 113.893 64.0179 112.542C61.7919 111.555 56.1032 109.09 52.5169 108.72C48.9306 108.35 44.3549 108.35 44.3549 108.35Z" fill="white" stroke="#263238" stroke-miterlimit="10"/>
<path d="M82.8942 137.235C82.8942 137.235 80.0944 144.961 81.0837 146.933C82.0731 148.906 84.7096 149.561 84.7096 149.561" stroke="#263238" stroke-miterlimit="10"/>
<path d="M41.3867 110.939L57.7107 126.717L60.1841 114.884" stroke="#263238" stroke-miterlimit="10"/>
<path d="M83.6809 138.181C83.6809 138.181 87.6382 141.016 88.9986 140.03C90.3589 139.044 89.9879 137.195 89.1222 135.223C88.2566 133.251 85.4123 132.141 84.2993 133.004C83.1863 133.867 82.8153 137.318 83.6809 138.181Z" fill="white" stroke="#263238" stroke-miterlimit="10"/>
<path d="M43.1182 103.173L43.7365 110.569L56.8452 123.389L58.8238 114.267L59.6895 110.446C59.6895 110.446 51.1565 108.967 48.4358 107.118C45.7152 105.269 43.1182 103.173 43.1182 103.173Z" fill="white" stroke="#263238" stroke-miterlimit="10"/>
<path d="M59.6895 110.446C59.6895 110.446 51.1565 108.967 48.4358 107.118C45.7152 105.269 43.1182 103.173 43.1182 103.173L43.7365 110.569L47.0508 113.809C49.628 114.534 52.1953 114.884 53.9415 114.213C55.8791 113.511 57.7309 112.593 59.4619 111.477L59.6895 110.446Z" fill="#263238" stroke="#263238" stroke-miterlimit="10"/>
<path d="M39.2002 97.4634C39.2002 97.4634 36.8901 86.9413 36.8901 85.1367C36.8901 83.332 43.1576 74.1214 51.7301 75.6007C60.3027 77.0799 65.0861 82.0106 65.4176 83.4898C65.749 84.969 64.4282 87.9274 64.4282 87.9274C64.6892 88.7844 64.8551 89.6674 64.9229 90.5604C64.9229 91.5466 63.4389 95.8166 63.4389 95.8166L62.9442 91.3789C62.9442 91.3789 58.8237 92.5327 56.5136 92.5327C54.2035 92.5327 50.2461 91.0535 50.2461 91.0535C50.2461 91.0535 51.0722 93.6816 50.2461 94.9981C49.42 96.3146 46.9517 97.4634 46.9517 97.4634C46.9517 97.4634 46.6202 100.092 45.6309 100.092C44.4104 100.03 43.1974 99.8649 42.005 99.5984C41.3421 99.4357 39.2002 97.4634 39.2002 97.4634Z" fill="#263238" stroke="#263238" stroke-miterlimit="10"/>
<path d="M42.9944 98.6123C42.9944 98.6123 42.663 94.6677 39.3636 95.6539C36.0642 96.64 38.211 100.254 40.0264 102.064C41.8419 103.873 42.3316 102.557 42.3316 102.557C42.3316 102.557 42.8263 106.339 45.2996 108.474C47.7729 110.609 51.567 114.553 55.5243 114.06C59.4817 113.567 62.2864 108.636 62.7811 105.022C63.2758 101.408 63.6022 92.8582 63.6022 91.872C63.4831 90.7598 63.2629 89.6607 62.9443 88.5882C62.9443 88.5882 59.4817 91.0535 56.3504 90.3928C53.2192 89.7321 49.9198 88.4205 48.4358 88.4205C46.9518 88.4205 47.2783 90.5605 47.7729 91.2162C48.2676 91.872 49.5883 93.1885 48.1043 94.012C46.6203 94.8354 44.6417 95.6539 44.6417 95.6539V99.1054L42.9944 98.6123Z" fill="white" stroke="#263238" stroke-miterlimit="10"/>
<path d="M58.7694 96.8175L57.9582 105.727L53.897 104.554" stroke="#263238" stroke-miterlimit="10"/>
<path d="M55.3416 105.274C55.3416 105.274 53.363 105.274 52.2747 105.367C51.621 105.475 50.9568 105.505 50.296 105.456C49.8459 105.367 49.3067 105.007 50.207 105.905C51.1073 106.802 53.8181 107.877 55.2625 108.064C56.7069 108.252 57.7012 107.793 58.7796 107.078C59.8579 106.363 60.7582 105.639 60.224 105.461C59.4796 105.329 58.7243 105.268 57.9683 105.279V105.732L55.3416 105.274Z" fill="#263238" stroke="#263238" stroke-miterlimit="10"/>
<path d="M52.4969 99.8745C52.822 99.8745 53.0855 99.3315 53.0855 98.6616C53.0855 97.9917 52.822 97.4486 52.4969 97.4486C52.1717 97.4486 51.9082 97.9917 51.9082 98.6616C51.9082 99.3315 52.1717 99.8745 52.4969 99.8745Z" fill="#263238"/>
<path d="M61.2974 98.4841C61.2974 99.1547 61.0352 99.6971 60.7137 99.6971C60.3921 99.6971 60.125 99.1547 60.125 98.4841C60.125 97.8135 60.3872 97.2662 60.7137 97.2662C61.0401 97.2662 61.2974 97.8135 61.2974 98.4841Z" fill="#263238"/>
<path d="M50.2861 96.8176C50.2861 96.8176 52.7248 95.1066 54.7085 95.8314" stroke="#263238" stroke-miterlimit="10"/>
<path d="M59.2246 95.9201C59.2246 95.9201 61.7523 94.7466 62.8357 95.8264" stroke="#263238" stroke-miterlimit="10"/>
<path d="M54.0801 100.89C54.0801 100.89 53.536 101.521 51.7305 102.059" stroke="#263238" stroke-miterlimit="10"/>
<path d="M59.0415 100.506C59.5757 100.873 60.1519 101.176 60.758 101.408" stroke="#263238" stroke-miterlimit="10"/>
<path d="M66.7388 123.882L67.6044 121.663C67.6044 121.663 68.7174 122.773 71.6854 122.773C74.6534 122.773 79.4764 124.868 79.4764 124.868L79.8474 125.485C79.8474 125.485 80.7131 122.896 82.3208 122.403C83.9284 121.91 86.5254 120.184 86.8964 119.691L87.2674 119.198L88.9988 120.677L81.3314 130.785L66.9861 125.238L66.7388 123.882Z" fill="white" stroke="#263238" stroke-miterlimit="10"/>
<path d="M66.8623 123.019L63.1523 142.619L76.0137 145.577L80.713 126.594L66.8623 123.019Z" fill="white" stroke="#263238" stroke-miterlimit="10"/>
<path d="M80.713 126.594L88.9986 120.677L84.052 139.661L76.0137 145.577L80.713 126.594Z" fill="white" stroke="#263238" stroke-miterlimit="10"/>
<path d="M50.9092 139.044L56.5138 136.741C56.5138 136.741 61.4604 131.485 61.9551 130.992C62.4498 130.499 67.3964 130.006 67.3964 130.006L72.8378 133.62C72.8378 133.62 73.8271 134.444 72.8378 134.769C71.8484 135.095 69.7065 134.113 69.7065 134.113L67.5597 132.797L66.2438 133.458L69.0437 135.755C69.0437 135.755 69.8698 137.895 69.8698 139.044C69.8546 139.782 69.6861 140.509 69.3751 141.179L67.7278 143.482L62.7812 141.016C62.7812 141.016 59.8132 143.151 59.1503 143.482C58.4875 143.812 52.225 143.319 52.225 143.319L50.9092 139.044Z" fill="white" stroke="#263238" stroke-miterlimit="10"/>
<path d="M62.7368 133.286L64.4879 132.955L65.9917 133.37" stroke="#263238" stroke-miterlimit="10"/>
<path d="M61.0698 136.529C61.0698 136.529 64.9876 135.445 65.2399 135.445C65.4921 135.445 68.4107 138.438 68.4107 138.438L68.7421 141.682" stroke="#263238" stroke-miterlimit="10"/>
<path d="M61.2378 138.605L64.4037 138.689L67.3222 140.602C67.6183 141.533 67.7554 142.506 67.7278 143.482" stroke="#263238" stroke-miterlimit="10"/>
<path d="M28.1545 114.884C28.1545 114.884 24.5236 115.377 24.029 118.498C23.5343 121.619 20.2398 147.919 21.2291 150.878C22.2185 153.836 40.5211 148.743 41.179 148.413C41.837 148.082 52.225 144.961 52.3931 144.305C52.5613 143.649 52.8878 138.221 51.4038 137.895C49.9198 137.57 35.7377 138.058 35.7377 138.058L33.759 120.963" fill="white"/>
<path d="M28.1545 114.884C28.1545 114.884 24.5236 115.377 24.029 118.498C23.5343 121.619 20.2398 147.919 21.2291 150.878C22.2185 153.836 40.5211 148.743 41.179 148.413C41.837 148.082 52.225 144.961 52.3931 144.305C52.5613 143.649 52.8878 138.221 51.4038 137.895C49.9198 137.57 35.7377 138.058 35.7377 138.058L33.759 120.963" stroke="#263238" stroke-miterlimit="10"/>
<path d="M35.7378 138.058L26.9971 139.537" stroke="#263238" stroke-miterlimit="10"/>
<path d="M25.3496 137.565L32.9328 138.551" stroke="#263238" stroke-miterlimit="10"/>
<path d="M86.7724 128.813C86.7724 128.813 83.4334 132.264 83.5571 133.127C83.6807 133.99 85.4121 132.634 85.7831 132.264C86.1541 131.895 87.8854 130.909 87.8854 129.922C87.8854 128.936 87.5144 127.827 86.7724 128.813Z" fill="white" stroke="#263238" stroke-miterlimit="10"/>
<path d="M87.1437 130.908C87.1437 130.908 88.133 131.895 88.133 132.757C88.133 133.62 86.0307 136.456 85.0414 136.456C84.052 136.456 84.794 134.483 85.2887 133.62C85.7834 132.757 87.1437 130.908 87.1437 130.908Z" fill="white" stroke="#263238" stroke-miterlimit="10"/>
<path d="M88.1329 132.757C88.1329 132.757 89.3695 133.127 89.3695 134.237C89.3695 135.346 87.0199 137.195 86.4016 137.318C85.7832 137.442 85.9069 136.332 86.4016 135.469C86.8962 134.606 88.1329 132.757 88.1329 132.757Z" fill="white" stroke="#263238" stroke-miterlimit="10"/>
<path d="M89.3694 134.237C89.6226 134.861 89.7079 135.541 89.6167 136.209C89.493 137.442 87.638 138.181 87.0197 138.181C86.4014 138.181 86.4014 137.318 86.4014 137.318C87.4479 136.347 88.4388 135.319 89.3694 134.237V134.237Z" fill="white" stroke="#263238" stroke-miterlimit="10"/>
<path d="M50.4737 222.866H48.124L46.9517 207.335H51.651L50.4737 222.866Z" fill="white" stroke="#263238" stroke-miterlimit="10"/>
<path d="M28.9561 222.866H26.6064L25.4341 207.335H30.1334L28.9561 222.866Z" fill="white" stroke="#263238" stroke-miterlimit="10"/>
<path d="M106.619 222.866H104.269L103.097 207.335H107.796L106.619 222.866Z" fill="white" stroke="#263238" stroke-miterlimit="10"/>
<path d="M85.1006 222.866H82.751L81.5786 207.335H86.2779L85.1006 222.866Z" fill="white" stroke="#263238" stroke-miterlimit="10"/>
<path d="M103.344 177.617H47.1992V210.16H103.344V177.617Z" fill="#263238" stroke="#263238" stroke-miterlimit="10"/>
<path d="M144.07 172.41C144.07 172.41 150.006 169.945 151.326 168.959C152.647 167.973 154.458 170.108 153.632 172.41C152.805 174.713 150.664 178.82 147.369 180.793C144.075 182.765 141.433 184.407 140.77 185.063C140.107 185.718 140.276 188.189 137.476 189.175C134.676 190.161 131.208 188.189 129.23 185.063C127.251 181.936 125.93 179.806 125.93 179.806C125.93 179.806 126.098 177.504 129.393 176.355C132.687 175.206 138.297 174.708 138.297 174.708L144.07 172.41Z" fill="white" stroke="#263238" stroke-miterlimit="10"/>
<path d="M76.5081 152.48C76.5081 152.48 80.421 151.534 81.4103 152.027C82.3996 152.52 85.699 155.646 85.699 155.646C85.699 155.646 105.649 155.971 107.133 156.632C108.617 157.293 123.952 168.959 127.251 170.601C130.55 172.243 133.35 173.722 133.35 173.722L130.877 184.569V185.556L131.045 187.202C131.045 187.202 122.468 184.569 120.326 184.076C118.184 183.583 109.28 178.983 108.454 178.983C107.628 178.983 100.87 177.011 100.87 177.011C100.87 177.011 99.8811 176.355 89.1617 175.369C78.4423 174.383 66.407 173.229 62.1183 173.066C57.8295 172.903 52.225 172.573 50.083 171.75C47.9411 170.926 44.147 165.177 43.4891 161.725C42.8312 158.274 49.7516 155.315 52.7196 153.999C55.6876 152.682 66.7385 151.041 68.7171 151.041C70.6958 151.041 76.5081 152.48 76.5081 152.48Z" fill="white" stroke="#263238" stroke-miterlimit="10"/>
<path d="M80.2579 157.288L76.9585 162.056L81.4105 159.097" fill="white"/>
<path d="M80.2579 157.288L76.9585 162.056L81.4105 159.097" stroke="#263238" stroke-miterlimit="10"/>
<path d="M130.877 171.587C130.877 171.587 135.661 167.805 136.65 166.656C137.639 165.507 140.939 159.26 141.597 157.288C142.255 155.316 143.907 154.329 145.059 155.809C146.212 157.288 147.038 160.246 147.696 161.563C148.354 162.879 147.369 169.284 145.391 171.424C143.412 173.564 140.677 178.746 140.113 179.806C138.629 182.597 136.319 182.928 134.835 183.09C133.351 183.253 129.725 179.313 129.725 179.313L130.877 171.587Z" fill="white" stroke="#263238" stroke-miterlimit="10"/>
<path d="M57.5031 160.577C57.5031 160.577 62.4498 159.59 66.9018 160.083C71.3538 160.577 80.421 163.367 84.2151 164.353C88.0092 165.34 94.7663 165.833 97.9025 166.986C101.039 168.14 109.28 169.615 115.542 169.615C121.805 169.615 131.372 170.438 131.372 170.438C131.372 170.438 130.056 179.969 130.382 181.779C130.708 183.235 131.149 184.663 131.703 186.049C131.703 186.049 119.005 187.035 115.379 187.528C111.753 188.021 97.0764 185.723 94.6031 185.063C92.1298 184.402 88.5038 183.421 86.1938 183.421C83.8837 183.421 79.4317 184.407 73.001 185.063C66.5703 185.718 57.5031 182.928 56.3505 182.765C55.1979 182.602 51.0724 181.118 50.0831 180.462C49.0938 179.806 43.321 169.615 45.2997 165.34C47.2783 161.065 49.7517 160.409 49.7517 160.409" fill="white"/>
<path d="M57.5031 160.577C57.5031 160.577 62.4498 159.59 66.9018 160.083C71.3538 160.577 80.421 163.367 84.2151 164.353C88.0092 165.34 94.7663 165.833 97.9025 166.986C101.039 168.14 109.28 169.615 115.542 169.615C121.805 169.615 131.372 170.438 131.372 170.438C131.372 170.438 130.056 179.969 130.382 181.779C130.708 183.235 131.149 184.663 131.703 186.049C131.703 186.049 119.005 187.035 115.379 187.528C111.753 188.021 97.0764 185.723 94.6031 185.063C92.1298 184.402 88.5038 183.421 86.1938 183.421C83.8837 183.421 79.4317 184.407 73.001 185.063C66.5703 185.718 57.5031 182.928 56.3505 182.765C55.1979 182.602 51.0724 181.118 50.0831 180.462C49.0938 179.806 43.321 169.615 45.2997 165.34C47.2783 161.065 49.7517 160.409 49.7517 160.409" stroke="#263238" stroke-miterlimit="10"/>
<path d="M87.8359 177.159C91.0166 177.79 94.3853 179.713 98.9412 181.493C105.021 183.864 117.189 183.647 118.758 183.864C120.326 184.081 124.308 183.864 124.308 183.864" fill="white"/>
<path d="M87.8359 177.159C91.0166 177.79 94.3853 179.713 98.9412 181.493C105.021 183.864 117.189 183.647 118.758 183.864C120.326 184.081 124.308 183.864 124.308 183.864" stroke="#263238" stroke-miterlimit="10"/>
<path d="M63.3105 179.387L65.126 179.649C70.409 180.438 80.4606 177.543 84.6752 177.016" fill="white"/>
<path d="M63.3105 179.387L65.126 179.649C70.409 180.438 80.4606 177.543 84.6752 177.016" stroke="#263238" stroke-miterlimit="10"/>
<path d="M57.9927 178.86C57.9927 178.86 58.9424 178.86 61.4207 179.151Z" fill="white"/>
<path d="M57.9927 178.86C57.9927 178.86 58.9424 178.86 61.4207 179.151" stroke="#263238" stroke-miterlimit="10"/>
<path d="M25.9236 150.631C25.9236 150.631 19.9876 150.631 18.8004 156.548C17.6132 162.465 22.2631 186.872 22.6341 193.775C23.0051 200.678 24.1972 210.293 24.1972 210.293H45.2205L49.9199 150.631H25.9236Z" fill="#263238" stroke="#263238" stroke-miterlimit="10"/>
<path d="M49.9201 150.631C49.9201 150.631 43.9841 150.631 42.5001 156.548C41.0161 162.465 44.4788 186.872 44.4788 193.775C44.4788 200.678 45.2208 210.293 45.2208 210.293H52.6408C52.6408 210.293 53.3828 192.542 53.3828 190.077C53.3828 187.612 56.3508 161.972 54.8668 156.795C53.3828 151.617 52.1461 151.124 49.9201 150.631Z" fill="#636363" stroke="#263238" stroke-miterlimit="10"/>
<path d="M98.209 222.866H95.8594L94.687 207.335H99.3863L98.209 222.866Z" fill="white" stroke="#263238" stroke-miterlimit="10"/>
<path d="M118.243 222.866H115.894L114.721 207.335H119.421L118.243 222.866Z" fill="white" stroke="#263238" stroke-miterlimit="10"/>
<path d="M127.642 222.866H125.292L124.12 207.335H128.819L127.642 222.866Z" fill="white" stroke="#263238" stroke-miterlimit="10"/>
<path d="M147.429 222.866H145.079L143.907 207.335H148.606L147.429 222.866Z" fill="white" stroke="#263238" stroke-miterlimit="10"/>
<path d="M95.3054 187.119H146.973C147.924 187.119 148.837 187.495 149.509 188.166C150.182 188.836 150.56 189.745 150.56 190.693V215.963H91.6943V190.693C91.6943 190.222 91.7879 189.755 91.9697 189.32C92.1514 188.884 92.4178 188.489 92.7535 188.157C93.0891 187.825 93.4874 187.562 93.9254 187.384C94.3634 187.205 94.8324 187.115 95.3054 187.119V187.119Z" fill="#263238" stroke="#263238" stroke-miterlimit="10"/>
<path d="M146.998 187.119H128.201C127.25 187.119 126.338 187.495 125.665 188.166C124.993 188.836 124.615 189.745 124.615 190.693V215.963H150.585V190.693C150.583 189.746 150.205 188.837 149.533 188.167C148.861 187.497 147.949 187.12 146.998 187.119V187.119Z" fill="#636363" stroke="#263238" stroke-miterlimit="10"/>
</svg>
