<svg width="260" height="231" viewBox="0 0 260 231" fill="none" xmlns="http://www.w3.org/2000/svg">
<path d="M229.27 153.694L228.825 157.796L236.58 148.473C237.508 148.573 238.44 148.623 239.372 148.625" stroke="#263238" stroke-linecap="round" stroke-linejoin="round"/>
<path d="M219.554 125.402C218.536 126.983 217.897 128.791 217.691 130.676C216.956 137.491 222.153 143.937 230.005 146.92L229.606 150.582" stroke="#263238" stroke-linecap="round" stroke-linejoin="round"/>
<path d="M222.569 122.009C222.064 122.43 221.584 122.882 221.133 123.363" stroke="#263238" stroke-linecap="round" stroke-linejoin="round"/>
<path d="M251.651 122.009C248.111 119.514 244.018 117.975 239.748 117.532C235.235 116.963 230.657 117.655 226.495 119.536" stroke="#263238" stroke-linecap="round" stroke-linejoin="round"/>
<path d="M244.768 148.074C252.175 146.498 257.788 141.628 258.443 135.311C258.922 130.893 256.91 126.633 253.315 123.363" stroke="#263238" stroke-linecap="round" stroke-linejoin="round"/>
<path d="M226.5 126.539C227.127 126.659 227.771 126.65 228.395 126.514C229.019 126.377 229.61 126.115 230.135 125.742L232.905 127.951C232.711 128.015 232.728 127.594 232.933 127.582C233.138 127.57 233.292 127.764 233.434 127.916C234.084 128.625 235.178 128.648 236.107 128.443C237.036 128.238 237.942 127.857 238.887 127.892C239.45 127.953 240.003 128.085 240.534 128.285C244.34 129.498 248.3 130.108 252.243 130.705" stroke="#263238" stroke-linecap="round" stroke-linejoin="round"/>
<path d="M223.229 130.705C223.799 130.67 226.973 130.705 227.429 130.313L228.204 131.701L229.059 130.852C229.207 131.438 229.355 132.024 229.497 132.575C230.141 132.733 230.067 131.455 230.637 131.074C230.812 130.986 231.013 130.969 231.2 131.027C231.387 131.084 231.546 131.212 231.645 131.385C231.832 131.745 231.923 132.149 231.908 132.557L235.805 132.885L236.563 132.95C236.834 132.525 237.235 132.205 237.702 132.041C237.56 132.967 238.694 133.495 239.594 133.682C244.027 134.612 248.483 135.415 252.962 136.091" stroke="#263238" stroke-linecap="round" stroke-linejoin="round"/>
<path d="M224.962 137.069C225.321 137.327 225.76 136.847 226.198 136.788C226.637 136.729 226.996 137.069 227.384 137.274C227.771 137.479 228.409 137.392 228.432 136.946C228.523 137.532 229.23 137.743 229.805 137.825L244.768 139.988" stroke="#263238" stroke-linecap="round" stroke-linejoin="round"/>
<path d="M24.7466 117.051L30.7408 125.349L29.5386 114.491C30.9718 113.775 32.3424 112.934 33.6354 111.977C39.7778 107.406 42.2508 100.052 40.0001 94.1271C38.4217 89.9899 34.7237 87.1771 30.0514 86.011" stroke="#263238" stroke-linecap="round" stroke-linejoin="round"/>
<path d="M1.07135 103.96C0.88455 105.839 1.13453 107.737 1.80069 109.498C4.22803 115.885 11.738 119.108 20.0342 117.995" stroke="#263238" stroke-linecap="round" stroke-linejoin="round"/>
<path d="M2.20507 99.5125C1.95057 100.128 1.73176 100.758 1.5498 101.399" stroke="#263238" stroke-linecap="round" stroke-linejoin="round"/>
<path d="M27.9603 85.6125C23.6972 85.0884 19.3743 85.6769 15.3906 87.3236C11.1387 88.9772 7.39877 91.7789 4.56445 95.4339" stroke="#263238" stroke-linecap="round" stroke-linejoin="round"/>
<path d="M7.73242 101.64C8.95818 101.246 9.98257 100.37 10.5814 99.2018L14.0002 99.8347C13.852 99.9812 13.6811 99.6003 13.8577 99.489C14.0344 99.3776 14.2566 99.489 14.4275 99.5476C15.3278 99.864 16.3022 99.3659 17.0315 98.7389C17.7609 98.1119 18.3876 97.3325 19.248 96.9223C19.7736 96.7063 20.3227 96.5568 20.8833 96.4769C24.8036 95.7386 28.5813 94.379 32.3477 93.0254" stroke="#263238" stroke-linecap="round" stroke-linejoin="round"/>
<path d="M6.71826 106.896C7.22538 106.585 10.0345 105.103 10.2624 104.552L11.5786 105.413C11.704 105.027 11.8293 104.634 11.949 104.241L13.1171 105.56C13.761 105.396 13.1171 104.3 13.4248 103.702C13.5394 103.54 13.7096 103.429 13.9011 103.391C14.0926 103.352 14.2909 103.391 14.4561 103.497C14.7815 103.722 15.0431 104.031 15.2139 104.394L18.8094 102.823L19.5159 102.519C19.5564 102.015 19.7566 101.54 20.0857 101.165C20.382 102.062 21.6242 101.979 22.5016 101.716C26.8511 100.427 31.1607 99.0085 35.4303 97.4614" stroke="#263238" stroke-linecap="round" stroke-linejoin="round"/>
<path d="M11.1284 111.701C11.5672 111.76 11.7381 111.115 12.0971 110.857C12.456 110.6 12.9347 110.734 13.3677 110.723C13.8008 110.711 14.3307 110.342 14.1483 109.937C14.4959 110.412 15.2196 110.26 15.7609 110.06L30.0058 104.816" stroke="#263238" stroke-linecap="round" stroke-linejoin="round"/>
<path d="M198.495 16.5173H56.4216C53.6555 16.5173 51.4131 18.8235 51.4131 21.6683V153.296C51.4131 156.14 53.6555 158.447 56.4216 158.447H198.495C201.261 158.447 203.503 156.14 203.503 153.296V21.6683C203.503 18.8235 201.261 16.5173 198.495 16.5173Z" fill="white"/>
<path opacity="0.2" d="M203.503 94.2618V153.448C203.503 154.773 202.992 156.043 202.082 156.98C201.172 157.918 199.937 158.445 198.649 158.446H56.2735C54.9844 158.446 53.7481 157.92 52.8367 156.982C51.9252 156.045 51.4131 154.774 51.4131 153.448V141.728H51.7151V149.627C51.7151 150.378 51.859 151.121 52.1385 151.815C52.4181 152.509 52.8278 153.139 53.3443 153.669C53.8607 154.2 54.4739 154.621 55.1485 154.907C55.8232 155.194 56.5463 155.341 57.2763 155.341H194.82C195.55 155.341 196.273 155.194 196.947 154.907C197.622 154.621 198.235 154.2 198.752 153.669C199.268 153.139 199.678 152.509 199.957 151.815C200.237 151.121 200.381 150.378 200.381 149.627V103.04C200.381 101.985 199.973 100.973 199.248 100.227C198.522 99.4804 197.538 99.0612 196.512 99.0612H51.4131V94.2618H203.503Z" fill="black"/>
<path d="M198.495 16.5173H56.4216C53.6555 16.5173 51.4131 18.8235 51.4131 21.6683V153.296C51.4131 156.14 53.6555 158.447 56.4216 158.447H198.495C201.261 158.447 203.503 156.14 203.503 153.296V21.6683C203.503 18.8235 201.261 16.5173 198.495 16.5173Z" stroke="#263238" stroke-linecap="round" stroke-linejoin="round"/>
<path d="M190.261 111.115V104.335C190.262 104.006 190.199 103.679 190.077 103.375C189.955 103.07 189.775 102.793 189.549 102.56C189.322 102.327 189.053 102.142 188.757 102.017C188.46 101.891 188.143 101.826 187.823 101.827H67.0939C66.4471 101.827 65.8268 102.091 65.3694 102.562C64.9121 103.032 64.6551 103.67 64.6551 104.335V111.115C64.6551 111.78 64.3982 112.418 63.9408 112.889C63.4835 113.359 62.8632 113.623 62.2164 113.623V113.623C61.5681 113.623 60.9464 113.888 60.4879 114.36C60.0295 114.831 59.772 115.471 59.772 116.137V129.516C59.772 132.601 60.9636 135.559 63.0847 137.741C65.2059 139.922 68.0827 141.148 71.0825 141.148V141.148C71.5645 141.148 72.0268 141.345 72.3677 141.695C72.7086 142.046 72.9001 142.521 72.9001 143.017V147.025C72.9001 148.505 73.4716 149.924 74.4889 150.97C75.5062 152.016 76.8859 152.604 78.3246 152.604H176.592C178.03 152.604 179.41 152.016 180.427 150.97C181.445 149.924 182.016 148.505 182.016 147.025V143.017C182.016 142.521 182.208 142.046 182.549 141.695C182.89 141.345 183.352 141.148 183.834 141.148C185.319 141.148 186.79 140.847 188.162 140.262C189.535 139.678 190.781 138.821 191.832 137.741C192.882 136.661 193.715 135.378 194.283 133.967C194.852 132.556 195.144 131.043 195.144 129.516V116.137C195.144 115.472 194.888 114.833 194.43 114.362C193.973 113.89 193.353 113.625 192.706 113.623C192.058 113.623 191.437 113.359 190.979 112.889C190.521 112.419 190.263 111.781 190.261 111.115V111.115Z" fill="#263238"/>
<path d="M73.9028 105.666H69.6806C69.1638 105.666 68.6681 105.877 68.3027 106.253C67.9372 106.628 67.7319 107.138 67.7319 107.67V108.783C67.7319 111.092 69.5496 114.022 71.7946 114.022C74.0396 114.022 75.8572 111.092 75.8572 108.783V107.67C75.8557 107.138 75.6492 106.628 75.2828 106.252C74.9164 105.876 74.4202 105.666 73.9028 105.666V105.666Z" fill="white" stroke="#263238" stroke-linecap="round" stroke-linejoin="round"/>
<path d="M84.0052 105.666H79.783C79.2657 105.666 78.7694 105.876 78.4031 106.252C78.0367 106.628 77.8301 107.138 77.8286 107.67V108.783C77.8286 111.092 79.6463 114.022 81.8913 114.022C84.1363 114.022 85.9539 111.092 85.9539 108.783V107.67C85.9539 107.138 85.7486 106.628 85.3832 106.253C85.0177 105.877 84.522 105.666 84.0052 105.666V105.666Z" fill="white" stroke="#263238" stroke-linecap="round" stroke-linejoin="round"/>
<path d="M94.1475 105.666H89.9253C89.4084 105.666 88.9128 105.877 88.5473 106.253C88.1819 106.628 87.9766 107.138 87.9766 107.67V108.783C87.9766 111.092 89.7942 114.022 92.0335 114.022C94.2728 114.022 96.0962 111.092 96.0962 108.783V107.67C96.0962 107.138 95.8909 106.628 95.5254 106.253C95.16 105.877 94.6643 105.666 94.1475 105.666V105.666Z" fill="white" stroke="#263238" stroke-linecap="round" stroke-linejoin="round"/>
<path d="M104.267 105.666H100.045C99.5281 105.666 99.0324 105.877 98.667 106.253C98.3015 106.628 98.0962 107.138 98.0962 107.67V108.783C98.0962 111.092 99.9138 114.022 102.159 114.022C104.404 114.022 106.216 111.092 106.216 108.783V107.67C106.216 107.406 106.165 107.146 106.067 106.903C105.97 106.66 105.826 106.439 105.645 106.253C105.464 106.066 105.249 105.919 105.013 105.818C104.776 105.717 104.523 105.666 104.267 105.666V105.666Z" fill="white" stroke="#263238" stroke-linecap="round" stroke-linejoin="round"/>
<path d="M114.387 105.666H110.165C109.648 105.666 109.152 105.877 108.787 106.253C108.421 106.628 108.216 107.138 108.216 107.67V108.783C108.216 111.092 110.033 114.022 112.278 114.022C114.523 114.022 116.341 111.092 116.341 108.783V107.67C116.34 107.138 116.133 106.628 115.767 106.252C115.4 105.876 114.904 105.666 114.387 105.666V105.666Z" fill="white" stroke="#263238" stroke-linecap="round" stroke-linejoin="round"/>
<path d="M124.512 105.666H120.29C119.772 105.666 119.276 105.876 118.91 106.252C118.544 106.628 118.337 107.138 118.335 107.67V108.783C118.335 111.092 120.153 114.022 122.398 114.022C124.643 114.022 126.461 111.092 126.461 108.783V107.67C126.461 107.138 126.255 106.628 125.89 106.253C125.525 105.877 125.029 105.666 124.512 105.666V105.666Z" fill="white" stroke="#263238" stroke-linecap="round" stroke-linejoin="round"/>
<path d="M134.632 105.666H130.41C129.893 105.666 129.397 105.877 129.032 106.253C128.666 106.628 128.461 107.138 128.461 107.67V108.783C128.461 111.092 130.279 114.022 132.518 114.022C134.757 114.022 136.581 111.092 136.581 108.783V107.67C136.581 107.138 136.375 106.628 136.01 106.253C135.644 105.877 135.149 105.666 134.632 105.666V105.666Z" fill="white" stroke="#263238" stroke-linecap="round" stroke-linejoin="round"/>
<path d="M144.751 105.666H140.529C140.012 105.666 139.517 105.877 139.151 106.253C138.786 106.628 138.581 107.138 138.581 107.67V108.783C138.581 111.092 140.398 114.022 142.643 114.022C144.888 114.022 146.7 111.092 146.7 108.783V107.67C146.7 107.138 146.495 106.628 146.129 106.253C145.764 105.877 145.268 105.666 144.751 105.666V105.666Z" fill="white" stroke="#263238" stroke-linecap="round" stroke-linejoin="round"/>
<path d="M154.871 105.665H150.671C150.415 105.665 150.162 105.717 149.926 105.818C149.689 105.919 149.474 106.066 149.293 106.252C149.112 106.439 148.969 106.659 148.871 106.903C148.773 107.146 148.723 107.406 148.723 107.67V108.783C148.723 111.092 150.54 114.022 152.785 114.022C155.03 114.022 156.848 111.092 156.848 108.783V107.67C156.847 107.404 156.795 107.141 156.695 106.897C156.595 106.652 156.449 106.43 156.265 106.244C156.082 106.057 155.864 105.91 155.624 105.811C155.385 105.712 155.129 105.662 154.871 105.665V105.665Z" fill="white" stroke="#263238" stroke-linecap="round" stroke-linejoin="round"/>
<path d="M164.996 105.666H160.774C160.257 105.666 159.761 105.876 159.394 106.252C159.028 106.628 158.821 107.138 158.82 107.67V108.783C158.82 111.092 160.637 114.022 162.882 114.022C165.127 114.022 166.945 111.092 166.945 108.783V107.67C166.945 107.138 166.74 106.628 166.374 106.253C166.009 105.877 165.513 105.666 164.996 105.666V105.666Z" fill="white" stroke="#263238" stroke-linecap="round" stroke-linejoin="round"/>
<path d="M175.116 105.666H170.894C170.377 105.666 169.881 105.877 169.516 106.253C169.15 106.628 168.945 107.138 168.945 107.67V108.783C168.945 111.092 170.762 114.022 173.002 114.022C175.241 114.022 177.064 111.092 177.064 108.783V107.67C177.064 107.138 176.859 106.628 176.494 106.253C176.128 105.877 175.633 105.666 175.116 105.666V105.666Z" fill="white" stroke="#263238" stroke-linecap="round" stroke-linejoin="round"/>
<path d="M185.235 105.665H181.013C180.496 105.665 180.001 105.877 179.635 106.252C179.27 106.628 179.064 107.138 179.064 107.67V108.783C179.064 111.086 180.871 114.016 183.15 114.016C185.429 114.016 187.207 111.086 187.207 108.777V107.664C187.206 107.399 187.154 107.137 187.055 106.893C186.955 106.649 186.809 106.428 186.626 106.242C186.443 106.056 186.225 105.91 185.987 105.811C185.748 105.712 185.493 105.662 185.235 105.665V105.665Z" fill="white" stroke="#263238" stroke-linecap="round" stroke-linejoin="round"/>
<path d="M73.9028 127.723H69.6806C69.1638 127.723 68.6681 127.934 68.3027 128.31C67.9372 128.685 67.7319 129.195 67.7319 129.727V130.84C67.7319 133.149 69.5496 136.079 71.7946 136.079C74.0396 136.079 75.8572 133.149 75.8572 130.84V129.727C75.8557 129.195 75.6492 128.685 75.2828 128.309C74.9164 127.933 74.4202 127.723 73.9028 127.723V127.723Z" fill="white" stroke="#263238" stroke-linecap="round" stroke-linejoin="round"/>
<path d="M84.0052 127.723H79.783C79.2657 127.723 78.7694 127.933 78.4031 128.309C78.0367 128.685 77.8301 129.195 77.8286 129.727V130.84C77.8286 133.149 79.6463 136.079 81.8913 136.079C84.1363 136.079 85.9539 133.149 85.9539 130.84V129.727C85.9539 129.195 85.7486 128.685 85.3832 128.31C85.0177 127.934 84.522 127.723 84.0052 127.723V127.723Z" fill="white" stroke="#263238" stroke-linecap="round" stroke-linejoin="round"/>
<path d="M94.1475 127.723H89.9253C89.4084 127.723 88.9128 127.934 88.5473 128.31C88.1819 128.685 87.9766 129.195 87.9766 129.727V130.84C87.9766 133.149 89.7942 136.079 92.0335 136.079C94.2728 136.079 96.0962 133.149 96.0962 130.84V129.727C96.0962 129.195 95.8909 128.685 95.5254 128.31C95.16 127.934 94.6643 127.723 94.1475 127.723V127.723Z" fill="white" stroke="#263238" stroke-linecap="round" stroke-linejoin="round"/>
<path d="M104.267 127.723H100.045C99.5281 127.723 99.0324 127.934 98.667 128.31C98.3015 128.685 98.0962 129.195 98.0962 129.727V130.84C98.0962 133.149 99.9138 136.079 102.159 136.079C104.404 136.079 106.216 133.149 106.216 130.84V129.727C106.216 129.463 106.165 129.203 106.067 128.96C105.97 128.717 105.826 128.496 105.645 128.31C105.464 128.123 105.249 127.976 105.013 127.875C104.776 127.774 104.523 127.723 104.267 127.723V127.723Z" fill="white" stroke="#263238" stroke-linecap="round" stroke-linejoin="round"/>
<path d="M114.387 127.723H110.165C109.648 127.723 109.152 127.934 108.787 128.31C108.421 128.685 108.216 129.195 108.216 129.727V130.84C108.216 133.149 110.033 136.079 112.278 136.079C114.523 136.079 116.341 133.149 116.341 130.84V129.727C116.34 129.195 116.133 128.685 115.767 128.309C115.4 127.933 114.904 127.723 114.387 127.723V127.723Z" fill="white" stroke="#263238" stroke-linecap="round" stroke-linejoin="round"/>
<path d="M124.512 127.723H120.29C119.772 127.723 119.276 127.933 118.91 128.309C118.544 128.685 118.337 129.195 118.335 129.727V130.84C118.335 133.149 120.153 136.079 122.398 136.079C124.643 136.079 126.461 133.149 126.461 130.84V129.727C126.461 129.195 126.255 128.685 125.89 128.31C125.525 127.934 125.029 127.723 124.512 127.723Z" fill="white" stroke="#263238" stroke-linecap="round" stroke-linejoin="round"/>
<path d="M134.632 127.723H130.41C129.893 127.723 129.397 127.934 129.032 128.31C128.666 128.685 128.461 129.195 128.461 129.727V130.84C128.461 133.149 130.279 136.079 132.518 136.079C134.757 136.079 136.581 133.149 136.581 130.84V129.727C136.581 129.195 136.375 128.685 136.01 128.31C135.644 127.934 135.149 127.723 134.632 127.723V127.723Z" fill="white" stroke="#263238" stroke-linecap="round" stroke-linejoin="round"/>
<path d="M144.751 127.723H140.529C140.012 127.723 139.517 127.934 139.151 128.31C138.786 128.685 138.581 129.195 138.581 129.727V130.84C138.581 133.149 140.398 136.079 142.643 136.079C144.888 136.079 146.7 133.149 146.7 130.84V129.727C146.7 129.195 146.495 128.685 146.129 128.31C145.764 127.934 145.268 127.723 144.751 127.723V127.723Z" fill="white" stroke="#263238" stroke-linecap="round" stroke-linejoin="round"/>
<path d="M154.871 127.723H150.671C150.415 127.723 150.162 127.774 149.926 127.875C149.689 127.976 149.474 128.123 149.293 128.31C149.112 128.496 148.969 128.717 148.871 128.96C148.773 129.203 148.723 129.463 148.723 129.727V130.84C148.723 133.149 150.54 136.079 152.785 136.079C155.03 136.079 156.848 133.149 156.848 130.84V129.727C156.847 129.461 156.795 129.199 156.695 128.954C156.595 128.709 156.449 128.487 156.265 128.301C156.082 128.115 155.864 127.967 155.624 127.868C155.385 127.769 155.129 127.719 154.871 127.723V127.723Z" fill="white" stroke="#263238" stroke-linecap="round" stroke-linejoin="round"/>
<path d="M164.996 127.723H160.774C160.257 127.723 159.761 127.933 159.394 128.309C159.028 128.685 158.821 129.195 158.82 129.727V130.84C158.82 133.149 160.637 136.079 162.882 136.079C165.127 136.079 166.945 133.149 166.945 130.84V129.727C166.945 129.195 166.74 128.685 166.374 128.31C166.009 127.934 165.513 127.723 164.996 127.723V127.723Z" fill="white" stroke="#263238" stroke-linecap="round" stroke-linejoin="round"/>
<path d="M175.116 127.723H170.894C170.377 127.723 169.881 127.934 169.516 128.31C169.15 128.685 168.945 129.195 168.945 129.727V130.84C168.945 133.149 170.762 136.079 173.002 136.079C175.241 136.079 177.064 133.149 177.064 130.84V129.727C177.064 129.195 176.859 128.685 176.494 128.31C176.128 127.934 175.633 127.723 175.116 127.723Z" fill="white" stroke="#263238" stroke-linecap="round" stroke-linejoin="round"/>
<path d="M185.235 127.723H181.013C180.496 127.723 180.001 127.934 179.635 128.31C179.27 128.685 179.064 129.195 179.064 129.727V130.84C179.064 133.149 180.882 136.079 183.127 136.079C185.372 136.079 187.184 133.149 187.184 130.84V129.727C187.184 129.195 186.979 128.685 186.613 128.31C186.248 127.934 185.752 127.723 185.235 127.723V127.723Z" fill="white" stroke="#263238" stroke-linecap="round" stroke-linejoin="round"/>
<path d="M68.8431 117.051H64.6323C64.1155 117.051 63.6198 117.263 63.2544 117.638C62.8889 118.014 62.6836 118.524 62.6836 119.056V120.169C62.6836 122.472 64.5012 125.408 66.7462 125.408C68.9912 125.408 70.8032 122.478 70.8032 120.169V119.056C70.8032 118.791 70.7524 118.53 70.6538 118.286C70.5551 118.042 70.4106 117.821 70.2284 117.634C70.0462 117.448 69.8301 117.301 69.5923 117.201C69.3546 117.101 69.1 117.05 68.8431 117.051V117.051Z" fill="white" stroke="#263238" stroke-linecap="round" stroke-linejoin="round"/>
<path d="M78.9624 117.051H74.7402C74.2234 117.051 73.7277 117.263 73.3623 117.638C72.9968 118.014 72.7915 118.524 72.7915 119.056V120.169C72.7915 122.472 74.6092 125.408 76.8542 125.408C79.0992 125.408 80.9168 122.478 80.9168 120.169V119.056C80.9153 118.523 80.7087 118.014 80.3424 117.638C79.976 117.262 79.4798 117.051 78.9624 117.051V117.051Z" fill="white" stroke="#263238" stroke-linecap="round" stroke-linejoin="round"/>
<path d="M89.0877 117.051H84.8655C84.3482 117.051 83.8519 117.262 83.4856 117.638C83.1192 118.014 82.9126 118.523 82.9111 119.056V120.169C82.9111 122.472 84.7345 125.408 86.9738 125.408C89.2131 125.408 91.0364 122.478 91.0364 120.169V119.056C91.0364 118.524 90.8311 118.014 90.4657 117.638C90.1002 117.263 89.6046 117.051 89.0877 117.051V117.051Z" fill="white" stroke="#263238" stroke-linecap="round" stroke-linejoin="round"/>
<path d="M99.2075 117.051H94.9853C94.4685 117.051 93.9728 117.263 93.6074 117.638C93.2419 118.014 93.0366 118.524 93.0366 119.056V120.169C93.0366 122.472 94.8543 125.408 97.0936 125.408C99.3329 125.408 101.156 122.478 101.156 120.169V119.056C101.156 118.792 101.106 118.532 101.008 118.289C100.91 118.045 100.766 117.824 100.585 117.638C100.405 117.452 100.19 117.305 99.9533 117.204C99.7168 117.103 99.4634 117.051 99.2075 117.051V117.051Z" fill="white" stroke="#263238" stroke-linecap="round" stroke-linejoin="round"/>
<path d="M109.327 117.051H105.088C104.571 117.051 104.075 117.263 103.71 117.638C103.344 118.014 103.139 118.524 103.139 119.056V120.169C103.139 122.472 104.957 125.408 107.202 125.408C109.447 125.408 111.259 122.478 111.259 120.169V119.056C111.259 118.527 111.056 118.02 110.694 117.645C110.332 117.269 109.841 117.056 109.327 117.051V117.051Z" fill="white" stroke="#263238" stroke-linecap="round" stroke-linejoin="round"/>
<path d="M119.447 117.051H115.225C114.708 117.051 114.212 117.263 113.847 117.638C113.481 118.014 113.276 118.524 113.276 119.056V120.169C113.276 122.472 115.094 125.408 117.339 125.408C119.584 125.408 121.401 122.478 121.401 120.169V119.056C121.4 118.523 121.193 118.014 120.827 117.638C120.46 117.262 119.964 117.051 119.447 117.051V117.051Z" fill="white" stroke="#263238" stroke-linecap="round" stroke-linejoin="round"/>
<path d="M129.589 117.051H125.367C124.85 117.051 124.353 117.262 123.987 117.638C123.621 118.014 123.414 118.523 123.413 119.056V120.169C123.413 122.472 125.236 125.408 127.475 125.408C129.715 125.408 131.538 122.478 131.538 120.169V119.056C131.538 118.524 131.333 118.014 130.967 117.638C130.602 117.263 130.106 117.051 129.589 117.051V117.051Z" fill="white" stroke="#263238" stroke-linecap="round" stroke-linejoin="round"/>
<path d="M139.691 117.051H135.469C134.952 117.051 134.457 117.263 134.091 117.638C133.726 118.014 133.521 118.524 133.521 119.056V120.169C133.521 122.472 135.338 125.408 137.577 125.408C139.817 125.408 141.64 122.478 141.64 120.169V119.056C141.64 118.524 141.435 118.014 141.069 117.638C140.704 117.263 140.208 117.051 139.691 117.051Z" fill="white" stroke="#263238" stroke-linecap="round" stroke-linejoin="round"/>
<path d="M149.811 117.051H145.589C145.072 117.051 144.576 117.263 144.211 117.638C143.845 118.014 143.64 118.524 143.64 119.056V120.169C143.64 122.472 145.458 125.408 147.703 125.408C149.948 125.408 151.76 122.478 151.76 120.169V119.056C151.76 118.524 151.554 118.014 151.189 117.638C150.824 117.263 150.328 117.051 149.811 117.051Z" fill="white" stroke="#263238" stroke-linecap="round" stroke-linejoin="round"/>
<path d="M159.931 117.051H155.708C155.192 117.051 154.696 117.263 154.331 117.638C153.965 118.014 153.76 118.524 153.76 119.056V120.169C153.76 122.472 155.577 125.408 157.822 125.408C160.067 125.408 161.885 122.478 161.885 120.169V119.056C161.884 118.523 161.677 118.014 161.311 117.638C160.944 117.262 160.448 117.051 159.931 117.051V117.051Z" fill="white" stroke="#263238" stroke-linecap="round" stroke-linejoin="round"/>
<path d="M170.045 117.051H165.823C165.305 117.051 164.809 117.262 164.443 117.638C164.076 118.014 163.87 118.523 163.868 119.056V120.169C163.868 122.472 165.692 125.408 167.931 125.408C170.17 125.408 171.993 122.478 171.993 120.169V119.056C171.993 118.524 171.788 118.014 171.423 117.638C171.057 117.263 170.562 117.051 170.045 117.051Z" fill="white" stroke="#263238" stroke-linecap="round" stroke-linejoin="round"/>
<path d="M180.176 117.051H175.953C175.442 117.059 174.953 117.274 174.594 117.649C174.235 118.024 174.033 118.529 174.033 119.056V120.169C174.033 122.472 175.851 125.408 178.09 125.408C180.329 125.408 182.153 122.478 182.153 120.169V119.056C182.153 118.79 182.101 118.527 182.002 118.282C181.902 118.037 181.756 117.815 181.572 117.628C181.388 117.442 181.17 117.295 180.93 117.196C180.69 117.097 180.434 117.048 180.176 117.051V117.051Z" fill="white" stroke="#263238" stroke-linecap="round" stroke-linejoin="round"/>
<path d="M190.295 117.051H186.073C185.556 117.051 185.061 117.263 184.695 117.638C184.33 118.014 184.125 118.524 184.125 119.056V120.169C184.125 122.472 185.942 125.408 188.187 125.408C190.432 125.408 192.244 122.478 192.244 120.169V119.056C192.244 118.524 192.039 118.014 191.673 117.638C191.308 117.263 190.812 117.051 190.295 117.051V117.051Z" fill="white" stroke="#263238" stroke-linecap="round" stroke-linejoin="round"/>
<path d="M166.113 138.833H88.8032C87.793 138.833 86.9741 139.675 86.9741 140.714V146.422C86.9741 147.461 87.793 148.303 88.8032 148.303H166.113C167.123 148.303 167.942 147.461 167.942 146.422V140.714C167.942 139.675 167.123 138.833 166.113 138.833Z" fill="white" stroke="#263238" stroke-linecap="round" stroke-linejoin="round"/>
<path d="M176.466 139.39H172.244C171.727 139.39 171.232 139.601 170.866 139.977C170.501 140.353 170.295 140.862 170.295 141.394V142.507C170.295 144.816 172.113 147.746 174.358 147.746C176.603 147.746 178.415 144.816 178.415 142.507V141.394C178.415 140.862 178.21 140.353 177.844 139.977C177.479 139.601 176.983 139.39 176.466 139.39Z" fill="white" stroke="#263238" stroke-linecap="round" stroke-linejoin="round"/>
<path d="M82.6719 139.39H78.4497C77.9329 139.39 77.4372 139.601 77.0717 139.977C76.7063 140.353 76.501 140.862 76.501 141.394V142.507C76.501 144.816 78.3186 147.746 80.5636 147.746C82.8086 147.746 84.6263 144.816 84.6263 142.507V141.394C84.6248 140.862 84.4182 140.352 84.0518 139.976C83.6855 139.601 83.1892 139.39 82.6719 139.39V139.39Z" fill="white" stroke="#263238" stroke-linecap="round" stroke-linejoin="round"/>
<path opacity="0.2" d="M74.1364 108.847C74.3409 108.848 74.5449 108.868 74.746 108.906C74.746 108.865 74.746 108.824 74.746 108.783V107.67C74.7445 107.439 74.6544 107.218 74.4954 107.056C74.3363 106.893 74.1212 106.802 73.897 106.802H69.6748C69.4517 106.804 69.238 106.896 69.0802 107.058C68.9224 107.22 68.833 107.44 68.8315 107.67V108.783C68.8315 110.383 69.9711 112.399 71.3159 112.803C70.8999 111.027 71.8344 108.847 74.1364 108.847Z" fill="black"/>
<path opacity="0.2" d="M84.4841 108.549C84.6131 108.539 84.7425 108.539 84.8715 108.549V107.646C84.87 107.417 84.7807 107.197 84.6229 107.035C84.465 106.872 84.2514 106.78 84.0282 106.779H79.806C79.5818 106.779 79.3668 106.87 79.2077 107.032C79.0486 107.195 78.9585 107.416 78.957 107.646V108.759C78.957 110.517 80.3075 112.715 81.806 112.861C81.1166 111.045 82.0225 108.549 84.4841 108.549Z" fill="black"/>
<path opacity="0.2" d="M94.9057 108.396H94.9912V107.664C94.9912 107.434 94.9023 107.213 94.7442 107.05C94.586 106.888 94.3715 106.796 94.1479 106.796H89.9257C89.7015 106.796 89.4864 106.888 89.3273 107.05C89.1683 107.213 89.0782 107.433 89.0767 107.664V108.777C89.0767 110.564 90.5125 112.879 92.0339 112.879C92.1079 112.885 92.1822 112.885 92.2561 112.879C91.4926 111.027 92.3758 108.396 94.9057 108.396Z" fill="black"/>
<path opacity="0.2" d="M104.381 108.097C104.618 108.09 104.855 108.11 105.088 108.156V107.646C105.088 107.416 104.999 107.195 104.841 107.033C104.683 106.87 104.468 106.779 104.245 106.779H100.022C99.7988 106.779 99.5843 106.87 99.4262 107.033C99.268 107.195 99.1792 107.416 99.1792 107.646V108.759C99.1792 110.435 100.433 112.568 101.846 112.861C100.877 111.021 101.715 108.097 104.381 108.097Z" fill="black"/>
<path opacity="0.2" d="M115.019 108.097H115.236V107.658C115.234 107.427 115.144 107.207 114.985 107.044C114.826 106.882 114.611 106.791 114.387 106.791H110.165C109.941 106.792 109.728 106.884 109.57 107.046C109.412 107.209 109.323 107.428 109.321 107.658V108.771C109.321 110.559 110.757 112.873 112.279 112.873C112.356 112.879 112.434 112.879 112.512 112.873C111.515 111.027 112.353 108.097 115.019 108.097Z" fill="black"/>
<path opacity="0.2" d="M125.224 108.156H125.355V107.646C125.354 107.417 125.265 107.197 125.107 107.035C124.949 106.872 124.735 106.78 124.512 106.779H120.29C120.066 106.779 119.851 106.87 119.692 107.032C119.533 107.195 119.442 107.416 119.441 107.646V108.759C119.441 110.547 120.877 112.861 122.398 112.861C122.491 112.87 122.584 112.87 122.677 112.861C121.743 111.016 122.592 108.156 125.224 108.156Z" fill="black"/>
<path opacity="0.2" d="M134.991 108.097C135.153 108.1 135.315 108.111 135.475 108.132V107.67C135.475 107.44 135.386 107.219 135.228 107.056C135.07 106.894 134.856 106.802 134.632 106.802H130.41C130.186 106.802 129.972 106.894 129.813 107.056C129.655 107.219 129.566 107.44 129.566 107.67V108.783C129.566 110.541 130.979 112.85 132.489 112.885C131.481 111.045 132.313 108.097 134.991 108.097Z" fill="black"/>
<path opacity="0.2" d="M145.595 108.25V107.664C145.595 107.434 145.506 107.213 145.348 107.05C145.19 106.888 144.975 106.796 144.752 106.796H140.529C140.306 106.796 140.091 106.888 139.933 107.05C139.775 107.213 139.686 107.434 139.686 107.664V108.777C139.686 110.564 141.116 112.879 142.643 112.879C142.796 112.877 142.948 112.851 143.093 112.803C142.273 110.998 143.111 108.332 145.595 108.25Z" fill="black"/>
<path opacity="0.2" d="M154.888 108.021C155.169 108.02 155.448 108.058 155.72 108.132V107.67C155.718 107.439 155.628 107.218 155.469 107.056C155.31 106.893 155.095 106.802 154.871 106.802H150.671C150.448 106.804 150.235 106.896 150.077 107.058C149.919 107.22 149.83 107.44 149.828 107.67V108.783C149.828 110.435 151.047 112.522 152.432 112.838C151.367 111.004 152.193 108.021 154.888 108.021Z" fill="black"/>
<path opacity="0.2" d="M165.236 108.021C165.438 108.022 165.641 108.041 165.84 108.08V107.67C165.838 107.44 165.749 107.22 165.591 107.058C165.433 106.896 165.22 106.804 164.997 106.802H160.774C160.55 106.802 160.335 106.893 160.176 107.056C160.017 107.218 159.927 107.439 159.925 107.67V108.783C159.925 110.541 161.293 112.774 162.774 112.885C161.703 111.045 162.524 108.021 165.236 108.021Z" fill="black"/>
<path opacity="0.2" d="M175.515 108.32C175.663 108.322 175.812 108.334 175.959 108.355V107.67C175.959 107.44 175.87 107.219 175.712 107.056C175.554 106.894 175.339 106.802 175.116 106.802H170.894C170.783 106.802 170.673 106.825 170.571 106.868C170.469 106.912 170.376 106.976 170.297 107.056C170.219 107.137 170.157 107.232 170.114 107.338C170.072 107.443 170.05 107.556 170.05 107.67V108.783C170.05 110.541 171.418 112.768 172.899 112.885C172.073 111.033 172.945 108.32 175.515 108.32Z" fill="black"/>
<path opacity="0.2" d="M186.079 108.185V107.67C186.079 107.44 185.99 107.219 185.832 107.056C185.674 106.894 185.459 106.802 185.235 106.802H181.013C180.79 106.802 180.575 106.894 180.417 107.056C180.259 107.219 180.17 107.44 180.17 107.67V108.783C180.17 110.57 181.6 112.885 183.127 112.885C183.347 112.882 183.564 112.834 183.765 112.744C182.956 110.975 183.72 108.384 186.079 108.185Z" fill="black"/>
<path opacity="0.2" d="M74.4271 129.838C74.5353 129.832 74.6437 129.832 74.7519 129.838V129.715C74.7504 129.484 74.6603 129.264 74.5012 129.101C74.3422 128.939 74.1271 128.848 73.9029 128.848H69.6807C69.4575 128.849 69.2439 128.941 69.086 129.103C68.9282 129.266 68.8389 129.485 68.8374 129.715V130.828C68.8374 132.616 70.2733 134.93 71.7947 134.93C71.8999 134.928 72.0047 134.916 72.108 134.895C70.8317 133.114 71.6066 129.838 74.4271 129.838Z" fill="black"/>
<path opacity="0.2" d="M84.3416 129.838C84.5192 129.839 84.6965 129.854 84.8715 129.885V129.733C84.87 129.503 84.7807 129.283 84.6229 129.121C84.465 128.959 84.2514 128.867 84.0282 128.865H79.806C79.5818 128.865 79.3668 128.956 79.2077 129.119C79.0486 129.281 78.9585 129.502 78.957 129.733V130.846C78.957 132.633 80.3929 134.948 81.9143 134.948H82.0396C80.7348 133.143 81.504 129.838 84.3416 129.838Z" fill="black"/>
<path opacity="0.2" d="M94.3984 129.985C94.5895 129.985 94.7801 130.003 94.9682 130.037V129.727C94.9682 129.613 94.9464 129.5 94.904 129.395C94.8616 129.29 94.7995 129.194 94.7212 129.113C94.6429 129.033 94.5499 128.969 94.4476 128.925C94.3453 128.882 94.2357 128.859 94.1249 128.859H89.9027C89.6785 128.859 89.4634 128.951 89.3044 129.113C89.1453 129.276 89.0552 129.496 89.0537 129.727V130.84C89.0537 132.598 90.4668 134.901 91.9768 134.942C90.8429 133.12 91.6349 129.985 94.3984 129.985Z" fill="black"/>
<path opacity="0.2" d="M104.672 130.061C104.818 130.061 104.965 130.071 105.11 130.09V129.727C105.11 129.613 105.089 129.5 105.046 129.395C105.004 129.29 104.942 129.194 104.863 129.113C104.785 129.033 104.692 128.969 104.59 128.925C104.488 128.882 104.378 128.859 104.267 128.859H100.045C99.9342 128.859 99.8246 128.882 99.7222 128.925C99.6199 128.969 99.527 129.033 99.4487 129.113C99.3704 129.194 99.3082 129.29 99.2659 129.395C99.2235 129.5 99.2017 129.613 99.2017 129.727V130.84C99.2017 132.627 100.632 134.942 102.159 134.942H102.227C101.133 133.108 101.948 130.061 104.672 130.061Z" fill="black"/>
<path opacity="0.2" d="M114.586 129.838C114.804 129.838 115.022 129.86 115.236 129.902V129.733C115.234 129.502 115.144 129.281 114.985 129.119C114.826 128.956 114.611 128.865 114.387 128.865H110.165C109.941 128.867 109.728 128.959 109.57 129.121C109.412 129.283 109.323 129.503 109.321 129.733V130.846C109.321 132.633 110.757 134.948 112.279 134.948C110.979 133.155 111.743 129.838 114.586 129.838Z" fill="black"/>
<path opacity="0.2" d="M124.86 129.908C125.026 129.91 125.191 129.923 125.355 129.949V129.727C125.354 129.497 125.265 129.277 125.107 129.115C124.949 128.953 124.735 128.861 124.512 128.859H120.29C120.066 128.859 119.851 128.951 119.692 129.113C119.533 129.276 119.442 129.496 119.441 129.727V130.84C119.441 132.627 120.877 134.942 122.398 134.942H122.506C121.276 133.125 122.062 129.908 124.86 129.908Z" fill="black"/>
<path opacity="0.2" d="M135.356 130.131H135.475V129.721C135.475 129.491 135.386 129.27 135.228 129.108C135.07 128.945 134.856 128.854 134.632 128.854H130.41C130.186 128.854 129.972 128.945 129.813 129.108C129.655 129.27 129.566 129.491 129.566 129.721V130.834C129.566 132.621 130.997 134.936 132.518 134.936C132.629 134.934 132.74 134.921 132.848 134.895C131.868 133.067 132.683 130.131 135.356 130.131Z" fill="black"/>
<path opacity="0.2" d="M145.544 129.908H145.578V129.727C145.578 129.613 145.556 129.5 145.514 129.395C145.471 129.29 145.409 129.194 145.331 129.113C145.252 129.033 145.16 128.969 145.057 128.925C144.955 128.882 144.845 128.859 144.734 128.859H140.529C140.419 128.859 140.309 128.882 140.207 128.925C140.104 128.969 140.011 129.033 139.933 129.113C139.855 129.194 139.793 129.29 139.75 129.395C139.708 129.5 139.686 129.613 139.686 129.727V130.84C139.686 132.627 141.116 134.942 142.643 134.942C142.818 134.939 142.991 134.908 143.156 134.848C141.999 133.032 142.803 129.908 145.544 129.908Z" fill="black"/>
<path opacity="0.2" d="M155.395 129.686H155.714C155.705 129.461 155.613 129.249 155.456 129.093C155.299 128.937 155.089 128.849 154.871 128.848H150.671C150.448 128.849 150.235 128.941 150.077 129.103C149.919 129.266 149.83 129.485 149.828 129.715V130.828C149.828 132.616 151.264 134.93 152.785 134.93C152.924 134.926 153.062 134.904 153.196 134.866C151.765 133.12 152.506 129.686 155.395 129.686Z" fill="black"/>
<path opacity="0.2" d="M165.823 129.838V129.733C165.821 129.503 165.732 129.283 165.574 129.121C165.416 128.959 165.203 128.867 164.979 128.865H160.757C160.533 128.865 160.318 128.956 160.159 129.119C160 129.281 159.91 129.502 159.908 129.733V130.846C159.908 132.633 161.344 134.948 162.865 134.948C163.06 134.945 163.252 134.909 163.435 134.842C162.244 133.026 163.031 129.838 165.823 129.838Z" fill="black"/>
<path opacity="0.2" d="M175.743 129.838H175.971V129.721C175.971 129.607 175.949 129.494 175.907 129.389C175.864 129.284 175.802 129.188 175.724 129.108C175.646 129.027 175.553 128.963 175.45 128.92C175.348 128.876 175.238 128.854 175.128 128.854H170.905C170.682 128.854 170.467 128.945 170.309 129.108C170.151 129.27 170.062 129.491 170.062 129.721V130.834C170.062 132.621 171.492 134.936 173.014 134.936C173.148 134.934 173.282 134.915 173.412 134.878C172.142 133.084 172.922 129.838 175.743 129.838Z" fill="black"/>
<path opacity="0.2" d="M185.714 130.283C185.839 130.283 185.965 130.283 186.079 130.283V129.697C186.079 129.467 185.99 129.247 185.832 129.084C185.674 128.921 185.459 128.83 185.235 128.83H181.013C180.79 128.83 180.575 128.921 180.417 129.084C180.259 129.247 180.17 129.467 180.17 129.697V130.811C180.17 132.598 181.6 134.913 183.127 134.913C182.244 133.096 183.099 130.283 185.714 130.283Z" fill="black"/>
<path opacity="0.2" d="M69.6181 119.343H69.6922V119.056C69.6907 118.825 69.6005 118.604 69.4415 118.442C69.2824 118.279 69.0673 118.188 68.8432 118.188H64.6324C64.4087 118.188 64.1942 118.28 64.0361 118.442C63.8779 118.605 63.7891 118.826 63.7891 119.056V120.169C63.7891 121.956 65.2193 124.271 66.7463 124.271C66.893 124.267 67.0386 124.244 67.1794 124.201C66.0853 122.372 66.9115 119.343 69.6181 119.343Z" fill="black"/>
<path opacity="0.2" d="M79.5266 119.343H79.8115V119.044C79.81 118.813 79.7199 118.593 79.5608 118.43C79.4017 118.268 79.1867 118.177 78.9625 118.177H74.7403C74.5171 118.178 74.3035 118.27 74.1456 118.432C73.9878 118.595 73.8985 118.814 73.897 119.044V120.157C73.897 121.944 75.3329 124.259 76.8542 124.259C76.9377 124.265 77.0215 124.265 77.1049 124.259C75.9824 122.425 76.7915 119.343 79.5266 119.343Z" fill="black"/>
<path opacity="0.2" d="M89.88 119.343H89.9313V119.056C89.9298 118.826 89.8404 118.606 89.6826 118.444C89.5248 118.282 89.3112 118.19 89.088 118.188H84.8658C84.7538 118.187 84.6426 118.208 84.5387 118.251C84.4347 118.294 84.34 118.357 84.2601 118.438C84.1801 118.518 84.1164 118.615 84.0727 118.721C84.029 118.827 84.0061 118.94 84.0054 119.056V120.169C84.0054 121.956 85.4413 124.271 86.9626 124.271C87.1155 124.269 87.2673 124.243 87.4128 124.195C86.3472 122.372 87.162 119.343 89.88 119.343Z" fill="black"/>
<path opacity="0.2" d="M99.7888 119.29H100.051V119.067C100.051 118.837 99.962 118.617 99.8039 118.454C99.6457 118.291 99.4312 118.2 99.2076 118.2H94.9854C94.7617 118.2 94.5472 118.291 94.3891 118.454C94.2309 118.617 94.1421 118.837 94.1421 119.067V120.181C94.1421 121.968 95.5723 124.283 97.0936 124.283C97.197 124.28 97.3 124.269 97.4013 124.248C96.2218 122.425 97.0196 119.29 99.7888 119.29Z" fill="black"/>
<path opacity="0.2" d="M109.646 119.343C109.828 119.343 110.009 119.358 110.188 119.39V119.056C110.188 118.826 110.099 118.605 109.941 118.442C109.782 118.28 109.568 118.188 109.344 118.188H105.088C104.864 118.188 104.65 118.28 104.492 118.442C104.333 118.605 104.245 118.826 104.245 119.056V120.169C104.245 121.956 105.675 124.271 107.202 124.271C106.074 122.448 106.877 119.343 109.646 119.343Z" fill="black"/>
<path opacity="0.2" d="M119.834 118.968C119.987 118.968 120.139 118.978 120.29 118.997C120.274 118.778 120.179 118.573 120.022 118.423C119.866 118.273 119.661 118.189 119.447 118.188H115.225C115.001 118.19 114.788 118.282 114.63 118.444C114.472 118.606 114.383 118.826 114.381 119.056V120.169C114.381 121.956 115.817 124.271 117.339 124.271C117.448 124.269 117.557 124.255 117.663 124.23C116.182 122.489 116.906 118.968 119.834 118.968Z" fill="black"/>
<path opacity="0.2" d="M130.034 119.413C130.165 119.413 130.296 119.413 130.415 119.413V119.032C130.414 118.803 130.325 118.583 130.167 118.421C130.009 118.258 129.795 118.166 129.572 118.165H125.35C125.126 118.165 124.911 118.256 124.752 118.418C124.593 118.581 124.502 118.802 124.501 119.032V120.145C124.501 121.933 125.937 124.247 127.458 124.247H127.572C126.507 122.431 127.31 119.413 130.034 119.413Z" fill="black"/>
<path opacity="0.2" d="M140.535 119.056C140.535 118.826 140.446 118.605 140.288 118.442C140.13 118.28 139.915 118.188 139.691 118.188H135.469C135.359 118.188 135.249 118.211 135.147 118.254C135.044 118.298 134.951 118.362 134.873 118.442C134.795 118.523 134.733 118.618 134.69 118.724C134.648 118.829 134.626 118.942 134.626 119.056V120.169C134.626 121.956 136.056 124.271 137.578 124.271C137.881 124.263 138.179 124.179 138.444 124.025C137.293 122.279 137.988 119.29 140.535 119.056Z" fill="black"/>
<path opacity="0.2" d="M150.671 119.29V119.067C150.671 118.837 150.583 118.617 150.424 118.454C150.266 118.291 150.052 118.2 149.828 118.2H145.606C145.382 118.2 145.168 118.291 145.01 118.454C144.852 118.617 144.763 118.837 144.763 119.067V120.181C144.763 121.968 146.193 124.283 147.72 124.283C147.965 124.279 148.206 124.221 148.426 124.113C147.384 122.325 148.13 119.437 150.671 119.29Z" fill="black"/>
<path opacity="0.2" d="M160.426 119.114C160.546 119.114 160.666 119.114 160.78 119.114V119.038C160.778 118.807 160.688 118.587 160.529 118.424C160.37 118.262 160.155 118.171 159.931 118.171H155.709C155.485 118.172 155.272 118.264 155.114 118.426C154.956 118.589 154.867 118.808 154.865 119.038V120.151C154.865 121.939 156.301 124.253 157.822 124.253C157.93 124.252 158.037 124.238 158.142 124.212C156.82 122.448 157.577 119.114 160.426 119.114Z" fill="black"/>
<path opacity="0.2" d="M170.899 119.495V119.056C170.898 118.826 170.809 118.606 170.651 118.444C170.493 118.282 170.279 118.19 170.056 118.188H165.834C165.61 118.188 165.395 118.279 165.236 118.442C165.076 118.604 164.986 118.825 164.985 119.056V120.169C164.985 121.956 166.421 124.271 167.942 124.271C168.114 124.268 168.285 124.238 168.449 124.183C167.52 122.366 168.335 119.565 170.899 119.495Z" fill="black"/>
<path opacity="0.2" d="M180.541 119.19C180.701 119.193 180.86 119.204 181.019 119.225V119.056C181.019 118.825 180.93 118.605 180.772 118.442C180.614 118.28 180.399 118.188 180.176 118.188H175.954C175.843 118.188 175.733 118.211 175.631 118.254C175.529 118.298 175.436 118.362 175.357 118.442C175.279 118.523 175.217 118.618 175.175 118.724C175.132 118.829 175.11 118.942 175.11 119.056V120.169C175.11 121.956 176.541 124.271 178.062 124.271C178.115 124.274 178.168 124.274 178.221 124.271C176.945 122.46 177.72 119.19 180.541 119.19Z" fill="black"/>
<path opacity="0.2" d="M190.746 119.642C190.877 119.632 191.008 119.632 191.139 119.642V119.056C191.139 118.826 191.05 118.605 190.892 118.442C190.734 118.28 190.519 118.188 190.295 118.188H186.073C185.85 118.188 185.635 118.28 185.477 118.442C185.319 118.605 185.23 118.826 185.23 119.056V120.169C185.23 121.927 186.649 124.271 188.17 124.271C187.281 122.425 188.142 119.642 190.746 119.642Z" fill="black"/>
<path opacity="0.2" d="M166.837 146.457V140.679C166.837 140.287 166.528 139.97 166.147 139.97H88.769C88.3882 139.97 88.0795 140.287 88.0795 140.679V146.457C88.0795 146.849 88.3882 147.166 88.769 147.166H166.147C166.528 147.166 166.837 146.849 166.837 146.457Z" fill="black"/>
<path opacity="0.2" d="M177.31 141.974V141.388C177.31 141.274 177.288 141.161 177.245 141.056C177.203 140.951 177.141 140.855 177.063 140.775C176.984 140.694 176.891 140.63 176.789 140.587C176.687 140.543 176.577 140.521 176.466 140.521H172.244C172.133 140.521 172.024 140.543 171.921 140.587C171.819 140.63 171.726 140.694 171.648 140.775C171.57 140.855 171.507 140.951 171.465 141.056C171.423 141.161 171.401 141.274 171.401 141.388V142.501C171.401 144.289 172.831 146.603 174.358 146.603C174.485 146.6 174.611 146.583 174.734 146.551C173.891 144.722 174.751 141.992 177.31 141.974Z" fill="black"/>
<path opacity="0.2" d="M83.0252 141.599C83.1912 141.6 83.3569 141.614 83.5209 141.64V141.394C83.5194 141.163 83.4293 140.943 83.2703 140.78C83.1112 140.618 82.8961 140.527 82.6719 140.527H78.4497C78.2265 140.528 78.0129 140.62 77.8551 140.782C77.6973 140.945 77.6079 141.164 77.6064 141.394V142.507C77.6064 144.295 79.0423 146.609 80.5637 146.609H80.6606C79.4469 144.793 80.2446 141.599 83.0252 141.599Z" fill="black"/>
<path opacity="0.2" d="M57.6236 19.377H197.292C198.252 19.377 199.172 19.769 199.851 20.4668C200.529 21.1647 200.911 22.1112 200.911 23.0981V55.9141H54.0054V23.0981C54.0054 22.1112 54.3866 21.1647 55.0651 20.4668C55.7437 19.769 56.664 19.377 57.6236 19.377V19.377Z" fill="black"/>
<path d="M185.874 25.5651H69.0652C68.0911 17.2459 66.3745 9.03656 63.937 1.04102H191.025C188.549 9.02743 186.824 17.2398 185.874 25.5651V25.5651Z" fill="white"/>
<path opacity="0.2" d="M187.025 17.6599C186.176 22.43 185.885 25.5651 185.885 25.5651H69.0768C69.0768 25.5651 68.7805 22.4886 67.9087 17.6599H187.025Z" fill="black"/>
<path d="M185.874 25.5651H69.0652C68.0911 17.2459 66.3745 9.03656 63.937 1.04102H191.025C188.549 9.02743 186.824 17.2398 185.874 25.5651V25.5651Z" stroke="#263238" stroke-linecap="round" stroke-linejoin="round"/>
<path d="M184.284 46.2158H69.6919V94.7015H184.284V46.2158Z" fill="#263238"/>
<g opacity="0.4">
<path opacity="0.4" d="M124.13 90.4118L124.734 90.4411C125.494 78.35 126.254 66.2393 127.014 54.1091C126.045 66.2432 125.084 78.3441 124.13 90.4118Z" fill="white"/>
<path opacity="0.4" d="M122.182 90.2595L122.786 90.3122C124.104 78.2992 125.42 66.2335 126.734 54.115C125.219 66.2413 123.701 78.2894 122.182 90.2595Z" fill="white"/>
<path opacity="0.4" d="M120.284 90.0368C120.484 90.0368 120.689 90.0837 120.888 90.1071C122.757 78.223 124.637 66.2237 126.529 54.1091C124.44 66.2354 122.358 78.2113 120.284 90.0368Z" fill="white"/>
<path opacity="0.4" d="M118.364 89.7379L118.974 89.8375C121.397 78.1175 123.84 66.2022 126.302 54.0916C123.642 66.2139 120.997 78.0961 118.364 89.7379Z" fill="white"/>
<path opacity="0.4" d="M116.45 89.3688L117.065 89.4977C120.028 78.0004 123.031 66.2022 126.074 54.1033C122.837 66.2061 119.629 77.9613 116.45 89.3688Z" fill="white"/>
<path opacity="0.4" d="M114.546 88.9234L115.162 89.0816C118.655 77.8421 122.244 66.1866 125.845 54.0974C122.034 66.1866 118.233 77.7894 114.546 88.9234Z" fill="white"/>
<path opacity="0.4" d="M112.649 88.396L113.27 88.5835C117.259 77.6605 121.435 66.1632 125.618 54.0857C121.224 66.1632 116.848 77.596 112.649 88.396Z" fill="white"/>
<path opacity="0.4" d="M110.786 87.7983L111.407 88.0034C115.914 77.4554 120.643 66.1397 125.407 54.0798C120.41 66.1397 115.464 77.3733 110.786 87.7983Z" fill="white"/>
<path opacity="0.4" d="M108.894 87.1127L109.521 87.3471C114.512 77.1975 119.817 66.1104 125.162 54.0681C119.595 66.1104 114.068 77.0979 108.894 87.1127Z" fill="white"/>
<path opacity="0.4" d="M107.048 86.3391L107.675 86.6087C113.122 76.9163 119.002 66.0987 124.934 54.0564C118.763 66.0753 112.672 76.8342 107.048 86.3391Z" fill="white"/>
<path opacity="0.4" d="M105.219 85.4719L105.846 85.7824C111.726 76.6115 118.182 66.0342 124.706 54.0447C117.948 66.0342 111.27 76.5119 105.219 85.4719Z" fill="white"/>
<path opacity="0.4" d="M103.418 84.5108L104.045 84.8624C110.313 76.2658 117.361 65.9874 124.478 54.0271C117.987 64.5642 110.958 74.7398 103.418 84.5108V84.5108Z" fill="white"/>
<path opacity="0.4" d="M101.669 83.456C101.874 83.5908 102.091 83.7138 102.301 83.8428C110.209 74.37 117.547 64.409 124.273 54.0154C117.39 64.3398 109.838 74.1756 101.669 83.456Z" fill="white"/>
<path opacity="0.4" d="M99.9199 82.2899L100.541 82.7294C109.074 73.793 116.925 64.1932 124.022 54.0154C116.777 64.1218 108.714 73.5803 99.9199 82.2899V82.2899Z" fill="white"/>
<path opacity="0.4" d="M123.795 53.9802C114.626 65.7881 105.658 74.7949 98.2505 81.0183L98.8602 81.5046C108.005 73.1676 116.355 63.9509 123.795 53.9802V53.9802Z" fill="white"/>
<path opacity="0.4" d="M123.566 53.9626C113.8 65.6826 104.256 74.25 96.6265 79.6412L97.2305 80.1744C104.757 74.4433 114.057 65.7119 123.566 53.9626Z" fill="white"/>
<path opacity="0.4" d="M123.321 53.9451C112.968 65.5772 102.883 73.6405 95.082 78.141C95.2701 78.3402 95.4581 78.5395 95.6518 78.727C103.378 73.8632 113.241 65.6065 123.321 53.9451Z" fill="white"/>
<path opacity="0.4" d="M123.111 53.9216C112.193 65.4365 101.584 72.9666 93.6577 76.5412L94.2275 77.18C102.074 73.2128 112.444 65.4717 123.111 53.9216Z" fill="white"/>
<path opacity="0.4" d="M92.3472 74.8301C92.5124 75.0645 92.6833 75.2989 92.8543 75.5275C100.803 72.5096 111.658 65.3076 122.888 53.9041C111.43 65.2549 100.341 72.2224 92.3472 74.8301Z" fill="white"/>
<path opacity="0.4" d="M91.1851 73.0487C91.3332 73.2948 91.487 73.5409 91.6409 73.787C99.6181 71.7243 110.946 65.0967 122.661 53.863C110.718 65.0322 99.1907 71.4137 91.1851 73.0487Z" fill="white"/>
<path opacity="0.4" d="M90.1934 71.2379C90.3187 71.4958 90.4498 71.7478 90.5808 72.0056C98.558 70.8922 110.273 64.8505 122.433 53.8689C110.074 64.7451 98.1705 70.5347 90.1934 71.2379Z" fill="white"/>
<path opacity="0.4" d="M89.3843 69.3862C89.4868 69.644 89.5951 69.9077 89.7034 70.1656C97.6349 69.9663 109.646 64.5224 122.182 53.8279C109.504 64.411 97.3045 69.5913 89.3843 69.3862Z" fill="white"/>
<path opacity="0.4" d="M126.062 90.4939H126.66C126.843 78.3832 127.033 66.2569 127.23 54.115C126.831 66.2491 126.442 78.3754 126.062 90.4939Z" fill="white"/>
<path opacity="0.4" d="M127.988 90.5056H128.592C128.212 78.3949 127.833 66.2686 127.453 54.1267L127.988 90.5056Z" fill="white"/>
<path opacity="0.4" d="M129.914 90.4528H130.518C129.568 78.3812 128.619 66.2706 127.669 54.1208C128.417 66.255 129.166 78.3656 129.914 90.4528Z" fill="white"/>
<path opacity="0.4" d="M131.868 90.3298L132.472 90.2829C130.953 78.3012 129.434 66.2452 127.914 54.115C129.221 66.2452 130.539 78.3168 131.868 90.3298Z" fill="white"/>
<path opacity="0.4" d="M133.766 90.1423L134.37 90.0661C132.303 78.225 130.214 66.2393 128.102 54.1091C130.005 66.2393 131.893 78.2504 133.766 90.1423Z" fill="white"/>
<path opacity="0.4" d="M135.686 89.8786L136.296 89.7848C133.675 78.1234 131.025 66.2315 128.347 54.1091C130.809 66.2354 133.255 78.1586 135.686 89.8786Z" fill="white"/>
<path opacity="0.4" d="M137.6 89.5446L138.21 89.4273C135.046 77.9964 131.834 66.2218 128.575 54.1033C131.606 66.2218 134.615 78.0355 137.6 89.5446Z" fill="white"/>
<path opacity="0.4" d="M139.504 89.1344L140.125 88.9879C136.432 77.8539 132.626 66.21 128.803 54.0974C132.415 66.212 135.982 77.891 139.504 89.1344Z" fill="white"/>
<path opacity="0.4" d="M141.407 88.6538L142.022 88.4722C137.817 77.6488 133.435 66.2042 129.031 54.0857C133.219 66.1925 137.39 77.6839 141.407 88.6538Z" fill="white"/>
<path opacity="0.4" d="M143.293 88.0854L143.92 87.8745C139.207 77.4319 134.233 66.1925 129.259 54.0798C134.034 66.169 138.774 77.4964 143.293 88.0854Z" fill="white"/>
<path opacity="0.4" d="M145.168 87.435L145.794 87.1947C140.609 77.18 135.071 66.1456 129.487 54.0681C134.849 66.1456 140.165 77.2561 145.168 87.435Z" fill="white"/>
<path opacity="0.4" d="M147.025 86.7025C147.236 86.6087 147.452 86.5267 147.657 86.4329C142.016 76.9045 135.897 66.1163 129.714 54.0564C135.669 66.1163 141.555 76.9866 147.025 86.7025Z" fill="white"/>
<path opacity="0.4" d="M148.865 85.8879L149.498 85.5773C143.429 76.594 136.723 66.087 129.942 54.0505C136.489 66.0753 142.962 76.6877 148.865 85.8879Z" fill="white"/>
<path opacity="0.4" d="M150.672 84.9679C150.883 84.8565 151.094 84.7335 151.299 84.6163C143.732 74.8111 136.675 64.6004 130.159 54.0271C137.316 66.0401 144.404 76.3478 150.672 84.9679Z" fill="white"/>
<path opacity="0.4" d="M152.461 83.9541L153.099 83.5673C144.895 74.2529 137.311 64.3799 130.398 54.0154C137.15 64.45 144.518 74.4484 152.461 83.9541V83.9541Z" fill="white"/>
<path opacity="0.4" d="M130.626 53.9978C137.752 64.2232 145.637 73.8663 154.21 82.8407L154.842 82.4012C146.004 73.6545 137.903 64.1526 130.626 53.9978V53.9978Z" fill="white"/>
<path opacity="0.4" d="M130.854 53.9802C138.329 63.9988 146.725 73.2534 155.925 81.616C156.136 81.4578 156.335 81.2937 156.54 81.1296C149.11 74.9063 140.073 65.8584 130.854 53.9802Z" fill="white"/>
<path opacity="0.4" d="M131.082 53.9626C140.655 65.7823 150.011 74.5488 157.56 80.2799C157.766 80.1041 157.976 79.9283 158.176 79.7466C150.518 74.3672 140.911 65.7764 131.082 53.9626Z" fill="white"/>
<path opacity="0.4" d="M131.298 53.9451C141.469 65.6651 151.384 73.9804 159.133 78.8383C159.332 78.645 159.52 78.4399 159.703 78.2523C151.897 73.7577 141.737 65.6651 131.298 53.9451Z" fill="white"/>
<path opacity="0.4" d="M131.538 53.9216C142.29 65.5596 152.74 73.3358 160.598 77.2737L161.168 76.6291C153.242 73.0956 142.547 65.5362 131.538 53.9216Z" fill="white"/>
<path opacity="0.4" d="M162.005 75.6095C162.181 75.3751 162.347 75.1407 162.518 74.9004C154.512 72.3513 143.321 65.3604 131.749 53.9041C143.076 65.4072 154.039 72.6326 162.005 75.6095Z" fill="white"/>
<path opacity="0.4" d="M163.241 73.8456L163.708 73.0955C155.691 71.5426 144.056 65.1435 131.988 53.8806C143.834 65.208 155.23 71.8532 163.241 73.8456Z" fill="white"/>
<path opacity="0.4" d="M164.347 72.0232C164.483 71.7653 164.614 71.5075 164.746 71.2438C156.768 70.6578 144.74 64.8623 132.267 53.8572C144.506 64.956 156.37 71.0094 164.347 72.0232Z" fill="white"/>
<path opacity="0.4" d="M132.438 53.8279C145.11 64.6454 157.281 70.0894 165.201 70.1714C165.315 69.9077 165.424 69.644 165.532 69.3803C157.623 69.7143 145.293 64.5282 132.438 53.8279Z" fill="white"/>
</g>
<path opacity="0.2" d="M110.786 54.9882C108.626 60.6841 110.963 77.2562 126.547 77.2562C142.131 77.2562 147.789 65.6123 147.156 58.4163L167.959 54.9706C167.959 54.9706 174.335 73.0897 160.797 85.7649C147.259 98.44 100.33 97.6197 90.41 87.9858C80.4898 78.352 85.9941 59.3187 85.9941 59.3187L110.786 54.9882Z" fill="black"/>
<path d="M202.09 30.4114V26.4148C202.09 26.267 202.136 26.1229 202.221 26.0037C202.306 25.8845 202.426 25.7965 202.563 25.7527L205.412 24.8385V20.842C205.412 20.3633 205.597 19.9042 205.926 19.5657C206.255 19.2273 206.702 19.0371 207.167 19.0371H210.586C210.754 19.0338 210.918 19.098 211.041 19.2161C211.164 19.3342 211.238 19.4969 211.247 19.67V20.9592C211.247 21.1354 211.179 21.3044 211.059 21.4295C210.938 21.5546 210.774 21.6257 210.603 21.6272H206.256V25.5358C206.253 25.6537 206.223 25.7691 206.166 25.8715C206.109 25.9739 206.028 26.06 205.931 26.1218L203.503 27.6337V30.4172L202.09 30.4114Z" fill="#999999" stroke="#263238" stroke-linecap="round" stroke-linejoin="round"/>
<path d="M205.84 30.4114H202.09V41.9439H205.84V30.4114Z" fill="#263238"/>
<path d="M210.529 29.4327H205.839V42.9224H210.529V29.4327Z" fill="#757575"/>
<path opacity="0.2" d="M210.517 37.6484H205.839V42.9224H210.517V37.6484Z" fill="black"/>
<path d="M210.529 29.4327H205.839V42.9224H210.529V29.4327Z" stroke="#263238" stroke-linecap="round" stroke-linejoin="round"/>
<path d="M49.0769 41.938H52.8262V30.4055H49.0769V41.938Z" fill="#263238"/>
<path d="M44.3872 42.9166H49.0767V29.4269H44.3872V42.9166Z" fill="#757575"/>
<path opacity="0.2" d="M49.0825 37.6484H44.3931V42.7935H49.0825V37.6484Z" fill="black"/>
<path d="M44.3872 42.9166H49.0767V29.4269H44.3872V42.9166Z" stroke="#263238" stroke-linecap="round" stroke-linejoin="round"/>
<path d="M52.2619 36.8632C52.6004 35.9496 52.6528 34.9501 52.4117 34.0044C52.1706 33.0588 51.648 32.2143 50.9172 31.5892L48.1593 29.2452C47.9839 29.0931 47.7798 28.9798 47.5599 28.9125C47.34 28.8451 47.1089 28.8251 46.8811 28.8537C46.6534 28.8823 46.4338 28.9589 46.236 29.0787C46.0383 29.1985 45.8667 29.3589 45.732 29.5499L34.7976 45.0613C34.5895 45.3515 34.4777 45.7028 34.4785 46.0634V62.7234C34.4785 62.947 34.5217 63.1684 34.6056 63.3747C34.6895 63.581 34.8124 63.7681 34.9672 63.9251C35.122 64.0821 35.3056 64.2059 35.5073 64.2894C35.7091 64.3728 35.9249 64.4142 36.1423 64.411V64.411C36.5776 64.411 36.995 64.2332 37.3027 63.9167C37.6105 63.6002 37.7833 63.171 37.7833 62.7234V49.1926C37.7843 48.8586 37.8859 48.5331 38.0739 48.2609L46.2505 36.5409C46.3221 36.438 46.4137 36.3515 46.5195 36.2869C46.6253 36.2222 46.743 36.1809 46.8651 36.1655C46.9872 36.1501 47.1111 36.1609 47.2289 36.1973C47.3468 36.2336 47.456 36.2948 47.5497 36.3768L49.0539 37.6894C49.4263 38.0145 49.8988 38.1931 50.3873 38.1934V38.1934C50.7935 38.1909 51.1896 38.0627 51.5239 37.8254C51.8583 37.5882 52.1154 37.2529 52.2619 36.8632V36.8632Z" fill="white" stroke="#263238" stroke-linecap="round" stroke-linejoin="round"/>
<path d="M50.0057 35.3455C50.4369 35.3455 50.7863 34.9861 50.7863 34.5427C50.7863 34.0993 50.4369 33.7399 50.0057 33.7399C49.5746 33.7399 49.2251 34.0993 49.2251 34.5427C49.2251 34.9861 49.5746 35.3455 50.0057 35.3455Z" fill="#999999" stroke="#263238" stroke-linecap="round" stroke-linejoin="round"/>
<path d="M198.615 24.8385H56.3076V47.505H198.615V24.8385Z" fill="#263238"/>
<path opacity="0.2" d="M196.557 26.5437H58.3073C57.873 26.5437 57.521 26.9058 57.521 27.3524V31.0207C57.521 31.4674 57.873 31.8294 58.3073 31.8294H196.557C196.992 31.8294 197.344 31.4674 197.344 31.0207V27.3524C197.344 26.9058 196.992 26.5437 196.557 26.5437Z" fill="white"/>
<path d="M185.874 52.064H69.0652C65.7734 44.3259 64.0294 35.9856 63.937 27.5399H191.025C191.025 38.8966 185.874 52.064 185.874 52.064Z" fill="white"/>
<g opacity="0.7">
<path opacity="0.7" d="M78.5127 50.224C78.5127 50.224 81.0711 50.0834 82.5013 49.1985C83.9315 48.3137 83.8289 49.9955 84.6494 50.1068C85.4699 50.2182 87.4072 49.5208 88.4329 49.5208C89.4585 49.5208 88.6779 50.1654 89.8346 50.1068C90.9913 50.0482 90.3702 50.1654 90.9742 50.0482L95.9257 49.1985C95.9257 49.1985 98.4385 48.7004 98.9456 48.9524C99.4527 49.2044 100.119 50.4467 100.86 50.1244C101.601 49.8021 101.208 49.5384 102.325 49.5384C103.015 49.5417 103.702 49.6443 104.364 49.8431C104.364 49.8431 104.467 49.5443 104.98 49.5384H105.897C105.897 49.5384 107.84 50.0658 108.148 50.0658C108.456 50.0658 110.752 49.5443 110.832 49.5384C110.911 49.5325 113.111 48.9524 113.111 48.9524C113.577 49.454 114.169 49.8147 114.82 49.9955C115.652 50.1068 116.53 49.8783 117.156 50.1654C117.783 50.4526 119.846 50.0482 119.846 50.0482C120.338 50.0515 120.829 50.0907 121.316 50.1654C121.954 50.3153 122.619 50.2951 123.247 50.1068C124.403 49.7926 125.615 49.7725 126.78 50.0482C128.632 50.394 130.336 49.5267 131.122 49.5208C131.908 49.515 135.054 49.8783 136.136 49.8783C137.219 49.8783 140.085 50.2768 142.079 50.0482C144.074 49.8197 145.378 50.3354 146.717 50.3354C148.056 50.3354 149.487 50.2768 149.794 50.2768C150.102 50.2768 151.584 49.2806 153.703 49.5208C155.823 49.7611 153.937 49.222 155.242 49.5208C156.546 49.8197 157.578 50.1068 158.13 50.1654C158.574 50.192 159.019 50.1724 159.458 50.1068L161.737 49.9369H173.099" stroke="#263238" stroke-linecap="round" stroke-linejoin="round"/>
<path opacity="0.7" d="M76.1479 45.7001C76.1479 45.7001 83.1849 45.7001 84.4556 45.5829C85.7262 45.4657 86.4043 44.7977 87.0824 44.7977C87.7604 44.7977 91.1849 45.4657 91.1849 45.4657C91.2848 45.2472 91.4479 45.0657 91.6519 44.9461C91.8558 44.8266 92.0908 44.7747 92.3245 44.7977C93.2533 44.7977 92.7803 44.8856 93.635 45.2372C94.4897 45.5888 94.0453 45.2372 94.4954 45.5829C95.1664 45.8928 95.8759 46.1058 96.6037 46.2158C96.6037 46.2158 99.7774 46.3681 99.8971 45.5829C100.017 44.7977 101.606 46.2158 101.606 46.2158C101.606 46.2158 105.914 45.5829 107.578 45.5829C109.242 45.5829 113.413 45.2372 113.413 45.2372C113.413 45.2372 116.831 45.7001 116.991 45.7001C117.151 45.7001 117.715 46.6201 118.324 46.2158C118.934 45.8114 119.521 45.3485 120.245 45.4657C120.917 45.6371 121.567 45.8889 122.182 46.2158L123.772 45.3485L125.595 45.4657C125.595 45.4657 127.452 46.7373 128.78 46.2158C129.791 45.8003 130.778 45.3269 131.737 44.7977L133.373 46.2158H134.444L137.618 45.5829C137.862 45.8917 138.191 46.1173 138.562 46.2302C138.933 46.3432 139.329 46.3381 139.697 46.2158C141.042 45.8173 153.891 46.2158 157.162 46.2158C160.432 46.2158 161.15 45.3485 161.15 45.3485L163.669 46.2158H176.204" stroke="#263238" stroke-linecap="round" stroke-linejoin="round"/>
</g>
<path opacity="0.2" d="M187.065 48.677C186.375 50.7866 185.874 52.0641 185.874 52.0641H69.0653C69.0653 52.0641 68.4955 50.8335 67.7148 48.677H187.065Z" fill="black"/>
<path opacity="0.2" d="M189.498 39.8049C189.104 41.5629 188.671 43.2799 188.244 44.7976H66.4441C66.0225 43.3092 65.5894 41.6274 65.2134 39.8049H189.498Z" fill="black"/>
<path d="M185.874 52.064H69.0652C65.7734 44.3259 64.0294 35.9856 63.937 27.5399H191.025C191.025 38.8966 185.874 52.064 185.874 52.064Z" stroke="#263238" stroke-linecap="round" stroke-linejoin="round"/>
<path d="M56.2788 23.6724H52.7974V48.6828H56.2788V23.6724Z" fill="#757575"/>
<path opacity="0.2" d="M56.2106 41.264H52.8203V48.6828H56.2106V41.264Z" fill="black"/>
<path d="M56.2788 23.6724H52.7974V48.6828H56.2788V23.6724Z" stroke="#263238" stroke-linecap="round" stroke-linejoin="round"/>
<path d="M202.119 23.6724H198.637V48.6828H202.119V23.6724Z" fill="#757575"/>
<path opacity="0.2" d="M202.118 41.264H198.608V48.6828H202.118V41.264Z" fill="black"/>
<path d="M202.119 23.6724H198.637V48.6828H202.119V23.6724Z" stroke="#263238" stroke-linecap="round" stroke-linejoin="round"/>
<path d="M198.665 22.6234V40.8656H56.2503V22.6234H54.8828V42.0903H200.033V22.6234H198.665Z" fill="#999999" stroke="#263238" stroke-linecap="round" stroke-linejoin="round"/>
<path d="M207.081 53.3532V94.2618C207.081 94.9519 206.815 95.6137 206.34 96.1016C205.866 96.5895 205.223 96.8637 204.552 96.8637H50.3473C49.6763 96.8637 49.0328 96.5895 48.5584 96.1016C48.0839 95.6137 47.8174 94.9519 47.8174 94.2618V53.3532C47.8174 52.6631 48.0839 52.0013 48.5584 51.5134C49.0328 51.0255 49.6763 50.7513 50.3473 50.7513H121.401V53.3532C121.401 53.3532 109.27 64.1766 88.3528 68.1673C91.3499 82.1199 107.726 92.7793 127.486 92.7793C147.247 92.7793 163.623 82.1082 166.626 68.1673C145.68 64.1766 133.549 53.3532 133.549 53.3532V50.7279H204.569C204.901 50.7302 205.23 50.8 205.537 50.9332C205.843 51.0665 206.121 51.2606 206.355 51.5045C206.588 51.7483 206.772 52.0371 206.897 52.3544C207.022 52.6716 207.084 53.011 207.081 53.3532Z" fill="white" stroke="#263238" stroke-linecap="round" stroke-linejoin="round"/>
<path d="M207.082 53.3532V94.2618C207.082 94.604 207.016 94.9428 206.889 95.2589C206.761 95.5749 206.574 95.862 206.339 96.1037C206.103 96.3454 205.824 96.5369 205.516 96.6673C205.208 96.7977 204.879 96.8644 204.546 96.8637H50.3476C50.0149 96.8644 49.6853 96.7977 49.3777 96.6673C49.0701 96.5369 48.7905 96.3454 48.555 96.1037C48.3195 95.862 48.1326 95.5749 48.0051 95.2589C47.8776 94.9428 47.812 94.604 47.812 94.2618V53.3532C47.8135 52.6621 48.0811 51.9997 48.5563 51.511C49.0315 51.0223 49.6756 50.747 50.3476 50.7455H121.401V53.3532C121.401 53.3532 109.265 64.1707 88.3531 68.1673C91.3502 82.1199 107.726 92.7792 127.492 92.7792C147.259 92.7792 163.623 82.1082 166.626 68.1673C145.68 64.1707 133.549 53.3532 133.549 53.3532V50.7279H204.569C205.24 50.7341 205.882 51.014 206.353 51.5062C206.824 51.9983 207.086 52.6626 207.082 53.3532V53.3532Z" fill="white"/>
<path opacity="0.2" d="M203.663 53.9803V91.748C203.663 91.9991 203.615 92.2477 203.521 92.4795C203.427 92.7114 203.29 92.9218 203.116 93.0988C202.943 93.2758 202.738 93.4159 202.512 93.5109C202.286 93.6059 202.044 93.654 201.8 93.6525H51.8631C51.6197 93.6533 51.3785 93.6045 51.1535 93.5091C50.9285 93.4137 50.7241 93.2734 50.552 93.0964C50.3798 92.9194 50.2435 92.7091 50.1507 92.4777C50.0579 92.2463 50.0105 91.9983 50.0112 91.748V53.9803C50.0105 53.7294 50.0578 53.4809 50.1505 53.2488C50.2431 53.0167 50.3793 52.8057 50.5513 52.6278C50.7232 52.4498 50.9276 52.3085 51.1527 52.2117C51.3777 52.115 51.6191 52.0649 51.8631 52.0641H121.378V53.3533C121.378 53.3533 109.242 64.1708 88.3301 68.1674C91.3272 82.12 107.703 92.7794 127.469 92.7794C147.236 92.7794 163.6 82.1083 166.603 68.1674C145.657 64.1708 133.526 53.3533 133.526 53.3533V52.0641H201.817C202.308 52.0687 202.777 52.2727 203.123 52.6315C203.469 52.9904 203.663 53.4751 203.663 53.9803V53.9803Z" fill="white"/>
<path d="M207.082 53.3532V94.2618C207.082 94.604 207.016 94.9428 206.889 95.2589C206.761 95.5749 206.574 95.862 206.339 96.1037C206.103 96.3454 205.824 96.5369 205.516 96.6673C205.208 96.7977 204.879 96.8644 204.546 96.8637H50.3476C50.0149 96.8644 49.6853 96.7977 49.3777 96.6673C49.0701 96.5369 48.7905 96.3454 48.555 96.1037C48.3195 95.862 48.1326 95.5749 48.0051 95.2589C47.8776 94.9428 47.812 94.604 47.812 94.2618V53.3532C47.8135 52.6621 48.0811 51.9997 48.5563 51.511C49.0315 51.0223 49.6756 50.747 50.3476 50.7455H121.401V53.3532C121.401 53.3532 109.265 64.1707 88.3531 68.1673C91.3502 82.1199 107.726 92.7792 127.492 92.7792C147.259 92.7792 163.623 82.1082 166.626 68.1673C145.68 64.1707 133.549 53.3532 133.549 53.3532V50.7279H204.569C205.24 50.7341 205.882 51.014 206.353 51.5062C206.824 51.9983 207.086 52.6626 207.082 53.3532V53.3532Z" stroke="#263238" stroke-linecap="round" stroke-linejoin="round"/>
<path opacity="0.2" d="M156.141 108.988L163.714 130.711C163.714 130.711 166.99 106.802 168.945 106.802C170.899 106.802 175.11 119.876 175.11 119.876C175.11 119.876 177.708 113.055 180.17 112.809C182.631 112.563 184.859 129.557 184.859 129.557L185.241 167.278L182.135 224.325C182.135 224.325 162.324 201.881 156.546 196.097C150.768 190.313 145.247 177.585 143.651 175.001C142.056 172.417 141.651 158.886 141.651 158.886C143.671 156.228 144.727 152.929 144.637 149.557C144.637 149.557 149.287 141.552 149.002 135.645C148.717 129.738 147.999 106.785 156.141 108.988Z" fill="black" fill-opacity="0.7"/>
<path d="M215.748 214.222L185.754 230.448C185.754 230.284 181.811 223.715 177.047 216.285C174.893 212.921 172.568 209.388 170.363 206.188C166.751 200.955 162.158 196.437 161.765 195.452C160.625 192.522 151.839 181.553 149.873 177.286C147.908 173.02 147.457 159.747 146.591 156.624C145.725 153.501 148.21 150.518 150.204 149.065C152.198 147.611 154.289 143.791 154.289 143.791C154.289 143.791 152.084 134.954 152.061 130.459C152.039 125.965 150.551 110.277 152.329 108.812C154.107 107.347 155.697 107.963 156.141 108.971C157.6 112.293 158.91 120.65 160.033 124.5C161.155 128.35 163.264 139.519 164.301 140.322C165.338 141.124 167.184 138.112 167.184 138.112C167.184 138.112 167.36 128.736 167.754 124.851L167.184 112.545C167.184 112.545 166.118 105.15 168.597 104.447C172.016 103.48 173.264 105.689 173.651 106.621C174.038 107.552 175.634 112.92 175.634 112.92L175.725 113.289C175.725 113.325 175.725 113.36 175.725 113.401V113.465C175.752 113.567 175.78 113.678 175.811 113.799C175.873 114.045 175.947 114.338 176.027 114.672C176.785 117.725 178.244 123.837 178.181 125.343C178.095 127.377 177.406 138.64 178.38 140.978L179.896 125.42C179.896 125.42 177.452 113.43 178.164 111.701C178.876 109.973 182.232 111.883 182.631 112.563C183.03 113.242 186.289 117.356 186.87 118.927L187.44 120.497C187.44 120.497 188.244 116.782 190.13 117.749C192.016 118.716 192.249 123.439 192.38 125.502C192.511 127.564 193.879 140.831 194.09 140.855C194.301 140.878 196.477 147.77 196.181 152.323C195.56 162.068 197.201 169.317 197.258 173.056C197.315 176.794 194.574 185.455 194.574 185.455C194.671 185.625 196.46 188.754 196.95 191.503C197.309 193.519 203.696 200.803 208.916 206.598C212.545 210.595 215.588 213.865 215.748 214.222Z" fill="white"/>
<path opacity="0.4" d="M177.053 216.296C174.899 212.933 172.574 209.399 170.369 206.2C166.757 200.967 162.164 196.449 161.771 195.464C160.631 192.534 151.845 181.564 149.879 177.298C147.913 173.032 147.463 159.759 146.597 156.636C145.731 153.512 148.215 150.53 150.21 149.076C152.204 147.623 154.295 143.802 154.295 143.802C154.295 143.802 152.09 134.965 152.067 130.471C152.044 125.976 150.557 110.289 152.335 108.824C154.113 107.359 155.703 107.974 156.147 108.982C157.606 112.305 158.916 120.661 160.039 124.511C161.161 128.361 163.269 139.53 164.307 140.333C165.344 141.136 167.19 138.124 167.19 138.124C167.19 138.124 167.366 128.748 167.759 124.863L167.19 112.557C167.19 112.557 166.124 105.162 168.603 104.458C172.022 103.491 173.269 105.701 173.657 106.632C174.044 107.564 175.64 112.932 175.64 112.932L175.731 113.301C175.731 113.336 175.731 113.371 175.731 113.412V113.477C175.754 113.578 175.782 113.69 175.816 113.811C175.879 114.057 175.953 114.35 176.033 114.684C175.15 113.248 173.936 112.024 172.312 111.701C167.754 110.787 168.74 116.003 169.173 119.132C169.418 121.208 169.37 123.31 169.03 125.373L170.17 124.699C169.349 126.205 168.175 138.722 168.175 141.505C168.175 144.289 166.033 145.215 164.113 144.4C162.193 143.586 161.509 130.811 160.05 128.519C158.591 126.228 154.534 130.606 154.352 134.608C154.17 138.61 157.799 150.547 156.939 153.36C156.079 156.173 156.09 166.838 156.09 166.838L155.042 164.09C155.11 164.465 155.042 165.725 152.848 169.434C152.024 170.777 151.491 172.286 151.285 173.86C151.08 175.433 151.207 177.034 151.657 178.552C152.996 181.594 159.788 189.61 160.928 190.436C160.928 190.436 161.754 186.955 164.346 187.881C163.464 189.325 162.821 190.909 162.443 192.569C161.908 195.124 167.315 196.759 169.007 199.191C170.044 200.674 170.74 205.192 177.053 216.296Z" fill="white"/>
<path opacity="0.4" d="M208.95 206.604C203.617 201.078 194.232 195.816 194.802 194.439C195.565 192.587 194.597 188.643 192.956 185.444C191.315 182.244 193.526 177.052 193.526 177.052L194.54 180.07C195.351 176.589 195.446 172.972 194.819 169.452C193.782 163.469 192.973 165.572 192.973 165.572C192.973 165.572 193.184 160.181 194.112 157.239C195.041 154.298 195.822 147.154 194.54 142.929C193.258 138.704 190.551 139.501 189.828 140.954C189.104 142.408 189.879 148.074 190.477 149.932C191.075 151.79 188.528 154.913 188.477 152.592C188.426 150.272 187.463 143.802 187.463 143.802L189.394 130.811L187.463 120.491C187.463 120.491 188.266 116.776 190.152 117.743C192.038 118.71 192.272 123.433 192.403 125.496C192.534 127.558 193.902 140.826 194.112 140.849C194.323 140.872 196.5 147.764 196.204 152.317C195.582 162.062 197.224 169.311 197.28 173.05C197.337 176.788 194.597 185.449 194.597 185.449C194.694 185.619 196.483 188.749 196.973 191.497C197.332 193.513 203.719 200.797 208.939 206.592L208.95 206.604Z" fill="white"/>
<path opacity="0.4" d="M186.87 118.927C186.979 119.22 187.07 119.46 187.138 119.653C185.326 115.323 182.238 116.665 181.691 117.895C181.144 119.126 182.984 126.762 183.4 127.945C183.816 129.129 181.748 138.581 181.446 141.71C181.144 144.84 180.34 145.478 180.34 145.478C178.295 145.637 178.061 139.829 178.061 139.032C178.101 139.699 178.227 140.357 178.437 140.99L179.953 125.431C179.953 125.431 177.452 113.43 178.164 111.701C178.876 109.973 182.232 111.883 182.631 112.563C183.03 113.242 186.289 117.356 186.87 118.927Z" fill="white"/>
<path d="M215.748 214.222C215.36 213.32 197.566 194.884 196.944 191.497C196.443 188.672 194.563 185.444 194.563 185.444C194.563 185.444 197.303 176.8 197.246 173.044C197.19 169.288 195.537 162.056 196.17 152.311C196.466 147.758 194.295 140.867 194.078 140.843C193.862 140.82 192.494 127.553 192.369 125.49C192.244 123.427 192.01 118.704 190.118 117.737C188.227 116.77 187.429 120.485 187.429 120.485L186.859 118.915C186.289 117.344 183.019 113.231 182.62 112.551C182.221 111.871 178.871 109.955 178.153 111.69C177.435 113.424 179.936 125.396 179.936 125.396L178.432 140.972C177.457 138.628 178.147 127.371 178.232 125.338C178.318 123.304 175.64 112.914 175.64 112.914C175.64 112.914 174.033 107.57 173.657 106.609C173.281 105.648 172.022 103.468 168.603 104.435C166.124 105.138 167.19 112.533 167.19 112.533L167.759 124.839C167.378 128.742 167.19 138.101 167.19 138.101C167.19 138.101 165.344 141.107 164.307 140.31C163.269 139.513 161.161 128.35 160.039 124.488C158.916 120.626 157.606 112.281 156.147 108.959C155.703 107.951 154.113 107.336 152.335 108.801C150.557 110.266 152.039 125.947 152.067 130.447C152.096 134.948 154.295 143.779 154.295 143.779C154.295 143.779 152.204 147.576 150.21 149.053C148.215 150.53 145.731 153.483 146.597 156.612C147.463 159.742 147.913 173.02 149.879 177.275C151.845 181.529 160.609 192.511 161.771 195.441C162.164 196.425 166.757 200.943 170.369 206.176C177.463 216.449 185.754 230.202 185.754 230.437" stroke="#263238" stroke-linecap="round" stroke-linejoin="round"/>
<path d="M154.289 143.808C154.289 143.808 155.702 151.01 155.651 152.217C155.651 152.217 154.415 157.778 154.403 161.382C153.538 162.74 152.761 164.156 152.079 165.619C151.6 166.92 150.745 170.12 151.098 171.901" stroke="#263238" stroke-linecap="round" stroke-linejoin="round"/>
<path d="M151.708 154.45C151.708 154.45 155.173 154.479 154.951 155.979" stroke="#263238" stroke-linecap="round" stroke-linejoin="round"/>
<path d="M154.403 161.382C154.403 161.382 152.181 160.392 151.4 161.722" stroke="#263238" stroke-linecap="round" stroke-linejoin="round"/>
<path d="M167.195 138.124C167.195 138.124 167.036 143.644 165.623 143.205" stroke="#263238" stroke-linecap="round" stroke-linejoin="round"/>
<path d="M178.432 140.972C178.432 140.972 178.022 143.99 179.127 144.922" stroke="#263238" stroke-linecap="round" stroke-linejoin="round"/>
<path d="M187.446 120.497C187.446 120.497 188.984 128.115 189.338 129.92C189.691 131.725 187.588 140.937 187.628 143.334C187.668 145.73 188.665 149.158 188.528 150.77" stroke="#263238" stroke-linecap="round" stroke-linejoin="round"/>
<path d="M193.589 178.353C193.589 178.353 193.093 183.328 194.58 185.455" stroke="#263238" stroke-linecap="round" stroke-linejoin="round"/>
<path d="M163.714 188.198C163.714 188.198 160.398 191.304 161.611 195.124" stroke="#263238" stroke-linecap="round" stroke-linejoin="round"/>
<path d="M185.509 149.475C185.56 151.666 184.312 154.221 184.181 157.251" stroke="#263238" stroke-linecap="round" stroke-linejoin="round"/>
<path d="M174.945 147.518C175.651 149.311 174.113 153.213 173.879 154.678C173.786 155.825 173.907 156.979 174.238 158.077" stroke="#263238" stroke-linecap="round" stroke-linejoin="round"/>
<path d="M194.802 153.694C194.517 155.599 193.207 156.958 192.956 162.818" stroke="#263238" stroke-linecap="round" stroke-linejoin="round"/>
<path d="M162.449 146.961C163.406 148.033 162.762 153.155 163.019 153.993" stroke="#263238" stroke-linecap="round" stroke-linejoin="round"/>
<path d="M180.301 117.456C180.301 117.456 183.56 115.001 186.363 117.895" stroke="#263238" stroke-linecap="round" stroke-linejoin="round"/>
<path d="M169.076 111.813C169.076 111.813 169.645 110.834 172.398 111.074C175.15 111.314 175.64 112.908 175.64 112.908" stroke="#263238" stroke-linecap="round" stroke-linejoin="round"/>
<path d="M161.036 128.543C161.036 128.543 160.113 127.142 157.68 127.605C155.247 128.068 154.164 131.608 154.164 131.608" fill="white"/>
<path d="M161.036 128.543C161.036 128.543 160.113 127.142 157.68 127.605C155.247 128.068 154.164 131.608 154.164 131.608" stroke="#263238" stroke-linecap="round" stroke-linejoin="round"/>
<path d="M194.096 140.855C194.096 140.855 192.067 137.831 189.628 139.126" stroke="#263238" stroke-linecap="round" stroke-linejoin="round"/>
<path opacity="0.2" d="M107.681 118.704C111.099 121.429 108.216 138.153 108.216 138.153L108.518 143.597L114.381 140.972L117.054 152.604C117.054 152.604 116.985 156.864 119.156 158.464C119.156 158.464 119.692 168.022 119.156 175.007C118.621 181.992 107.76 190.202 104.017 197.533C100.273 204.864 75.8573 226.411 75.8573 226.411L55.1851 216.296L70.1308 154.216L83.5211 136.513L91.4584 116.149C91.4584 116.149 92.8202 129.451 92.0282 138.417L107.681 118.704Z" fill="black" fill-opacity="0.7"/>
<path d="M113.435 155.856C112.917 158.423 114.165 172.493 113.948 174.392C113.732 176.29 102.849 189.042 102.302 190.008C101.755 190.975 94.4783 195.283 92.786 197.339C84.8772 206.827 80.5581 215.564 77.088 224.325C76.4214 226.012 75.7832 227.706 75.1564 229.405L43.772 210.653C46.4101 207.29 48.9001 204.301 51.1793 201.582C55.7377 196.068 59.3673 191.655 61.1451 187.489C61.6907 186.425 62.3155 185.406 63.014 184.441C63.7206 183.41 64.3531 182.56 64.3531 182.56C64.3531 182.56 62.0739 175.956 62.6038 173.882C63.1337 171.807 61.9485 154.755 61.9485 154.755C61.9485 154.755 60.4044 143.146 58.883 140.216C58.5094 139.451 58.3403 138.598 58.393 137.743C58.4671 135.065 59.977 131.69 60.7178 127.781C61.7092 122.507 61.2306 119.899 64.3417 121.722C67.4528 123.544 65.9998 134.614 65.9998 134.614L70.7006 145.326C71.9371 142.736 70.7006 135.176 70.6379 133.389C70.6379 133.096 70.6379 132.61 70.5923 131.977C70.4955 128.895 70.296 122.478 70.5525 119.946C70.5525 119.806 70.5525 119.677 70.598 119.56C70.9798 116.946 72.3416 108.631 73.2077 107.705C74.4955 106.334 76.541 105.179 78.4669 108.291C79.5439 110.049 79.0823 123.99 79.0823 123.99C79.0823 123.99 83.5495 118.446 84.9057 117.093C86.2618 115.739 90.3757 113.266 91.4754 116.131C92.5751 118.997 88.5182 127.851 88.5182 127.851C89.3672 129.902 89.4697 135.581 89.4697 135.581C89.4697 135.581 91.3899 142.677 92.5694 142.613H92.6207C92.9626 142.537 93.3387 141.247 93.7318 139.437C94.7005 135.001 95.7546 127.412 96.5808 126.75L97.1506 126.281C97.1766 126.247 97.2074 126.218 97.2418 126.193L97.4526 126C99.4697 124.154 103.72 120.052 103.72 120.052C103.72 120.052 104.022 118.089 107.743 118.692C111.464 119.296 106.091 130.588 106.091 130.588C105.344 134.18 104.199 143.421 104.199 143.421C103.851 147.266 104.057 157.597 104.057 157.597C104.057 157.597 105.817 151.584 105.703 149.393C105.589 147.201 109.202 141.833 110.262 140.45C111.321 139.068 116.051 139.554 114.735 142.208C113.418 144.863 113.954 153.278 113.435 155.856Z" fill="white"/>
<path opacity="0.4" d="M61.1279 187.512C61.6734 186.448 62.2983 185.429 62.9968 184.465C62.9968 184.465 61.145 189.739 60.9626 192.546C60.843 194.398 56.1023 197.603 51.1621 201.605C55.749 196.091 59.3501 191.679 61.1279 187.512Z" fill="white"/>
<path opacity="0.4" d="M62.9968 184.465C63.7033 183.434 64.3358 182.584 64.3358 182.584C64.3358 182.584 62.0566 175.98 62.5865 173.905C63.1164 171.831 61.9312 154.778 61.9312 154.778C61.9312 154.778 60.3871 143.17 58.8657 140.24L62.4099 146.609C62.4099 146.609 62.0623 151.643 63.0708 154.403C64.0794 157.163 65.35 165.584 65.35 165.584C65.35 165.584 63.8571 172.663 64.3643 175.212C64.8714 177.761 67.1563 176.835 67.1563 176.835C67.1563 176.835 68.2788 181.5 62.9968 184.465Z" fill="white"/>
<path opacity="0.4" d="M71.2643 136.512C73.7087 151.233 69.4979 147.16 67.9766 143.984C66.4552 140.808 62.8826 134.796 60.1931 136.079C59.4379 136.443 58.8052 137.031 58.3755 137.767C58.4496 135.089 59.9595 131.713 60.7003 127.805C61.6917 122.531 61.2131 119.923 64.3242 121.745C67.4353 123.568 65.9823 134.637 65.9823 134.637L70.6831 145.349C71.9196 142.759 70.6831 135.2 70.6204 133.413C70.6204 133.12 70.6204 132.633 70.5748 132C70.7629 133.354 70.9908 134.86 71.2643 136.512Z" fill="white"/>
<path opacity="0.4" d="M77.2474 121.968C77.2474 121.968 74.6092 118.417 72.3186 118.599C71.9253 118.62 71.5468 118.76 71.2299 119.001C70.913 119.241 70.6714 119.572 70.5352 119.952C70.5352 119.812 70.5352 119.683 70.5807 119.565C70.9625 116.952 72.3243 108.637 73.1904 107.711C74.4782 106.339 76.5237 105.185 78.4496 108.297C79.5266 110.055 79.065 123.996 79.065 123.996C79.065 123.996 83.5322 118.452 84.8884 117.098C86.2445 115.745 90.3584 113.272 91.4581 116.137C92.5578 119.003 88.5009 127.857 88.5009 127.857C89.3499 129.908 89.4524 135.587 89.4524 135.587C89.4524 135.587 91.3726 142.683 92.5521 142.619C89.9538 147.647 88.2217 136.53 88.2217 136.53C88.6091 134.233 87.2302 129.252 87.367 127.939C87.5037 126.627 84.9738 121.986 80.7117 123.251C76.4497 124.517 79.5266 141.839 79.5266 141.839C78.6843 143.219 78.1944 144.795 78.1021 146.422C76.7858 144.752 78.1021 139.976 78.1021 139.976C76.934 135.405 77.2474 121.968 77.2474 121.968Z" fill="white"/>
<path opacity="0.4" d="M97.1107 126.263C95.293 128.227 95.5437 133.19 93.6919 139.419C94.6605 134.983 95.7147 127.394 96.5409 126.732L97.1107 126.263Z" fill="white"/>
<path opacity="0.4" d="M113.435 155.856C112.917 158.423 114.165 172.493 113.948 174.391C113.732 176.29 102.848 189.041 102.301 190.008C101.754 190.975 94.4781 195.282 92.7858 197.339C84.877 206.827 80.558 215.564 77.0879 224.325C78.395 219.783 79.9725 215.329 81.8115 210.987C85.5551 202.332 87.0821 200.791 89.3271 198.318C91.5721 195.845 91.3271 190.589 91.3271 190.589C92.9841 190.178 94.6826 189.972 96.3869 189.973C99.2359 189.973 107.669 177.609 110.569 175.44C113.469 173.272 113.988 173.272 110.569 168.49C107.15 163.709 108.119 169.258 107.093 169.076C106.068 168.895 105.509 171.204 105.509 171.204C105.15 166.328 102.091 160.656 101.447 159.238C100.803 157.819 103.008 149.504 102.552 147.189C102.096 144.875 104.512 130.781 104.512 130.781C104.512 130.781 104.21 125.373 99.4467 125.355C98.7157 125.313 97.9936 125.537 97.4069 125.988C99.4239 124.142 103.675 120.04 103.675 120.04C103.675 120.04 103.977 118.077 107.697 118.68C111.418 119.284 106.045 130.576 106.045 130.576C105.299 134.168 104.153 143.41 104.153 143.41C103.806 147.254 104.011 157.585 104.011 157.585C104.011 157.585 105.771 151.573 105.658 149.381C105.544 147.189 109.156 141.822 110.216 140.439C111.276 139.056 116.005 139.542 114.689 142.197C113.373 144.851 113.954 153.278 113.435 155.856Z" fill="white"/>
<path d="M75.1505 229.458C79.0195 218.951 83.3442 208.696 92.7858 197.369C94.4952 195.341 101.749 191.034 102.301 190.038C102.854 189.042 113.737 176.314 113.948 174.421C114.159 172.528 112.917 158.452 113.435 155.886C113.954 153.319 113.35 144.857 114.66 142.22C115.971 139.583 111.241 139.103 110.187 140.462C109.133 141.822 105.532 147.236 105.629 149.405C105.726 151.573 103.982 157.609 103.982 157.609C103.982 157.609 103.777 147.277 104.125 143.433C104.125 143.433 105.264 134.192 106.016 130.6C106.016 130.6 111.384 119.302 107.669 118.704C103.954 118.106 103.646 120.063 103.646 120.063C103.646 120.063 97.7145 125.795 96.5407 126.732C95.3669 127.67 93.7658 142.32 92.5863 142.595C91.4068 142.871 89.4354 135.563 89.4354 135.563C89.4354 135.563 89.3328 129.885 88.4838 127.834C88.4838 127.834 92.5351 119.003 91.441 116.114C90.347 113.225 86.2331 115.727 84.8713 117.075C83.5095 118.423 79.048 123.972 79.048 123.972C79.048 123.972 79.5095 110.019 78.4326 108.273C76.5067 105.15 74.444 106.304 73.1733 107.687C72.3073 108.613 70.9454 116.928 70.5637 119.542C70.1819 122.156 70.5637 131.578 70.6036 133.372C70.6434 135.165 71.9027 142.718 70.6662 145.308L65.9654 134.596C65.9654 134.596 67.4241 123.515 64.3073 121.704C61.1905 119.894 61.6748 122.507 60.6834 127.764C59.6919 133.02 57.333 137.292 58.8486 140.228C60.3643 143.164 61.9142 154.766 61.9142 154.766C61.9142 154.766 63.0879 171.819 62.5694 173.893C62.0509 175.968 64.3358 182.578 64.3358 182.578C64.3358 182.578 61.7033 186.147 61.1278 187.506C58.4726 193.712 51.7547 200.498 43.7661 210.706" stroke="#263238" stroke-linecap="round" stroke-linejoin="round"/>
<path d="M79.0649 124.007C78.4032 125.014 78.0681 126.21 78.1076 127.424C78.1076 129.651 79.5264 141.839 79.5264 141.839C79.5264 141.839 78.4951 143.093 78.4438 144.183" stroke="#263238" stroke-linecap="round" stroke-linejoin="round"/>
<path d="M103.994 157.579C104.149 159.638 104.665 161.651 105.515 163.521C106.848 166.229 106.415 167.723 105.959 169.323C105.654 170.725 105.492 172.157 105.475 173.595" stroke="#263238" stroke-linecap="round" stroke-linejoin="round"/>
<path d="M71.1849 142.923C71.1849 142.923 72.1764 146.158 70.3359 147.693" stroke="#263238" stroke-linecap="round" stroke-linejoin="round"/>
<path d="M92.6034 142.595C92.6034 142.595 92.7971 143.867 91.0479 143.984" stroke="#263238" stroke-linecap="round" stroke-linejoin="round"/>
<path d="M104.352 127.945C104.352 127.945 99.965 123.023 96.5576 126.732" stroke="#263238" stroke-linecap="round" stroke-linejoin="round"/>
<path d="M86.5752 125.179C86.5752 125.179 84.5524 122.548 82.7974 122.706C81.0425 122.865 78.6721 123.966 78.4043 125.414" stroke="#263238" stroke-linecap="round" stroke-linejoin="round"/>
<path d="M106.335 167.74C107.043 168.782 107.559 169.948 107.857 171.18" stroke="#263238" stroke-linecap="round" stroke-linejoin="round"/>
<path d="M94.9397 147.734C93.5779 150.342 94.2275 154.766 93.7261 155.979" stroke="#263238" stroke-linecap="round" stroke-linejoin="round"/>
<path d="M80.5121 143.404C80.8312 144.904 79.8227 147.348 79.6688 149.147C79.515 150.946 80.9452 153.723 80.6831 156.249" stroke="#263238" stroke-linecap="round" stroke-linejoin="round"/>
<path d="M71.2647 149.545C71.2647 149.545 70.0739 152.37 70.1251 154.233C70.1764 156.097 70.8203 160.181 70.8203 160.181" stroke="#263238" stroke-linecap="round" stroke-linejoin="round"/>
<path d="M62.5066 149.41C62.5066 149.41 62.0735 152.34 63.0764 154.403C64.0792 156.466 65.0536 160.849 65.0536 160.849" stroke="#263238" stroke-linecap="round" stroke-linejoin="round"/>
<path d="M64.3359 182.578C64.8612 182.428 65.3305 182.12 65.6831 181.693C66.0357 181.265 66.2552 180.739 66.3131 180.181" stroke="#263238" stroke-linecap="round" stroke-linejoin="round"/>
<path d="M92.9796 191.509C92.9796 191.509 94.0679 195.652 91.9824 198.318" stroke="#263238" stroke-linecap="round" stroke-linejoin="round"/>
<path d="M58.4043 137.274C58.4043 137.274 61.4698 134.198 63.7889 136.794" stroke="#263238" stroke-linecap="round" stroke-linejoin="round"/>
<path d="M70.5806 119.565C70.5806 119.565 72.8597 117.11 75.5264 119.735" stroke="#263238" stroke-linecap="round" stroke-linejoin="round"/>
</svg>
