<svg width="476" height="438" viewBox="0 0 476 438" fill="none" xmlns="http://www.w3.org/2000/svg">
<path d="M395.64 66.01C378.48 48.43 358.82 33.81 337.93 23.57C306.11 8.00998 271.06 0.46998 236 0.00997976C133.57 -1.29002 125.77 124.82 94.2702 142.35C62.7702 159.88 5.69021 161.95 3.72021 232.08C2.48021 276.19 12.3102 321.55 39.9402 355.92C65.2502 387.4 102.43 403.35 139.07 415.14C180.2 428.37 223.83 441.36 267.07 432.43C311.48 423.26 342.68 386.43 379.15 361.52C402.15 345.84 422.72 329.34 436.89 304.18C438.59 301.18 440.18 298.11 441.69 295C460.69 255.91 464.39 210.82 453.92 168.52C444.56 130.56 423.36 94.41 395.64 66.01Z" fill="#92E3A9"/>
<path opacity="0.7" d="M395.64 66.01C378.48 48.43 358.82 33.81 337.93 23.57C306.11 8.00998 271.06 0.46998 236 0.00997976C133.57 -1.29002 125.77 124.82 94.2702 142.35C62.7702 159.88 5.69021 161.95 3.72021 232.08C2.48021 276.19 12.3102 321.55 39.9402 355.92C65.2502 387.4 102.43 403.35 139.07 415.14C180.2 428.37 223.83 441.36 267.07 432.43C311.48 423.26 342.68 386.43 379.15 361.52C402.15 345.84 422.72 329.34 436.89 304.18C438.59 301.18 440.18 298.11 441.69 295C460.69 255.91 464.39 210.82 453.92 168.52C444.56 130.56 423.36 94.41 395.64 66.01Z" fill="white"/>
<path d="M311.1 69.3501C310.063 70.1833 308.854 70.7774 307.56 71.0901C304.01 71.8801 294.56 71.4801 292.96 75.8201C292.449 77.1224 291.652 78.2939 290.63 79.2489C289.607 80.204 288.384 80.9184 287.05 81.3401C287.05 81.3401 279.56 81.7401 279.16 83.3401C278.76 84.9401 276.01 87.6801 276.01 87.6801H405C405 87.6801 409.34 80.9801 402.24 74.6801C396.03 69.1601 384.68 77.5201 383.24 70.6801" stroke="#263238" stroke-linecap="round" stroke-linejoin="round"/>
<path d="M382.07 60.6401C380.63 55.4501 377.6 48.45 371.45 45.85C361.19 41.51 352.52 47.4301 350.15 53.3401C347.78 59.2501 346.21 63.2001 337.15 58.0701C328.09 52.9401 320.15 53.3401 317.43 60.0701C316.645 62.0184 315.664 63.8814 314.5 65.6301" stroke="#263238" stroke-linecap="round" stroke-linejoin="round"/>
<path d="M92.0498 138.11H136.84C136.84 138.11 139.46 134.11 135.17 130.24C130.88 126.37 122.52 133.58 123.72 125.47C123.72 125.47 122.72 115.47 116.56 112.83C114.974 112.104 113.227 111.805 111.49 111.963C109.753 112.121 108.088 112.73 106.66 113.73" stroke="#263238" stroke-linecap="round" stroke-linejoin="round"/>
<path d="M103.68 117.36C102.25 120.94 101.29 123.36 95.81 120.22C90.33 117.08 85.55 117.36 83.88 121.42C82.21 125.48 80.06 127.62 77.88 128.09C75.7 128.56 70.01 128.33 69.05 130.96C68.7383 131.747 68.2554 132.456 67.6362 133.033C67.017 133.611 66.2771 134.044 65.47 134.3C65.47 134.3 60.94 134.53 60.7 135.49C60.2229 136.469 59.5763 137.356 58.79 138.11H85" stroke="#263238" stroke-linecap="round" stroke-linejoin="round"/>
<path d="M316.25 138.11H337.4C337.4 138.11 340.02 134.11 335.73 130.24C331.44 126.37 323.09 133.58 324.28 125.47C324.28 125.47 323.33 115.47 317.12 112.83C310.91 110.19 305.68 113.83 304.24 117.36C302.8 120.89 301.86 123.36 296.37 120.22C290.88 117.08 286.11 117.36 284.45 121.42C282.79 125.48 280.63 127.62 278.45 128.09C276.27 128.56 270.58 128.33 269.63 130.96C269.317 131.747 268.834 132.454 268.215 133.032C267.596 133.609 266.857 134.042 266.05 134.3C266.05 134.3 261.52 134.53 261.28 135.49C260.803 136.469 260.156 137.356 259.37 138.11H309.19" stroke="#263238" stroke-linecap="round" stroke-linejoin="round"/>
<g opacity="0.1">
<path opacity="0.1" d="M12.23 204.18C16.17 204.96 24.92 202.85 24.92 202.85C24.92 202.85 21.78 197.5 21.54 197.19C18.73 193.57 11.17 188.19 6.36001 189.99C5.56864 190.305 4.8522 190.782 4.25711 191.391C3.66201 192.001 3.20153 192.728 2.9055 193.526C2.60948 194.325 2.48451 195.177 2.53868 196.027C2.59286 196.877 2.82498 197.706 3.22001 198.46C4.79001 201.72 8.88001 203.51 12.23 204.18Z" fill="black"/>
<path opacity="0.1" d="M20.8202 229.01C24.6602 228.74 32.0101 224.76 32.6001 224.44C34.8717 228.648 37.4207 232.7 40.2302 236.57C41.8502 238.83 43.5602 241.06 45.3002 243.27C44.3502 242.38 43.5002 241.59 43.3702 241.49C39.7102 238.75 31.0102 235.6 26.8302 238.56C26.1499 239.073 25.5849 239.723 25.1718 240.467C24.7587 241.212 24.5068 242.036 24.4323 242.884C24.3578 243.733 24.4625 244.588 24.7394 245.393C25.0164 246.199 25.4596 246.937 26.0402 247.56C28.4202 250.28 32.8302 250.93 36.2402 250.69C39.6502 250.45 46.0402 247.17 47.7002 246.29C48.3802 247.13 49.0402 247.98 49.7002 248.82C52.9602 252.82 56.2302 256.82 59.3202 260.88C60.4102 262.3 61.4201 263.74 62.4501 265.17C61.6101 264.38 60.9002 263.72 60.7802 263.63C57.1102 260.88 48.4202 257.73 44.2402 260.7C43.5572 261.211 42.9898 261.86 42.5749 262.605C42.16 263.35 41.907 264.174 41.8324 265.023C41.7578 265.873 41.8634 266.729 42.1422 267.534C42.4209 268.34 42.8666 269.078 43.4502 269.7C45.8302 272.43 50.2402 273.07 53.6502 272.83C57.0602 272.59 62.8302 269.63 64.8102 268.59C65.8102 270.09 66.8102 271.59 67.7302 273.09C68.3302 274.09 68.9702 275.09 69.5102 276.16L71.1702 279.29C72.1702 281.29 73.1702 283.41 74.0802 285.41C74.7202 286.8 75.3102 288.13 75.9002 289.48C74.8302 288.05 72.6902 285.3 72.4802 285.09C69.2802 281.83 61.1602 277.4 56.5702 279.69C55.8202 280.093 55.1634 280.649 54.6424 281.323C54.1214 281.996 53.7478 282.771 53.546 283.598C53.3442 284.425 53.3186 285.286 53.471 286.123C53.6233 286.961 53.9501 287.757 54.4302 288.46C56.3702 291.52 60.6302 292.82 64.0402 293.1C67.7902 293.41 75.3702 290.73 76.3102 290.39C77.3102 292.62 78.2102 294.79 79.0502 296.86C79.6835 298.38 80.2735 299.85 80.8202 301.27L83.9402 300.59C83.2735 299.023 82.5768 297.383 81.8502 295.67C80.8502 293.41 79.7801 291.01 78.6301 288.56C80.7732 287.112 82.8269 285.536 84.7802 283.84C87.9502 286.06 95.2302 287.84 96.1702 288.11C95.7502 290.5 95.3302 292.82 94.8902 295.01C94.6602 296.17 94.4301 297.26 94.2001 298.35L97.5002 297.63C97.6302 296.95 97.7502 296.28 97.8702 295.57C98.3102 293.14 98.7202 290.57 99.1202 287.86C100.12 287.86 108.12 287.73 111.57 286.14C114.67 284.69 118.21 281.99 118.97 278.45C119.176 277.624 119.206 276.763 119.057 275.924C118.908 275.086 118.585 274.288 118.108 273.582C117.631 272.876 117.01 272.279 116.287 271.829C115.564 271.379 114.754 271.087 113.91 270.97C108.82 270.41 102.74 277.38 100.91 281.56C100.8 281.81 99.9102 284.62 99.3702 286.4C99.5202 285.3 99.6902 284.24 99.8302 283.11C100.14 280.88 100.38 278.65 100.65 276.24C100.74 275.08 100.83 273.9 100.92 272.71C101.01 271.52 101.01 270.28 101.06 269.05C101.06 266.19 101.06 263.3 100.88 260.39C102.88 260.65 109.79 261.49 113.08 260.53C116.37 259.57 120.28 257.43 121.56 254.05C121.891 253.265 122.052 252.419 122.033 251.568C122.015 250.716 121.817 249.878 121.453 249.108C121.089 248.338 120.566 247.653 119.919 247.099C119.273 246.545 118.517 246.133 117.7 245.89C112.7 244.56 105.7 250.53 103.2 254.38C103.05 254.62 101.58 257.58 100.8 259.22C100.7 257.47 100.6 255.73 100.44 253.96C99.9702 248.86 99.3402 243.71 98.7402 238.57C98.5502 236.99 98.3802 235.42 98.2102 233.85C98.9002 233.95 107.15 235.13 110.84 234.05C114.12 233.05 118.03 230.95 119.32 227.57C119.649 226.784 119.808 225.938 119.788 225.086C119.768 224.235 119.57 223.397 119.205 222.627C118.84 221.858 118.317 221.173 117.67 220.619C117.023 220.065 116.267 219.653 115.45 219.41C110.45 218.08 103.45 224.06 100.96 227.9C100.77 228.19 98.6602 232.46 98.1802 233.57C97.8002 230.1 97.4502 226.65 97.2502 223.23C96.9501 218.615 96.9501 213.985 97.2502 209.37C97.5702 209.42 106.17 210.69 109.95 209.58C113.23 208.58 117.15 206.49 118.43 203.1C118.759 202.315 118.919 201.469 118.9 200.618C118.88 199.767 118.682 198.93 118.318 198.16C117.954 197.391 117.432 196.706 116.787 196.151C116.141 195.597 115.386 195.184 114.57 194.94C109.57 193.62 102.57 199.59 100.07 203.44C99.8802 203.74 97.6102 208.32 97.2602 209.19C97.2602 208.92 97.2602 208.64 97.2602 208.37C97.689 203.751 98.529 199.18 99.7701 194.71C100.42 192.23 101.19 189.9 101.98 187.65C103.56 188.05 110.79 189.8 114.3 189.18C117.81 188.56 121.79 186.89 123.44 183.67C123.852 182.925 124.103 182.102 124.176 181.254C124.249 180.406 124.143 179.552 123.865 178.748C123.587 177.944 123.143 177.207 122.561 176.585C121.98 175.964 121.274 175.471 120.49 175.14C115.71 173.27 108.04 178.44 105.15 181.99C105 182.18 103.62 184.32 102.63 185.89C103.01 184.89 103.37 183.83 103.75 182.89C105.16 179.28 106.67 176.06 108.03 173.21C108.82 171.6 109.56 170.21 110.27 168.82C112.02 168.41 119.07 166.65 121.85 164.52C124.63 162.39 127.44 159.04 127.42 155.42C127.444 154.568 127.288 153.721 126.963 152.934C126.638 152.146 126.15 151.436 125.532 150.849C124.914 150.263 124.18 149.813 123.377 149.528C122.574 149.244 121.719 149.132 120.87 149.2C115.77 149.75 111.34 157.86 110.42 162.35C110.34 162.73 109.78 168.94 109.87 168.92H109.97C109.26 170.2 108.52 171.57 107.73 173.09C106.31 175.91 104.73 179.09 103.23 182.7C101.594 186.528 100.181 190.448 99.0002 194.44C97.6439 198.939 96.6935 203.551 96.1602 208.22C96.1553 208.277 96.1553 208.334 96.1602 208.39C95.8602 206.92 94.9002 202.83 94.7902 202.52C93.2502 198.21 87.7402 190.79 82.6102 190.95C81.7617 191.003 80.9338 191.233 80.18 191.626C79.4263 192.02 78.7635 192.567 78.2346 193.232C77.7057 193.898 77.3226 194.667 77.1099 195.49C76.8973 196.313 76.8599 197.172 77.0002 198.01C77.4802 201.59 80.8002 204.56 83.7802 206.25C87.1402 208.14 95.4701 208.87 96.1301 208.93C95.7029 213.694 95.5927 218.481 95.8002 223.26C95.9102 226.04 96.1002 228.84 96.3302 231.65C96.0402 230.38 95.7602 229.25 95.7102 229.1C94.1702 224.79 88.6502 217.37 83.5302 217.53C82.6803 217.58 81.8504 217.808 81.0947 218.2C80.339 218.593 79.6743 219.139 79.1441 219.806C78.6139 220.472 78.2299 221.242 78.0173 222.066C77.8047 222.891 77.7682 223.751 77.9102 224.59C78.3902 228.18 81.7102 231.15 84.6902 232.83C87.6702 234.51 94.8002 235.31 96.6902 235.49C96.7902 236.56 96.8702 237.64 96.9802 238.71C97.4702 243.87 97.9801 249.01 98.3401 254.08C98.4701 255.86 98.5201 257.62 98.5901 259.38C98.3201 258.26 98.0902 257.32 98.0402 257.18C96.5002 252.86 91.0402 245.44 85.8602 245.6C85.0098 245.651 84.1798 245.881 83.4241 246.274C82.6683 246.667 82.0038 247.215 81.4737 247.882C80.9436 248.549 80.5598 249.32 80.3473 250.145C80.1348 250.97 80.0983 251.83 80.2402 252.67C80.7202 256.26 84.0501 259.23 87.0201 260.91C89.9901 262.59 96.4402 263.31 98.6702 263.53C98.6702 265.33 98.6702 267.14 98.6702 268.89C98.5902 270.09 98.6002 271.24 98.4602 272.44C98.3202 273.64 98.2302 274.8 98.1202 275.96C97.8102 278.2 97.5202 280.5 97.1202 282.67C96.8902 284.18 96.6402 285.62 96.3902 287.07C96.2902 285.29 96.0102 281.81 95.9602 281.53C95.0337 277.605 93.1159 273.983 90.3902 271.01C90.3114 270.569 90.1874 270.136 90.0201 269.72C89.7373 268.917 89.2884 268.182 88.7027 267.564C88.1169 266.946 87.4074 266.458 86.6205 266.133C85.8336 265.807 84.987 265.651 84.1357 265.675C83.2845 265.699 82.4478 265.901 81.6802 266.27C77.1202 268.61 75.9002 277.78 76.6802 282.27C76.6802 282.53 77.5302 285.37 78.0602 287.15C77.5902 286.15 77.1402 285.15 76.6402 284.15C75.6402 282.15 74.6402 280.15 73.5302 277.97L71.8102 274.88C71.2502 273.88 70.5402 272.8 69.9002 271.75C68.3702 269.34 66.7002 266.97 64.9702 264.63C66.7502 263.77 72.9702 260.63 75.2302 258.01C77.4902 255.39 79.5202 251.46 78.7302 247.93C78.5668 247.096 78.2303 246.305 77.7424 245.609C77.2545 244.913 76.626 244.327 75.8976 243.889C75.1692 243.451 74.357 243.17 73.5134 243.065C72.6698 242.96 71.8137 243.034 71.0002 243.28C66.1402 244.91 63.5502 253.79 63.6002 258.36C63.6002 258.65 64.0102 261.93 64.2602 263.73C63.2602 262.33 62.1702 260.92 61.0602 259.53C57.8602 255.53 54.4902 251.59 51.1502 247.64C50.1502 246.43 49.1502 245.21 48.1502 244C48.7802 243.7 56.3102 240.13 58.7902 237.19C61.0002 234.58 63.0802 230.64 62.2902 227.11C62.132 226.273 61.7991 225.478 61.3129 224.778C60.8268 224.078 60.1985 223.488 59.469 223.047C58.7395 222.607 57.9252 222.325 57.0793 222.22C56.2335 222.115 55.3751 222.19 54.5602 222.44C49.7002 224.06 47.1102 232.94 47.1602 237.52C47.1602 237.86 47.7602 242.58 47.9602 243.77C45.7402 241.1 43.5402 238.41 41.4902 235.67C38.6981 231.985 36.1462 228.123 33.8501 224.11C34.1401 223.97 42.0102 220.28 44.5502 217.27C46.7602 214.66 48.8502 210.72 48.0502 207.19C47.8918 206.354 47.5591 205.56 47.0736 204.861C46.5881 204.162 45.9608 203.573 45.2325 203.132C44.5041 202.691 43.6912 202.409 42.8465 202.304C42.0018 202.198 41.1444 202.272 40.3302 202.52C35.4602 204.14 32.8701 213.02 32.9201 217.6C32.9201 217.96 33.5702 223.04 33.7502 223.95C33.6202 223.71 33.4502 223.49 33.3202 223.25C31.1364 219.157 29.3161 214.881 27.8802 210.47C27.0602 208.05 26.4102 205.68 25.8802 203.36C27.4202 202.83 34.4102 200.3 37.0002 197.84C39.5902 195.38 42.0002 191.84 41.5802 188.21C41.516 187.361 41.2735 186.534 40.8683 185.785C40.4632 185.035 39.9046 184.379 39.2289 183.86C38.5533 183.341 37.7758 182.971 36.9472 182.773C36.1186 182.574 35.2575 182.553 34.4201 182.71C29.4201 183.79 25.8601 192.33 25.4201 196.89C25.4201 197.14 25.4202 199.68 25.4802 201.54C25.2302 200.49 24.9602 199.41 24.7402 198.4C23.9202 194.61 23.4002 191.09 22.9702 187.97C22.7402 186.19 22.5701 184.58 22.4201 183.07C23.6501 181.76 28.5502 176.4 29.7002 173.07C30.8502 169.74 31.3402 165.41 29.3302 162.41C28.8795 161.687 28.2818 161.066 27.5758 160.588C26.8698 160.111 26.0713 159.787 25.232 159.638C24.3928 159.489 23.5316 159.518 22.7043 159.724C21.8771 159.929 21.1023 160.306 20.4302 160.83C16.4902 164.1 17.2701 173.32 18.9701 177.57C19.1101 177.94 22.0702 183.42 22.1302 183.35L22.2101 183.27C22.3201 184.73 22.4602 186.27 22.6402 187.99C23.0102 191.12 23.4501 194.66 24.1901 198.49C24.9525 202.618 25.9542 206.698 27.1901 210.71C28.5412 215.207 30.2915 219.575 32.4201 223.76C32.4201 223.76 32.4802 223.86 32.5002 223.91C31.5002 222.84 28.3902 219.96 28.1302 219.77C24.4602 217.02 15.7702 213.87 11.5902 216.84C10.9072 217.351 10.3398 218 9.92486 218.745C9.50996 219.49 9.25696 220.314 9.18239 221.163C9.10783 222.013 9.21338 222.869 9.49215 223.674C9.77092 224.48 10.2166 225.218 10.8002 225.84C13.0002 228.58 17.4102 229.22 20.8202 229.01Z" fill="black"/>
<path opacity="0.1" d="M101.58 186.72C101.67 186.72 101.91 180.53 101.88 180.14C101.53 175.57 98.1702 166.96 93.1902 165.76C92.3567 165.585 91.4956 165.587 90.6629 165.766C89.8302 165.945 89.0445 166.297 88.3569 166.8C87.6693 167.303 87.0953 167.944 86.672 168.684C86.2487 169.423 85.9858 170.243 85.9002 171.09C85.4202 174.68 87.8402 178.42 90.2602 180.83C93.1102 183.66 101.58 186.72 101.58 186.72Z" fill="black"/>
</g>
<g opacity="0.1">
<path opacity="0.1" d="M458.06 290.3C454.68 290.42 447.69 287.5 447.69 287.5C447.69 287.5 451.01 283.5 451.26 283.25C454.07 280.62 461.06 277.2 464.83 279.25C465.446 279.617 465.977 280.11 466.391 280.696C466.804 281.282 467.09 281.948 467.229 282.651C467.369 283.354 467.359 284.079 467.201 284.778C467.042 285.478 466.739 286.136 466.31 286.71C464.56 289.25 460.93 290.19 458.06 290.3Z" fill="black"/>
<path opacity="0.1" d="M447.61 309.76C444.45 309.03 438.88 304.76 438.43 304.39C435.971 307.587 433.298 310.614 430.43 313.45C428.78 315.12 427.07 316.74 425.33 318.35C426.23 317.73 427.04 317.19 427.17 317.13C430.58 315.33 438.22 313.88 441.3 316.9C441.797 317.416 442.181 318.031 442.425 318.704C442.67 319.378 442.77 320.096 442.719 320.81C442.668 321.525 442.467 322.221 442.13 322.854C441.792 323.486 441.325 324.04 440.76 324.48C438.42 326.43 434.67 326.37 431.87 325.72C429.07 325.07 424.19 321.49 422.93 320.53C422.25 321.14 421.59 321.76 420.93 322.36C417.69 325.28 414.44 328.17 411.33 331.11C410.24 332.11 409.2 333.2 408.16 334.25C408.96 333.71 409.64 333.25 409.75 333.19C413.16 331.4 420.81 329.95 423.89 332.97C424.387 333.485 424.77 334.099 425.015 334.772C425.259 335.445 425.359 336.162 425.308 336.876C425.257 337.59 425.057 338.285 424.719 338.916C424.382 339.548 423.915 340.101 423.35 340.54C421.01 342.54 417.26 342.44 414.45 341.79C411.64 341.14 407.25 337.9 405.74 336.79C404.74 337.9 403.67 339.02 402.74 340.14C402.1 340.92 401.44 341.63 400.85 342.46L399.05 344.84C397.97 346.39 396.84 347.99 395.82 349.53C395.1 350.6 394.44 351.63 393.76 352.67C394.84 351.62 396.99 349.67 397.19 349.48C400.29 347.19 407.62 344.6 411.13 347.11C411.699 347.546 412.17 348.096 412.513 348.726C412.856 349.355 413.063 350.05 413.121 350.764C413.178 351.479 413.085 352.198 412.847 352.874C412.609 353.55 412.232 354.169 411.74 354.69C409.74 356.97 406 357.49 403.13 357.26C399.98 357.02 394.04 353.78 393.3 353.37C392.19 355.09 391.13 356.77 390.16 358.37C389.44 359.55 388.75 360.7 388.1 361.8L385.6 360.8C386.35 359.58 387.15 358.32 387.99 356.99C389.11 355.24 390.34 353.4 391.62 351.51C390.032 350.022 388.536 348.439 387.14 346.77C384.21 348.19 377.92 348.77 377.14 348.77C377.14 350.77 377.21 352.77 377.29 354.67C377.29 355.67 377.37 356.61 377.41 357.54L374.77 356.54C374.77 355.95 374.77 355.38 374.77 354.77C374.77 352.69 374.77 350.47 374.77 348.2C373.95 348.06 367.27 346.89 364.65 345.11C362.27 343.49 359.65 340.77 359.53 337.73C359.468 337.016 359.557 336.297 359.792 335.619C360.027 334.942 360.401 334.321 360.892 333.798C361.383 333.276 361.978 332.862 362.64 332.585C363.301 332.308 364.013 332.173 364.73 332.19C369.03 332.41 373.15 339.01 374.15 342.73C374.21 342.95 374.58 345.4 374.79 346.96C374.79 346.02 374.79 345.12 374.84 344.16C374.84 342.27 374.98 340.38 375.07 338.35C375.16 337.35 375.24 336.35 375.32 335.35C375.4 334.35 375.57 333.35 375.7 332.29C376.03 329.91 376.49 327.52 377 325.12C375.34 325.12 369.45 324.85 366.84 323.61C364.23 322.37 361.28 320.08 360.66 317.09C360.493 316.394 360.473 315.67 360.604 314.966C360.734 314.262 361.011 313.593 361.416 313.003C361.822 312.413 362.347 311.914 362.957 311.54C363.568 311.166 364.25 310.924 364.96 310.83C369.25 310.39 374.32 316.29 375.87 319.83C375.97 320.05 376.8 322.71 377.22 324.17C377.54 322.73 377.85 321.29 378.22 319.85C379.29 315.67 380.5 311.48 381.69 307.29C382.06 306 382.4 304.72 382.76 303.44C382.17 303.44 375.16 303.31 372.24 301.92C369.64 300.68 366.67 298.38 366.06 295.4C365.889 294.704 365.868 293.979 365.997 293.274C366.126 292.568 366.402 291.898 366.808 291.307C367.214 290.716 367.74 290.218 368.352 289.844C368.965 289.471 369.649 289.231 370.36 289.14C374.65 288.7 379.72 294.6 381.27 298.14C381.38 298.4 382.57 302.23 382.82 303.21C383.6 300.39 384.35 297.56 384.97 294.75C385.836 290.958 386.454 287.113 386.82 283.24C386.54 283.24 379.23 283.14 376.24 281.71C373.64 280.48 370.67 278.18 370.05 275.2C369.881 274.503 369.861 273.779 369.99 273.073C370.12 272.368 370.396 271.698 370.802 271.106C371.207 270.515 371.733 270.016 372.344 269.641C372.956 269.266 373.639 269.024 374.35 268.93C378.65 268.49 383.71 274.4 385.26 277.93C385.39 278.21 386.66 282.33 386.84 283.09C386.84 282.86 386.9 282.63 386.92 282.41C387.179 278.513 387.089 274.601 386.65 270.72C386.44 268.58 386.12 266.54 385.76 264.56C384.4 264.68 378.16 265.17 375.32 264.19C372.48 263.21 369.4 261.29 368.46 258.39C368.216 257.716 368.117 256.998 368.169 256.283C368.221 255.568 368.423 254.872 368.762 254.24C369.1 253.608 369.568 253.054 370.134 252.615C370.701 252.176 371.354 251.861 372.05 251.69C376.26 250.78 381.95 256.09 383.88 259.43C383.98 259.61 384.88 261.57 385.45 263.01C385.28 262.12 385.11 261.2 384.93 260.35C384.24 257.16 383.41 254.28 382.66 251.74C382.22 250.3 381.79 249 381.38 247.74C379.98 247.16 374.38 244.74 372.38 242.62C370.38 240.5 368.46 237.32 368.96 234.32C369.052 233.608 369.293 232.924 369.668 232.312C370.042 231.7 370.542 231.174 371.133 230.768C371.725 230.362 372.396 230.086 373.102 229.957C373.808 229.828 374.533 229.85 375.23 230.02C379.39 231.16 381.99 238.49 382.17 242.34C382.17 242.68 381.82 247.9 381.75 247.87H381.66C382.08 249.03 382.52 250.27 382.97 251.64C383.78 254.17 384.67 257.04 385.43 260.22C386.296 263.645 386.964 267.118 387.43 270.62C387.954 274.54 388.132 278.499 387.96 282.45C387.954 282.497 387.954 282.544 387.96 282.59C388.4 281.4 389.75 278.13 389.88 277.89C391.73 274.52 397.3 269.08 401.54 269.89C402.239 270.046 402.898 270.347 403.473 270.775C404.049 271.202 404.528 271.745 404.88 272.369C405.231 272.994 405.448 273.685 405.515 274.398C405.582 275.112 405.499 275.831 405.27 276.51C404.39 279.43 401.27 281.51 398.54 282.51C395.49 283.64 388.47 283.13 387.92 283.09C387.576 287.099 386.968 291.081 386.1 295.01C385.64 297.31 385.1 299.61 384.54 301.91C384.95 300.91 385.33 300 385.4 299.91C387.26 296.53 392.83 291.1 397.06 291.91C397.76 292.065 398.42 292.365 398.996 292.792C399.572 293.219 400.052 293.762 400.404 294.387C400.756 295.011 400.972 295.703 401.039 296.417C401.105 297.131 401.02 297.851 400.79 298.53C399.91 301.44 396.79 303.47 394.06 304.47C391.33 305.47 385.33 305.18 383.74 305.07C383.52 305.95 383.3 306.84 383.07 307.71C381.97 311.93 380.86 316.14 379.89 320.3C379.55 321.77 379.26 323.22 378.98 324.68C379.35 323.78 379.66 323.03 379.72 322.92C381.58 319.54 387.15 314.11 391.39 314.92C392.089 315.076 392.748 315.377 393.323 315.805C393.899 316.232 394.378 316.775 394.73 317.399C395.081 318.023 395.298 318.715 395.365 319.428C395.432 320.142 395.349 320.861 395.12 321.54C394.24 324.45 391.12 326.48 388.38 327.48C385.64 328.48 380.24 328.21 378.38 328.1C378.13 329.6 377.88 331.1 377.7 332.57C377.61 333.57 377.45 334.57 377.4 335.57L377.22 338.57C377.17 340.47 377.11 342.42 377.11 344.27C377.11 345.56 377.11 346.79 377.11 348.02C377.43 346.56 378.11 343.71 378.21 343.48C379.493 340.344 381.559 337.59 384.21 335.48C384.337 335.132 384.498 334.797 384.69 334.48C385.034 333.852 385.505 333.303 386.075 332.869C386.644 332.435 387.299 332.125 387.995 331.96C388.692 331.795 389.416 331.778 390.119 331.911C390.823 332.044 391.491 332.323 392.08 332.73C395.56 335.29 395.35 343.07 394.08 346.73C394.01 346.94 392.97 349.2 392.29 350.61C392.82 349.84 393.29 349.09 393.87 348.3C394.95 346.75 396.07 345.22 397.28 343.58L399.12 341.24C399.72 340.45 400.45 339.68 401.12 338.89C402.72 337.1 404.42 335.35 406.17 333.63C404.8 332.68 400.02 329.24 398.53 326.77C397.04 324.3 395.83 320.77 396.97 317.92C397.214 317.251 397.595 316.641 398.089 316.128C398.583 315.616 399.179 315.212 399.838 314.944C400.498 314.675 401.206 314.548 401.917 314.57C402.629 314.591 403.328 314.762 403.97 315.07C407.79 317.07 408.76 324.79 408.11 328.59C408.11 328.82 407.29 331.5 406.84 332.95C407.9 331.95 408.95 330.9 410.06 329.9C413.26 327 416.58 324.17 419.88 321.34L422.88 318.71C422.39 318.38 416.61 314.41 414.94 311.64C413.45 309.18 412.25 305.64 413.38 302.8C413.624 302.131 414.005 301.521 414.499 301.008C414.993 300.495 415.588 300.091 416.247 299.822C416.906 299.553 417.614 299.424 418.326 299.444C419.038 299.465 419.737 299.634 420.38 299.94C424.2 301.94 425.17 309.66 424.52 313.46C424.52 313.75 423.35 317.59 423.02 318.55C425.23 316.63 427.41 314.68 429.48 312.68C432.343 309.971 435.022 307.075 437.5 304.01C437.27 303.85 431.23 299.74 429.5 296.9C428.01 294.43 426.8 290.9 427.93 288.05C428.175 287.377 428.56 286.762 429.058 286.247C429.556 285.731 430.157 285.326 430.821 285.057C431.486 284.789 432.199 284.663 432.916 284.687C433.632 284.712 434.335 284.887 434.98 285.2C438.8 287.2 439.77 294.92 439.12 298.72C439.07 299.02 437.86 303.15 437.59 303.88C437.73 303.71 437.89 303.54 438.03 303.36C440.395 300.254 442.48 296.945 444.26 293.47C445.26 291.56 446.12 289.68 446.91 287.84C445.7 287.19 440.23 284.15 438.41 281.77C436.59 279.39 435.07 276.08 435.88 273.15C436.047 272.452 436.359 271.798 436.797 271.229C437.234 270.66 437.786 270.19 438.418 269.849C439.049 269.509 439.745 269.305 440.461 269.252C441.176 269.198 441.895 269.297 442.57 269.54C446.57 271.11 448.4 278.67 448.17 282.54C448.17 282.75 447.79 284.86 447.51 286.39C447.85 285.56 448.22 284.7 448.51 283.89C449.69 280.89 450.59 277.99 451.37 275.45C451.8 274.01 452.16 272.69 452.48 271.45C451.63 270.19 448.27 265.09 447.76 262.19C447.25 259.29 447.42 255.6 449.49 253.38C449.96 252.839 450.539 252.403 451.188 252.099C451.838 251.796 452.544 251.633 453.261 251.621C453.978 251.609 454.689 251.748 455.349 252.028C456.008 252.309 456.602 252.725 457.09 253.25C459.94 256.5 458.09 264.05 456.09 267.35C455.92 267.64 452.73 271.8 452.69 271.74L452.63 271.66C452.35 272.86 452.02 274.13 451.63 275.52C451 278.01 450.12 280.93 449 284.01C447.825 287.341 446.456 290.6 444.9 293.77C443.178 297.329 441.14 300.726 438.81 303.92C438.783 303.959 438.753 303.996 438.72 304.03C439.72 303.29 442.67 301.3 442.91 301.17C446.32 299.38 453.97 297.92 457.05 300.94C457.547 301.456 457.931 302.071 458.175 302.744C458.42 303.418 458.52 304.136 458.469 304.85C458.418 305.565 458.217 306.261 457.88 306.894C457.542 307.526 457.075 308.08 456.51 308.52C454.17 310.47 450.41 310.42 447.61 309.76Z" fill="black"/>
<path opacity="0.1" d="M386.14 263.88C386.06 263.88 386.69 258.69 386.77 258.36C387.67 254.62 391.61 247.91 395.91 247.58C396.625 247.545 397.34 247.661 398.008 247.921C398.676 248.181 399.282 248.578 399.785 249.088C400.289 249.597 400.68 250.207 400.932 250.878C401.185 251.549 401.293 252.265 401.25 252.98C401.18 255.98 398.67 258.81 396.33 260.49C393.58 262.46 386.14 263.87 386.14 263.88Z" fill="black"/>
</g>
<path d="M197.65 5.37012L210.15 124.16" stroke="#263238" stroke-linecap="round" stroke-linejoin="round"/>
<path d="M235.14 30.6101L225.82 32.7501L217.29 49.6201L203.78 45.7601L203.4 49.4401L220.2 56.4101L226.21 48.0701V62.6201L244.25 63.4001L247.94 46.9101L254.53 52.7301V68.0501H258.41L260.74 48.8501L250.46 32.1701L235.14 30.6101Z" fill="white" stroke="#263238" stroke-linecap="round" stroke-linejoin="round"/>
<path d="M226.21 48.0701L226.07 39.8601" stroke="#263238" stroke-linecap="round" stroke-linejoin="round"/>
<path d="M235 36.0101L237.53 40.7601C237.53 40.7601 244.53 42.9801 245.77 43.2901C247.01 43.6001 250.84 42.3401 254 41.7101C257.16 41.0801 267.31 46.1401 267.31 46.1401L276.18 46.4601L271.43 40.7601L254.32 38.2201L245.45 41.0801L239.45 39.4901L240.73 37.0101L237.88 32.5701L235 36.0101Z" fill="black" stroke="#263238" stroke-linecap="round" stroke-linejoin="round"/>
<path d="M235.91 29.2502C235.395 29.1528 234.862 29.2617 234.426 29.5535C233.99 29.8453 233.686 30.2966 233.58 30.8102C233.2 32.7502 232.81 37.6002 232.81 37.6002L237.46 36.2402L242.9 38.5702C242.9 38.5702 244.64 33.5202 243.67 31.7802C242.7 30.0402 238.24 27.7002 235.91 29.2502Z" fill="white" stroke="#263238" stroke-linecap="round" stroke-linejoin="round"/>
<path d="M234.94 26.54C234.94 26.54 235.52 31.97 235.72 33.91C235.92 35.85 237.08 38.76 237.85 38.18C238.62 37.6 241.34 32.18 241.34 32.18L242.7 28.5L234.94 26.54Z" fill="white" stroke="#263238" stroke-linecap="round" stroke-linejoin="round"/>
<path d="M235 18.6101C235 18.6101 233.3 18.4601 233.3 21.2401C233.3 24.0201 234.53 24.1701 234.53 24.1701L235 18.6101Z" fill="white" stroke="#263238" stroke-linecap="round" stroke-linejoin="round"/>
<path d="M246.37 20.9302C246.59 20.942 246.805 21.0019 247 21.1057C247.195 21.2095 247.364 21.3546 247.497 21.531C247.629 21.7073 247.721 21.9105 247.767 22.1264C247.812 22.3422 247.81 22.5653 247.76 22.7802C247.45 24.4802 244.52 26.7802 244.52 26.7802L246.37 20.9302Z" fill="white" stroke="#263238" stroke-linecap="round" stroke-linejoin="round"/>
<path d="M240.76 13.01C240.76 13.01 237.66 12.23 235.91 15.92C234.16 19.61 234.55 24.07 234.91 26.59C235.27 29.11 237.63 30.27 239.96 30.27C242.29 30.27 245.77 25.43 246.55 21.74C247.33 18.05 246.77 13.01 240.76 13.01Z" fill="white" stroke="#263238" stroke-linecap="round" stroke-linejoin="round"/>
<path d="M200.03 43.6102L200.8 49.4302L204.29 49.8202L203.71 43.2202L200.03 43.6102Z" fill="white" stroke="#263238" stroke-linecap="round" stroke-linejoin="round"/>
<path d="M203.78 43.5201L205.19 43.3301L205.47 46.4301L204.06 46.6201L203.78 43.5201Z" fill="white" stroke="#263238" stroke-linecap="round" stroke-linejoin="round"/>
<path d="M254.53 68.05L252.41 71.37L252.96 74.7001L254.81 74.5201L257.96 73.41L258.41 68.05H254.53Z" fill="white" stroke="#263238" stroke-linecap="round" stroke-linejoin="round"/>
<path d="M226.21 62.6201L224.84 68.6001L209.66 88.5801L219.84 117.27L222.43 116.71L220.21 89.3201L232.61 76.1801L234.09 77.1101L234.13 91.7701L248.34 115.79L251.3 115.04L244.64 91.9101L245.01 67.3001L244.25 63.4001L226.21 62.6201Z" fill="#263238" stroke="#263238" stroke-linecap="round" stroke-linejoin="round"/>
<path d="M219.84 117.27L217.62 120.41C217.62 120.41 214.1 122.08 213.55 123C213 123.92 216.55 123.74 216.55 123.74L220.62 123.37L224.88 120.6L222.47 116.71L219.84 117.27Z" fill="white" stroke="#263238" stroke-linecap="round" stroke-linejoin="round"/>
<path d="M198.18 9.6001C198.18 9.6001 196.32 13.8401 188.64 16.7501C180.96 19.6601 169.84 21.2501 166.93 27.3401C164.02 33.4301 164.02 32.9101 163.49 36.3401C163.207 38.3451 162.276 40.2027 160.84 41.6301C160.84 41.6301 163.49 41.9001 164.84 40.0501C166.19 38.2001 166.7 32.9001 168.84 32.1001C170.98 31.3001 174.87 30.0101 174.87 30.0101C174.87 30.0101 171.17 33.1901 170.87 34.7801C170.57 36.3701 170.34 40.0801 169.81 42.4601C169.579 43.7613 168.946 44.9574 168 45.8801C168 45.8801 171.44 45.8801 172.5 43.5001C173.56 41.1201 172.5 37.9401 175.94 35.5501C179.38 33.1601 183.09 34.2301 188.94 34.4901C194.79 34.7501 200.33 31.3201 200.33 31.3201L198.18 9.6001Z" fill="black" stroke="#263238" stroke-linecap="round" stroke-linejoin="round"/>
<path d="M248.34 115.79L245.79 124.26L252.12 124.01L251.3 115.04L248.34 115.79Z" fill="white" stroke="#263238" stroke-linecap="round" stroke-linejoin="round"/>
<path d="M238.64 20.4401C238.53 20.9401 238.18 21.2901 237.84 21.2201C237.5 21.1501 237.32 20.6801 237.43 20.2201C237.54 19.7601 237.89 19.3701 238.23 19.4401C238.57 19.5101 238.74 19.9401 238.64 20.4401Z" fill="#263238"/>
<path d="M243.27 21.5201C243.16 22.0201 242.81 22.3701 242.47 22.3001C242.13 22.2301 241.95 21.7601 242.06 21.3001C242.17 20.8401 242.52 20.4501 242.86 20.5201C243.2 20.5901 243.37 21.0101 243.27 21.5201Z" fill="#263238"/>
<path d="M240.19 21.0801L238.96 24.7901H240.97" stroke="#263238" stroke-linecap="round" stroke-linejoin="round"/>
<path d="M237.42 25.8701C237.42 25.8701 238.5 27.7201 241.28 26.6401" stroke="#263238" stroke-linecap="round" stroke-linejoin="round"/>
<path d="M237.26 17.8402C237.662 17.623 238.127 17.5502 238.576 17.6339C239.025 17.7176 239.433 17.9527 239.73 18.3002" stroke="#263238" stroke-linecap="round" stroke-linejoin="round"/>
<path d="M242.05 18.9201C242.32 18.7718 242.619 18.6822 242.926 18.6573C243.234 18.6324 243.543 18.6727 243.834 18.7756C244.125 18.8785 244.39 19.0417 244.614 19.2544C244.837 19.4672 245.013 19.7247 245.13 20.0101" stroke="#263238" stroke-linecap="round" stroke-linejoin="round"/>
<path d="M234.33 17.3802L245.44 16.0102C245.44 16.0102 244.98 17.8602 245.6 18.3202C246.22 18.7802 246.37 20.9502 246.37 20.9502L245.91 23.4202L248.38 19.1002C248.38 19.1002 249.15 15.7002 248.53 14.6202C248.327 14.2942 248.057 14.0151 247.738 13.8013C247.419 13.5876 247.059 13.444 246.68 13.3802C246.019 12.3797 245.087 11.588 243.992 11.0975C242.898 10.607 241.687 10.438 240.5 10.6102C236.18 11.0702 234.33 13.2302 234.33 14.9302V17.3802Z" fill="#263238" stroke="#263238" stroke-linecap="round" stroke-linejoin="round"/>
<path d="M226.13 437.21L245.73 324.74L171.75 256.85L198.6 165.37L169.86 166.01L157.72 176.87L132.35 176.25L128.92 188.62L121.96 187.75L119.56 192.09L107.69 215.79L101.52 239.46L78.5198 268.21L75.9998 336.05L38.9198 389.57L27.2598 437.21H226.13Z" fill="#808080" stroke="#39515E" stroke-linecap="round" stroke-linejoin="round"/>
<path d="M393.06 437.21L368.51 383.38L408.51 410.03V367.38L385 339.53L388.48 308.2L352.78 240.31L351 216.81L338.82 205.49L276.3 210.01L271.84 188.06L231.84 165.43L207.84 223.54L185.73 233.32L201.31 254.68L198.79 271.61L204 297.75L117 316.9C117 316.9 116.13 358.68 116.13 362.16C116.13 365.64 98.7197 385.66 98.7197 385.66L97.9097 437.21H393.06Z" fill="#ABABAB" stroke="#39515E" stroke-linecap="round" stroke-linejoin="round"/>
<path d="M441.51 437.21L431.12 432.66L418.06 404.81L402.39 393.5L395.43 376.96L388.47 363.9L351.27 345.73L357.04 437.21H441.51Z" fill="#CCCCCC" stroke="#39515E" stroke-linecap="round" stroke-linejoin="round"/>
<path d="M52.1497 437.1H98.6597L99.4997 410.03L95.1497 394.37V352.59L84.7097 350.85L75.9997 360.42L62.0797 368.26L31.9097 437.21H52.1497V437.1Z" fill="#CCCCCC" stroke="#39515E" stroke-linecap="round" stroke-linejoin="round"/>
<path d="M68.2397 391.78L69.2598 387.44" stroke="#39515E" stroke-miterlimit="10"/>
<path d="M52.1499 437.21L58.3499 412.72L64.1999 409L67.6199 394.42" stroke="#39515E" stroke-miterlimit="10"/>
<path d="M42.1099 437.47L51.9599 409.53" stroke="#39515E" stroke-miterlimit="10"/>
<path d="M84.8496 362.41L83.8896 366.95" stroke="#39515E" stroke-miterlimit="10"/>
<path d="M87.0798 351.79L85.2598 360.46" stroke="#39515E" stroke-miterlimit="10"/>
<path d="M98.6599 437.1L99.4999 410.03L95.1499 394.37V352.59L86.4499 408.29L78.6099 410.9L75.9999 426.57L74.3799 437.1H98.6599Z" fill="white" stroke="#39515E" stroke-linecap="round" stroke-linejoin="round"/>
<path d="M247.61 406.23C252.558 405.56 257.396 404.242 262 402.31C265.676 400.811 268.91 398.402 271.4 395.31C271.69 394.92 271.96 394.51 272.22 394.1L265.35 363.1L251.8 351.28L249.54 341.14L236.54 331L232.04 346.78L224.71 356.92L224.15 394.11L231.15 407.49C236.659 407.443 242.158 407.023 247.61 406.23V406.23Z" fill="white" stroke="#39515E" stroke-linecap="round" stroke-linejoin="round"/>
<path d="M247.61 406.23L246.23 394.65L250.3 383.68V377.18L249.48 367.02" stroke="#39515E" stroke-miterlimit="10"/>
<path d="M255.86 371.03L258.02 383.27L262.08 384.08L261.27 394.24L262.89 399.53" stroke="#39515E" stroke-miterlimit="10"/>
<path d="M254.36 362.55L255.08 366.63" stroke="#39515E" stroke-miterlimit="10"/>
<path d="M240.95 336.54L244.2 369.86" stroke="#39515E" stroke-miterlimit="10"/>
<path d="M201.25 405.4C210.599 406.821 220.043 407.523 229.5 407.5C231.4 407.5 233.26 407.45 235.09 407.38L234.89 396.92L231.51 392.42V360.3L237.15 354.66L236.58 331.01L229.82 343.41L220.82 351.29L215.18 367.63L206.18 378.34L203.92 389.61L193.22 398.61L188.95 403.16C192.983 404.02 197.083 404.767 201.25 405.4Z" fill="#CCCCCC" stroke="#39515E" stroke-linecap="round" stroke-linejoin="round"/>
<path d="M364.1 437.21L411.35 437.12L350.17 400.46L335.38 364.77L323.19 363.03L312.75 349.11L307.52 354.33L311 384.79L297.95 406.55V420.48L291.86 436.14L321.3 437.21H364.1Z" fill="white" stroke="#39515E" stroke-linecap="round" stroke-linejoin="round"/>
<path d="M340.4 437.15L338.17 424.7L341.68 417.35L340.72 402.98L343.6 405.86L363.08 437.15H340.4Z" fill="#CCCCCC" stroke="#39515E" stroke-linecap="round" stroke-linejoin="round"/>
<path d="M340.72 402.98L354.46 409.69L359.88 416.39L375.53 424.38L386.39 431.09L393.06 437.21L363.08 437.15L340.72 402.98Z" fill="white" stroke="#39515E" stroke-linecap="round" stroke-linejoin="round"/>
<path d="M297.95 406.55V420.48L291.39 436.93L316.24 437.25L311 407.42L321.45 397.85L307.52 354.33L311 384.79L297.95 406.55Z" fill="#CCCCCC" stroke="#39515E" stroke-linecap="round" stroke-linejoin="round"/>
<path d="M323.19 363.03L332.38 382.46L336.44 382.87L339.69 392.62" stroke="#39515E" stroke-miterlimit="10"/>
<path d="M329.36 421.81L330.76 426.35" stroke="#39515E" stroke-miterlimit="10"/>
<path d="M323.85 386.52L326.69 397.5L331.57 405.62L325.88 410.5L328.34 418.49" stroke="#39515E" stroke-miterlimit="10"/>
<path d="M207.74 163.26L187.34 185.57L186.64 144.67L206.95 120.01L207.74 163.26Z" fill="#CCCCCC" stroke="#39515E" stroke-linecap="round" stroke-linejoin="round"/>
<path d="M193.58 252.58L214.44 234.17C215.936 232.872 217.601 231.782 219.39 230.93C221.634 229.865 223.979 229.028 226.39 228.43C229.48 227.678 232.622 227.157 235.79 226.87C239.778 226.502 243.785 226.355 247.79 226.43C257.473 226.558 267.133 227.411 276.69 228.98C284.632 230.295 292.485 232.109 300.2 234.41C307.14 236.48 313.2 238.7 318.43 240.75C323.66 242.8 327.98 244.68 331.48 246.06L304.41 263.61C301.1 262.31 296.99 260.54 292.06 258.61C287.13 256.68 281.38 254.61 274.81 252.61C267.512 250.442 260.084 248.742 252.57 247.52C243.522 246.049 234.376 245.261 225.21 245.16C221.411 245.095 217.612 245.241 213.83 245.6C210.833 245.876 207.862 246.374 204.94 247.09C202.641 247.654 200.406 248.452 198.27 249.47C196.573 250.291 194.996 251.337 193.58 252.58V252.58Z" fill="#CCCCCC" stroke="#39515E" stroke-linecap="round" stroke-linejoin="round"/>
<path d="M260 403.12L236.46 412.12C238.517 411.356 240.488 410.377 242.34 409.2C243.98 408.154 245.457 406.87 246.72 405.39C247.912 403.988 248.834 402.378 249.44 400.64C250.063 398.789 250.354 396.843 250.3 394.89C250.283 391.484 249.238 388.162 247.3 385.36C244.815 382.065 241.641 379.352 238 377.41C232.755 374.545 227.242 372.2 221.54 370.41C214.74 368.12 206.54 365.86 196.89 363.51C183.747 360.449 170.877 356.316 158.41 351.15C147.151 346.536 136.581 340.391 127 332.89C118.2 326.016 110.952 317.36 105.73 307.49C100.435 297.001 97.6938 285.41 97.73 273.66C97.6799 268.888 98.0144 264.119 98.73 259.4C99.4132 254.864 100.484 250.394 101.93 246.04C103.354 241.774 105.151 237.641 107.3 233.69C109.465 229.736 111.972 225.979 114.79 222.46L131 202.13C125.022 209.567 120.423 218.013 117.42 227.07C115.874 231.673 114.73 236.4 114 241.2C113.259 246.198 112.925 251.248 113 256.3C112.992 268.756 115.921 281.038 121.55 292.15C127.088 302.613 134.768 311.792 144.09 319.09C153.57 326.72 164.84 333.09 177.37 338.42C190.561 343.905 204.18 348.3 218.09 351.56C228.34 354.06 236.97 356.47 244.16 358.9C250.196 360.818 256.027 363.326 261.57 366.39C266.05 369 269.26 371.76 271.38 374.8C273.446 377.761 274.566 381.279 274.59 384.89C274.657 386.958 274.352 389.02 273.69 390.98C273.053 392.809 272.083 394.504 270.83 395.98C269.493 397.536 267.933 398.884 266.2 399.98C264.25 401.242 262.171 402.295 260 403.12V403.12Z" fill="#CCCCCC" stroke="#39515E" stroke-linecap="round" stroke-linejoin="round"/>
<path d="M144.09 319.09C153.57 326.72 164.84 333.09 177.37 338.42C190.561 343.905 204.18 348.3 218.09 351.56C228.34 354.06 236.97 356.47 244.16 358.9C250.196 360.818 256.027 363.326 261.57 366.39C266.05 369 269.26 371.76 271.38 374.8C273.446 377.761 274.566 381.279 274.59 384.89C274.755 388.638 273.617 392.327 271.37 395.33C268.88 398.422 265.646 400.831 261.97 402.33C257.375 404.259 252.547 405.577 247.61 406.25C241.613 407.118 235.56 407.542 229.5 407.52C220.043 407.543 210.599 406.841 201.25 405.42C192.272 404.059 183.386 402.152 174.64 399.71C166.14 397.34 158.05 394.6 150.51 391.71C142.97 388.82 135.97 385.71 129.66 382.71L116.88 437.01H346.57C353.727 429.038 359.327 419.795 363.08 409.76C367.013 399.068 368.84 387.716 368.46 376.33C368.12 364.16 366.27 353.33 362.64 343.62C359.028 333.913 353.405 325.08 346.14 317.7C338.67 310.04 329.14 303.29 317.28 297.27C305.42 291.25 291.14 285.92 274.28 281.11C263.426 277.95 253.936 274.917 245.81 272.01C238.871 269.609 232.103 266.742 225.55 263.43C220.15 260.6 216.1 257.79 213.4 254.91C210.7 252.03 209.32 249.1 209.26 246.02C209.184 243.501 209.726 241.001 210.84 238.74C212.228 236.111 214.301 233.907 216.84 232.36C220.487 230.162 224.507 228.653 228.7 227.91C235.018 226.728 241.445 226.228 247.87 226.42C257.553 226.548 267.214 227.401 276.77 228.97C284.713 230.285 292.565 232.099 300.28 234.4C307.22 236.47 313.28 238.69 318.51 240.74C323.74 242.79 328.06 244.67 331.56 246.05L346.44 179.05C341.76 177.05 336.73 175.05 331.22 173.15C325.71 171.25 319.71 169.47 313.12 167.86C306.53 166.25 299.33 164.86 291.41 163.65C283.49 162.44 274.82 161.58 265.32 161.02L264.45 121.4L207 120.01L207.79 163.26C193.819 165.188 180.187 169.062 167.29 174.77C156.185 179.677 146.049 186.531 137.36 195.01C129.41 202.86 123.161 212.261 119 222.63C114.803 233.349 112.764 244.791 113 256.3C112.992 268.756 115.921 281.038 121.55 292.15C127.088 302.613 134.768 311.792 144.09 319.09V319.09Z" fill="white" stroke="#39515E" stroke-linecap="round" stroke-linejoin="round"/>
<path d="M116.88 437.01L129.66 382.68L113.29 392.92L102.87 437.01H116.88Z" fill="#CCCCCC" stroke="#39515E" stroke-linecap="round" stroke-linejoin="round"/>
<path d="M393.15 423.9C392.143 423.71 391.101 423.914 390.24 424.47L394.72 427.16C394.84 426.843 394.893 426.506 394.878 426.168C394.863 425.83 394.78 425.499 394.633 425.194C394.486 424.889 394.279 424.617 394.024 424.395C393.769 424.173 393.472 424.004 393.15 423.9V423.9Z" fill="#263238"/>
<path d="M394.41 388.5C394.41 388.5 395.01 385.98 395.03 385.82C395.23 383.93 394.5 380.15 392.55 379.28C392.222 379.145 391.869 379.081 391.515 379.093C391.16 379.104 390.812 379.189 390.493 379.344C390.174 379.499 389.891 379.719 389.663 379.991C389.435 380.262 389.267 380.579 389.17 380.92C388.7 382.35 389.41 384.06 390.22 385.23C391.18 386.61 394.41 388.49 394.41 388.5Z" fill="#263238"/>
<path d="M424.06 403.88C425.28 402.41 426.75 398.88 425.6 397.06C425.402 396.766 425.144 396.517 424.843 396.33C424.541 396.143 424.204 396.022 423.852 395.974C423.501 395.927 423.143 395.955 422.803 396.056C422.463 396.157 422.149 396.329 421.88 396.56C421.339 397.104 420.925 397.761 420.665 398.483C420.406 399.206 420.309 399.976 420.38 400.74C420.38 402.41 422.07 405.74 422.08 405.74C422.09 405.74 424 404.01 424.06 403.88Z" fill="#263238"/>
<path d="M382.86 417.78C384.273 418.682 385.818 419.357 387.44 419.78C387.31 420.52 387.18 421.26 387.02 421.97C387.02 422.15 386.93 422.33 386.89 422.52L387.83 423.08C387.89 422.79 387.95 422.49 388.02 422.2C388.25 421.03 388.44 419.84 388.59 418.64C390.195 419.232 391.882 419.569 393.59 419.64C394.363 419.62 395.121 419.43 395.812 419.084C396.504 418.739 397.11 418.246 397.59 417.64C397.782 417.34 397.909 417.003 397.962 416.652C398.016 416.3 397.995 415.941 397.9 415.597C397.806 415.254 397.641 414.935 397.415 414.659C397.189 414.384 396.908 414.16 396.59 414C394.66 413.09 391.32 415 390.01 416.39C389.93 416.48 389.11 417.58 388.67 418.2C388.76 417.47 388.85 416.75 388.92 416.01C389.11 413.89 389.24 411.73 389.37 409.58C389.37 408.93 389.46 408.27 389.51 407.58C389.79 407.68 393.07 408.78 394.67 408.58C396.08 408.43 397.85 407.85 398.67 406.58C398.862 406.281 398.989 405.945 399.042 405.594C399.095 405.243 399.074 404.884 398.98 404.542C398.886 404.199 398.72 403.881 398.495 403.606C398.269 403.332 397.988 403.109 397.67 402.95C395.74 402.04 392.4 403.95 391.09 405.34C391 405.45 389.81 407.04 389.53 407.45C389.63 406.01 389.75 404.57 389.92 403.15C390.135 401.241 390.469 399.347 390.92 397.48C391.05 397.48 394.48 398.69 396.11 398.48C397.53 398.33 399.29 397.75 400.11 396.48C400.302 396.181 400.429 395.845 400.482 395.494C400.535 395.143 400.514 394.784 400.42 394.442C400.326 394.099 400.16 393.781 399.935 393.507C399.709 393.232 399.428 393.009 399.11 392.85C397.18 391.93 393.84 393.85 392.54 395.24C392.43 395.35 391.16 397.06 390.95 397.38C390.95 397.27 391 397.16 391.03 397.05C391.554 395.193 392.24 393.386 393.08 391.65C393.53 390.65 394.02 389.78 394.51 388.92C395.13 389.2 397.96 390.46 399.44 390.47C400.92 390.48 402.68 390.1 403.6 388.9C403.825 388.625 403.99 388.307 404.084 387.964C404.177 387.622 404.198 387.264 404.144 386.913C404.091 386.562 403.964 386.226 403.772 385.928C403.58 385.629 403.327 385.375 403.03 385.18C401.22 384.06 397.69 385.6 396.24 386.84C396.16 386.91 395.43 387.68 394.91 388.25C395.14 387.86 395.37 387.46 395.6 387.09C396.45 385.72 397.31 384.52 398.08 383.45C398.52 382.85 398.93 382.32 399.32 381.82C401.046 381.786 402.756 381.486 404.39 380.93C405.65 380.28 407.09 379.1 407.39 377.62C407.457 377.276 407.452 376.922 407.376 376.58C407.299 376.239 407.152 375.917 406.944 375.635C406.736 375.353 406.472 375.117 406.169 374.942C405.865 374.767 405.528 374.658 405.18 374.62C403.05 374.47 400.63 377.46 399.91 379.22C399.85 379.38 399.15 381.87 399.19 381.87H399.24C398.85 382.34 398.44 382.87 398.01 383.41C397.21 384.46 396.32 385.65 395.44 387.01C394.48 388.467 393.602 389.976 392.81 391.53C391.916 393.271 391.18 395.088 390.61 396.96C390.61 396.96 390.61 397.01 390.61 397.03C390.61 396.4 390.52 394.66 390.5 394.52C390.19 392.64 388.5 389.19 386.38 388.87C386.028 388.828 385.671 388.86 385.332 388.965C384.994 389.069 384.68 389.243 384.413 389.476C384.145 389.708 383.929 389.994 383.779 390.315C383.629 390.637 383.547 390.985 383.54 391.34C383.47 392.85 384.61 394.34 385.7 395.23C386.94 396.23 390.29 397.23 390.56 397.23C390.029 399.148 389.625 401.099 389.35 403.07C389.18 404.22 389.05 405.38 388.94 406.55C388.94 406.01 388.88 405.55 388.87 405.46C388.56 403.58 386.87 400.12 384.75 399.81C384.398 399.766 384.041 399.797 383.702 399.901C383.363 400.005 383.05 400.179 382.783 400.412C382.516 400.645 382.301 400.932 382.152 401.254C382.004 401.576 381.925 401.925 381.92 402.28C381.85 403.78 382.99 405.28 384.08 406.16C385.539 407.063 387.127 407.738 388.79 408.16C388.79 408.6 388.7 409.05 388.67 409.5C388.48 411.65 388.31 413.79 388.07 415.89C387.99 416.63 387.88 417.36 387.77 418.08C387.77 417.6 387.77 417.2 387.77 417.14C387.46 415.26 385.77 411.81 383.65 411.49C383.298 411.446 382.941 411.477 382.602 411.581C382.263 411.685 381.95 411.859 381.683 412.092C381.416 412.325 381.201 412.612 381.052 412.934C380.904 413.256 380.825 413.605 380.82 413.96C380.63 415.4 381.77 416.87 382.86 417.78Z" fill="#263238"/>
<path d="M438.71 400.06C437.02 398.75 433.35 399.91 431.78 400.99C431.64 401.08 429.68 402.78 429.72 402.8C429.14 402.97 428.52 403.17 427.84 403.4C426.6 403.84 425.2 404.34 423.72 404.99C422.11 405.666 420.544 406.441 419.03 407.31C417.325 408.268 415.709 409.376 414.2 410.62L414.15 410.67C414.48 410.14 415.38 408.67 415.43 408.52C416.21 406.78 416.7 402.96 415.11 401.52C414.841 401.29 414.526 401.12 414.186 401.02C413.846 400.92 413.489 400.892 413.138 400.939C412.787 400.987 412.45 401.107 412.149 401.293C411.848 401.48 411.589 401.727 411.39 402.02C410.5 403.23 410.64 405.08 411.04 406.45C411.51 407.99 413.79 410.61 413.98 410.82C412.472 412.118 411.058 413.522 409.75 415.02C408.97 415.89 408.22 416.78 407.48 417.69C407.76 417.23 408 416.81 408.03 416.75C408.81 415.01 409.3 411.19 407.71 409.75C407.441 409.52 407.126 409.35 406.786 409.25C406.446 409.15 406.089 409.122 405.738 409.169C405.387 409.217 405.05 409.337 404.749 409.523C404.448 409.71 404.189 409.957 403.99 410.25C403.1 411.46 403.24 413.32 403.65 414.68C404.369 416.234 405.324 417.667 406.48 418.93L405.64 419.93C404.3 421.63 402.97 423.32 401.64 424.93C401.17 425.5 400.64 426.05 400.19 426.59L400.66 425.77C401.44 424.04 401.93 420.22 400.34 418.77C400.071 418.54 399.756 418.37 399.416 418.27C399.076 418.17 398.719 418.142 398.368 418.189C398.017 418.237 397.68 418.357 397.379 418.543C397.078 418.73 396.819 418.977 396.62 419.27C395.73 420.48 395.87 422.33 396.28 423.7C396.948 425.274 397.867 426.73 399 428.01L398 429.09L398.88 429.62C399.49 428.99 400.08 428.33 400.67 427.62C401.686 428.986 402.907 430.187 404.29 431.18C404.946 431.581 405.681 431.833 406.445 431.919C407.208 432.006 407.981 431.924 408.71 431.68C409.035 431.54 409.327 431.332 409.566 431.071C409.806 430.81 409.988 430.502 410.1 430.166C410.212 429.83 410.252 429.474 410.218 429.122C410.184 428.769 410.075 428.428 409.9 428.12C408.79 426.29 404.9 426.05 403.1 426.49C402.98 426.49 401.69 426.98 400.98 427.25C401.45 426.69 401.93 426.14 402.39 425.56C403.72 423.9 405.02 422.17 406.32 420.45L407.52 418.89C407.7 419.12 409.84 421.89 411.26 422.59C411.915 422.989 412.648 423.24 413.41 423.326C414.171 423.412 414.943 423.332 415.67 423.09C415.995 422.95 416.287 422.742 416.526 422.481C416.766 422.22 416.948 421.912 417.06 421.576C417.172 421.24 417.213 420.884 417.178 420.532C417.144 420.179 417.035 419.838 416.86 419.53C415.76 417.7 411.92 417.45 410.06 417.89C409.92 417.89 408.06 418.6 407.6 418.79C408.48 417.64 409.37 416.51 410.3 415.42C411.538 413.945 412.874 412.555 414.3 411.26C414.38 411.37 416.59 414.26 418.05 414.99C419.31 415.65 421.1 416.14 422.46 415.49C422.786 415.351 423.079 415.144 423.319 414.883C423.56 414.623 423.743 414.315 423.856 413.979C423.969 413.643 424.01 413.286 423.977 412.933C423.943 412.58 423.835 412.239 423.66 411.93C422.55 410.1 418.71 409.86 416.86 410.29C416.71 410.29 414.71 411.05 414.35 411.21L414.6 410.97C416.061 409.71 417.63 408.583 419.29 407.6C420.2 407.04 421.1 406.6 421.99 406.12C422.35 406.69 423.99 409.3 425.25 410.12C426.51 410.94 428.16 411.59 429.58 411.12C429.918 411.016 430.231 410.841 430.498 410.608C430.765 410.375 430.979 410.088 431.128 409.767C431.277 409.445 431.357 409.096 431.363 408.742C431.368 408.388 431.299 408.036 431.16 407.71C430.26 405.77 426.47 405.11 424.58 405.34C424.47 405.34 423.44 405.6 422.69 405.79C423.1 405.59 423.51 405.38 423.9 405.2C425.37 404.52 426.75 403.99 427.98 403.53L429.92 402.86C431.377 403.778 432.965 404.469 434.63 404.91C435.386 405.047 436.162 405.017 436.905 404.822C437.648 404.627 438.339 404.271 438.93 403.78C439.176 403.53 439.367 403.231 439.491 402.902C439.614 402.573 439.667 402.222 439.647 401.871C439.626 401.521 439.532 401.178 439.37 400.866C439.209 400.554 438.984 400.28 438.71 400.06Z" fill="#263238"/>
<path d="M387.72 437.17L388.87 437.88L389.58 437.36L389.85 437.16L387.72 437.17Z" fill="#263238"/>
<path d="M56.4099 371.01C56.113 371.203 55.8599 371.456 55.6671 371.753C55.4742 372.05 55.3458 372.384 55.2902 372.734C55.2346 373.084 55.253 373.441 55.3442 373.783C55.4355 374.125 55.5975 374.445 55.8199 374.72C56.5347 375.547 57.534 376.075 58.6199 376.2L60.7699 371.29C59.2599 370.61 57.5199 370.29 56.4099 371.01Z" fill="#263238"/>
<path d="M66.36 364.56C65.6837 365.066 65.2032 365.79 65 366.61L68.77 364.5C68.3987 364.297 67.9802 364.195 67.5569 364.206C67.1337 364.216 66.7207 364.338 66.36 364.56V364.56Z" fill="#263238"/>
<path d="M66.9999 328.82C68.2799 329.9 71.8899 330.88 71.8899 330.88C71.8899 330.88 71.8199 328.3 71.7899 328.14C71.4899 326.26 69.7899 322.8 67.6999 322.47C67.3478 322.423 66.9899 322.452 66.6497 322.554C66.3095 322.656 65.9948 322.829 65.7263 323.061C65.4579 323.294 65.2419 323.58 65.0925 323.903C64.9432 324.225 64.8639 324.575 64.8599 324.93C64.8199 326.43 65.9999 327.9 66.9999 328.82Z" fill="#263238"/>
<path d="M40.67 340.16C40.67 340.16 39.18 338.05 39.07 337.93C37.79 336.53 34.47 334.57 32.53 335.46C32.2125 335.618 31.9318 335.84 31.7062 336.114C31.4806 336.387 31.3152 336.705 31.2209 337.046C31.1265 337.388 31.1052 337.746 31.1585 338.096C31.2118 338.447 31.3384 338.782 31.53 339.08C32.29 340.38 34.04 340.98 35.46 341.15C37.11 341.34 40.67 340.17 40.67 340.16Z" fill="#263238"/>
<path d="M38.79 332.18C38.89 332.78 39 333.42 39.13 334.12C39.39 335.41 39.69 336.86 40.13 338.42C40.5755 340.118 41.1232 341.788 41.77 343.42C42.484 345.24 43.3574 346.994 44.38 348.66V348.72C43.91 348.32 42.54 347.22 42.38 347.15C40.77 346.15 37.05 345.15 35.38 346.49C35.1152 346.726 34.9033 347.016 34.7582 347.34C34.6131 347.664 34.5381 348.015 34.5381 348.37C34.5381 348.725 34.6131 349.076 34.7582 349.4C34.9033 349.724 35.1152 350.014 35.38 350.25C36.46 351.3 38.31 351.42 39.72 351.25C41.31 351.01 44.22 349.1 44.45 348.95C45.5404 350.618 46.7362 352.214 48.03 353.73C48.78 354.61 49.56 355.48 50.36 356.34L49.5 355.66C47.89 354.66 44.17 353.66 42.5 355.01C42.2366 355.247 42.0259 355.537 41.8817 355.861C41.7376 356.185 41.6631 356.535 41.6631 356.89C41.6631 357.245 41.7376 357.595 41.8817 357.919C42.0259 358.243 42.2366 358.533 42.5 358.77C43.1106 359.235 43.8154 359.561 44.565 359.725C45.3146 359.889 46.091 359.887 46.84 359.72C48.4796 359.221 50.034 358.476 51.45 357.51C51.76 357.83 52.06 358.16 52.37 358.51C53.86 360.07 55.37 361.62 56.77 363.19C57.27 363.74 57.77 364.3 58.22 364.86L57.47 364.28C55.86 363.28 52.14 362.28 50.47 363.62C50.2066 363.857 49.9959 364.147 49.8517 364.471C49.7076 364.795 49.6331 365.145 49.6331 365.5C49.6331 365.854 49.7076 366.205 49.8517 366.529C49.9959 366.853 50.2066 367.143 50.47 367.38C51.55 368.43 53.41 368.55 54.81 368.38C56.4081 367.902 57.9227 367.181 59.3 366.24C59.77 366.82 60.24 367.41 60.67 368.01C60.95 368.42 61.25 368.79 61.51 369.22V369.28L61.89 368.42L62.11 368.29L61.46 367.41C60.74 366.46 59.97 365.53 59.17 364.62C60.6523 363.799 62.0011 362.757 63.17 361.53C63.657 360.935 64.0086 360.242 64.2003 359.497C64.392 358.753 64.4192 357.976 64.28 357.22C64.1856 356.879 64.0205 356.561 63.7952 356.288C63.57 356.015 63.2897 355.793 62.9727 355.635C62.6558 355.477 62.3091 355.388 61.9554 355.374C61.6017 355.359 61.2489 355.419 60.92 355.55C58.92 356.39 58.18 360.16 58.36 362.05C58.36 362.17 58.65 363.52 58.82 364.26C58.33 363.71 57.82 363.16 57.35 362.62C55.88 361.07 54.35 359.55 52.83 358.02L51.45 356.62C51.7 356.47 54.7 354.74 55.63 353.43C56.1796 352.846 56.5887 352.144 56.8261 351.378C57.0635 350.612 57.123 349.802 57 349.01C56.9054 348.669 56.7402 348.351 56.5151 348.078C56.2901 347.805 56.0101 347.581 55.6934 347.423C55.3767 347.265 55.0303 347.175 54.6766 347.159C54.3229 347.143 53.9697 347.201 53.64 347.33C51.64 348.17 50.9 351.94 51.08 353.84C51.08 353.98 51.49 355.92 51.62 356.41C50.62 355.41 49.62 354.33 48.62 353.27C47.3347 351.837 46.1454 350.32 45.06 348.73C45.18 348.66 48.32 346.86 49.27 345.53C49.7568 344.937 50.1083 344.245 50.3 343.503C50.4918 342.76 50.5191 341.984 50.38 341.23C50.2903 340.883 50.1278 340.559 49.9033 340.279C49.6788 339.999 49.3974 339.771 49.0778 339.608C48.7582 339.445 48.4077 339.352 48.0494 339.336C47.6912 339.319 47.3335 339.378 47 339.51C45 340.35 44.26 344.12 44.44 346.02C44.44 346.17 44.89 348.25 44.99 348.62L44.79 348.35C43.7459 346.725 42.8458 345.012 42.1 343.23C41.68 342.23 41.33 341.29 41.01 340.35C42.6158 339.694 44.1102 338.794 45.44 337.68C45.9864 337.144 46.4091 336.494 46.6786 335.777C46.948 335.061 47.0577 334.294 47 333.53C46.9388 333.183 46.8059 332.853 46.6099 332.561C46.4139 332.269 46.159 332.02 45.8616 331.832C45.5642 331.644 45.2308 331.52 44.8827 331.468C44.5346 331.416 44.1795 331.437 43.84 331.53C41.84 332.15 40.62 335.81 40.58 337.72C40.58 337.82 40.68 338.88 40.76 339.65C40.63 339.22 40.48 338.78 40.35 338.37C39.88 336.83 39.55 335.37 39.27 334.1C39.11 333.37 38.98 332.71 38.87 332.1C39.9847 330.784 40.8887 329.303 41.55 327.71C41.793 326.982 41.8732 326.21 41.7851 325.448C41.697 324.686 41.4426 323.953 41.04 323.3C40.8293 323.015 40.5608 322.777 40.252 322.603C39.9433 322.429 39.6012 322.322 39.2482 322.289C38.8953 322.256 38.5393 322.298 38.2036 322.412C37.8679 322.525 37.56 322.709 37.3 322.95C35.77 324.44 36.4 328.23 37.3 329.95C37.36 330.01 38.77 332.21 38.79 332.18Z" fill="#263238"/>
<path d="M65.1901 339.59C66.6501 340.26 70.1301 340.28 70.4101 340.29C70.3885 342.295 70.5021 344.3 70.7501 346.29C70.8901 347.44 71.0701 348.6 71.2601 349.75C71.0901 349.24 70.9401 348.75 70.9101 348.75C70.1301 347.01 67.5901 344.12 65.4701 344.36C65.119 344.41 64.7822 344.533 64.4816 344.721C64.1811 344.909 63.9234 345.158 63.7254 345.452C63.5274 345.747 63.3934 346.079 63.3322 346.428C63.271 346.778 63.2839 347.136 63.3701 347.48C63.6901 348.95 65.1701 350.07 66.4701 350.67C68.1106 351.163 69.8174 351.399 71.5301 351.37C71.6101 351.81 71.6801 352.25 71.7601 352.69C72.1401 354.82 72.5301 356.93 72.8501 359.02C72.9601 359.76 73.0401 360.49 73.1301 361.22L72.8301 360.32C72.0401 358.58 69.5001 355.69 67.3801 355.93C67.0335 355.98 66.7012 356.102 66.4043 356.288C66.1074 356.474 65.8525 356.719 65.6558 357.009C65.4592 357.299 65.3251 357.627 65.2621 357.971C65.1991 358.316 65.2087 358.669 65.2901 359.01C65.6101 360.48 67.0901 361.6 68.3801 362.2C69.4804 362.587 70.6343 362.799 71.8001 362.83L74.1301 361.52L75.9701 360.52L81.0001 355.01C80.8863 354.968 80.7693 354.934 80.6501 354.91C78.5501 354.53 75.8201 357.24 74.9201 358.91C74.9201 359.02 74.3601 360.3 74.0901 361C73.9901 360.28 73.8901 359.56 73.7601 358.83C73.4001 356.73 72.9601 354.62 72.5401 352.5C72.4001 351.86 72.2801 351.21 72.1601 350.56C72.4501 350.56 75.9101 350.79 77.4001 350.22C78.7301 349.71 80.2901 348.69 80.7001 347.22C80.8034 346.883 80.8347 346.528 80.7922 346.178C80.7497 345.828 80.6342 345.491 80.4533 345.188C80.2723 344.886 80.0299 344.625 79.7417 344.422C79.4535 344.219 79.1259 344.079 78.7801 344.01C76.6801 343.63 73.9601 346.34 73.0601 348.01C72.9901 348.14 72.2601 350.01 72.0601 350.46C71.7901 349.03 71.5301 347.61 71.3301 346.2C71.0473 344.296 70.8903 342.375 70.8601 340.45C71.0001 340.45 74.6101 340.69 76.1401 340.11C76.8754 339.88 77.5517 339.493 78.1217 338.975C78.6917 338.457 79.1417 337.82 79.4401 337.11C79.5502 336.773 79.5881 336.417 79.5513 336.065C79.5144 335.712 79.4037 335.372 79.2263 335.065C79.0489 334.758 78.8088 334.492 78.5217 334.285C78.2346 334.077 77.9069 333.932 77.5601 333.86C75.4601 333.47 72.7301 336.19 71.8301 337.86C71.7601 337.99 70.9801 339.97 70.8301 340.34C70.8301 340.23 70.8301 340.11 70.8301 340C70.8599 338.07 71.054 336.147 71.4101 334.25C71.6001 333.2 71.8401 332.25 72.0901 331.25C72.7601 331.36 75.8201 331.84 77.2501 331.46C78.6801 331.08 80.2501 330.26 80.8601 328.87C81.0055 328.547 81.0815 328.197 81.0832 327.843C81.0849 327.489 81.0122 327.139 80.8699 326.814C80.7275 326.49 80.5187 326.199 80.2569 325.961C79.9951 325.722 79.6862 325.542 79.3501 325.43C77.3501 324.82 74.3501 327.22 73.2201 328.79C73.1601 328.87 72.6601 329.79 72.3001 330.49C72.4201 330.06 72.5401 329.61 72.6601 329.2C73.1301 327.66 73.6601 326.27 74.1101 325.04C74.3901 324.35 74.6501 323.73 74.8901 323.15C75.6101 322.91 78.4701 321.95 79.5501 320.97C80.6301 319.99 81.6901 318.5 81.5501 316.97C81.5308 316.616 81.4372 316.27 81.2754 315.954C81.1136 315.638 80.8872 315.36 80.6109 315.137C80.3346 314.915 80.0146 314.753 79.6716 314.662C79.3286 314.571 78.9704 314.553 78.6201 314.61C76.5201 315.01 74.9601 318.53 74.7201 320.42C74.7201 320.59 74.7201 323.18 74.7201 323.17C74.4701 323.73 74.2101 324.32 73.9301 324.98C73.4401 326.2 72.9301 327.58 72.3901 329.12C71.8378 330.776 71.3804 332.462 71.0201 334.17C70.6426 336.095 70.4352 338.049 70.4001 340.01V340.08C70.2301 339.48 69.6901 337.81 69.6401 337.69C68.8501 335.95 66.3101 333.06 64.1901 333.3C63.8392 333.349 63.5026 333.472 63.2024 333.661C62.9022 333.849 62.6451 334.099 62.4478 334.393C62.2506 334.687 62.1177 335.02 62.0578 335.369C61.9978 335.719 62.0123 336.077 62.1001 336.42C62.4201 337.87 63.9001 339.01 65.1901 339.59Z" fill="#263238"/>
<path d="M210.22 361.77C209.869 361.82 209.532 361.942 209.232 362.131C208.932 362.319 208.675 362.569 208.478 362.863C208.28 363.157 208.147 363.49 208.088 363.84C208.028 364.189 208.042 364.547 208.13 364.89C208.38 365.616 208.786 366.277 209.32 366.829C209.854 367.38 210.503 367.807 211.22 368.08C212.204 368.434 213.235 368.636 214.28 368.68L215.17 367.62L215.67 366.17C214.88 364.42 212.34 361.53 210.22 361.77Z" fill="#263238"/>
<path d="M199.25 376.88C198.953 377.073 198.7 377.326 198.507 377.623C198.315 377.92 198.186 378.254 198.131 378.604C198.075 378.954 198.093 379.311 198.185 379.653C198.276 379.995 198.438 380.314 198.66 380.59C199.56 381.8 201.38 382.19 202.8 382.19C203.73 382.122 204.644 381.913 205.51 381.57L206.09 378.65L206.03 378.59C204.59 377.34 201.07 375.78 199.25 376.88Z" fill="#263238"/>
<path d="M209.2 370.48C207.57 371.48 207.25 374.7 207.54 376.68L212.33 370.99C211.952 370.55 211.431 370.257 210.858 370.163C210.285 370.07 209.698 370.182 209.2 370.48V370.48Z" fill="#263238"/>
<path d="M194.43 363.33C194.74 363.65 195.04 363.98 195.35 364.33C196.84 365.89 198.35 367.44 199.75 369.01C200.25 369.56 200.75 370.12 201.2 370.68L200.45 370.1C198.84 369.1 195.12 368.1 193.45 369.44C193.187 369.677 192.976 369.967 192.832 370.291C192.688 370.615 192.613 370.966 192.613 371.32C192.613 371.675 192.688 372.025 192.832 372.349C192.976 372.673 193.187 372.963 193.45 373.2C194.53 374.25 196.39 374.37 197.79 374.2C199.388 373.723 200.903 373.001 202.28 372.06C202.75 372.65 203.22 373.23 203.65 373.83C203.93 374.24 204.23 374.61 204.49 375.04L205.28 376.28C205.64 376.9 206.01 377.52 206.36 378.13L207.13 377.22C206.83 376.72 206.52 376.22 206.19 375.69L205.37 374.46C205.11 374.05 204.78 373.64 204.48 373.23C203.76 372.23 202.99 371.35 202.19 370.44C203.672 369.619 205.021 368.577 206.19 367.35C206.677 366.756 207.029 366.062 207.221 365.318C207.412 364.573 207.439 363.796 207.3 363.04C207.211 362.701 207.053 362.384 206.834 362.109C206.616 361.835 206.343 361.609 206.032 361.446C205.722 361.283 205.381 361.187 205.031 361.164C204.681 361.14 204.33 361.19 204 361.31C202 362.15 201.26 365.92 201.44 367.81C201.44 367.93 201.73 369.28 201.9 370.02C201.41 369.47 200.9 368.92 200.43 368.39C198.96 366.84 197.43 365.31 195.91 363.78L194.53 362.38C194.78 362.23 197.78 360.5 198.71 359.19C199.198 358.598 199.549 357.906 199.741 357.163C199.933 356.42 199.96 355.644 199.82 354.89C199.726 354.549 199.56 354.231 199.335 353.958C199.11 353.685 198.83 353.462 198.514 353.303C198.197 353.145 197.851 353.055 197.497 353.039C197.143 353.023 196.79 353.081 196.46 353.21C194.46 354.05 193.72 357.82 193.9 359.72C193.9 359.86 194.31 361.8 194.44 362.29C193.44 361.29 192.44 360.21 191.44 359.15C190.155 357.717 188.966 356.2 187.88 354.61C188 354.54 191.14 352.74 192.09 351.41C192.577 350.817 192.929 350.125 193.12 349.383C193.312 348.64 193.339 347.865 193.2 347.11C193.106 346.769 192.94 346.451 192.715 346.178C192.49 345.905 192.21 345.682 191.894 345.523C191.577 345.365 191.231 345.275 190.877 345.259C190.523 345.243 190.17 345.301 189.84 345.43C187.84 346.27 187.1 350.04 187.28 351.94C187.28 352.09 187.73 354.17 187.83 354.54L187.63 354.27C186.586 352.645 185.686 350.932 184.94 349.15C184.52 348.15 184.17 347.21 183.85 346.27C185.454 345.614 186.948 344.717 188.28 343.61C189.23 342.54 190.14 340.93 189.85 339.45C189.789 339.104 189.656 338.774 189.46 338.481C189.264 338.189 189.009 337.941 188.712 337.752C188.414 337.564 188.081 337.44 187.733 337.388C187.385 337.336 187.03 337.357 186.69 337.45C184.69 338.07 183.47 341.74 183.43 343.64C183.43 343.74 183.53 344.8 183.61 345.57C183.48 345.14 183.33 344.7 183.2 344.29C182.73 342.75 182.4 341.29 182.12 340.02C181.96 339.29 181.83 338.63 181.72 338.02C182.835 336.704 183.739 335.223 184.4 333.63C184.643 332.903 184.723 332.13 184.635 331.368C184.547 330.606 184.293 329.873 183.89 329.22C183.679 328.935 183.411 328.698 183.102 328.523C182.793 328.349 182.451 328.242 182.098 328.209C181.745 328.176 181.389 328.218 181.054 328.332C180.718 328.446 180.41 328.629 180.15 328.87C178.62 330.36 179.25 334.16 180.15 335.87C180.23 336.02 181.64 338.19 181.66 338.16C181.76 338.76 181.87 339.4 182 340.1C182.26 341.39 182.56 342.84 183 344.4C183.446 346.098 183.993 347.768 184.64 349.4C185.356 351.223 186.229 352.979 187.25 354.65C187.254 354.667 187.254 354.684 187.25 354.7C186.78 354.3 185.41 353.2 185.3 353.13C183.69 352.13 179.97 351.13 178.3 352.48C178.037 352.717 177.827 353.006 177.682 353.329C177.538 353.652 177.464 354.001 177.464 354.355C177.464 354.709 177.538 355.059 177.682 355.382C177.827 355.705 178.037 355.994 178.3 356.23C179.38 357.29 181.23 357.4 182.64 357.23C184.23 356.99 187.14 355.08 187.37 354.93C188.461 356.598 189.656 358.195 190.95 359.71C191.7 360.59 192.48 361.46 193.28 362.32L192.42 361.64C190.81 360.64 187.09 359.64 185.42 360.99C185.155 361.227 184.943 361.516 184.798 361.84C184.653 362.164 184.578 362.515 184.578 362.87C184.578 363.225 184.653 363.576 184.798 363.9C184.943 364.224 185.155 364.514 185.42 364.75C186.49 365.8 188.35 365.92 189.75 365.7C191.424 365.158 193.003 364.358 194.43 363.33V363.33Z" fill="#263238"/>
<path d="M209.88 334.74C211.16 335.82 214.77 336.8 214.77 336.8C214.77 336.8 214.7 334.22 214.67 334.06C214.37 332.18 212.67 328.72 210.58 328.39C210.228 328.345 209.871 328.375 209.531 328.477C209.192 328.58 208.878 328.753 208.61 328.985C208.342 329.217 208.126 329.503 207.976 329.825C207.826 330.146 207.745 330.495 207.74 330.85C207.66 332.35 208.79 333.82 209.88 334.74Z" fill="#263238"/>
<path d="M183.51 346.09C183.51 346.09 182.02 343.97 181.91 343.85C180.63 342.45 177.31 340.49 175.37 341.38C175.052 341.538 174.772 341.76 174.546 342.034C174.32 342.307 174.155 342.625 174.061 342.967C173.966 343.308 173.945 343.666 173.998 344.016C174.052 344.367 174.178 344.702 174.37 345C175.13 346.3 176.88 346.9 178.3 347.07C180 347.26 183.51 346.09 183.51 346.09Z" fill="#263238"/>
<path d="M208 345.51C209.46 346.18 212.94 346.21 213.22 346.21C213.201 348.199 213.314 350.186 213.56 352.16C213.7 353.31 213.88 354.47 214.07 355.63C213.9 355.11 213.75 354.63 213.72 354.63C212.94 352.89 210.4 350 208.28 350.24C207.929 350.29 207.592 350.413 207.292 350.601C206.991 350.789 206.733 351.038 206.535 351.332C206.337 351.627 206.203 351.959 206.142 352.308C206.081 352.658 206.094 353.016 206.18 353.36C206.5 354.83 207.98 355.95 209.28 356.55C210.921 357.043 212.627 357.279 214.34 357.25C214.42 357.69 214.49 358.13 214.57 358.57C214.95 360.7 215.34 362.82 215.66 364.9C215.66 365.21 215.73 365.52 215.77 365.83L216.4 364.03C216.06 362.17 215.68 360.3 215.31 358.43C215.18 357.79 215.05 357.14 214.93 356.5C216.294 356.582 217.662 356.552 219.02 356.41L220.78 351.32L222.17 350.11C221.987 350.02 221.791 349.956 221.59 349.92C219.49 349.54 216.77 352.25 215.87 353.92C215.8 354.05 215.07 355.92 214.87 356.37C214.6 354.94 214.34 353.52 214.14 352.11C213.857 350.206 213.7 348.285 213.67 346.36C213.81 346.36 217.42 346.6 218.95 346.02C219.685 345.79 220.362 345.403 220.932 344.885C221.502 344.367 221.952 343.73 222.25 343.02C222.36 342.683 222.398 342.327 222.361 341.975C222.324 341.622 222.214 341.282 222.036 340.975C221.859 340.668 221.619 340.402 221.332 340.195C221.045 339.987 220.717 339.842 220.37 339.77C218.27 339.38 215.54 342.1 214.64 343.77C214.57 343.9 213.79 345.88 213.64 346.25C213.64 346.14 213.64 346.03 213.64 345.91C213.67 343.98 213.864 342.057 214.22 340.16C214.41 339.16 214.65 338.16 214.9 337.16C215.57 337.27 218.63 337.75 220.06 337.37C221.49 336.99 223.06 336.17 223.67 334.78C223.815 334.457 223.891 334.107 223.893 333.753C223.895 333.399 223.822 333.049 223.68 332.724C223.538 332.4 223.329 332.109 223.067 331.871C222.805 331.632 222.496 331.451 222.16 331.34C220.16 330.73 217.16 333.13 216.03 334.7C215.97 334.78 215.47 335.7 215.11 336.4C215.23 335.97 215.35 335.52 215.47 335.11C215.94 333.57 216.47 332.18 216.92 330.95C217.2 330.26 217.46 329.64 217.7 329.06C218.42 328.82 221.28 327.86 222.36 326.88C223.44 325.9 224.5 324.41 224.36 322.88C224.341 322.526 224.247 322.179 224.085 321.864C223.924 321.548 223.697 321.27 223.421 321.047C223.145 320.825 222.825 320.663 222.482 320.572C222.139 320.481 221.78 320.463 221.43 320.52C219.33 320.92 217.77 324.44 217.54 326.33C217.54 326.5 217.49 329.09 217.54 329.08C217.29 329.64 217.03 330.23 216.76 330.89C216.26 332.11 215.71 333.49 215.21 335.03C214.658 336.686 214.2 338.372 213.84 340.08C213.434 341.995 213.196 343.943 213.13 345.9V346.01C212.96 345.41 212.42 343.74 212.37 343.62C211.58 341.88 209.04 338.99 206.92 339.23C206.569 339.279 206.233 339.402 205.932 339.591C205.632 339.779 205.375 340.028 205.178 340.323C204.981 340.617 204.848 340.95 204.788 341.299C204.728 341.649 204.742 342.007 204.83 342.35C205.26 343.79 206.74 344.91 208 345.51Z" fill="#263238"/>
<path d="M359.64 258.17L355.65 253.22L359.24 250.39L361.65 253.4L360.83 255.31L361.51 256.83L360.1 257.84" fill="white"/>
<path d="M359.64 258.17L355.65 253.22L359.24 250.39L361.65 253.4L360.83 255.31L361.51 256.83L360.1 257.84" stroke="#263238" stroke-linecap="round" stroke-linejoin="round"/>
<path d="M392 266.76C392 266.76 389.27 264.32 388.25 264.48C387.23 264.64 373.85 266.88 373.85 266.88L361.54 256.83L359.66 258.17L371.44 272.95L384.24 272.15L381.49 286.15L369.84 295.01L388.84 306.36L392.67 294.28L407.8 279.38L401.92 272.01L392 266.76Z" fill="black" stroke="#263238" stroke-linecap="round" stroke-linejoin="round"/>
<path d="M395.9 263.53L393.75 268.05L392.96 267.33L391.45 278.32L401.93 271.97L400.88 270.31L401.12 266.88L395.9 263.53Z" fill="white" stroke="#263238" stroke-linecap="round" stroke-linejoin="round"/>
<path d="M391.45 278.32L397.58 274.6L392.46 271L391.45 278.32Z" fill="white" stroke="#263238" stroke-linecap="round" stroke-linejoin="round"/>
<path d="M408 252.76C408 252.76 412.63 247.34 417.34 250.76C422.05 254.18 420.75 257.52 424.11 255.69C427.47 253.86 433.78 249.21 437.58 255.13C441.38 261.05 438.45 267.25 436.06 268.67C433.67 270.09 434.3 267.38 434.35 266.07C434.4 264.76 430.48 263.07 429.61 265.77C428.74 268.47 424.17 272.63 418.37 272.24C412.57 271.85 411.45 264.72 411.58 260.53C411.572 259.272 411.236 258.039 410.607 256.95C409.978 255.861 409.076 254.955 407.99 254.32L408 252.76Z" fill="#263238" stroke="#263238" stroke-linecap="round" stroke-linejoin="round"/>
<path d="M396.9 251.64C396.9 251.64 394 258.1 394.6 261.91C395.2 265.72 394.88 268.65 396.82 269.39C398.76 270.13 405.19 266.24 406.61 263.67C408.03 261.1 410.06 257.39 409.5 253.83C408.94 250.27 402.12 245.09 396.9 251.64Z" fill="white" stroke="#263238" stroke-linecap="round" stroke-linejoin="round"/>
<path d="M398 258.42C397.85 258.92 397.53 259.26 397.28 259.18C397.03 259.1 396.95 258.64 397.1 258.18C397.25 257.72 397.57 257.34 397.82 257.42C398.07 257.5 398.11 257.92 398 258.42Z" fill="#263238"/>
<path d="M402.62 260.34C402.47 260.84 402.14 261.19 401.89 261.11C401.64 261.03 401.56 260.57 401.71 260.11C401.86 259.65 402.19 259.27 402.44 259.34C402.69 259.41 402.77 259.84 402.62 260.34Z" fill="#263238"/>
<path d="M399.17 259.25C399.17 259.25 399.47 259.47 399.05 260.25C398.63 261.03 397.62 260.75 397.73 261.42C397.84 262.09 399.11 262.42 399.11 262.42" stroke="#263238" stroke-linecap="round" stroke-linejoin="round"/>
<path d="M396.84 263.58C396.84 263.58 398.45 265.1 399.89 264.73" stroke="#263238" stroke-linecap="round" stroke-linejoin="round"/>
<path d="M404.14 258.74L401.15 257.98" stroke="#263238" stroke-linecap="round" stroke-linejoin="round"/>
<path d="M398.79 256.85L397.36 255.57" stroke="#263238" stroke-linecap="round" stroke-linejoin="round"/>
<path d="M396.9 251.64C396.9 251.64 396.47 252.64 395.97 254.01C397.66 253.13 400.57 252.14 403.23 253.78C405.89 255.42 407.23 259.19 407.77 261.5C408.9 259.21 409.91 256.5 409.5 253.83C408.94 250.27 402.12 245.09 396.9 251.64Z" fill="#263238" stroke="#263238" stroke-linecap="round" stroke-linejoin="round"/>
<path d="M407.08 261.4C407.08 261.4 409.16 259.49 409.08 261.23C409 262.97 406.61 264 406.08 264.08C405.55 264.16 405.59 263.49 405.59 263.49" fill="white"/>
<path d="M407.08 261.4C407.08 261.4 409.16 259.49 409.08 261.23C409 262.97 406.61 264 406.08 264.08C405.55 264.16 405.59 263.49 405.59 263.49" stroke="#263238" stroke-linecap="round" stroke-linejoin="round"/>
<path d="M407.79 279.39L404.59 302.2C404.52 302.686 404.281 303.131 403.915 303.458C403.55 303.786 403.08 303.974 402.59 303.99H401.9C401.368 304.01 400.848 303.825 400.448 303.474C400.048 303.122 399.798 302.63 399.75 302.1L398.5 288.38L407.79 279.39Z" fill="black" stroke="#263238" stroke-linecap="round" stroke-linejoin="round"/>
<path d="M402 299.07L391.73 290.01L389.43 291.94L399.29 303.35C399.506 303.583 399.772 303.764 400.069 303.879C400.365 303.993 400.684 304.038 401 304.01H401.81C402.121 303.997 402.424 303.915 402.699 303.77C402.974 303.625 403.213 303.421 403.399 303.172C403.585 302.923 403.713 302.635 403.773 302.331C403.834 302.026 403.826 301.711 403.75 301.41V301.41" fill="black"/>
<path d="M402 299.07L391.73 290.01L389.43 291.94L399.29 303.35C399.506 303.583 399.772 303.764 400.069 303.879C400.365 303.993 400.684 304.038 401 304.01H401.81C402.121 303.997 402.424 303.915 402.699 303.77C402.974 303.625 403.213 303.421 403.399 303.172C403.585 302.923 403.713 302.635 403.773 302.331C403.834 302.026 403.826 301.711 403.75 301.41V301.41" stroke="#263238" stroke-linecap="round" stroke-linejoin="round"/>
<path d="M391.73 290L389.32 286.15L383.9 285.55L383.93 288.78L386.53 290.95L388.18 291.18L389.43 291.93L391.73 290Z" fill="white" stroke="#263238" stroke-linecap="round" stroke-linejoin="round"/>
<path d="M362.71 302.01C362.71 302.01 351.39 316.74 352.01 319.18C352.63 321.62 369.17 347.45 369.17 347.45L371.47 345.93L362.38 317.55L380.65 310.28L362.71 302.01Z" fill="white" stroke="#263238" stroke-linecap="round" stroke-linejoin="round"/>
<path d="M371.83 307.47L373.17 313.36L379.22 311.04L371.83 307.47Z" fill="#263238" stroke="#263238" stroke-miterlimit="10"/>
<path d="M369.17 347.4L366.17 352.4C366.17 352.4 363.78 355.98 364.48 356.2C366.01 356.69 369.97 354.09 371.1 353.29C372.23 352.49 373.44 351.96 374.19 351.43C374.94 350.9 376.44 350.59 374.39 348.69C373.7 348.06 371.51 345.88 371.51 345.88L369.17 347.4Z" fill="white" stroke="#263238" stroke-linecap="round" stroke-linejoin="round"/>
<path d="M387.86 297.31C382.764 295.278 377.552 293.551 372.25 292.14C363.08 289.65 356.3 287.72 356.43 290.01C356.56 292.3 373.24 329.19 373.24 329.19L376.1 328.28L371.74 307.94C371.74 307.94 378.74 312.84 383.91 310.41C389.08 307.98 391.05 301.41 390.69 299.17" fill="#263238"/>
<path d="M387.86 297.31C382.764 295.278 377.552 293.551 372.25 292.14C363.08 289.65 356.3 287.72 356.43 290.01C356.56 292.3 373.24 329.19 373.24 329.19L376.1 328.28L371.74 307.94C371.74 307.94 378.74 312.84 383.91 310.41C389.08 307.98 391.05 301.41 390.69 299.17" stroke="#263238" stroke-linecap="round" stroke-linejoin="round"/>
<path d="M370.3 291.61C362.14 289.4 356.3 287.88 356.43 290.01C356.56 292.3 373.24 329.19 373.24 329.19L376.1 328.28L371.74 307.94C373.23 304.31 371.65 296.68 370.3 291.61Z" fill="white" stroke="#263238" stroke-linecap="round" stroke-linejoin="round"/>
<path d="M371.74 307.94L364.55 297.51" stroke="#263238" stroke-linecap="round" stroke-linejoin="round"/>
<path d="M373.24 329.19L370.56 334.24C370.56 334.24 365.15 339.48 366.35 339.75C367.55 340.02 377.72 335.65 378.48 334.61C379.24 333.57 376.1 328.28 376.1 328.28L373.24 329.19Z" fill="white" stroke="#263238" stroke-linecap="round" stroke-linejoin="round"/>
<path d="M360.8 255.73L386.02 285.76" stroke="#263238" stroke-miterlimit="10"/>
<path d="M283.2 162.73L357.21 251.29" stroke="#263238" stroke-miterlimit="10"/>
<path d="M388.18 291.17V437.17" stroke="#263238" stroke-miterlimit="10"/>
<path d="M147.33 250.6C147.33 250.6 152.65 281.73 146.87 291.6C141.09 301.47 126.59 294.37 126.59 294.37V436.17" stroke="#263238" stroke-miterlimit="10"/>
<path d="M115.39 262.25C115.39 262.25 120.1 261.71 120.46 262.8C120.658 263.693 120.658 264.617 120.46 265.51C120.46 265.51 123.17 268.41 123.17 270.4C123.17 272.39 120.28 273.3 120.28 273.3L119.74 278L112.5 278.36L111.59 272.75C111.59 272.75 108.87 262.07 115.39 262.25Z" fill="white" stroke="#263238" stroke-linecap="round" stroke-linejoin="round"/>
<path d="M116.84 270.01L114.84 267.11C115.511 266.019 115.884 264.771 115.92 263.49C115.92 261.49 115.74 257.88 111.58 257.88C107.42 257.88 104.7 261.14 103.8 268.2C102.9 275.26 107.05 278.7 113.03 277.43C119.01 276.16 116.84 270.01 116.84 270.01Z" fill="#263238" stroke="#263238" stroke-linecap="round" stroke-linejoin="round"/>
<path d="M116.66 268.77C116.66 268.77 113.58 268.41 113.76 270.77C113.808 271.277 114.008 271.758 114.334 272.149C114.661 272.54 115.098 272.824 115.589 272.961C116.079 273.099 116.6 273.084 117.082 272.92C117.565 272.755 117.986 272.449 118.29 272.04" fill="white"/>
<path d="M116.66 268.77C116.66 268.77 113.58 268.41 113.76 270.77C113.808 271.277 114.008 271.758 114.334 272.149C114.661 272.54 115.098 272.824 115.589 272.961C116.079 273.099 116.6 273.084 117.082 272.92C117.565 272.755 117.986 272.449 118.29 272.04" stroke="#263238" stroke-linecap="round" stroke-linejoin="round"/>
<path d="M112.37 280.13L105.7 282.01C105.7 282.01 105.18 283.31 104.4 285.01C103.35 287.32 100.46 292.01 100.46 292.01L87.1101 295.82L82.8201 309.65L81.8701 315.37L89.4901 311.55L89.9701 298.21L101.97 296.36L107.12 283.36L112.37 280.13Z" fill="#263238" stroke="#263238" stroke-linecap="round" stroke-linejoin="round"/>
<path d="M123 278.18C123 278.18 117.75 275.83 113.77 276.37C109.79 276.91 110.15 278.91 110.15 278.91L110.33 281.62C110.33 281.62 117 279.63 123 278.18Z" fill="black" stroke="#263238" stroke-linecap="round" stroke-linejoin="round"/>
<path d="M105.07 291.4L108.82 308.74C108.849 308.948 108.927 309.146 109.047 309.318C109.168 309.49 109.327 309.631 109.513 309.729C109.699 309.826 109.905 309.878 110.115 309.88C110.325 309.882 110.533 309.834 110.72 309.74L119.19 305.51L105.07 291.4Z" fill="black" stroke="#263238" stroke-linecap="round" stroke-linejoin="round"/>
<path d="M114.49 300.63L112.5 304.61" stroke="#263238" stroke-linecap="round" stroke-linejoin="round"/>
<path d="M132.04 318.19L142.97 336.27L141.52 360.72L146.77 360.54L152.02 331.38L144.35 310.95L132.04 318.19Z" fill="#263238" stroke="#263238" stroke-linecap="round" stroke-linejoin="round"/>
<path d="M110.32 281.62C110.32 281.62 105.07 290.67 105.07 291.4C105.07 292.13 125.53 311.85 125.53 311.85L141.1 301.53L131.32 284.53L145.4 270.71L146.48 252.06L143.95 251.88L139.42 265.46L124.42 277.28L110.32 281.62Z" fill="black" stroke="#263238" stroke-linecap="round" stroke-linejoin="round"/>
<path d="M143.95 251.88L144.13 247.72L148.65 244.28L149.02 245.18V247.9L149.2 250.07L146.48 252.06L143.95 251.88Z" fill="white" stroke="#263238" stroke-linecap="round" stroke-linejoin="round"/>
<path d="M125.53 311.85C125.53 311.85 128.97 317.64 131.53 319.45C134.09 321.26 142 315.65 144 314.01C146 312.37 153.6 302.61 153.6 302.61L160.66 332.69L165.01 330.88C165.01 330.88 162.46 290.88 161.2 289.76C159.94 288.64 140.38 301.34 140.38 301.34L125.53 311.85Z" fill="#263238" stroke="#263238" stroke-linecap="round" stroke-linejoin="round"/>
<path d="M165 330.89H171.15C172.24 330.89 174.95 329.26 175.15 330.53C175.35 331.8 169.9 335.23 167.72 336.32C165.627 337.133 163.44 337.68 161.21 337.95L160.66 332.7L165 330.89Z" fill="white" stroke="#263238" stroke-linecap="round" stroke-linejoin="round"/>
<path d="M146.77 360.54L149.85 366.15C149.85 366.15 153.65 367.78 153.65 368.51C153.65 369.24 147.5 368.87 146.95 368.87C146.4 368.87 140.26 362.87 140.26 362.87L141.52 360.69L146.77 360.54Z" fill="white" stroke="#263238" stroke-linecap="round" stroke-linejoin="round"/>
<path d="M148.65 244.28L207.74 163.26" stroke="#263238" stroke-miterlimit="10"/>
<path d="M1 437.21H475" stroke="#263238" stroke-linecap="round" stroke-linejoin="round"/>
</svg>
