<svg width="362" height="211" viewBox="0 0 362 211" fill="none" xmlns="http://www.w3.org/2000/svg">
<path d="M185.752 94.8094C181.085 91.6735 175.491 90.2194 169.89 90.6857C164.288 91.1519 159.011 93.5109 154.925 97.3754C150.839 101.24 148.186 106.381 147.401 111.954C146.617 117.527 147.748 123.201 150.608 128.046" stroke="#263238" stroke-width="0.969642" stroke-linecap="round" stroke-linejoin="round"/>
<path d="M194.563 105.336C194.081 104.249 193.522 103.198 192.893 102.189" stroke="#263238" stroke-width="0.969642" stroke-linecap="round" stroke-linejoin="round"/>
<path d="M192.45 129.255C194.297 126.502 195.577 123.408 196.213 120.154C196.85 116.899 196.831 113.55 196.158 110.303" stroke="#263238" stroke-width="0.969642" stroke-linecap="round" stroke-linejoin="round"/>
<path d="M147.303 90.7499C145.617 92.443 144.107 94.302 142.795 96.2987" stroke="#263238" stroke-width="0.969642" stroke-linecap="round" stroke-linejoin="round"/>
<path d="M199.413 136.706C204.399 130.252 206.965 122.249 206.662 114.094C206.36 105.94 203.208 98.1501 197.756 92.0843C192.304 86.0185 184.899 82.0614 176.832 80.9032C168.765 79.745 160.547 81.4591 153.613 85.7467" stroke="#263238" stroke-width="0.969642" stroke-linecap="round" stroke-linejoin="round"/>
<path d="M144.333 136.706C140.893 132.247 138.581 127.022 137.595 121.475C136.608 115.928 136.977 110.225 138.669 104.851" stroke="#263238" stroke-width="0.969642" stroke-linecap="round" stroke-linejoin="round"/>
<path d="M133.428 145.514C135.593 148.282 138.048 150.809 140.752 153.051" stroke="#263238" stroke-width="0.969642" stroke-linecap="round" stroke-linejoin="round"/>
<path d="M199.534 75.0469C190.815 69.068 180.394 66.081 169.836 66.534C159.278 66.987 149.15 70.8556 140.974 77.5595C132.797 84.2634 127.011 93.4412 124.484 103.716C121.958 113.991 122.826 124.81 126.96 134.549" stroke="#263238" stroke-width="0.969642" stroke-linecap="round" stroke-linejoin="round"/>
<path d="M217.463 97.7164C216.151 94.3279 214.464 91.0966 212.436 88.0825" stroke="#263238" stroke-width="0.969642" stroke-linecap="round" stroke-linejoin="round"/>
<path d="M205.667 150.721C210.441 146.161 214.239 140.677 216.831 134.602C219.424 128.528 220.757 121.989 220.748 115.383" stroke="#263238" stroke-width="0.969642" stroke-linecap="round" stroke-linejoin="round"/>
<path d="M103.647 115.383C103.648 131.612 109.387 147.317 119.847 159.713C130.308 172.11 144.814 180.397 160.795 183.106" stroke="#263238" stroke-width="0.969642" stroke-linecap="round" stroke-linejoin="round"/>
<path d="M227.008 156.249C235.363 144.928 240.044 131.31 240.417 117.238C240.79 103.166 236.836 89.3192 229.092 77.5706C221.347 65.8221 210.186 56.7392 197.117 51.551C184.048 46.3628 169.702 45.3196 156.022 48.5626" stroke="#263238" stroke-width="0.969642" stroke-linecap="round" stroke-linejoin="round"/>
<path d="M103.647 115.383C103.648 99.9873 108.813 85.0381 118.315 72.9339C127.816 60.8297 141.103 52.2721 156.043 48.634" stroke="#263238" stroke-width="0.969642" stroke-linecap="round" stroke-linejoin="round"/>
<path d="M212.436 170.759C214.178 169.477 215.854 168.117 217.463 166.679" stroke="#263238" stroke-width="0.969642" stroke-linecap="round" stroke-linejoin="round"/>
<path d="M183.312 183.106C191.112 181.798 198.625 179.14 205.514 175.252" stroke="#263238" stroke-width="0.969642" stroke-linecap="round" stroke-linejoin="round"/>
<path d="M171.903 176.955C164.957 176.947 158.298 174.181 153.386 169.262C148.474 164.344 145.711 157.676 145.703 150.721V141.888C145.703 141.509 145.853 141.146 146.121 140.878C146.388 140.61 146.751 140.46 147.129 140.46H150.695C151.073 140.46 151.436 140.61 151.703 140.878C151.97 141.146 152.121 141.509 152.121 141.888C152.121 142.266 151.97 142.63 151.703 142.897C151.436 143.165 151.073 143.316 150.695 143.316H148.571V150.721C148.571 156.921 151.031 162.868 155.409 167.252C159.788 171.636 165.726 174.099 171.919 174.099C178.111 174.099 184.049 171.636 188.428 167.252C192.806 162.868 195.266 156.921 195.266 150.721V143.316H193.127C192.749 143.316 192.386 143.165 192.119 142.897C191.851 142.63 191.701 142.266 191.701 141.888C191.701 141.509 191.851 141.146 192.119 140.878C192.386 140.61 192.749 140.46 193.127 140.46H196.692C197.071 140.46 197.433 140.61 197.701 140.878C197.968 141.146 198.119 141.509 198.119 141.888V150.721C198.111 157.679 195.345 164.349 190.43 169.268C185.515 174.186 178.852 176.951 171.903 176.955V176.955Z" fill="#263238"/>
<path d="M199.529 198.906V196.05C199.53 195.674 199.457 195.303 199.314 194.956C199.171 194.609 198.96 194.294 198.695 194.029C198.43 193.763 198.116 193.553 197.769 193.41C197.423 193.266 197.052 193.193 196.677 193.194H147.129C146.754 193.193 146.383 193.266 146.037 193.41C145.69 193.553 145.376 193.763 145.111 194.029C144.846 194.294 144.636 194.609 144.493 194.956C144.35 195.303 144.276 195.674 144.277 196.05V198.906H199.529Z" fill="#263238"/>
<path d="M174.684 196.672C174.731 196.468 174.755 196.259 174.755 196.049V175.527H169.051V196.049C169.051 196.259 169.075 196.468 169.122 196.672H174.684Z" fill="#263238"/>
<path d="M189.547 115.383C189.587 113.037 189.159 110.707 188.291 108.529C187.422 106.35 186.128 104.366 184.486 102.694C182.843 101.021 180.884 99.6921 178.724 98.7852C176.563 97.8782 174.244 97.4111 171.901 97.4111C169.558 97.4111 167.239 97.8782 165.078 98.7852C162.917 99.6921 160.959 101.021 159.316 102.694C157.673 104.366 156.38 106.35 155.511 108.529C154.642 110.707 154.215 113.037 154.255 115.383V150.721C154.334 155.355 156.227 159.773 159.528 163.022C162.829 166.271 167.272 168.092 171.901 168.092C176.53 168.092 180.973 166.271 184.274 163.022C187.574 159.773 189.468 155.355 189.547 150.721V115.383Z" stroke="#263238" stroke-width="0.969642" stroke-linecap="round" stroke-linejoin="round"/>
<path d="M189.547 115.383C189.587 113.037 189.159 110.707 188.291 108.529C187.422 106.35 186.128 104.366 184.486 102.694C182.843 101.021 180.884 99.6921 178.724 98.7852C176.563 97.8782 174.244 97.4111 171.901 97.4111C169.558 97.4111 167.239 97.8782 165.078 98.7852C162.917 99.6921 160.959 101.021 159.316 102.694C157.673 104.366 156.38 106.35 155.511 108.529C154.642 110.707 154.215 113.037 154.255 115.383V150.721C154.334 155.355 156.227 159.773 159.528 163.022C162.829 166.271 167.272 168.092 171.901 168.092C176.53 168.092 180.973 166.271 184.274 163.022C187.574 159.773 189.468 155.355 189.547 150.721V115.383Z" fill="#E8E8E8"/>
<path d="M164.594 117.244H154.255V121.528H164.594C165.162 121.528 165.706 121.303 166.107 120.901C166.508 120.499 166.734 119.954 166.734 119.386C166.734 118.818 166.508 118.273 166.107 117.872C165.706 117.47 165.162 117.244 164.594 117.244V117.244Z" fill="white"/>
<path d="M189.547 117.244H179.212C178.645 117.244 178.101 117.47 177.7 117.872C177.299 118.273 177.073 118.818 177.073 119.386C177.073 119.954 177.299 120.499 177.7 120.901C178.101 121.303 178.645 121.528 179.212 121.528H189.547V117.244Z" fill="white"/>
<path d="M171.903 117.244C171.48 117.244 171.067 117.37 170.715 117.605C170.363 117.841 170.089 118.175 169.927 118.567C169.765 118.958 169.723 119.389 169.805 119.804C169.888 120.22 170.092 120.601 170.391 120.901C170.69 121.201 171.071 121.405 171.486 121.487C171.901 121.57 172.331 121.527 172.722 121.365C173.113 121.203 173.447 120.929 173.682 120.576C173.917 120.224 174.043 119.81 174.043 119.386C174.043 118.818 173.817 118.273 173.416 117.872C173.015 117.47 172.471 117.244 171.903 117.244V117.244Z" fill="white"/>
<path d="M171.903 125.904C171.48 125.904 171.067 126.03 170.715 126.265C170.363 126.501 170.089 126.835 169.927 127.226C169.765 127.618 169.723 128.049 169.805 128.464C169.888 128.88 170.092 129.261 170.391 129.561C170.69 129.86 171.071 130.064 171.486 130.147C171.901 130.23 172.331 130.187 172.722 130.025C173.113 129.863 173.447 129.588 173.682 129.236C173.917 128.884 174.043 128.47 174.043 128.046C174.043 127.478 173.817 126.933 173.416 126.532C173.015 126.13 172.471 125.904 171.903 125.904V125.904Z" fill="white"/>
<path d="M171.903 134.549C171.48 134.549 171.067 134.674 170.715 134.91C170.363 135.145 170.089 135.48 169.927 135.871C169.765 136.262 169.723 136.693 169.805 137.109C169.888 137.524 170.092 137.906 170.391 138.205C170.69 138.505 171.071 138.709 171.486 138.792C171.901 138.874 172.331 138.832 172.722 138.67C173.113 138.508 173.447 138.233 173.682 137.881C173.917 137.528 174.043 137.114 174.043 136.691C174.043 136.123 173.817 135.578 173.416 135.176C173.015 134.774 172.471 134.549 171.903 134.549V134.549Z" fill="white"/>
<path d="M164.594 125.904H154.255V130.188H164.594C165.162 130.188 165.706 129.962 166.107 129.561C166.508 129.159 166.734 128.614 166.734 128.046C166.734 127.478 166.508 126.933 166.107 126.532C165.706 126.13 165.162 125.904 164.594 125.904V125.904Z" fill="white"/>
<path d="M189.547 125.904H179.212C178.645 125.904 178.101 126.13 177.7 126.532C177.299 126.933 177.073 127.478 177.073 128.046C177.073 128.614 177.299 129.159 177.7 129.561C178.101 129.962 178.645 130.188 179.212 130.188H189.547V125.904Z" fill="white"/>
<path d="M164.594 134.549H154.255V138.833H164.594C165.162 138.833 165.706 138.607 166.107 138.205C166.508 137.804 166.734 137.259 166.734 136.691C166.734 136.123 166.508 135.578 166.107 135.176C165.706 134.774 165.162 134.549 164.594 134.549V134.549Z" fill="white"/>
<path d="M189.547 134.549H179.212C178.645 134.549 178.101 134.774 177.7 135.176C177.299 135.578 177.073 136.123 177.073 136.691C177.073 137.259 177.299 137.804 177.7 138.205C178.101 138.607 178.645 138.833 179.212 138.833H189.547V134.549Z" fill="white"/>
<path d="M189.547 115.383C189.587 113.037 189.159 110.707 188.291 108.529C187.422 106.35 186.128 104.366 184.486 102.694C182.843 101.021 180.884 99.6921 178.724 98.7852C176.563 97.8782 174.244 97.4111 171.901 97.4111C169.558 97.4111 167.239 97.8782 165.078 98.7852C162.917 99.6921 160.959 101.021 159.316 102.694C157.673 104.366 156.38 106.35 155.511 108.529C154.642 110.707 154.215 113.037 154.255 115.383V150.721C154.334 155.355 156.227 159.773 159.528 163.022C162.829 166.271 167.272 168.092 171.901 168.092C176.53 168.092 180.973 166.271 184.274 163.022C187.574 159.773 189.468 155.355 189.547 150.721V115.383Z" stroke="#263238" stroke-width="0.969642" stroke-miterlimit="10"/>
<path d="M154.255 150.721C154.334 155.355 156.227 159.773 159.528 163.022C162.829 166.271 167.272 168.092 171.901 168.092C176.529 168.092 180.973 166.271 184.274 163.022C187.574 159.773 189.468 155.355 189.547 150.721H154.255Z" fill="#263238" stroke="#263238" stroke-width="0.969642" stroke-miterlimit="10"/>
<path d="M321.58 141.82C343.615 119.756 343.615 83.9839 321.58 61.9201C299.546 39.8564 263.82 39.8564 241.785 61.9202C219.75 83.9839 219.75 119.756 241.785 141.82C263.82 163.884 299.546 163.884 321.58 141.82Z" fill="#E8E8E8"/>
<path d="M273.592 78.4945H234.175C232.189 78.4945 230.579 80.1065 230.579 82.0951V121.564C230.579 123.553 232.189 125.165 234.175 125.165H273.592C275.578 125.165 277.188 123.553 277.188 121.564V82.0951C277.188 80.1065 275.578 78.4945 273.592 78.4945Z" fill="white"/>
<g opacity="0.1">
<path opacity="0.1" d="M234.974 125.17H250.529L260.441 78.4945H244.254L234.358 125.119C234.562 125.151 234.768 125.168 234.974 125.17V125.17Z" fill="black"/>
<path opacity="0.1" d="M267.032 78.4945H263.14L253.234 125.17H257.125L267.032 78.4945Z" fill="black"/>
</g>
<path d="M272.792 126.333H234.974C233.503 126.33 232.092 125.744 231.051 124.704C230.01 123.663 229.422 122.252 229.417 120.779V82.8959C229.42 81.421 230.006 80.0073 231.048 78.9645C232.089 77.9216 233.501 77.3345 234.974 77.3318H272.792C274.266 77.3331 275.679 77.9196 276.721 78.9627C277.764 80.0057 278.351 81.4201 278.354 82.8959V120.779C278.348 122.253 277.76 123.665 276.718 124.705C275.676 125.746 274.264 126.331 272.792 126.333V126.333ZM234.974 79.6625C234.117 79.6625 233.295 80.003 232.689 80.6092C232.082 81.2154 231.741 82.0379 231.74 82.8959V120.779C231.74 121.638 232.08 122.462 232.687 123.07C233.293 123.679 234.116 124.021 234.974 124.022H272.792C273.217 124.022 273.638 123.938 274.031 123.775C274.423 123.612 274.78 123.373 275.081 123.072C275.381 122.771 275.619 122.413 275.781 122.02C275.944 121.626 276.027 121.204 276.026 120.779V82.8959C276.026 82.4708 275.942 82.05 275.78 81.6573C275.617 81.2647 275.379 80.908 275.079 80.6077C274.778 80.3074 274.422 80.0693 274.029 79.9071C273.637 79.745 273.216 79.6618 272.792 79.6625H234.974Z" fill="white" stroke="#263238" stroke-width="0.932567" stroke-miterlimit="10"/>
<path d="M328.411 78.4945H288.994C287.008 78.4945 285.398 80.1065 285.398 82.0951V121.564C285.398 123.553 287.008 125.165 288.994 125.165H328.411C330.397 125.165 332.007 123.553 332.007 121.564V82.0951C332.007 80.1065 330.397 78.4945 328.411 78.4945Z" fill="white"/>
<g opacity="0.1">
<path opacity="0.1" d="M293.863 125.17H309.418L319.325 78.4945H303.143L293.221 125.119C293.433 125.152 293.648 125.169 293.863 125.17V125.17Z" fill="black"/>
<path opacity="0.1" d="M325.92 78.4945H322.029L312.117 125.17H316.014L325.92 78.4945Z" fill="black"/>
</g>
<path d="M327.612 126.333H289.794C288.322 126.33 286.912 125.744 285.871 124.704C284.83 123.663 284.242 122.252 284.237 120.779V82.8959C284.24 81.421 284.826 80.0073 285.867 78.9645C286.909 77.9216 288.321 77.3345 289.794 77.3318H327.612C329.085 77.3331 330.499 77.9196 331.541 78.9627C332.584 80.0057 333.171 81.4201 333.174 82.8959V120.779C333.168 122.253 332.58 123.665 331.538 124.705C330.495 125.746 329.084 126.331 327.612 126.333V126.333ZM289.794 79.6625C288.937 79.6625 288.115 80.003 287.508 80.6092C286.902 81.2154 286.561 82.0379 286.559 82.8959V120.779C286.559 121.638 286.9 122.462 287.506 123.07C288.113 123.679 288.935 124.021 289.794 124.022H327.612C328.037 124.022 328.458 123.938 328.851 123.775C329.243 123.612 329.6 123.373 329.9 123.072C330.201 122.771 330.439 122.413 330.601 122.02C330.763 121.626 330.847 121.204 330.846 120.779V82.8959C330.846 82.4708 330.762 82.05 330.6 81.6573C330.437 81.2647 330.199 80.908 329.898 80.6077C329.598 80.3074 329.241 80.0693 328.849 79.9071C328.457 79.745 328.036 79.6618 327.612 79.6625H289.794Z" fill="white" stroke="#263238" stroke-width="0.932567" stroke-miterlimit="10"/>
<path d="M283.208 210.778C297.225 210.778 308.588 209.105 308.588 207.04C308.588 204.975 297.225 203.302 283.208 203.302C269.191 203.302 257.828 204.975 257.828 207.04C257.828 209.105 269.191 210.778 283.208 210.778Z" fill="#E8E8E8"/>
<path d="M294.423 185.263C294.423 185.263 294.357 195.733 293.252 197.457C291.933 199.497 290.996 202.348 294.49 203.123C297.984 203.898 300.062 207.759 304.223 208.014C308.384 208.269 308.807 206.484 306.994 205.051C305.18 203.618 300.576 199.645 299.97 197.712C299.364 195.779 300.54 185.263 300.54 185.263H294.423Z" fill="white"/>
<path opacity="0.1" d="M299.985 191.342C300.209 188.257 300.54 185.263 300.54 185.263H294.428C294.428 185.263 294.428 187.941 294.25 190.812C296.144 191.147 298.062 191.325 299.985 191.342V191.342Z" fill="black"/>
<path d="M294.423 185.263C294.423 185.263 294.357 195.733 293.252 197.457C291.933 199.497 290.996 202.348 294.49 203.123C297.984 203.898 300.062 207.759 304.223 208.014C308.384 208.269 308.807 206.484 306.994 205.051C305.18 203.618 300.576 199.645 299.97 197.712C299.364 195.779 300.54 185.263 300.54 185.263H294.423Z" stroke="#263238" stroke-width="0.932567" stroke-linecap="round" stroke-linejoin="round"/>
<path d="M306.974 205.051C305.275 203.703 303.662 202.251 302.145 200.701C300.694 201.802 296.441 200.762 295.188 199.773C293.66 198.569 293.981 197.952 293.257 197.411L293.232 197.457C291.913 199.497 290.975 202.348 294.47 203.123C297.964 203.898 300.042 207.759 304.203 208.014C308.364 208.269 308.797 206.459 306.974 205.051Z" fill="#BFBFBF" stroke="#263238" stroke-width="0.932567" stroke-miterlimit="10"/>
<path d="M270.928 181.469C270.928 181.469 266.344 191.046 264.612 192.214C262.519 193.612 260.441 195.861 263.308 197.865C266.176 199.869 266.43 204.184 270.133 205.964C273.836 207.744 274.992 206.239 273.948 204.276C272.904 202.312 270.383 196.937 270.663 194.938C270.943 192.939 276.581 183.509 276.581 183.509L270.928 181.469Z" fill="white"/>
<path opacity="0.1" d="M270.928 181.469C270.928 181.469 269.288 184.906 267.602 187.91C268.963 189.261 270.531 190.385 272.247 191.24C274.004 187.833 276.582 183.524 276.582 183.524L270.928 181.469Z" fill="black"/>
<path d="M270.928 181.469C270.928 181.469 266.344 191.046 264.612 192.214C262.519 193.612 260.441 195.861 263.308 197.865C266.176 199.869 266.43 204.184 270.133 205.964C273.836 207.744 274.992 206.239 273.948 204.276C272.904 202.312 270.383 196.937 270.663 194.938C270.943 192.939 276.581 183.509 276.581 183.509L270.928 181.469Z" stroke="#263238" stroke-width="0.932567" stroke-linecap="round" stroke-linejoin="round"/>
<path d="M273.948 204.25C272.972 202.381 272.121 200.449 271.402 198.467C269.593 198.941 265.835 196.519 265.422 195.04C264.622 192.189 265.096 192.923 264.663 192.158L264.622 192.189C262.529 193.586 260.451 195.835 263.318 197.84C266.186 199.844 266.441 204.159 270.143 205.938C273.846 207.718 274.992 206.214 273.948 204.25Z" fill="#BFBFBF" stroke="#263238" stroke-width="0.932567" stroke-miterlimit="10"/>
<path d="M295.162 113.695C295.162 113.695 302.176 147.355 302.644 158.335C303.113 169.315 301.289 188.899 301.289 188.899L293.502 188.389C293.502 188.389 293.451 182.601 292.671 174.543C292.208 169.754 290.751 164.164 290.914 158.514C290.914 158.514 283.514 136.538 283.784 126.893C284.054 117.249 283.784 114.475 283.784 114.475L295.162 113.695Z" fill="#263238" stroke="#263238" stroke-width="0.932567" stroke-linecap="round" stroke-linejoin="round"/>
<path d="M276.413 113.695C276.413 113.695 269.14 119.713 273.357 131.846C275.018 136.66 281.425 158.682 281.425 158.682C279.665 160.697 278.175 162.935 276.994 165.337C274.071 171.121 271.942 180.127 268.335 185.294L273.673 188.899C273.673 188.899 290.909 167.265 292.009 160.395C293.109 153.526 287.935 126.057 287.935 126.057L286.279 114.893L276.413 113.695Z" fill="#263238" stroke="#263238" stroke-width="0.932567" stroke-linecap="round" stroke-linejoin="round"/>
<path d="M308.67 90.8825C308.574 89.7425 308.19 88.6456 307.554 87.695C308.088 86.9914 308.55 86.2362 308.934 85.4408C309.322 84.5075 308.807 83.1866 307.732 84.7676C306.658 86.3486 305.476 87.5012 305.904 89.4749C306.129 90.7491 305.898 92.0619 305.252 93.1826L307.732 95.1257L312.678 91.1987L308.67 90.8825Z" fill="white" stroke="#263238" stroke-width="0.932567" stroke-linecap="round" stroke-linejoin="round"/>
<path d="M310.999 80.7941L306.841 81.9261C306.459 82.0303 306.233 82.4254 306.337 82.8087L308.706 91.5342C308.81 91.9175 309.205 92.1437 309.587 92.0395L313.746 90.9075C314.128 90.8033 314.354 90.4082 314.25 90.0249L311.881 81.2994C311.777 80.9161 311.382 80.6899 310.999 80.7941Z" fill="#263238" stroke="#263238" stroke-width="0.932567" stroke-linecap="round" stroke-linejoin="round"/>
<path d="M311.91 81.4077L306.366 82.917L308.678 91.4309L314.222 89.9216L311.91 81.4077Z" fill="#E8E8E8" stroke="#263238" stroke-width="0.932567" stroke-linecap="round" stroke-linejoin="round"/>
<path d="M310.799 84.3544C310.731 84.092 310.562 83.8672 310.329 83.7295C310.096 83.5917 309.818 83.5524 309.556 83.62C309.294 83.6876 309.069 83.8567 308.932 84.0901C308.794 84.3235 308.755 84.602 308.822 84.8644C308.889 85.1194 309.22 86.3179 309.332 86.7412L311.308 86.2057C311.196 85.813 310.86 84.5686 310.799 84.3544Z" fill="#263238"/>
<path d="M310.615 87.5879C310.86 87.5217 311.071 87.3663 311.208 87.1522C311.345 86.9381 311.397 86.6806 311.354 86.4302L309.393 86.9402C309.478 87.1823 309.651 87.3835 309.877 87.5036C310.104 87.6236 310.367 87.6537 310.615 87.5879V87.5879Z" fill="#263238"/>
<path d="M312.459 88.6487L311.175 89.0006L310.91 88.0316C311.276 87.8892 311.575 87.6167 311.752 87.2665C311.929 86.9164 311.97 86.5132 311.868 86.1344L311.725 85.6244C311.723 85.6135 311.718 85.6032 311.712 85.5941C311.706 85.5851 311.697 85.5774 311.688 85.5717C311.678 85.566 311.668 85.5622 311.657 85.5608C311.645 85.5593 311.634 85.5601 311.624 85.5632L311.41 85.6193C311.399 85.6221 311.388 85.6273 311.379 85.6343C311.371 85.6414 311.363 85.6503 311.358 85.6604C311.353 85.6705 311.35 85.6815 311.349 85.6929C311.348 85.7043 311.35 85.7157 311.354 85.7264C311.356 85.7372 311.361 85.7475 311.367 85.7566C311.374 85.7657 311.382 85.7733 311.391 85.779C311.401 85.7847 311.411 85.7885 311.423 85.7899C311.434 85.7914 311.445 85.7906 311.455 85.7876L311.583 85.7519L311.7 86.1854C311.749 86.3652 311.762 86.5529 311.738 86.7377C311.715 86.9226 311.655 87.1009 311.562 87.2627C311.47 87.4244 311.346 87.5663 311.199 87.6803C311.052 87.7943 310.884 87.8781 310.704 87.927C310.525 87.9759 310.337 87.9889 310.153 87.9652C309.968 87.9416 309.79 87.8818 309.628 87.7892C309.467 87.6966 309.325 87.5731 309.211 87.4256C309.097 87.2782 309.014 87.1098 308.965 86.93L308.843 86.4965L308.97 86.4659C308.992 86.4588 309.01 86.4439 309.021 86.4241C309.032 86.4043 309.036 86.381 309.031 86.3588C309.028 86.3477 309.023 86.3373 309.016 86.3282C309.009 86.3191 309 86.3115 308.99 86.3058C308.98 86.3001 308.969 86.2964 308.958 86.295C308.947 86.2936 308.935 86.2945 308.924 86.2976L308.715 86.3537C308.704 86.3566 308.694 86.3617 308.685 86.3687C308.676 86.3757 308.668 86.3845 308.662 86.3944C308.657 86.4044 308.653 86.4154 308.652 86.4268C308.65 86.4382 308.651 86.4497 308.654 86.4608L308.797 86.9708C308.9 87.3491 309.139 87.6759 309.468 87.8886C309.797 88.1014 310.193 88.1849 310.579 88.1234L310.839 89.0924L309.556 89.4392C309.533 89.4451 309.513 89.4553 309.495 89.4693C309.476 89.4833 309.461 89.5008 309.45 89.5207C309.438 89.5406 309.431 89.5626 309.428 89.5854C309.425 89.6081 309.427 89.6313 309.433 89.6534L309.479 89.8217L312.719 88.9394L312.673 88.7711C312.667 88.7489 312.657 88.7281 312.643 88.7099C312.629 88.6917 312.611 88.6765 312.591 88.6651C312.571 88.6537 312.55 88.6464 312.527 88.6436C312.504 88.6408 312.481 88.6425 312.459 88.6487Z" fill="#263238"/>
<path d="M312.984 83.3956C312.474 83.4517 312.051 84.2524 312.209 85.3795C312.367 86.5066 313.401 85.2826 313.462 84.9256C313.523 84.5686 313.956 83.2987 312.984 83.3956Z" fill="white" stroke="#263238" stroke-width="0.932567" stroke-linecap="round" stroke-linejoin="round"/>
<path d="M314.104 85.0786C313.968 85.0766 313.834 85.1051 313.71 85.162C313.587 85.219 313.478 85.303 313.392 85.4077C313.305 85.5125 313.243 85.6354 313.21 85.7673C313.178 85.8993 313.175 86.0369 313.202 86.17C313.299 87.2665 313.513 87.0115 313.513 87.0115C313.518 87.4634 313.61 87.9101 313.783 88.3273C314.038 88.8118 314.71 88.0774 314.71 87.6388C314.71 87.2002 314.639 84.895 314.104 85.0786Z" fill="white" stroke="#263238" stroke-width="0.932567" stroke-linecap="round" stroke-linejoin="round"/>
<path d="M313.518 86.9911C313.518 86.9911 314.399 86.731 314.608 86.0884Z" fill="white"/>
<path d="M313.518 86.9911C313.518 86.9911 314.399 86.731 314.608 86.0884" stroke="#263238" stroke-width="0.932567" stroke-linecap="round" stroke-linejoin="round"/>
<path d="M305.863 91.627C306.034 90.9213 306.048 90.1865 305.904 89.4748C305.476 87.5011 306.652 86.3434 307.732 84.7675C308.812 83.1916 309.321 84.5074 308.934 85.4407C308.55 86.2362 308.088 86.9913 307.554 87.6949C308.242 88.6182 308.632 89.7307 308.669 90.8824C308.669 91.2547 308.669 92.3665 308.669 92.3665" fill="white"/>
<path d="M305.863 91.627C306.034 90.9213 306.048 90.1865 305.904 89.4748C305.476 87.5011 306.652 86.3434 307.732 84.7675C308.812 83.1916 309.321 84.5074 308.934 85.4407C308.55 86.2362 308.088 86.9913 307.554 87.6949C308.242 88.6182 308.632 89.7307 308.669 90.8824C308.669 91.2547 308.669 92.3665 308.669 92.3665" stroke="#263238" stroke-width="0.932567" stroke-linecap="round" stroke-linejoin="round"/>
<path d="M292.203 79.3003C293.975 78.928 294.52 78.4741 294.52 78.4741C293.191 73.114 297.958 55.0855 282.933 54.2542C267.908 53.4229 276.312 78.9688 276.312 78.9688L277.947 79.1779L277.106 74.0422L279.062 79.3054C284.848 79.9327 288.556 79.8154 290.889 79.5196C290.572 77.2033 290.54 74.8569 290.792 72.5326C291.086 74.8218 291.558 77.0846 292.203 79.3003V79.3003Z" fill="#263238"/>
<path d="M282.928 54.5755C282.344 53.9953 281.582 53.6293 280.765 53.5367C279.948 53.4442 279.124 53.6305 278.425 54.0655" stroke="#263238" stroke-width="0.932567" stroke-linecap="round" stroke-linejoin="round"/>
<path d="M294.372 82.5695V82.4062C294.342 82.4777 294.311 82.5287 294.372 82.5695Z" fill="white" stroke="#263238" stroke-width="0.932567" stroke-linecap="round" stroke-linejoin="round"/>
<path d="M305.252 93.1826L298.121 99.8126L298.254 89.8778C298.278 88.3774 297.922 86.8953 297.22 85.5694C296.519 84.2435 295.493 83.1168 294.24 82.2941L294.51 108.442C301.514 108.885 307.753 95.1257 307.753 95.1257C307.499 94.6418 307.144 94.2181 306.713 93.8829C306.281 93.5478 305.783 93.309 305.252 93.1826V93.1826Z" fill="white"/>
<path opacity="0.1" d="M297.026 105.234C295.967 105.331 295.727 103.301 295.743 101.327C295.446 102.07 295.249 102.848 295.157 103.643C295.065 105.892 295.065 108.12 295.101 110.028C303.077 106.407 303.174 103.179 305.221 99.8839C303.917 101.541 299.068 105.045 297.026 105.234Z" fill="black"/>
<path d="M305.252 93.1826L298.121 99.8126L298.254 89.8778C298.278 88.3774 297.922 86.8953 297.22 85.5694C296.519 84.2435 295.493 83.1168 294.24 82.2941L294.51 108.442C301.514 108.885 307.753 95.1257 307.753 95.1257C307.499 94.6418 307.144 94.2181 306.713 93.8829C306.281 93.5478 305.783 93.309 305.252 93.1826V93.1826Z" stroke="#263238" stroke-width="0.932567" stroke-linecap="round" stroke-linejoin="round"/>
<path d="M303.739 94.0393L305.303 92.5552L308.731 94.9114L307.732 96.574L303.739 94.0393Z" fill="#E8E8E8" stroke="#263238" stroke-width="0.932567" stroke-linecap="round" stroke-linejoin="round"/>
<path d="M297.057 94.7687C294.184 107.519 295.61 115.898 295.61 115.898C295.61 115.898 288.678 120.82 274.106 116.648C274.106 116.648 276.755 110.053 276.042 105.025C275.609 101.929 272.705 90.8009 272.705 90.8009C272.705 90.8009 271.33 85.9355 271.962 82.0085C273.179 81.218 275.787 80.2643 280.396 79.9277C280.473 79.6696 280.526 79.405 280.554 79.1372C280.701 77.8403 280.733 76.5331 280.651 75.2306C280.585 73.7006 280.457 72.4817 280.457 72.4817H286.019C286.019 72.4817 286.091 73.8893 286.269 75.5417C286.366 76.5158 286.503 77.5817 286.676 78.4997C286.762 78.9592 286.873 79.4138 287.008 79.8614C292.559 80.6978 294.648 82.1462 295.05 83.4059C296.94 89.0873 297.668 92.0453 297.057 94.7687Z" fill="white" stroke="#263238" stroke-width="0.932567" stroke-linecap="round" stroke-linejoin="round"/>
<path d="M286.284 76.4393C285.831 77.4593 285.265 78.2651 283.305 78.2549C281.848 78.2549 280.534 76.9646 280.386 76.4699C280.544 75.353 280.386 74.9399 280.32 73.6751C282.193 73.6221 284.068 73.7313 285.922 74.0015C286.002 74.8197 286.122 75.6334 286.284 76.4393V76.4393Z" fill="#263238"/>
<path d="M289.982 65.5202C289.982 64.7654 289.982 64.3013 289.982 64.3013C289.569 62.3225 287.124 62.2205 285.999 62.2256C284.812 62.264 283.629 62.0574 282.525 61.6187C282.887 62.4846 283.485 63.2306 284.252 63.7709C280.065 62.8376 279.739 60.6242 279.897 59.4308C278.41 64.6379 276.479 64.8572 276.479 64.8572C276.479 64.8572 276.479 65.3213 276.566 66.071C276.066 66.1859 275.624 66.4777 275.322 66.8928C275.02 67.308 274.877 67.8184 274.921 68.3303C274.915 68.8816 275.125 69.4133 275.506 69.8117C275.887 70.21 276.408 70.4435 276.958 70.4621C277.068 70.4572 277.177 70.4418 277.284 70.4162C278.17 73.8638 279.989 77.6123 283.712 77.4644C287.435 77.3165 288.953 73.4303 289.554 69.9215C289.664 69.9316 289.775 69.9316 289.885 69.9215C290.437 69.866 290.945 69.594 291.297 69.1649C291.649 68.7358 291.817 68.1845 291.764 67.6316C291.766 67.1249 291.588 66.6342 291.261 66.2473C290.935 65.8604 290.481 65.6026 289.982 65.5202V65.5202Z" fill="white" stroke="#263238" stroke-width="0.932567" stroke-linecap="round" stroke-linejoin="round"/>
<path d="M282.525 71.3596L283.167 71.8237C283.248 71.8842 283.346 71.9168 283.447 71.9168C283.548 71.9168 283.646 71.8842 283.727 71.8237L284.318 71.3698" stroke="#263238" stroke-width="0.932567" stroke-linecap="round" stroke-linejoin="round"/>
<path d="M284.97 68.4578C284.97 68.4578 285.765 67.4071 287.349 68.1466" stroke="#263238" stroke-width="0.932567" stroke-linecap="round" stroke-linejoin="round"/>
<path d="M281.507 68.4578C281.507 68.4578 280.717 67.4071 279.128 68.1466" stroke="#263238" stroke-width="0.932567" stroke-linecap="round" stroke-linejoin="round"/>
<path d="M285.001 73.2109C284.559 73.5611 284.018 73.762 283.455 73.7849C282.892 73.8079 282.337 73.6515 281.868 73.3384" stroke="#263238" stroke-width="0.932567" stroke-linecap="round" stroke-linejoin="round"/>
<path d="M291.729 161.512C291.548 162.072 291.337 162.622 291.098 163.16" stroke="white" stroke-width="0.932567" stroke-linecap="round" stroke-linejoin="round"/>
<path d="M284.293 124.349L285.953 125.838C287.435 127.166 288.409 128.969 288.709 130.938C290.13 139.99 292.412 149.298 292.132 159.131" stroke="white" stroke-width="0.932567" stroke-linecap="round" stroke-linejoin="round"/>
<path d="M290.578 124.614L287.945 128.383L288.276 127.919" stroke="white" stroke-width="0.932567" stroke-linecap="round" stroke-linejoin="round"/>
<path d="M280.172 109.492L280.926 110.268" stroke="#263238" stroke-width="0.932567" stroke-linecap="round" stroke-linejoin="round"/>
<path d="M274.717 98.8079C275.51 102.061 276.921 105.131 278.873 107.85" stroke="#263238" stroke-width="0.932567" stroke-linecap="round" stroke-linejoin="round"/>
<path d="M274.864 64.3198L274.299 64.3425L274.38 66.3554L274.944 66.3327L274.864 64.3198Z" fill="white" stroke="#263238" stroke-width="0.932567" stroke-linecap="round" stroke-linejoin="round"/>
<path d="M292.105 63.5933L291.54 63.6161L291.621 65.629L292.186 65.6061L292.105 63.5933Z" fill="white" stroke="#263238" stroke-width="0.932567" stroke-linecap="round" stroke-linejoin="round"/>
<path d="M282.846 55.1824C280.447 55.28 278.179 56.3047 276.519 58.0413C274.859 59.7778 273.936 62.0911 273.943 64.495C273.944 64.5401 273.953 64.5846 273.971 64.6259C273.99 64.6671 274.016 64.7044 274.049 64.7353C274.081 64.7662 274.12 64.7902 274.162 64.8059C274.204 64.8215 274.249 64.8286 274.294 64.8265H274.89C274.978 64.8225 275.06 64.7846 275.12 64.7208C275.18 64.657 275.213 64.5724 275.211 64.4848C275.225 62.4225 276.032 60.4448 277.464 58.9624C278.896 57.4801 280.843 56.6069 282.902 56.5242C284.96 56.4415 286.97 57.1556 288.516 58.5184C290.063 59.8811 291.025 61.7876 291.204 63.8422C291.209 63.9293 291.249 64.0107 291.314 64.069C291.378 64.1272 291.464 64.1575 291.551 64.1533H292.146C292.191 64.1521 292.235 64.1417 292.276 64.1229C292.317 64.104 292.353 64.0771 292.383 64.0437C292.413 64.0103 292.436 63.9712 292.451 63.9286C292.465 63.8861 292.471 63.8411 292.467 63.7963C292.296 61.3901 291.196 59.1453 289.4 57.5374C287.604 55.9295 285.253 55.0848 282.846 55.1824V55.1824Z" fill="#E8E8E8" stroke="#263238" stroke-width="0.932567" stroke-linecap="round" stroke-linejoin="round"/>
<path d="M275.904 65.5508H275.772C275.388 65.5665 275.011 65.6578 274.662 65.8195C274.313 65.9811 274 66.21 273.739 66.4929C273.214 67.0644 272.936 67.8216 272.968 68.598C273 69.3744 273.338 70.1064 273.909 70.6329C274.479 71.1594 275.236 71.4374 276.011 71.4056H276.138L275.904 65.5508Z" fill="#E8E8E8" stroke="#263238" stroke-width="0.932567" stroke-linecap="round" stroke-linejoin="round"/>
<path d="M276.693 68.4425C276.78 70.6151 276.933 72.0125 276.184 72.0584C275.435 72.1043 275.12 70.6865 275.033 68.4884C274.946 66.2903 275.145 64.9184 275.894 64.8674C276.643 64.8164 276.607 66.2699 276.693 68.4425Z" fill="white" stroke="#263238" stroke-width="0.932567" stroke-linecap="round" stroke-linejoin="round"/>
<path d="M290.624 64.9591H290.756C291.14 64.9437 291.523 65.0042 291.884 65.1371C292.244 65.27 292.575 65.4727 292.858 65.7336C293.14 65.9946 293.368 66.3086 293.529 66.6579C293.69 67.0072 293.781 67.3848 293.797 67.7692C293.812 68.1537 293.752 68.5374 293.619 68.8984C293.486 69.2595 293.284 69.5909 293.023 69.8736C292.763 70.1563 292.449 70.3849 292.1 70.5462C291.751 70.7076 291.374 70.7985 290.99 70.8139H290.858L290.624 64.9591Z" fill="#E8E8E8" stroke="#263238" stroke-width="0.932567" stroke-linecap="round" stroke-linejoin="round"/>
<path d="M290.043 67.907C290.13 70.0796 290.094 71.477 290.843 71.477C291.591 71.477 291.79 70.0235 291.703 67.8509C291.617 65.6783 291.301 64.2809 290.557 64.3064C289.814 64.3319 289.956 65.7344 290.043 67.907Z" fill="white" stroke="#263238" stroke-width="0.932567" stroke-linecap="round" stroke-linejoin="round"/>
<path d="M278.028 66.5299C278.028 66.5299 279.968 64.9234 281.807 66.3769" stroke="#263238" stroke-width="0.932567" stroke-linecap="round" stroke-linejoin="round"/>
<path d="M288.678 66.2086C288.678 66.2086 286.641 64.7654 284.899 66.3616" stroke="#263238" stroke-width="0.932567" stroke-linecap="round" stroke-linejoin="round"/>
<path d="M279.663 79.2188C279.663 79.2188 280.824 82.136 285.133 82.7888C285.133 82.7888 283.412 86.3588 281.059 84.9563C278.242 83.2835 277.702 79.8104 277.702 79.8104L279.663 79.2188Z" fill="#E8E8E8" stroke="#263238" stroke-width="0.932567" stroke-linecap="round" stroke-linejoin="round"/>
<path d="M287.558 79.5808C287.574 80.3574 287.316 81.1148 286.83 81.7201C286.343 82.3254 285.66 82.7398 284.899 82.8907C284.899 82.8907 286.992 86.3281 288.709 84.4207C290.425 82.5133 289.091 79.9174 289.091 79.9174L287.558 79.5808Z" fill="#E8E8E8" stroke="#263238" stroke-width="0.932567" stroke-linecap="round" stroke-linejoin="round"/>
<path d="M286.6 89.7043C286.6 89.8052 286.57 89.9038 286.514 89.9877C286.458 90.0715 286.379 90.1369 286.286 90.1755C286.193 90.2141 286.09 90.2242 285.992 90.2045C285.893 90.1849 285.802 90.1363 285.731 90.065C285.659 89.9936 285.611 89.9028 285.591 89.8038C285.572 89.7049 285.582 89.6024 285.62 89.5092C285.659 89.416 285.724 89.3363 285.808 89.2803C285.892 89.2242 285.99 89.1943 286.091 89.1943C286.226 89.1943 286.355 89.2481 286.451 89.3437C286.547 89.4394 286.6 89.5691 286.6 89.7043Z" fill="#E8E8E8" stroke="#263238" stroke-width="0.932567" stroke-linecap="round" stroke-linejoin="round"/>
<path d="M287.293 99.7462C287.293 99.8471 287.263 99.9457 287.207 100.03C287.151 100.113 287.071 100.179 286.978 100.217C286.885 100.256 286.783 100.266 286.684 100.246C286.585 100.227 286.494 100.178 286.423 100.107C286.352 100.036 286.303 99.9446 286.284 99.8457C286.264 99.7468 286.274 99.6442 286.313 99.551C286.351 99.4579 286.417 99.3782 286.5 99.3222C286.584 99.2661 286.683 99.2362 286.783 99.2362C286.918 99.2362 287.048 99.2899 287.143 99.3856C287.239 99.4812 287.293 99.6109 287.293 99.7462Z" fill="#E8E8E8" stroke="#263238" stroke-width="0.932567" stroke-linecap="round" stroke-linejoin="round"/>
<path d="M287.944 110.028C287.944 110.129 287.915 110.227 287.859 110.311C287.803 110.395 287.723 110.46 287.63 110.499C287.537 110.538 287.435 110.548 287.336 110.528C287.237 110.508 287.146 110.46 287.075 110.388C287.004 110.317 286.955 110.226 286.936 110.127C286.916 110.028 286.926 109.926 286.965 109.833C287.003 109.739 287.068 109.66 287.152 109.604C287.236 109.548 287.334 109.518 287.435 109.518C287.57 109.518 287.7 109.572 287.795 109.667C287.891 109.763 287.944 109.893 287.944 110.028Z" fill="#E8E8E8" stroke="#263238" stroke-width="0.932567" stroke-linecap="round" stroke-linejoin="round"/>
<path d="M332.827 41.6521H229.626C229.148 41.6521 228.76 42.0403 228.76 42.5191V44.3806C228.76 44.8594 229.148 45.2476 229.626 45.2476H332.827C333.305 45.2476 333.693 44.8594 333.693 44.3806V42.5191C333.693 42.0403 333.305 41.6521 332.827 41.6521Z" fill="white"/>
<path d="M332.654 45.2477H229.799" stroke="#263238" stroke-width="0.932567" stroke-linecap="round" stroke-linejoin="round"/>
<path d="M229.799 41.6521H332.654" stroke="#263238" stroke-width="0.932567" stroke-linecap="round" stroke-linejoin="round"/>
<path d="M261.816 65.8466C261.816 65.8466 257.563 65.2499 257.334 66.3923C257.105 67.5347 257.232 69.3656 257.965 69.9623C259.351 71.0945 259.096 73.211 259.096 73.211L262.661 72.8642L262.753 71.0792C262.936 70.4968 263.264 69.9705 263.706 69.5492C264.989 68.3405 264.48 66.9992 264.261 65.3825C264.042 63.7658 262.977 64.4849 262.891 65.3213C262.865 66.0671 262.927 66.8133 263.074 67.5449L261.816 65.8466Z" fill="white" stroke="#263238" stroke-width="0.932567" stroke-linecap="round" stroke-linejoin="round"/>
<path d="M262.814 67.4174C262.814 67.4174 261.795 67.6265 260.991 69.0698Z" fill="white"/>
<path d="M262.814 67.4174C262.814 67.4174 261.795 67.6265 260.991 69.0698" stroke="#263238" stroke-width="0.932567" stroke-linecap="round" stroke-linejoin="round"/>
<path d="M262.814 67.7947H257.66C257.302 67.8056 256.948 67.7307 256.625 67.5763C256.303 67.4219 256.022 67.1925 255.806 66.9073C255.621 66.6482 255.522 66.338 255.522 66.0199C255.522 65.7018 255.621 65.3916 255.806 65.1325V65.1325L258.383 61.3432C258.606 61.0618 258.889 60.8345 259.212 60.6782C259.535 60.522 259.889 60.4408 260.247 60.4408C260.606 60.4408 260.96 60.522 261.282 60.6782C261.605 60.8345 261.889 61.0618 262.111 61.3432L264.694 65.1325C264.878 65.3916 264.977 65.7018 264.977 66.0199C264.977 66.338 264.878 66.6482 264.694 66.9073C264.476 67.1968 264.191 67.4289 263.863 67.5835C263.536 67.7381 263.176 67.8106 262.814 67.7947V67.7947ZM256.702 65.5507C256.605 65.686 256.553 65.8483 256.553 66.0148C256.553 66.1813 256.605 66.3436 256.702 66.4789C256.815 66.6265 256.961 66.7452 257.128 66.825C257.295 66.9048 257.479 66.9435 257.665 66.9379H262.814C263 66.9439 263.184 66.9054 263.351 66.8256C263.519 66.7457 263.665 66.6268 263.777 66.4789C263.875 66.3439 263.927 66.1815 263.927 66.0148C263.927 65.8481 263.875 65.6857 263.777 65.5507L261.2 61.7665C261.087 61.6153 260.94 61.4935 260.771 61.4118C260.601 61.3301 260.415 61.2908 260.227 61.2973C260.039 61.2903 259.853 61.3294 259.685 61.4112C259.516 61.493 259.37 61.615 259.259 61.7665L256.677 65.5558L256.702 65.5507Z" fill="#263238"/>
<path d="M258.693 65.8975C258.958 67.2439 258.795 67.7233 258.184 67.6519C257.573 67.5805 256.957 65.9281 257.802 65.5507C258.648 65.1733 259.33 64.8826 259.33 64.8826C259.601 64.736 259.902 64.6546 260.21 64.6449C260.517 64.6352 260.823 64.6973 261.103 64.8265C262.315 64.4032 262.529 65.2855 262.529 65.2855C262.529 65.2855 263.405 67.8355 262.676 67.9222C261.948 68.0089 261.347 65.7955 261.347 65.7955C261.347 65.7955 262.259 68.2231 261.423 68.2639C260.588 68.3047 260.104 65.9077 260.104 65.9077C260.104 65.9077 260.649 68.014 259.86 68.0854C259.07 68.1568 258.693 65.8975 258.693 65.8975Z" fill="white" stroke="#263238" stroke-width="0.932567" stroke-linecap="round" stroke-linejoin="round"/>
<path d="M260.619 44.2837H259.784V61.027H260.619V44.2837Z" fill="white" stroke="#263238" stroke-width="0.932567" stroke-linecap="round" stroke-linejoin="round"/>
<path d="M261.082 60.7669L260.537 61.5676C260.502 61.6132 260.456 61.6501 260.404 61.6755C260.352 61.7008 260.295 61.714 260.237 61.714C260.179 61.714 260.122 61.7008 260.07 61.6755C260.018 61.6501 259.972 61.6132 259.936 61.5676L259.396 60.7669C259.264 60.5782 259.432 60.3436 259.692 60.3436H260.782C261.047 60.3436 261.21 60.5986 261.082 60.7669Z" fill="white" stroke="#263238" stroke-width="0.932567" stroke-linecap="round" stroke-linejoin="round"/>
<path d="M260.685 55.1467H259.794C259.549 55.1467 259.351 55.3454 259.351 55.5904V59.3032C259.351 59.5483 259.549 59.7469 259.794 59.7469H260.685C260.93 59.7469 261.128 59.5483 261.128 59.3032V55.5904C261.128 55.3454 260.93 55.1467 260.685 55.1467Z" fill="white" stroke="#263238" stroke-width="0.932567" stroke-linecap="round" stroke-linejoin="round"/>
<path d="M260.685 41.0758H259.794C259.549 41.0758 259.351 41.2745 259.351 41.5195V45.2323C259.351 45.4774 259.549 45.676 259.794 45.676H260.685C260.93 45.676 261.128 45.4774 261.128 45.2323V41.5195C261.128 41.2745 260.93 41.0758 260.685 41.0758Z" fill="white" stroke="#263238" stroke-width="0.932567" stroke-linecap="round" stroke-linejoin="round"/>
<path d="M250.697 67.7947H245.543C245.185 67.8055 244.83 67.7307 244.508 67.5763C244.185 67.4219 243.904 67.1925 243.689 66.9073C243.504 66.6482 243.405 66.338 243.405 66.0199C243.405 65.7018 243.504 65.3916 243.689 65.1325V65.1325L246.266 61.3432C246.489 61.0617 246.773 60.8344 247.096 60.6781C247.419 60.5218 247.774 60.4407 248.132 60.4407C248.491 60.4407 248.846 60.5218 249.169 60.6781C249.492 60.8344 249.776 61.0617 249.999 61.3432L252.576 65.1325C252.761 65.3916 252.86 65.7018 252.86 66.0199C252.86 66.338 252.761 66.6482 252.576 66.9073C252.359 67.1968 252.074 67.4289 251.746 67.5835C251.419 67.7381 251.059 67.8106 250.697 67.7947V67.7947ZM244.585 65.5507C244.488 65.6859 244.436 65.8483 244.436 66.0148C244.436 66.1813 244.488 66.3436 244.585 66.4789C244.697 66.6265 244.843 66.7451 245.011 66.825C245.178 66.9048 245.362 66.9435 245.548 66.9379H250.702C250.888 66.9435 251.073 66.9048 251.241 66.825C251.409 66.7452 251.556 66.6266 251.67 66.4789C251.767 66.3436 251.819 66.1813 251.819 66.0148C251.819 65.8483 251.767 65.6859 251.67 65.5507L249.093 61.7665C248.98 61.6152 248.833 61.4935 248.664 61.4118C248.494 61.3301 248.308 61.2908 248.12 61.2973C247.932 61.2903 247.746 61.3294 247.578 61.4112C247.409 61.493 247.263 61.615 247.152 61.7665L244.57 65.5558L244.585 65.5507Z" fill="#263238"/>
<path d="M248.502 44.2837H247.667V61.027H248.502V44.2837Z" fill="white" stroke="#263238" stroke-width="0.932567" stroke-linecap="round" stroke-linejoin="round"/>
<path d="M248.965 60.7669L248.4 61.5676C248.364 61.6132 248.319 61.6501 248.267 61.6755C248.215 61.7008 248.157 61.714 248.1 61.714C248.042 61.714 247.985 61.7008 247.932 61.6755C247.88 61.6501 247.835 61.6132 247.799 61.5676L247.259 60.7669C247.127 60.5782 247.295 60.3436 247.555 60.3436H248.645C248.909 60.3436 249.093 60.5986 248.965 60.7669Z" fill="white" stroke="#263238" stroke-width="0.932567" stroke-linecap="round" stroke-linejoin="round"/>
<path d="M248.568 55.1467H247.677C247.432 55.1467 247.234 55.3454 247.234 55.5904V59.3032C247.234 59.5483 247.432 59.7469 247.677 59.7469H248.568C248.813 59.7469 249.011 59.5483 249.011 59.3032V55.5904C249.011 55.3454 248.813 55.1467 248.568 55.1467Z" fill="white" stroke="#263238" stroke-width="0.932567" stroke-linecap="round" stroke-linejoin="round"/>
<path d="M248.568 41.0758H247.677C247.432 41.0758 247.234 41.2745 247.234 41.5195V45.2323C247.234 45.4774 247.432 45.676 247.677 45.676H248.568C248.813 45.676 249.011 45.4774 249.011 45.2323V41.5195C249.011 41.2745 248.813 41.0758 248.568 41.0758Z" fill="white" stroke="#263238" stroke-width="0.932567" stroke-linecap="round" stroke-linejoin="round"/>
<path d="M303.209 67.7947H298.055C297.697 67.8064 297.342 67.7319 297.02 67.5775C296.697 67.423 296.416 67.1932 296.201 66.9073C296.016 66.6482 295.917 66.338 295.917 66.0199C295.917 65.7018 296.016 65.3916 296.201 65.1325V65.1325L298.778 61.3432C299.001 61.0618 299.284 60.8345 299.607 60.6782C299.93 60.522 300.284 60.4408 300.642 60.4408C301.001 60.4408 301.355 60.522 301.677 60.6782C302 60.8345 302.284 61.0618 302.506 61.3432L305.084 65.1325C305.268 65.3916 305.367 65.7018 305.367 66.0199C305.367 66.338 305.268 66.6482 305.084 66.9073C304.866 67.1961 304.582 67.4277 304.256 67.5823C303.929 67.7369 303.57 67.8098 303.209 67.7947V67.7947ZM297.097 65.5507C296.999 65.6857 296.947 65.8481 296.947 66.0148C296.947 66.1815 296.999 66.344 297.097 66.4789C297.209 66.6268 297.355 66.7457 297.523 66.8256C297.69 66.9054 297.874 66.9439 298.06 66.9379H303.214C303.4 66.9439 303.584 66.9054 303.751 66.8256C303.919 66.7457 304.065 66.6268 304.177 66.4789C304.275 66.344 304.327 66.1815 304.327 66.0148C304.327 65.8481 304.275 65.6857 304.177 65.5507L301.6 61.7665C301.483 61.6199 301.335 61.5015 301.167 61.4201C300.998 61.3388 300.814 61.2965 300.627 61.2965C300.44 61.2965 300.255 61.3388 300.087 61.4201C299.918 61.5015 299.77 61.6199 299.654 61.7665L297.077 65.5558L297.097 65.5507Z" fill="#263238"/>
<path d="M301.009 44.2837H300.174V61.027H301.009V44.2837Z" fill="white" stroke="#263238" stroke-width="0.932567" stroke-linecap="round" stroke-linejoin="round"/>
<path d="M301.473 60.7669L300.933 61.5676C300.897 61.6132 300.851 61.6501 300.799 61.6755C300.747 61.7008 300.69 61.714 300.632 61.714C300.574 61.714 300.517 61.7008 300.465 61.6755C300.413 61.6501 300.368 61.6132 300.332 61.5676L299.792 60.7669C299.659 60.5782 299.828 60.3436 300.087 60.3436H301.177C301.437 60.3436 301.605 60.5986 301.473 60.7669Z" fill="white" stroke="#263238" stroke-width="0.932567" stroke-linecap="round" stroke-linejoin="round"/>
<path d="M301.081 55.1467H300.189C299.944 55.1467 299.746 55.3454 299.746 55.5904V59.3032C299.746 59.5483 299.944 59.7469 300.189 59.7469H301.081C301.325 59.7469 301.524 59.5483 301.524 59.3032V55.5904C301.524 55.3454 301.325 55.1467 301.081 55.1467Z" fill="white" stroke="#263238" stroke-width="0.932567" stroke-linecap="round" stroke-linejoin="round"/>
<path d="M301.081 41.0758H300.189C299.944 41.0758 299.746 41.2745 299.746 41.5195V45.2323C299.746 45.4774 299.944 45.676 300.189 45.676H301.081C301.325 45.676 301.524 45.4774 301.524 45.2323V41.5195C301.524 41.2745 301.325 41.0758 301.081 41.0758Z" fill="white" stroke="#263238" stroke-width="0.932567" stroke-linecap="round" stroke-linejoin="round"/>
<path d="M314.756 67.7947H309.602C309.244 67.8055 308.89 67.7307 308.567 67.5763C308.245 67.4219 307.964 67.1925 307.748 66.9073C307.563 66.6482 307.464 66.338 307.464 66.0199C307.464 65.7018 307.563 65.3916 307.748 65.1325V65.1325L310.325 61.3432C310.548 61.0617 310.832 60.8344 311.155 60.6781C311.478 60.5218 311.833 60.4407 312.192 60.4407C312.55 60.4407 312.905 60.5218 313.228 60.6781C313.551 60.8344 313.835 61.0617 314.058 61.3432L316.635 65.1325C316.82 65.3916 316.919 65.7018 316.919 66.0199C316.919 66.338 316.82 66.6482 316.635 66.9073C316.418 67.1968 316.133 67.4289 315.805 67.5835C315.478 67.7381 315.118 67.8106 314.756 67.7947V67.7947ZM308.644 65.5507C308.547 65.6859 308.495 65.8483 308.495 66.0148C308.495 66.1813 308.547 66.3436 308.644 66.4789C308.757 66.6265 308.903 66.7451 309.07 66.825C309.237 66.9048 309.421 66.9435 309.607 66.9379H314.761C314.947 66.9435 315.132 66.9048 315.3 66.825C315.468 66.7452 315.615 66.6266 315.729 66.4789C315.826 66.3436 315.878 66.1813 315.878 66.0148C315.878 65.8483 315.826 65.6859 315.729 65.5507L313.152 61.7665C313.04 61.6152 312.892 61.4935 312.723 61.4118C312.554 61.3301 312.367 61.2908 312.179 61.2973C311.991 61.2903 311.805 61.3294 311.637 61.4112C311.468 61.493 311.322 61.615 311.211 61.7665L308.629 65.5558L308.644 65.5507Z" fill="#263238"/>
<path d="M312.561 44.2837H311.726V61.027H312.561V44.2837Z" fill="white" stroke="#263238" stroke-width="0.932567" stroke-linecap="round" stroke-linejoin="round"/>
<path d="M313.024 60.7669L312.479 61.5676C312.443 61.6132 312.398 61.6501 312.346 61.6755C312.294 61.7008 312.237 61.714 312.179 61.714C312.121 61.714 312.064 61.7008 312.012 61.6755C311.96 61.6501 311.914 61.6132 311.878 61.5676L311.338 60.7669C311.206 60.5782 311.374 60.3436 311.634 60.3436H312.724C312.989 60.3436 313.152 60.5986 313.024 60.7669Z" fill="white" stroke="#263238" stroke-width="0.932567" stroke-linecap="round" stroke-linejoin="round"/>
<path d="M312.627 55.1467H311.736C311.491 55.1467 311.292 55.3454 311.292 55.5904V59.3032C311.292 59.5483 311.491 59.7469 311.736 59.7469H312.627C312.872 59.7469 313.07 59.5483 313.07 59.3032V55.5904C313.07 55.3454 312.872 55.1467 312.627 55.1467Z" fill="white" stroke="#263238" stroke-width="0.932567" stroke-linecap="round" stroke-linejoin="round"/>
<path d="M312.627 41.0758H311.736C311.491 41.0758 311.292 41.2745 311.292 41.5195V45.2323C311.292 45.4774 311.491 45.676 311.736 45.676H312.627C312.872 45.676 313.07 45.4774 313.07 45.2323V41.5195C313.07 41.2745 312.872 41.0758 312.627 41.0758Z" fill="white" stroke="#263238" stroke-width="0.932567" stroke-linecap="round" stroke-linejoin="round"/>
<path d="M263.212 72.0583L263.482 74.2361L257.94 74.4961L258.403 72.3133L263.212 72.0583Z" fill="#E8E8E8" stroke="#263238" stroke-width="0.932567" stroke-linecap="round" stroke-linejoin="round"/>
<path d="M272.608 90.3622C272.608 90.3622 262.987 99.2209 260.766 99.3586C260.221 99.3943 259.748 99.736 259.289 99.4249C258.271 98.7313 256.799 97.2625 257.013 91.2955C257.125 88.0315 259.096 74.4298 259.096 74.4298L262.661 74.2717L263.527 89.5717C266.583 86.3995 271.895 82.0033 271.901 82.0033C273.561 87.3175 272.608 90.3622 272.608 90.3622Z" fill="white" stroke="#263238" stroke-width="0.932567" stroke-linecap="round" stroke-linejoin="round"/>
<path d="M296.873 102.679C297.113 101.621 297.569 100.624 298.213 99.7513Z" fill="white"/>
<path d="M296.873 102.679C297.113 101.621 297.569 100.624 298.213 99.7513" stroke="#263238" stroke-width="0.932567" stroke-linecap="round" stroke-linejoin="round"/>
<path d="M262.438 93.1723C262.809 93.004 263.696 91.3465 263.512 88.516" stroke="#263238" stroke-width="0.932567" stroke-linecap="round" stroke-linejoin="round"/>
<path d="M265.855 56.84V50.7455C265.856 50.451 265.974 50.169 266.182 49.9608C266.39 49.7526 266.671 49.635 266.965 49.6337H276.52C276.814 49.635 277.096 49.7526 277.304 49.9608C277.512 50.169 277.629 50.451 277.631 50.7455V56.84C277.631 57.1348 277.514 57.4176 277.306 57.6261C277.097 57.8346 276.815 57.9518 276.52 57.9518H273.194L273.459 60.2723H271.743V62.4653L269.706 58.8953H271.371L271.198 57.9569H266.96C266.814 57.9562 266.67 57.9268 266.536 57.8703C266.401 57.8138 266.279 57.7313 266.177 57.6276C266.074 57.5239 265.993 57.401 265.938 57.2658C265.882 57.1307 265.854 56.986 265.855 56.84Z" fill="white" stroke="#263238" stroke-width="0.932567" stroke-linecap="round" stroke-linejoin="round"/>
<path d="M274.137 51.7195H267.678" stroke="#263238" stroke-width="0.932567" stroke-linecap="round" stroke-linejoin="round"/>
<path d="M275.807 53.4485H267.678" stroke="#263238" stroke-width="0.932567" stroke-linecap="round" stroke-linejoin="round"/>
<path d="M274.554 55.1722H267.678" stroke="#263238" stroke-width="0.932567" stroke-linecap="round" stroke-linejoin="round"/>
<path d="M53.3457 207.683C66.4795 207.683 77.1265 206.114 77.1265 204.179C77.1265 202.244 66.4795 200.675 53.3457 200.675C40.212 200.675 29.5649 202.244 29.5649 204.179C29.5649 206.114 40.212 207.683 53.3457 207.683Z" fill="#E8E8E8"/>
<path d="M51.2625 148.344C74.1348 148.344 92.6764 129.778 92.6764 106.876C92.6764 83.9739 74.1348 65.408 51.2625 65.408C28.3903 65.408 9.84863 83.9739 9.84863 106.876C9.84863 129.778 28.3903 148.344 51.2625 148.344Z" fill="#E8E8E8"/>
<path d="M32.1622 133.993C32.1622 133.993 33.2165 140.113 29.6562 146.993H74.1771C74.1771 146.993 72.1398 143.785 70.0056 133.993H32.1622Z" fill="white" stroke="#263238" stroke-width="0.87381" stroke-linecap="round" stroke-linejoin="round"/>
<path d="M42.3131 135.405C39.8762 135.601 37.5404 136.466 35.5633 137.906C33.5861 139.346 32.0443 141.304 31.1078 143.565C30.629 144.728 30.1299 145.906 29.6562 147.008C26.9466 153.286 29.5085 162.42 36.4354 162.42H68.1975C74.4775 162.42 76.194 154.459 74.6915 148.461C73.7237 144.606 71.773 140.735 68.4419 138.022C63.9904 134.375 50.982 134.712 42.3131 135.405Z" fill="#263238" stroke="#263238" stroke-width="0.87381" stroke-linecap="round" stroke-linejoin="round"/>
<path d="M11.9878 128.668C11.9878 128.668 6.29343 132.116 6.10498 133.993H13.0879L15.8638 131.999L14.9266 134.003H17.0506C17.0506 134.003 19.3069 132.249 19.4291 130.305L19.1999 128.668L15.1253 126.853L11.9878 128.668Z" fill="white" stroke="#263238" stroke-width="0.87381" stroke-linecap="round" stroke-linejoin="round"/>
<path d="M78.6901 116.005C78.6901 116.005 77.7784 110.002 75.7768 101.358C73.7751 92.7134 69.8634 92.0351 69.8634 92.0351H69.8277C64.7344 89.8421 51.4917 88.6589 51.4917 88.6589H50.8805C50.8805 88.6589 37.6073 89.8421 32.5445 92.0351H32.5089C32.5089 92.0351 28.5616 92.7287 26.5599 101.358C24.5582 109.987 23.6414 116.005 23.6414 116.005C23.6414 116.005 20.0251 116.984 13.5158 125.185C12.4939 126.486 11.624 127.899 10.9233 129.398V129.398C10.9233 129.398 15.925 127.75 19.4292 130.275C19.4292 130.275 30.9096 125.399 31.4851 120.259C31.4851 120.075 31.531 119.871 31.5564 119.652C31.8824 127.455 32.1625 133.972 32.1625 133.972H70.169C70.169 133.972 70.4542 127.455 70.7802 119.652C70.7802 119.871 70.826 120.075 70.8464 120.259C71.427 125.399 84.1349 131.162 84.1349 131.162C87.6188 125.797 92.6764 128.76 92.6764 128.76L78.6901 116.005Z" fill="white"/>
<path opacity="0.3" d="M31.4851 120.269C31.4851 120.116 31.5259 119.942 31.5462 119.759L30.716 101.7C30.716 101.7 28.424 102.169 29.0811 107.712C29.7381 113.256 31.1184 112.302 30.3493 114.439C29.5802 116.576 26.5955 114.128 25.6074 115.969C24.6193 117.81 31.1286 117.418 28.4393 122.161C25.75 126.904 19.4292 130.321 19.4292 130.321C19.4292 130.321 30.9147 125.42 31.4851 120.269Z" fill="black"/>
<g opacity="0.3">
<path opacity="0.3" d="M71.0249 120.269C71.0249 120.116 72.5223 120.381 71.0249 120.269L71.4782 104.811C71.4782 104.811 71.3662 112.287 72.1658 114.439C72.9655 116.592 75.9196 114.128 76.9026 115.969C77.8856 117.81 71.3814 117.418 74.0758 122.161C76.7702 126.904 83.0808 130.321 83.0808 130.321C83.0808 130.321 71.6055 125.42 71.0249 120.269Z" fill="black"/>
</g>
<path opacity="0.3" d="M70.4442 123.788C70.1946 129.637 70.0061 133.988 70.0061 133.988H35.835C58.755 133.988 70.4696 123.788 70.4696 123.788H70.4442Z" fill="black"/>
<path d="M78.6901 116.005C78.6901 116.005 77.7784 110.002 75.7768 101.358C73.7751 92.7134 69.8634 92.0351 69.8634 92.0351H69.8277C64.7344 89.8421 51.4917 88.6589 51.4917 88.6589H50.8805C50.8805 88.6589 37.6073 89.8421 32.5445 92.0351H32.5089C32.5089 92.0351 28.5616 92.7287 26.5599 101.358C24.5582 109.987 23.6414 116.005 23.6414 116.005C23.6414 116.005 20.0251 116.984 13.5158 125.185C12.4939 126.486 11.624 127.899 10.9233 129.398V129.398C10.9233 129.398 15.925 127.75 19.4292 130.275C19.4292 130.275 30.9096 125.399 31.4851 120.259C31.4851 120.075 31.531 119.871 31.5564 119.652C31.8824 127.455 32.1625 133.972 32.1625 133.972H70.169C70.169 133.972 70.4542 127.455 70.7802 119.652C70.7802 119.871 70.826 120.075 70.8464 120.259C71.427 125.399 84.1349 131.162 84.1349 131.162C87.6188 125.797 92.6764 128.76 92.6764 128.76L78.6901 116.005Z" stroke="#263238" stroke-width="0.87381" stroke-linecap="round" stroke-linejoin="round"/>
<path d="M24.8584 115.969C26.6912 115.877 28.4875 116.505 29.8651 117.719" stroke="#263238" stroke-width="0.87381" stroke-linecap="round" stroke-linejoin="round"/>
<path d="M28.439 102.24C28.439 102.24 30.7921 102.75 31.332 114.205L30.624 99.17" stroke="#263238" stroke-width="0.87381" stroke-linecap="round" stroke-linejoin="round"/>
<path d="M31.3628 115.796L31.47 118.117" stroke="#263238" stroke-width="0.87381" stroke-linecap="round" stroke-linejoin="round"/>
<path d="M77.4779 115.969C75.6487 115.87 73.8527 116.489 72.4712 117.693" stroke="#263238" stroke-width="0.87381" stroke-linecap="round" stroke-linejoin="round"/>
<path d="M71.5693 102.24C71.6136 101.22 71.6613 100.2 71.7124 99.1802" stroke="#263238" stroke-width="0.87381" stroke-linecap="round" stroke-linejoin="round"/>
<path d="M58.3015 89.4851C57.6852 92.5757 54.7005 93.6926 51.1046 93.6926C47.5087 93.6926 44.5342 92.5808 43.9077 89.5004H44.0503C44.4228 89.4495 44.7712 89.2868 45.0494 89.0337C45.3277 88.7806 45.5227 88.449 45.6089 88.0826C45.6588 87.9364 45.6846 87.7831 45.6853 87.6287V84.0026H56.6869V87.6287C56.6856 87.8554 56.727 88.0803 56.8091 88.2917C56.9277 88.6066 57.129 88.8836 57.3916 89.0936C57.6542 89.3036 57.9686 89.4389 58.3015 89.4851V89.4851Z" fill="white"/>
<path d="M56.5949 86.7158C54.7715 88.5111 52.7392 89.6279 50.7783 89.7146C48.741 89.8064 46.3777 88.1336 45.415 86.4914C45.4548 86.3487 45.4737 86.201 45.4711 86.0528V84.941L56.4727 85.0583V86.0528C56.4727 86.2874 56.7528 86.5628 56.5949 86.7158Z" fill="#263238"/>
<path d="M58.3015 89.4851C57.6852 92.5757 54.7005 93.6926 51.1046 93.6926C47.5087 93.6926 44.5342 92.5808 43.9077 89.5004H44.0503C44.4228 89.4495 44.7712 89.2868 45.0494 89.0337C45.3277 88.7806 45.5227 88.449 45.6089 88.0826C45.6588 87.9364 45.6846 87.7831 45.6853 87.6287V84.0026H56.6869V87.6287C56.6856 87.8554 56.727 88.0803 56.8091 88.2917C56.9277 88.6066 57.129 88.8836 57.3916 89.0936C57.6542 89.3036 57.9686 89.4389 58.3015 89.4851V89.4851Z" stroke="#263238" stroke-width="0.87381" stroke-linecap="round" stroke-linejoin="round"/>
<path d="M43.0673 76.2149C43.0673 76.2149 39.2524 71.8952 39.7516 65.9435C40.2507 59.9918 45.1301 59.9918 45.1301 59.9918C45.1301 59.9918 51.0129 54.7949 57.5782 58.0487C64.1435 61.3025 63.6902 72.5837 58.8312 75.3887L43.0673 76.2149Z" fill="#263238"/>
<path d="M59.8853 73.3079C59.9363 72.3185 59.9312 71.7065 59.9312 71.7065C59.4932 69.0749 56.2793 68.8097 54.8022 68.7638C48.6138 68.5547 46.9839 64.7552 46.9839 64.7552C43.2301 63.6281 42.1656 71.7065 42.1656 71.7065C42.1656 71.7065 42.1656 72.3185 42.2166 73.3079C41.5535 73.4346 40.9581 73.796 40.5391 74.326C40.1202 74.856 39.9057 75.5192 39.9347 76.1945C39.9347 77.8061 41.096 79.1066 42.5323 79.1066C42.6776 79.1059 42.8225 79.0922 42.9653 79.0658L43.6376 82.8602C43.7649 83.7119 44.5646 85.7264 45.2827 86.2058C46.8107 87.2258 49.2301 88.6793 51.0484 88.6793C52.6171 88.6793 54.8175 87.3839 56.4422 86.5016C57.3489 85.9916 58.3471 84.0383 58.4337 83.0132L58.8565 79.178C59.0952 79.1666 59.3333 79.1427 59.5695 79.1066C61.0008 79.1066 62.1672 77.8061 62.1672 76.1945C62.1962 75.5192 61.9817 74.856 61.5628 74.326C61.1438 73.796 60.5484 73.4346 59.8853 73.3079V73.3079Z" fill="white" stroke="#263238" stroke-width="0.87381" stroke-linecap="round" stroke-linejoin="round"/>
<path d="M40.9331 70.8599H40.2607V73.2569H40.9331V70.8599Z" fill="white" stroke="#263238" stroke-width="0.87381" stroke-linecap="round" stroke-linejoin="round"/>
<path d="M61.4746 70.8599H60.8022V73.2569H61.4746V70.8599Z" fill="white" stroke="#263238" stroke-width="0.87381" stroke-linecap="round" stroke-linejoin="round"/>
<path d="M50.8652 60.3896C48.0059 60.3891 45.2578 61.4991 43.1992 63.4862C41.1407 65.4732 39.9321 68.1824 39.8279 71.0435C39.8259 71.0968 39.8346 71.15 39.8537 71.1997C39.8728 71.2495 39.9018 71.2949 39.939 71.333C39.9762 71.3712 40.0207 71.4014 40.0699 71.4218C40.1191 71.4421 40.172 71.4523 40.2252 71.4515H40.9383C41.0419 71.4516 41.1414 71.4111 41.2157 71.3387C41.2899 71.2663 41.3329 71.1677 41.3356 71.0639C41.4489 68.6096 42.5025 66.2933 44.2772 64.5965C46.0519 62.8997 48.4114 61.953 50.8652 61.953C53.319 61.953 55.6785 62.8997 57.4532 64.5965C59.2279 66.2933 60.2815 68.6096 60.3948 71.0639C60.3988 71.1681 60.4429 71.2667 60.5179 71.339C60.593 71.4113 60.6931 71.4516 60.7972 71.4515H61.5052C61.5586 71.4523 61.6117 71.4421 61.6612 71.4218C61.7106 71.4015 61.7555 71.3714 61.7931 71.3333C61.8306 71.2952 61.8602 71.2499 61.8798 71.2001C61.8995 71.1503 61.9089 71.0971 61.9075 71.0435C61.8021 68.1819 60.5924 65.4728 58.533 63.4858C56.4737 61.4989 53.725 60.389 50.8652 60.3896Z" fill="white" stroke="#263238" stroke-width="0.87381" stroke-linecap="round" stroke-linejoin="round"/>
<path d="M42.0793 72.395H41.9265C41.0249 72.4295 40.1717 72.8124 39.546 73.4633C38.9203 74.1142 38.5708 74.9825 38.5708 75.886C38.5708 76.7894 38.9203 77.6577 39.546 78.3086C40.1717 78.9595 41.0249 79.3424 41.9265 79.3769H42.0793V72.395Z" fill="#263238" stroke="#263238" stroke-width="0.87381" stroke-miterlimit="10"/>
<path d="M42.9093 75.8987C42.9093 78.4844 43.0214 80.1674 42.13 80.1674C41.2387 80.1674 40.9331 78.4844 40.9331 75.8987C40.9331 73.313 41.2387 71.6249 42.13 71.6249C43.0214 71.6249 42.9093 73.2875 42.9093 75.8987Z" fill="white" stroke="#263238" stroke-width="0.87381" stroke-linecap="round" stroke-linejoin="round"/>
<path d="M59.6562 72.395H59.8091C60.7106 72.4295 61.5638 72.8124 62.1895 73.4633C62.8152 74.1142 63.1647 74.9825 63.1647 75.886C63.1647 76.7894 62.8152 77.6577 62.1895 78.3086C61.5638 78.9595 60.7106 79.3424 59.8091 79.3769H59.6562V72.395Z" fill="#263238" stroke="#263238" stroke-width="0.87381" stroke-miterlimit="10"/>
<path d="M58.8209 75.8987C58.8209 78.4844 58.7139 80.1674 59.6053 80.1674C60.4966 80.1674 60.8022 78.4844 60.8022 75.8987C60.8022 73.313 60.4966 71.6249 59.6053 71.6249C58.7139 71.6249 58.8209 73.2875 58.8209 75.8987Z" fill="white" stroke="#263238" stroke-width="0.87381" stroke-linecap="round" stroke-linejoin="round"/>
<path d="M44.9058 76.526C44.9058 76.526 46.3574 78.3161 49.0772 76.9034" stroke="#263238" stroke-width="0.87381" stroke-linecap="round" stroke-linejoin="round"/>
<path d="M49.0771 83.4875C49.6775 83.9242 50.4005 84.1593 51.1425 84.1593C51.8845 84.1593 52.6075 83.9242 53.2079 83.4875" stroke="#263238" stroke-width="0.75" stroke-linecap="round" stroke-linejoin="round"/>
<path d="M44.5034 74.1239C44.5034 74.1239 47.1367 72.1145 49.4796 74.1239" stroke="#263238" stroke-width="0.87381" stroke-linecap="round" stroke-linejoin="round"/>
<path d="M57.4357 74.1902C57.4357 74.1902 54.8024 72.1502 52.4595 74.1902" stroke="#263238" stroke-width="0.87381" stroke-linecap="round" stroke-linejoin="round"/>
<path d="M53.0552 80.6724C53.0552 80.6724 53.2895 81.9779 50.9007 81.9473C50.315 81.9473 49.2505 81.5292 49.2148 80.6724" stroke="#263238" stroke-width="0.75" stroke-linecap="round" stroke-linejoin="round"/>
<path d="M45.4766 77.0002C45.6956 77.4337 46.1896 77.9335 47.2949 77.959C48.4001 77.9845 48.5937 77.5459 48.6141 77.1175C48.1215 77.3569 47.5778 77.4713 47.0307 77.4509C46.4836 77.4304 45.9499 77.2757 45.4766 77.0002V77.0002Z" fill="#263238"/>
<path d="M57.0533 76.526C57.0533 76.526 55.6017 78.3161 52.8818 76.9034" stroke="#263238" stroke-width="0.87381" stroke-linecap="round" stroke-linejoin="round"/>
<path d="M56.4832 77.0002C56.2642 77.4337 55.7701 77.9335 54.6649 77.959C53.5596 77.9845 53.3661 77.5459 53.3457 77.1175C53.8381 77.3573 54.3819 77.472 54.9291 77.4516C55.4763 77.4311 56.01 77.2761 56.4832 77.0002V77.0002Z" fill="#263238"/>
<path d="M46.383 57.5081C46.383 57.5081 45.0434 58.2578 45.1911 60.3896C45.1911 60.3896 44.7225 58.9514 43.001 59.5787" stroke="#263238" stroke-width="0.87381" stroke-linecap="round" stroke-linejoin="round"/>
<path d="M51.1656 95.2786C52.9212 95.2783 54.6337 94.7346 56.0688 93.7222C57.5039 92.7097 58.5914 91.2779 59.1825 89.6228C58.719 89.5514 58.2606 89.4902 57.8175 89.429C57.1195 90.5671 56.1418 91.5071 54.9777 92.1591C53.8136 92.8112 52.502 93.1536 51.1682 93.1536C49.8343 93.1536 48.5227 92.8112 47.3586 92.1591C46.1945 91.5071 45.2168 90.5671 44.5188 89.429C44.0757 89.4902 43.6173 89.5514 43.1538 89.6228C43.7446 91.2771 44.8314 92.7083 46.2655 93.7207C47.6996 94.7331 49.411 95.2772 51.1656 95.2786Z" fill="#263238" stroke="#263238" stroke-width="0.87381" stroke-linecap="round" stroke-linejoin="round"/>
<path d="M70.7798 119.672C71.0039 114.701 71.2297 109.729 71.4572 104.755" stroke="#263238" stroke-width="0.87381" stroke-linecap="round" stroke-linejoin="round"/>
<path d="M70.9479 68.8659V63.3731C70.9479 63.1026 70.8406 62.8432 70.6496 62.6519C70.4585 62.4606 70.1994 62.3531 69.9293 62.3531H61.3419C61.0717 62.3531 60.8126 62.4606 60.6216 62.6519C60.4306 62.8432 60.3232 63.1026 60.3232 63.3731V68.8659C60.3232 69.1364 60.4306 69.3958 60.6216 69.5871C60.8126 69.7784 61.0717 69.8859 61.3419 69.8859H64.3368L64.0974 71.9768H65.6254V73.9505L67.4539 70.7324H65.9514L66.1093 69.8859H69.9242C70.0584 69.8865 70.1914 69.8606 70.3156 69.8097C70.4397 69.7587 70.5526 69.6837 70.6478 69.5889C70.7429 69.4941 70.8184 69.3815 70.8699 69.2574C70.9214 69.1333 70.9479 69.0002 70.9479 68.8659V68.8659Z" fill="white" stroke="#263238" stroke-width="0.87381" stroke-linecap="round" stroke-linejoin="round"/>
<path d="M61.9839 64.2554H67.8056" stroke="#263238" stroke-width="0.87381" stroke-linecap="round" stroke-linejoin="round"/>
<path d="M61.9839 65.8109H69.303" stroke="#263238" stroke-width="0.87381" stroke-linecap="round" stroke-linejoin="round"/>
<path d="M61.9839 67.3665H68.1774" stroke="#263238" stroke-width="0.87381" stroke-linecap="round" stroke-linejoin="round"/>
<path d="M97.3313 131.336C97.3313 132.957 94.7847 133.972 91.6574 133.972C88.5301 133.972 85.9834 132.952 85.9834 131.336C85.9834 129.719 88.5301 128.393 91.6574 128.393C94.7847 128.393 97.3313 129.709 97.3313 131.336Z" fill="white" stroke="#263238" stroke-width="0.87381" stroke-linecap="round" stroke-linejoin="round"/>
<path d="M87.9851 133.386C88.1379 133.35 88.2602 132.493 86.8799 131.856C85.9223 131.417 85.8969 130.953 86.4469 130.382C86.997 129.811 87.9342 129.331 88.6574 129.54C89.834 129.877 90.6133 132.33 91.1379 131.8C91.9274 131.596 90.9749 129.347 89.564 128.607C92.1107 129.24 92.233 132.177 93.4044 131.943C94.3008 131.769 92.7525 128.852 91.4129 127.99C92.2714 128.391 93.0222 128.99 93.6031 129.739C94.4536 130.979 94.5504 131.397 95.1311 131.218C95.8849 130.979 94.0869 128.255 93.8628 127.959C94.9935 128.408 95.2075 129.357 95.5538 129.739C95.9001 130.122 96.0631 130.759 96.5419 130.509C97.0207 130.26 96.5776 129.372 96.2567 128.852C94.7287 126.378 92.182 125.965 89.7576 126.271C87.8425 126.516 85.6422 127.322 84.4758 128.852C84.1791 129.233 84.0046 129.696 83.9755 130.178C83.9464 130.661 84.064 131.141 84.3128 131.555C84.7203 132.417 86.177 133.794 87.9851 133.386Z" fill="white" stroke="#263238" stroke-width="0.87381" stroke-linecap="round" stroke-linejoin="round"/>
<path d="M98.8189 133.993H5.08627C4.80779 133.993 4.58203 134.219 4.58203 134.498V135.309C4.58203 135.587 4.80779 135.813 5.08627 135.813H98.8189C99.0974 135.813 99.3231 135.587 99.3231 135.309V134.498C99.3231 134.219 99.0974 133.993 98.8189 133.993Z" fill="#BFBFBF" stroke="#263238" stroke-width="0.87381" stroke-miterlimit="10"/>
<path d="M7.8366 133.993L0.940228 113.006C0.914237 112.925 0.907491 112.838 0.920519 112.753C0.933547 112.668 0.965993 112.588 1.01532 112.518C1.06465 112.447 1.12952 112.39 1.20485 112.349C1.28019 112.308 1.36394 112.285 1.44956 112.282H23.2337L30.9909 133.993H7.8366Z" fill="#263238"/>
<path d="M23.8298 112.282L30.9605 132.774H50.0605V133.493C50.0605 133.628 50.0068 133.758 49.9113 133.854C49.8158 133.949 49.6862 134.003 49.5511 134.003H29.7381L22.8773 113.129C22.8469 113.035 22.839 112.935 22.8542 112.838C22.8694 112.741 22.9073 112.648 22.9649 112.568C23.0224 112.488 23.098 112.423 23.1854 112.378C23.2729 112.332 23.3697 112.308 23.4682 112.308L23.8298 112.282Z" fill="white" stroke="#263238" stroke-width="0.87381" stroke-linecap="round" stroke-linejoin="round"/>
<path d="M13.7141 123.14C13.6468 122.783 13.481 122.453 13.2354 122.186C13.342 122.06 13.4757 121.96 13.6265 121.893C13.7773 121.825 13.9414 121.793 14.1063 121.799C14.4913 121.815 14.8604 121.957 15.1574 122.203C15.4544 122.449 15.663 122.785 15.7515 123.16C15.7986 123.323 15.8063 123.495 15.774 123.661C15.7417 123.827 15.6703 123.983 15.5658 124.116C15.4612 124.249 15.3265 124.355 15.1728 124.426C15.0191 124.497 14.8508 124.53 14.6819 124.522C14.2913 124.513 13.9163 124.367 13.6224 124.109C13.7693 123.808 13.8019 123.463 13.7141 123.14V123.14Z" fill="white"/>
<path d="M57.8482 133.993H64.8108C65.7384 133.313 66.49 132.421 67.003 131.391C67.516 130.361 67.7755 129.223 67.7599 128.072V124.792C67.7599 124.668 67.7354 124.544 67.6878 124.429C67.6402 124.314 67.5704 124.21 67.4824 124.122C67.3944 124.033 67.29 123.964 67.1751 123.916C67.0601 123.868 66.9369 123.844 66.8125 123.844H55.872C55.7479 123.844 55.6249 123.868 55.5103 123.916C55.3956 123.964 55.2915 124.034 55.2039 124.122C55.1164 124.21 55.0471 124.315 55 124.43C54.953 124.545 54.9291 124.668 54.9298 124.792V128.072C54.9102 129.22 55.1648 130.356 55.6724 131.386C56.1801 132.416 56.926 133.31 57.8482 133.993V133.993Z" fill="white" stroke="#263238" stroke-width="0.87381" stroke-linecap="round" stroke-linejoin="round"/>
<path d="M69.7358 125.241C69.4423 125.056 69.1061 124.951 68.7597 124.935C68.4134 124.918 68.0688 124.992 67.7595 125.149V126.333C68.0613 126.282 68.3711 126.344 68.6305 126.506C69.6135 127.077 69.4047 128.245 68.7171 129.433C68.4026 130.107 67.8618 130.648 67.1891 130.963C66.9881 131.454 66.7336 131.921 66.4302 132.356C67.7392 132.641 68.9361 131.53 69.8733 129.908C70.9734 128 71.3045 126.149 69.7358 125.241Z" fill="white" stroke="#263238" stroke-width="0.87381" stroke-linecap="round" stroke-linejoin="round"/>
<path d="M61.4744 118.677C61.7275 117.851 61.8529 116.991 61.8463 116.127C61.8463 111.333 57.3438 110.767 57.3438 105.321" stroke="#263238" stroke-width="0.87381" stroke-linecap="round" stroke-linejoin="round"/>
<path d="M58.2808 122.905C59.0963 122.397 59.8013 121.729 60.3537 120.942" stroke="#263238" stroke-width="0.87381" stroke-linecap="round" stroke-linejoin="round"/>
<path d="M61.0831 109.89C60.8308 109.422 60.7258 108.889 60.7818 108.36" stroke="#263238" stroke-width="0.87381" stroke-linecap="round" stroke-linejoin="round"/>
<path d="M64.5914 116.622C64.3622 115.123 63.5015 113.715 62.6509 112.435" stroke="#263238" stroke-width="0.87381" stroke-linecap="round" stroke-linejoin="round"/>
<path d="M61.9839 122.961C61.9839 122.961 63.4711 122.334 64.2861 119.504" stroke="#263238" stroke-width="0.87381" stroke-linecap="round" stroke-linejoin="round"/>
<path d="M71.0807 162.405H32.9418C30.157 162.405 27.8994 164.665 27.8994 167.454V192.699C27.8994 195.487 30.157 197.748 32.9418 197.748H71.0807C73.8655 197.748 76.1231 195.487 76.1231 192.699V167.454C76.1231 164.665 73.8655 162.405 71.0807 162.405Z" fill="white" stroke="#263238" stroke-width="0.87381" stroke-miterlimit="10"/>
<path d="M39.9551 186.722L40.5306 196.804L40.5968 196.891C41.0526 197.504 41.6465 198 42.3302 198.338C43.0138 198.677 43.7678 198.85 44.5306 198.841C45.2933 198.833 46.0433 198.644 46.7193 198.29C47.3953 197.936 47.9781 197.427 48.4202 196.804V196.804L48.6341 186.722H39.9551Z" fill="white" stroke="#263238" stroke-width="0.87381" stroke-linecap="round" stroke-linejoin="round"/>
<path d="M50.5391 206.658C46.6756 207.336 42.7236 207.336 38.8601 206.658V206.658C38.4994 206.3 38.1892 205.895 37.9382 205.454C37.5477 204.758 37.3271 203.979 37.2943 203.182C37.2616 202.384 37.4176 201.59 37.7497 200.864L40.0774 196.708L49.3014 196.81L51.3795 200.604C51.8782 201.504 52.093 202.535 51.9958 203.56C51.8985 204.585 51.4937 205.556 50.8345 206.347C50.7415 206.455 50.6429 206.559 50.5391 206.658V206.658Z" fill="#BFBFBF" stroke="#263238" stroke-width="0.87381" stroke-miterlimit="10"/>
<path d="M48.2725 201.425C48.843 201.676 49.3873 201.984 49.8972 202.343Z" fill="#BFBFBF"/>
<path d="M48.2725 201.425C48.843 201.676 49.3873 201.984 49.8972 202.343" stroke="#263238" stroke-width="0.87381" stroke-miterlimit="10"/>
<path d="M39.5732 202.343C40.5856 201.649 41.7255 201.163 42.9268 200.914C44.1282 200.664 45.367 200.656 46.5715 200.889" fill="#BFBFBF"/>
<path d="M39.5732 202.343C40.5856 201.649 41.7255 201.163 42.9268 200.914C44.1282 200.664 45.367 200.656 46.5715 200.889" stroke="#263238" stroke-width="0.87381" stroke-miterlimit="10"/>
<path d="M34.9893 145.111L39.0639 191.868H49.6021C49.6021 191.868 50.6462 163.308 51.3083 144.764C51.3516 143.664 51.1722 142.566 50.7808 141.538C50.3894 140.509 49.7941 139.57 49.0309 138.778C48.2676 137.985 47.3521 137.356 46.3395 136.927C45.3269 136.498 44.2381 136.279 43.1386 136.283V136.283C42.0099 136.279 40.8927 136.51 39.8578 136.961C38.8229 137.412 37.893 138.074 37.1268 138.904C36.3607 139.734 35.775 140.714 35.4071 141.783C35.0391 142.851 34.8969 143.984 34.9893 145.111Z" fill="#263238"/>
<path d="M45.4764 136.614C44.7091 136.389 43.9128 136.277 43.1131 136.283V136.283C41.9866 136.282 40.8722 136.516 39.8403 136.969C38.8085 137.422 37.8816 138.084 37.1182 138.913C36.3548 139.743 35.7714 140.722 35.405 141.789C35.0386 142.855 34.897 143.987 34.9893 145.111L36.4358 162.405" stroke="white" stroke-width="0.87381" stroke-linecap="round" stroke-linejoin="round"/>
<path d="M49.8768 139.802C49.4594 139.208 48.9682 138.67 48.4151 138.2C48.4151 138.2 47.7784 137.69 47.4932 137.527" stroke="white" stroke-width="0.87381" stroke-linecap="round" stroke-linejoin="round"/>
<path d="M50.6104 162.405C50.8192 156.616 51.1452 149.844 51.3234 144.764C51.3721 143.503 51.128 142.248 50.6104 141.097" stroke="white" stroke-width="0.87381" stroke-linecap="round" stroke-linejoin="round"/>
<path d="M57.0991 186.722L57.6747 196.804L57.7409 196.891C58.1966 197.504 58.7906 198 59.4742 198.338C60.1578 198.677 60.9118 198.85 61.6746 198.841C62.4374 198.833 63.1873 198.644 63.8633 198.29C64.5393 197.936 65.1221 197.427 65.5642 196.804V196.804L65.7781 186.722H57.0991Z" fill="white" stroke="#263238" stroke-width="0.87381" stroke-linecap="round" stroke-linejoin="round"/>
<path d="M67.6832 206.658C63.8197 207.336 59.8677 207.336 56.0042 206.658C55.6443 206.301 55.3358 205.896 55.0874 205.454C54.6949 204.759 54.4727 203.98 54.4391 203.182C54.4054 202.384 54.5613 201.59 54.8939 200.864L57.2266 196.708L66.4455 196.81L68.5236 200.604C69.0223 201.504 69.2371 202.535 69.1399 203.56C69.0426 204.585 68.6378 205.556 67.9786 206.347C67.8856 206.455 67.787 206.559 67.6832 206.658Z" fill="#BFBFBF" stroke="#263238" stroke-width="0.87381" stroke-miterlimit="10"/>
<path d="M65.4165 201.425C65.9877 201.675 66.532 201.983 67.0413 202.343Z" fill="#BFBFBF"/>
<path d="M65.4165 201.425C65.9877 201.675 66.532 201.983 67.0413 202.343" stroke="#263238" stroke-width="0.87381" stroke-miterlimit="10"/>
<path d="M56.7275 202.343C57.7401 201.649 58.88 201.164 60.0812 200.914C61.2825 200.665 62.5213 200.656 63.7258 200.889" fill="#BFBFBF"/>
<path d="M56.7275 202.343C57.7401 201.649 58.88 201.164 60.0812 200.914C61.2825 200.665 62.5213 200.656 63.7258 200.889" stroke="#263238" stroke-width="0.87381" stroke-miterlimit="10"/>
<path d="M52.1485 145.111L56.2231 191.868H66.7612C66.7612 191.868 67.8054 163.308 68.4726 144.764C68.5124 143.661 68.3292 142.562 67.9341 141.532C67.5389 140.502 66.9398 139.563 66.1729 138.771C65.406 137.979 64.4871 137.35 63.4713 136.922C62.4556 136.495 61.364 136.277 60.2621 136.283C59.1364 136.284 58.0231 136.519 56.9925 136.972C55.9619 137.425 55.0362 138.088 54.2739 138.917C53.5116 139.746 52.9292 140.725 52.5634 141.791C52.1976 142.857 52.0563 143.987 52.1485 145.111V145.111Z" fill="#263238"/>
<path d="M63.6237 136.987C62.5659 136.516 61.4199 136.276 60.2621 136.283C59.1364 136.284 58.0231 136.519 56.9925 136.972C55.9619 137.425 55.0362 138.088 54.2739 138.917C53.5116 139.746 52.9292 140.725 52.5634 141.791C52.1976 142.857 52.0563 143.987 52.1485 145.111L53.6765 162.405" stroke="white" stroke-width="0.87381" stroke-linecap="round" stroke-linejoin="round"/>
<path d="M67.0213 139.802C66.6066 139.206 66.1151 138.667 65.5596 138.2" stroke="white" stroke-width="0.87381" stroke-linecap="round" stroke-linejoin="round"/>
<path d="M68.1979 162.405C68.4067 156.616 68.2896 149.844 68.4729 144.764C68.5142 143.648 68.327 142.536 67.9229 141.495" stroke="white" stroke-width="0.87381" stroke-linecap="round" stroke-linejoin="round"/>
<path d="M193.01 65.5303V43.7686C193.01 42.7163 192.593 41.707 191.85 40.9629C191.106 40.2188 190.099 39.8008 189.048 39.8008H154.953C153.902 39.8008 152.894 40.2188 152.151 40.9629C151.408 41.707 150.99 42.7163 150.99 43.7686V65.5303C150.99 66.5826 151.408 67.5918 152.151 68.3359C152.894 69.08 153.902 69.4981 154.953 69.4981H166.825L165.888 77.7805H172V85.5886L179.253 72.8386H173.304L173.931 69.493H189.048C190.098 69.493 191.105 69.0756 191.848 68.3326C192.591 67.5896 193.009 66.5817 193.01 65.5303V65.5303Z" fill="white" stroke="#263238" stroke-width="1.02547" stroke-linecap="round" stroke-linejoin="round"/>
<path d="M157.5 47.2468H180.552" stroke="#263238" stroke-width="1.02547" stroke-linecap="round" stroke-linejoin="round"/>
<path d="M157.5 53.4127H186.501" stroke="#263238" stroke-width="1.02547" stroke-linecap="round" stroke-linejoin="round"/>
<path d="M157.5 59.5786H182.039" stroke="#263238" stroke-width="1.02547" stroke-linecap="round" stroke-linejoin="round"/>
<path d="M219.052 158.712L239.65 165.587L234.541 170.708L244.076 180.255L223.478 173.38L228.587 168.26L219.052 158.712Z" fill="#E8E8E8" stroke="#263238" stroke-width="1.02547" stroke-linecap="round" stroke-linejoin="round"/>
<path d="M124.948 158.712L104.35 165.587L109.459 170.708L99.9243 180.255L120.522 173.38L115.413 168.26L124.948 158.712Z" fill="#E8E8E8" stroke="#263238" stroke-width="1.02547" stroke-linecap="round" stroke-linejoin="round"/>
<path d="M171.424 1L161.711 20.4514H168.944V33.9562L178.652 14.5048H171.424V1Z" fill="#E8E8E8" stroke="#263238" stroke-width="1.02547" stroke-linecap="round" stroke-linejoin="round"/>
</svg>
