<svg width="317" height="283" viewBox="0 0 317 283" fill="none" xmlns="http://www.w3.org/2000/svg">
<path d="M313.514 132.851C309.942 115.423 303.672 98.4093 296.215 82.7693C283.36 55.7869 262.298 33.3809 235.355 20.0801C169.24 -12.5599 121.528 1.04012 95.6268 27.5601C69.726 54.0801 77.2236 99.6401 49.278 119.36C21.3324 139.08 1.566 147.92 0.2028 183.96C-1.1604 220 16.5612 247.2 45.1884 256.04C73.8156 264.88 116.756 293.44 202.638 277.12C288.52 260.8 309.649 215.24 315.102 182.6C317.828 166.178 316.888 149.328 313.514 132.851Z" fill="#CBCBCB"/>
<path opacity="0.7" d="M313.514 132.851C309.942 115.423 303.672 98.4093 296.215 82.7693C283.36 55.7869 262.298 33.3809 235.355 20.0801C169.24 -12.5599 121.528 1.04012 95.6268 27.5601C69.726 54.0801 77.2236 99.6401 49.278 119.36C21.3324 139.08 1.566 147.92 0.2028 183.96C-1.1604 220 16.5612 247.2 45.1884 256.04C73.8156 264.88 116.756 293.44 202.638 277.12C288.52 260.8 309.649 215.24 315.102 182.6C317.828 166.178 316.888 149.328 313.514 132.851Z" fill="white"/>
<path d="M112.203 33.3538H106.028V60.6558H112.203V33.3538Z" fill="#C9C9C9" stroke="#263238" stroke-linecap="round" stroke-linejoin="round"/>
<path d="M112.203 37.4609H106.028V40.1265H112.203V37.4609Z" fill="white" stroke="#263238" stroke-linecap="round" stroke-linejoin="round"/>
<path d="M112.203 54.3997H106.028V57.0653H112.203V54.3997Z" fill="white" stroke="#263238" stroke-linecap="round" stroke-linejoin="round"/>
<path d="M119.408 33.3538H110.765V60.6558H119.408V33.3538Z" fill="#878787" stroke="#263238" stroke-linecap="round" stroke-linejoin="round"/>
<path d="M118.794 33.3538H112.619V60.6558H118.794V33.3538Z" fill="#C9C9C9" stroke="#263238" stroke-linecap="round" stroke-linejoin="round"/>
<path d="M118.794 37.4609H112.619V40.1265H118.794V37.4609Z" fill="white" stroke="#263238" stroke-linecap="round" stroke-linejoin="round"/>
<path d="M118.794 54.3997H112.619V57.0653H118.794V54.3997Z" fill="white" stroke="#263238" stroke-linecap="round" stroke-linejoin="round"/>
<path d="M125.992 33.3538H117.35V60.6558H125.992V33.3538Z" fill="#878787" stroke="#263238" stroke-linecap="round" stroke-linejoin="round"/>
<path d="M125.378 33.3538H119.203V60.6558H125.378V33.3538Z" fill="#C9C9C9" stroke="#263238" stroke-linecap="round" stroke-linejoin="round"/>
<path d="M125.378 37.4609H119.203V40.1265H125.378V37.4609Z" fill="white" stroke="#263238" stroke-linecap="round" stroke-linejoin="round"/>
<path d="M125.378 54.3997H119.203V57.0653H125.378V54.3997Z" fill="white" stroke="#263238" stroke-linecap="round" stroke-linejoin="round"/>
<path d="M132.576 33.3538H123.934V60.6558H132.576V33.3538Z" fill="#C9C9C9" stroke="#263238" stroke-linecap="round" stroke-linejoin="round"/>
<path d="M138.207 60.9345H152.711L156.569 57.4529H138.207V60.9345Z" fill="white" stroke="#263238" stroke-linecap="round" stroke-linejoin="round"/>
<path d="M154.926 61.1113L154.462 60.3157L137.906 60.2817L138.383 61.1113H154.926Z" fill="white" stroke="#263238" stroke-linecap="round" stroke-linejoin="round"/>
<path d="M129.809 33.9222L124.463 37.0063L138.163 60.641L143.509 57.5569L129.809 33.9222Z" fill="#C9C9C9" stroke="#263238" stroke-linecap="round" stroke-linejoin="round"/>
<path d="M131.872 37.4681L126.526 40.5522L127.863 42.8598L133.209 39.7757L131.872 37.4681Z" fill="white" stroke="#263238" stroke-linecap="round" stroke-linejoin="round"/>
<path d="M140.377 52.13L135.031 55.2141L136.368 57.5217L141.714 54.4375L140.377 52.13Z" fill="white" stroke="#263238" stroke-linecap="round" stroke-linejoin="round"/>
<path d="M156.473 57.6908L143.366 57.6568L129.666 34.02L142.773 34.054L156.473 57.6908Z" fill="#C9C9C9" stroke="#263238" stroke-linecap="round" stroke-linejoin="round"/>
<path d="M163.616 47.1101C163.616 47.1101 161.231 46.2601 160.549 42.5201C159.867 38.7801 158.675 33.5101 160.038 32.3201C161.401 31.1301 163.957 30.4501 164.298 32.8301C164.639 35.2101 164.127 39.8001 164.639 40.8201C165.15 41.8401 166.854 41.1601 166.854 39.1201C166.854 35.7609 165.491 32.3201 165.975 28.9201C166.656 24.2213 171.427 23.7045 171.939 28.9201C172.225 31.8033 172.307 34.7477 172.307 37.6445C172.307 38.8345 174.351 39.5145 174.181 36.6245C174.058 34.5845 175.544 32.2045 177.589 32.8845C179.634 33.5645 177.93 42.5745 177.248 44.1045C176.567 45.6345 172.307 45.9201 172.307 45.9201V49.8301L167.195 50.0001L167.024 46.0901C165.983 46.6904 164.816 47.0396 163.616 47.1101V47.1101Z" fill="#CBCBCB" stroke="#263238" stroke-linecap="round" stroke-linejoin="round"/>
<path d="M168.217 39.6572C168.278 40.5072 168.319 41.0172 168.319 41.0172" stroke="#263238" stroke-linecap="round" stroke-linejoin="round"/>
<path d="M168.558 26.4722C168.558 26.4722 167.44 27.2474 167.522 29.573C167.576 30.9874 167.849 34.9042 168.06 37.767" stroke="#263238" stroke-linecap="round" stroke-linejoin="round"/>
<path d="M170.48 34.4893L170.657 40.1809" stroke="#263238" stroke-linecap="round" stroke-linejoin="round"/>
<path d="M172.975 43.8801C172.58 43.9414 172.181 43.9755 171.782 43.9821" stroke="#263238" stroke-linecap="round" stroke-linejoin="round"/>
<path d="M176.533 34.3193C176.139 35.0637 175.931 35.8917 175.926 36.7333C175.926 38.0933 176.015 41.9081 175.149 42.9417C174.938 43.1738 174.68 43.3591 174.393 43.4857" stroke="#263238" stroke-linecap="round" stroke-linejoin="round"/>
<path d="M161.742 41.9692C161.947 42.9916 162.439 43.9349 163.16 44.6892C163.587 45.0299 164.113 45.2222 164.659 45.2369C165.206 45.2516 165.742 45.088 166.186 44.7708" stroke="#263238" stroke-linecap="round" stroke-linejoin="round"/>
<path d="M161.579 32.769C161.579 32.769 159.854 32.769 160.454 35.7814C160.713 37.053 160.951 38.617 161.258 40.0926" stroke="#263238" stroke-linecap="round" stroke-linejoin="round"/>
<path d="M168.06 44.2336L168.407 47.9396" stroke="#263238" stroke-linecap="round" stroke-linejoin="round"/>
<path d="M176.907 48.3L176.287 53.3728L175.864 56.8272L175.374 60.846H163.112L162.621 56.8272L162.198 53.3728L161.578 48.3H176.907Z" fill="white" stroke="#263238" stroke-linecap="round" stroke-linejoin="round"/>
<path d="M176.287 53.3728L175.865 56.8272H162.621L162.199 53.3728H176.287Z" fill="#CBCBCB" stroke="#263238" stroke-linecap="round" stroke-linejoin="round"/>
<path d="M183.642 60.8462H104.938V66.0482H183.642V60.8462Z" fill="white" stroke="#263238" stroke-linecap="round" stroke-linejoin="round"/>
<path d="M183.642 60.8462H165.498V66.0482H183.642V60.8462Z" fill="white" stroke="#263238" stroke-linecap="round" stroke-linejoin="round"/>
<path d="M163.732 66.0686C172.164 69.1694 170.644 75.031 170.644 75.031H178.625V66.0686H163.732Z" fill="#919191" stroke="#263238" stroke-linecap="round" stroke-linejoin="round"/>
<path d="M166.425 66.0686C174.849 69.1694 173.329 75.031 173.329 75.031H181.318V66.0686H166.425Z" fill="white" stroke="#263238" stroke-linecap="round" stroke-linejoin="round"/>
<path d="M109.715 66.0686C118.147 69.1694 116.627 75.031 116.627 75.031H124.608V66.0686H109.715Z" fill="#919191" stroke="#263238" stroke-linecap="round" stroke-linejoin="round"/>
<path d="M112.408 66.0686C120.832 69.1694 119.312 75.031 119.312 75.031H127.301V66.0686H112.408Z" fill="white" stroke="#263238" stroke-linecap="round" stroke-linejoin="round"/>
<path d="M293.318 34.3262H222.731V132.083H293.318V34.3262Z" fill="#919191" stroke="#263238" stroke-linecap="round" stroke-linejoin="round"/>
<path d="M290.258 38.5693H225.799V127.84H290.258V38.5693Z" fill="#CBCBCB"/>
<path opacity="0.5" d="M290.258 38.5693H225.799V127.84H290.258V38.5693Z" fill="white"/>
<path d="M239.969 121.06C238.241 123.69 236.057 125.993 233.521 127.86H290.257V38.5693H279.802L278.438 38.9977C268.214 42.2141 257.65 51.5233 251.658 68.4417" stroke="#263238" stroke-linecap="round" stroke-linejoin="round"/>
<path d="M250.664 71.4065C248.283 79.4749 246.968 87.8186 246.751 96.2265C246.376 106.318 244.223 113.573 241.346 118.789" stroke="#263238" stroke-linecap="round" stroke-linejoin="round"/>
<path d="M283.953 61.2271C274.581 66.6671 263.668 75.8062 259.592 89.8211C257.405 97.3011 259.456 104.047 263.512 109.82" stroke="#263238" stroke-linecap="round" stroke-linejoin="round"/>
<path d="M265.707 112.635C271.33 119.204 279.339 124.372 285.821 127.847H290.258V57.929C288.99 58.5206 287.64 59.187 286.236 59.969" stroke="#263238" stroke-linecap="round" stroke-linejoin="round"/>
<path d="M236.514 61.8457C241.448 51.8089 241.966 43.8461 241.401 38.5693H225.812V79.4101C228.116 76.1393 230.938 71.7669 234.346 65.9053C234.557 65.5449 234.755 65.2253 234.953 64.8445" stroke="#263238" stroke-linecap="round" stroke-linejoin="round"/>
<path d="M242.621 100.504C241.864 105.447 239.588 109.038 236.902 109.038C233.597 109.038 230.911 103.598 230.911 96.8658C230.911 90.1338 233.597 84.6938 236.902 84.6938C240.208 84.6938 242.894 90.1338 242.894 96.8658" stroke="#263238" stroke-linecap="round" stroke-linejoin="round"/>
<path d="M245.463 71.8826C245.463 74.4734 244.318 76.5814 242.893 76.5814C241.469 76.5814 240.331 74.4734 240.331 71.8826C240.331 69.2918 241.476 67.1838 242.893 67.1838C244.311 67.1838 245.463 69.285 245.463 71.8826Z" stroke="#263238" stroke-linecap="round" stroke-linejoin="round"/>
<path d="M278.166 91.7317C280.64 92.9081 282.256 94.9617 282.256 97.2941C282.256 100.946 278.234 103.91 273.265 103.91C268.296 103.91 264.282 100.946 264.282 97.2941C264.282 93.6425 268.303 90.6709 273.265 90.6709C274.057 90.6704 274.847 90.7478 275.624 90.9021" stroke="#263238" stroke-linecap="round" stroke-linejoin="round"/>
<path d="M277.055 97.2941C277.055 98.8241 275.372 100.069 273.286 100.069C271.2 100.069 269.517 98.8241 269.517 97.2941C269.517 95.7641 271.207 94.5129 273.286 94.5129C275.365 94.5129 277.055 95.7573 277.055 97.2941Z" stroke="#263238" stroke-linecap="round" stroke-linejoin="round"/>
<path d="M283.135 80.4233C283.135 82.5449 281.028 84.2653 278.425 84.2653C275.821 84.2653 273.715 82.5449 273.715 80.4233C273.715 78.3017 275.821 76.5813 278.425 76.5813C281.028 76.5813 283.135 78.3017 283.135 80.4233Z" stroke="#263238" stroke-linecap="round" stroke-linejoin="round"/>
<path d="M249.103 59.0713C250.876 59.0713 252.313 55.5336 252.313 51.1697C252.313 46.8057 250.876 43.2681 249.103 43.2681C247.33 43.2681 245.893 46.8057 245.893 51.1697C245.893 55.5336 247.33 59.0713 249.103 59.0713Z" stroke="#263238" stroke-linecap="round" stroke-linejoin="round"/>
<path d="M257.882 119.075C257.882 119.962 257.618 120.83 257.124 121.568C256.629 122.306 255.927 122.881 255.105 123.221C254.283 123.561 253.378 123.65 252.506 123.476C251.633 123.303 250.832 122.876 250.202 122.248C249.573 121.621 249.145 120.821 248.971 119.95C248.798 119.08 248.887 118.177 249.227 117.357C249.568 116.537 250.144 115.836 250.884 115.343C251.624 114.85 252.494 114.587 253.383 114.587C254.576 114.587 255.721 115.06 256.564 115.901C257.408 116.743 257.882 117.884 257.882 119.075Z" stroke="#263238" stroke-linecap="round" stroke-linejoin="round"/>
<path d="M278.854 52.4482C278.856 52.9989 278.693 53.5375 278.387 53.9959C278.082 54.4543 277.646 54.8119 277.137 55.0232C276.627 55.2346 276.066 55.2902 275.524 55.1831C274.983 55.076 274.486 54.811 274.095 54.4216C273.705 54.0323 273.439 53.5361 273.332 52.9959C273.225 52.4558 273.28 51.896 273.492 51.3876C273.704 50.8791 274.063 50.4448 274.522 50.1397C274.982 49.8346 275.521 49.6725 276.073 49.6738C276.81 49.6756 277.517 49.9685 278.038 50.4884C278.559 51.0083 278.853 51.713 278.854 52.4482Z" stroke="#263238" stroke-linecap="round" stroke-linejoin="round"/>
<path d="M261.303 72.0935C261.305 72.3896 261.218 72.6795 261.054 72.9264C260.89 73.1734 260.656 73.3662 260.382 73.4804C260.108 73.5947 259.807 73.6253 259.515 73.5683C259.224 73.5114 258.956 73.3695 258.746 73.1605C258.535 72.9516 258.392 72.685 258.334 72.3946C258.275 72.1043 258.304 71.8031 258.418 71.5293C258.531 71.2556 258.723 71.0216 258.97 70.8569C259.217 70.6922 259.507 70.6043 259.804 70.6043C260 70.6034 260.195 70.6412 260.377 70.7157C260.559 70.7901 260.724 70.8997 260.864 71.038C261.003 71.1764 261.114 71.3409 261.189 71.522C261.264 71.7031 261.303 71.8973 261.303 72.0935V72.0935Z" stroke="#263238" stroke-linecap="round" stroke-linejoin="round"/>
<path d="M290.258 38.5693H225.799V127.84H290.258V38.5693Z" stroke="#263238" stroke-linecap="round" stroke-linejoin="round"/>
<path d="M184.909 165.865H167.399V172.441H184.909V165.865Z" fill="#263238" stroke="#263238" stroke-linecap="round" stroke-linejoin="round"/>
<path d="M208.404 166.858H138.71L142.009 112.961H211.71L208.404 166.858Z" fill="#919191" stroke="#263238" stroke-linecap="round" stroke-linejoin="round"/>
<path d="M206.407 166.858H136.714L140.013 112.961H209.706L206.407 166.858Z" fill="#263238" stroke="#263238" stroke-linecap="round" stroke-linejoin="round"/>
<path d="M202.72 163.859H140.769L143.7 115.953H205.651L202.72 163.859Z" fill="white" stroke="#263238" stroke-linecap="round" stroke-linejoin="round"/>
<path d="M184.698 156.719H142.616L144.872 119.802H186.961L184.698 156.719Z" fill="#919191" stroke="#263238" stroke-linecap="round" stroke-linejoin="round"/>
<path d="M159.22 140.862C159.22 140.862 150.455 144.323 150.4 145.255C150.346 146.186 148.628 156.719 148.628 156.719H174.692L172.498 144.588L162.853 140.59L159.22 140.862Z" fill="white" stroke="#263238" stroke-linecap="round" stroke-linejoin="round"/>
<path d="M159.479 138.727C158.819 138.9 158.207 139.218 157.686 139.658C157.005 140.338 156.173 142.589 156.173 142.589L156.139 145.255L159.595 143.391L163.105 143.16L166.39 146.227L166.813 141.562C166.813 141.562 166.309 138.897 165.245 138.761C164.182 138.625 159.479 138.727 159.479 138.727Z" fill="white" stroke="#263238" stroke-linecap="round" stroke-linejoin="round"/>
<path d="M159.37 136.197L159.22 140.862L161.285 144.194L164.7 140.726L165.232 136.462L159.37 136.197Z" fill="white" stroke="#263238" stroke-linecap="round" stroke-linejoin="round"/>
<path d="M167.794 130.743C167.549 134.653 164.945 139.393 162.089 139.393C159.234 139.393 157.209 134.633 157.448 130.743C157.686 126.854 160.174 123.665 163.051 123.665C165.927 123.665 168.033 126.84 167.794 130.743Z" fill="white" stroke="#263238" stroke-linecap="round" stroke-linejoin="round"/>
<path d="M157.4 131.26C157.4 131.26 156.48 128.867 156.098 130.73C155.717 132.593 157.598 134.592 157.598 134.592L157.4 131.26Z" fill="white" stroke="#263238" stroke-linecap="round" stroke-linejoin="round"/>
<path d="M167.795 130.744C167.795 130.744 170.051 129.798 169.39 131.798C169.222 132.363 168.929 132.884 168.533 133.322C168.136 133.76 167.647 134.103 167.1 134.327L167.795 130.744Z" fill="white" stroke="#263238" stroke-linecap="round" stroke-linejoin="round"/>
<path d="M161.81 131.26C161.828 131.02 161.795 130.779 161.715 130.552C161.634 130.325 161.507 130.117 161.342 129.942C161.177 129.767 160.976 129.628 160.754 129.534C160.532 129.44 160.293 129.393 160.051 129.397C159.549 129.41 159.069 129.607 158.703 129.951C158.337 130.295 158.111 130.761 158.068 131.26C158.05 131.5 158.082 131.742 158.163 131.969C158.243 132.197 158.37 132.405 158.535 132.58C158.701 132.756 158.901 132.896 159.123 132.991C159.345 133.085 159.585 133.133 159.826 133.13C160.33 133.117 160.811 132.919 161.177 132.574C161.543 132.228 161.768 131.761 161.81 131.26V131.26Z" fill="white" stroke="#263238" stroke-linecap="round" stroke-linejoin="round"/>
<path d="M166.35 131.26L168.388 130.73" stroke="#263238" stroke-linecap="round" stroke-linejoin="round"/>
<path d="M166.349 131.26C166.367 131.021 166.335 130.78 166.255 130.554C166.175 130.327 166.049 130.12 165.884 129.945C165.719 129.77 165.52 129.63 165.298 129.536C165.077 129.442 164.838 129.395 164.598 129.397C164.094 129.409 163.613 129.605 163.245 129.949C162.878 130.293 162.651 130.76 162.607 131.26C162.589 131.501 162.622 131.742 162.702 131.969C162.783 132.197 162.91 132.405 163.075 132.581C163.24 132.756 163.44 132.896 163.663 132.991C163.885 133.085 164.124 133.133 164.366 133.13C164.869 133.117 165.35 132.919 165.716 132.574C166.082 132.229 166.308 131.761 166.349 131.26V131.26Z" fill="white" stroke="#263238" stroke-linecap="round" stroke-linejoin="round"/>
<path d="M162.587 122.862C162.587 122.862 160.542 121.801 159.009 122.468C157.475 123.134 156.344 126.731 156.419 127.663C156.659 128.884 156.987 130.086 157.4 131.26L159.022 126.595L163.275 124.732L162.587 122.862Z" fill="#263238" stroke="#263238" stroke-linecap="round" stroke-linejoin="round"/>
<path d="M160.529 123.801C160.529 123.801 163.896 121.135 166.622 122.441C167.457 122.802 168.146 123.431 168.582 124.228C169.018 125.025 169.175 125.944 169.028 126.84C168.987 127.52 168.933 130.567 168.933 130.567L167.311 130.839L166.513 128.329C165.592 127.966 164.695 127.543 163.828 127.065C163.828 127.065 160.222 126.595 160.529 123.801Z" fill="#263238" stroke="#263238" stroke-linecap="round" stroke-linejoin="round"/>
<path d="M161.81 131.26L161.571 135.129H162.505" fill="white"/>
<path d="M161.81 131.26L161.571 135.129H162.505" stroke="#263238" stroke-linecap="round" stroke-linejoin="round"/>
<path d="M161.081 136.591H163.085" stroke="#263238" stroke-linecap="round" stroke-linejoin="round"/>
<path d="M161.285 144.194L160.542 156.318" stroke="#263238" stroke-linecap="round" stroke-linejoin="round"/>
<path d="M172.484 144.588C172.484 144.588 169.696 150.858 169.615 152.191C169.533 153.523 169.219 156.454 169.219 156.454" stroke="#263238" stroke-linecap="round" stroke-linejoin="round"/>
<path d="M150.4 145.255C150.4 145.255 153.174 150.055 153.535 150.695C153.897 151.334 153.453 156.427 153.453 156.427" stroke="#263238" stroke-linecap="round" stroke-linejoin="round"/>
<path d="M174.345 149.124L175.265 144.989L176.833 143.391L178.312 140.991H178.98L178.162 143.527L180.234 142.324L181.57 140.195L182.347 140.59L180.438 145.527L177.412 146.989L176.887 148.988L174.345 149.124Z" fill="white" stroke="#263238" stroke-linecap="round" stroke-linejoin="round"/>
<path d="M176.935 156.719L177.187 148.457L174.147 147.92L171.748 156.719H176.935Z" fill="white" stroke="#263238" stroke-linecap="round" stroke-linejoin="round"/>
<path d="M184.514 159.786H142.425L142.616 156.719H184.698L184.514 159.786Z" fill="white" stroke="#263238" stroke-linecap="round" stroke-linejoin="round"/>
<path d="M144.143 157.923H182.756" stroke="#263238" stroke-linecap="round" stroke-linejoin="round"/>
<path d="M202.788 129.655H188.624L189.224 119.925H203.387L202.788 129.655Z" fill="#CBCBCB" stroke="#263238" stroke-linecap="round" stroke-linejoin="round"/>
<path d="M202.788 129.655H188.624L188.726 128.057H202.89L202.788 129.655Z" fill="white" stroke="#263238" stroke-linecap="round" stroke-linejoin="round"/>
<path d="M198.214 124.222L194.533 122.026L194.268 126.419L198.214 124.222Z" fill="white" stroke="#263238" stroke-linecap="round" stroke-linejoin="round"/>
<path d="M201.868 144.717H187.704L188.297 134.993H202.461L201.868 144.717Z" fill="#CBCBCB" stroke="#263238" stroke-linecap="round" stroke-linejoin="round"/>
<path d="M201.868 144.717H187.704L187.806 143.119H201.963L201.868 144.717Z" fill="white" stroke="#263238" stroke-linecap="round" stroke-linejoin="round"/>
<path d="M197.294 139.291L193.613 137.095L193.348 141.488L197.294 139.291Z" fill="white" stroke="#263238" stroke-linecap="round" stroke-linejoin="round"/>
<path d="M200.941 159.786H186.784L187.377 150.055H201.54L200.941 159.786Z" fill="#CBCBCB" stroke="#263238" stroke-linecap="round" stroke-linejoin="round"/>
<path d="M200.941 159.786H186.784L186.879 158.188H201.043L200.941 159.786Z" fill="white" stroke="#263238" stroke-linecap="round" stroke-linejoin="round"/>
<path d="M196.367 154.353L192.693 152.157L192.42 156.55L196.367 154.353Z" fill="white" stroke="#263238" stroke-linecap="round" stroke-linejoin="round"/>
<path d="M188.665 131.26H202.42" stroke="#263238" stroke-linecap="round" stroke-linejoin="round"/>
<path d="M188.563 132.865H202.324" stroke="#263238" stroke-linecap="round" stroke-linejoin="round"/>
<path d="M187.731 146.458H201.493" stroke="#263238" stroke-linecap="round" stroke-linejoin="round"/>
<path d="M187.636 148.056H201.397" stroke="#263238" stroke-linecap="round" stroke-linejoin="round"/>
<path d="M181.631 172.441H171.285C171.285 171.411 171.695 170.424 172.425 169.696C173.154 168.967 174.144 168.558 175.177 168.558H177.726C178.758 168.558 179.748 168.967 180.478 169.696C181.208 170.424 181.618 171.411 181.618 172.441H181.631Z" fill="white" stroke="#263238" stroke-linecap="round" stroke-linejoin="round"/>
<path d="M166.356 170.326H115.768V172.441H166.356V170.326Z" fill="#919191" stroke="#263238" stroke-linecap="round" stroke-linejoin="round"/>
<path d="M166.343 170.326H153.631V172.441H166.343V170.326Z" fill="white" stroke="#263238" stroke-linecap="round" stroke-linejoin="round"/>
<path d="M95.0337 68.7886V28.6074" stroke="#263238" stroke-linecap="round" stroke-linejoin="round"/>
<path d="M95.0337 269.885V72.7871" stroke="#263238" stroke-linecap="round" stroke-linejoin="round"/>
<path d="M187.008 186.544L193.143 269.049C193.175 269.35 193.32 269.627 193.55 269.825C193.78 270.023 194.077 270.126 194.38 270.113C194.683 270.1 194.97 269.972 195.182 269.755C195.394 269.538 195.516 269.249 195.521 268.947L194.601 186.544H187.008Z" fill="#919191" stroke="#263238" stroke-linecap="round" stroke-linejoin="round"/>
<path d="M191.637 186.544L194.874 270.001C195.065 269.899 195.225 269.747 195.335 269.561C195.446 269.375 195.503 269.163 195.501 268.947L194.602 186.544H191.637Z" fill="white" stroke="#263238" stroke-linecap="round" stroke-linejoin="round"/>
<path d="M225.567 186.544L231.701 269.049C231.733 269.35 231.879 269.627 232.109 269.825C232.339 270.023 232.635 270.126 232.939 270.113C233.242 270.1 233.529 269.972 233.741 269.755C233.953 269.538 234.074 269.249 234.08 268.947L233.16 186.544H225.567Z" fill="#919191" stroke="#263238" stroke-linecap="round" stroke-linejoin="round"/>
<path d="M229.833 186.544L233.61 269.878C233.751 269.768 233.865 269.626 233.943 269.465C234.021 269.303 234.061 269.126 234.059 268.947L233.16 186.544H229.833Z" fill="white" stroke="#263238" stroke-linecap="round" stroke-linejoin="round"/>
<path d="M123.926 187.442L117.792 269.042C117.771 269.341 117.637 269.622 117.417 269.826C117.197 270.031 116.907 270.144 116.606 270.144V270.144C116.448 270.146 116.291 270.118 116.145 270.06C115.998 270.001 115.864 269.915 115.752 269.805C115.639 269.695 115.549 269.563 115.487 269.418C115.426 269.274 115.393 269.118 115.393 268.96L116.299 187.224L123.926 187.442Z" fill="#263238" stroke="#263238" stroke-linecap="round" stroke-linejoin="round"/>
<path d="M85.4025 187.442L79.268 269.042C79.2473 269.341 79.1132 269.622 78.893 269.826C78.6728 270.031 78.3829 270.144 78.0821 270.143V270.143C77.9248 270.143 77.7693 270.111 77.6245 270.05C77.4797 269.989 77.3484 269.9 77.2382 269.788C77.128 269.676 77.041 269.543 76.9823 269.398C76.9236 269.252 76.8943 269.097 76.8961 268.94L77.8026 187.204L85.4025 187.442Z" fill="#263238" stroke="#263238" stroke-linecap="round" stroke-linejoin="round"/>
<path d="M235.416 174.359H75.4917V187.211H235.416V174.359Z" fill="#919191" stroke="#263238" stroke-linecap="round" stroke-linejoin="round"/>
<path d="M235.416 174.359H189.585V187.211H235.416V174.359Z" fill="white" stroke="#263238" stroke-linecap="round" stroke-linejoin="round"/>
<path d="M235.416 176.399H75.4917V179.941H235.416V176.399Z" fill="#263238" stroke="#263238" stroke-linecap="round" stroke-linejoin="round"/>
<path d="M237.719 172.516H73.188V176.813H237.719V172.516Z" fill="#919191" stroke="#263238" stroke-linecap="round" stroke-linejoin="round"/>
<path d="M237.713 172.516H192.529V176.813H237.713V172.516Z" fill="white" stroke="#263238" stroke-linecap="round" stroke-linejoin="round"/>
<path d="M189.204 92.8401H166.997C165.84 92.8401 164.731 93.2986 163.912 94.1148C163.094 94.9309 162.635 96.0379 162.635 97.1921V105.352C162.634 105.924 162.746 106.49 162.965 107.019C163.184 107.547 163.505 108.027 163.91 108.431C164.316 108.836 164.797 109.156 165.327 109.375C165.856 109.593 166.424 109.705 166.997 109.704H178.625L174.27 121.842L182.612 109.704H189.204C189.777 109.705 190.344 109.593 190.874 109.375C191.404 109.156 191.885 108.836 192.29 108.431C192.695 108.027 193.017 107.547 193.236 107.019C193.454 106.49 193.567 105.924 193.566 105.352V97.1921C193.566 96.0379 193.106 94.9309 192.288 94.1148C191.47 93.2986 190.361 92.8401 189.204 92.8401Z" fill="white" stroke="#263238" stroke-linecap="round" stroke-linejoin="round"/>
<path d="M172.15 103.129C173.027 103.129 173.738 102.419 173.738 101.544C173.738 100.669 173.027 99.9597 172.15 99.9597C171.273 99.9597 170.562 100.669 170.562 101.544C170.562 102.419 171.273 103.129 172.15 103.129Z" fill="#263238"/>
<path d="M178.1 103.129C178.977 103.129 179.688 102.419 179.688 101.544C179.688 100.669 178.977 99.9597 178.1 99.9597C177.223 99.9597 176.512 100.669 176.512 101.544C176.512 102.419 177.223 103.129 178.1 103.129Z" fill="#263238"/>
<path d="M185.632 101.544C185.632 101.23 185.539 100.924 185.364 100.663C185.189 100.402 184.941 100.199 184.65 100.08C184.36 99.96 184.04 99.929 183.732 99.9907C183.424 100.052 183.141 100.204 182.919 100.426C182.697 100.648 182.546 100.931 182.486 101.239C182.425 101.547 182.458 101.866 182.579 102.155C182.7 102.445 182.905 102.692 183.167 102.865C183.429 103.038 183.737 103.13 184.051 103.128C184.259 103.128 184.465 103.087 184.658 103.008C184.85 102.928 185.025 102.811 185.172 102.664C185.318 102.517 185.435 102.342 185.514 102.15C185.593 101.958 185.633 101.752 185.632 101.544Z" fill="#263238"/>
<path d="M294.654 270.32H313.057" stroke="#263238" stroke-linecap="round" stroke-linejoin="round"/>
<path d="M4.29199 270.32H285.111" stroke="#263238" stroke-linecap="round" stroke-linejoin="round"/>
<path d="M112.421 150.151C110.424 146.751 104.549 133.661 104.549 133.661C104.726 132.262 105.013 130.88 105.408 129.526C105.892 128.166 107.112 124.046 106.866 123.189C106.621 122.332 103.083 120.754 102.722 120.632C102.361 120.51 103.206 118.442 101.863 117.953C100.521 117.463 100.037 118.198 100.037 118.198L99.5254 121.598L97.9577 124.046C97.3049 123.55 96.622 123.096 95.9129 122.686C94.8155 122.074 92.2527 121.829 92.13 122.808C92.0073 123.787 94.1748 124.63 94.9314 125.242C95.688 125.854 96.6422 128.772 97.501 129.628C98.2814 130.478 99.0141 131.37 99.6958 132.301L100.187 133.885C100.187 133.885 101.856 149.926 102.054 153.918C102.252 157.91 102.852 168.47 104.051 170.061C105.251 171.652 105.455 172.659 108.822 171.462C112.19 170.265 112.817 168.667 113.594 165.077C114.371 161.486 114.418 153.537 112.421 150.151Z" fill="white" stroke="#263238" stroke-linecap="round" stroke-linejoin="round"/>
<path d="M113.62 165.097C114.418 161.513 114.418 153.537 112.421 150.137C112.203 149.763 111.937 149.28 111.637 148.709C107.118 147.397 102.824 149.539 102.824 149.539L101.733 150.015C101.877 151.681 101.986 153.075 102.026 153.925C102.231 157.909 102.824 168.477 104.024 170.068C105.223 171.659 105.428 172.665 108.795 171.469C112.162 170.272 112.816 168.687 113.62 165.097Z" fill="#CBCBCB" stroke="#263238" stroke-linecap="round" stroke-linejoin="round"/>
<path d="M97.8488 96.2402C98.341 98.044 98.6156 99.8999 98.6668 101.769C98.6668 104.427 97.8488 106.066 99.0825 106.882C100.316 107.698 101.339 107.705 101.127 109.344C101.046 110.248 100.687 111.106 100.098 111.799C100.098 111.799 99.6892 120.19 99.2802 121.013C98.8712 121.835 93.5343 120.809 92.3006 120.598C91.0669 120.387 87.5839 122.033 85.321 117.531C83.0581 113.029 84.9121 106.27 89.0153 102.789C91.8376 100.446 94.7866 98.2603 97.8488 96.2402V96.2402Z" fill="white" stroke="#263238" stroke-linecap="round" stroke-linejoin="round"/>
<path d="M98.6669 101.735C98.6669 101.735 97.5559 100.905 96.9697 102.36" stroke="#263238" stroke-linecap="round" stroke-linejoin="round"/>
<path d="M97.6715 105.121C97.5124 105.946 97.5638 106.797 97.8211 107.596" stroke="#263238" stroke-linecap="round" stroke-linejoin="round"/>
<path d="M99.7161 114.736C99.5339 114.795 99.3415 114.814 99.1513 114.793C98.9612 114.773 98.7775 114.712 98.6123 114.616C98.447 114.52 98.304 114.39 98.1923 114.235C98.0807 114.08 98.003 113.903 97.9644 113.716" stroke="#263238" stroke-linecap="round" stroke-linejoin="round"/>
<path d="M102.041 153.224C102.041 153.224 101.359 156.339 100.753 157.984C100.146 159.63 89.2677 162.649 84.5306 163.275C81.41 163.663 78.2693 163.87 75.1245 163.893L75.4244 172.502C75.4244 172.502 84.5988 172.686 85.2463 172.502C85.8938 172.319 101.339 165.43 101.339 165.43L108.005 164.56C108.005 164.56 110.806 163.88 110.915 161.711C111.024 159.541 108.55 153.374 107.426 152.415C106.301 151.456 103.929 148.913 102.504 150.477C101.08 152.041 102.041 153.224 102.041 153.224Z" fill="white" stroke="#263238" stroke-linecap="round" stroke-linejoin="round"/>
<path d="M81.586 168.681C81.586 164.961 82.5402 164.866 83.6308 163.39C80.8127 163.704 77.9803 163.872 75.1448 163.893L74.9199 171.795C74.9199 171.795 79.9433 172.257 83.0037 172.475C82.7515 172.863 81.586 171.074 81.586 168.681Z" fill="#CBCBCB" stroke="#263238" stroke-linecap="round" stroke-linejoin="round"/>
<path d="M111.208 185.409C107.578 181.34 102.965 178.266 97.8074 176.48L85.8385 181.573C84.909 179.297 83.6755 177.156 82.1715 175.209L79.9358 172.489L81.374 164.689C81.374 164.689 89.9894 158.8 91.1004 156.25L91.1413 156.169C92.8726 158.841 100.384 170.408 101.795 171.53C103.39 172.808 108.175 172.965 110.247 171.054C112.319 169.143 113.28 167.871 112.803 165.009C112.803 165.009 109.613 158.161 107.854 155.135C106.096 152.109 102.272 141.29 100.357 137.945C98.9934 135.551 98.4276 133.865 97.4598 132.736C96.7878 131.581 95.995 130.5 95.0946 129.513C93.1793 127.473 87.9105 126.963 86.7927 126.487C85.6749 126.011 85.5181 125.847 79.1384 123.943C72.7586 122.039 65.5745 120.917 60.4693 124.895C60.4693 124.895 53.6124 133.015 50.9269 146.383C48.2414 159.752 48.0506 173.284 47.737 175.671C47.4235 178.058 44.7039 189.679 43.9065 196.363C43.109 203.048 50.1022 209.759 54.4099 211.84C58.7176 213.921 77.2231 214.227 88.0741 211.84C98.9252 209.453 116.156 198.628 116.156 198.628C116.156 198.628 116.79 191.937 111.208 185.409Z" fill="#CBCBCB" stroke="#263238" stroke-linecap="round" stroke-linejoin="round"/>
<path d="M82.9965 155.999L80.8086 155.924" stroke="#263238" stroke-linecap="round" stroke-linejoin="round"/>
<path d="M82.1714 152.524C85.2363 153.554 88.2207 154.809 91.1004 156.277L85.484 156.087" stroke="#263238" stroke-linecap="round" stroke-linejoin="round"/>
<path d="M111.815 156.542C112.444 157.529 112.832 158.649 112.946 159.813C112.946 161.316 113.198 163.329 112.571 162.703C111.944 162.078 111.685 159.936 111.685 159.936L111.815 156.542Z" fill="white" stroke="#263238" stroke-linecap="round" stroke-linejoin="round"/>
<path d="M108.039 154.788C108.039 154.788 110.397 153.51 111.447 155.047C112.496 156.583 112.217 159.65 111.447 161.167C110.676 162.683 109.797 161.235 109.906 159.888C110.015 158.542 108.039 154.788 108.039 154.788Z" fill="white" stroke="#263238" stroke-linecap="round" stroke-linejoin="round"/>
<path d="M107.153 153.156C107.153 153.156 109.518 151.878 110.561 153.415C111.604 154.951 111.324 158.011 110.561 159.535C109.797 161.058 108.911 159.603 109.02 158.256C109.129 156.91 107.153 153.156 107.153 153.156Z" fill="white" stroke="#263238" stroke-linecap="round" stroke-linejoin="round"/>
<path d="M106.068 151.395C106.068 151.395 108.434 150.117 109.476 151.653C110.519 153.19 110.247 156.257 109.476 157.773C108.706 159.29 107.827 157.841 107.936 156.495C108.045 155.149 106.068 151.395 106.068 151.395Z" fill="white" stroke="#263238" stroke-linecap="round" stroke-linejoin="round"/>
<path d="M100.084 89.855C100.123 92.2989 99.4916 94.7069 98.2574 96.8182C94.7676 102.143 91.4891 101.524 90.0782 105.828C88.6672 110.133 86.5611 114.6 88.8104 117.089C91.0597 119.578 92.9 118.109 92.9 118.109C92.9 118.109 94.3382 121.795 90.6439 125.48C86.9496 129.166 80.5903 127.731 78.9476 127.119C77.9132 126.721 76.9456 126.169 76.0781 125.48C76.0781 125.48 75.0489 128.35 69.9437 128.35C64.8385 128.35 59.0381 124.868 59.0381 118.517C59.0381 112.166 62.5211 107.875 63.3458 105.413C64.1705 102.952 61.9076 95.3834 65.3906 90.6778C68.8736 85.9722 74.2514 82.5178 78.341 82.5178C82.4306 82.5178 90.4121 84.755 90.4462 84.7686C90.9847 85.061 94.4336 83.6602 95.3674 83.7214C98.7958 83.9118 100.043 86.7202 100.084 89.855Z" fill="#263238" stroke="#263238" stroke-linecap="round" stroke-linejoin="round"/>
<path d="M86.7661 118.979C87.5103 119.078 88.2644 119.078 89.0086 118.979" stroke="#919191" stroke-linecap="round" stroke-linejoin="round"/>
<path d="M97.1263 93.425C96.8026 95.2478 96.1291 96.9911 95.1428 98.5591C91.9529 103.557 88.3268 105.359 83.985 110.119C81.1973 113.199 81.7221 116.273 83.985 117.885" stroke="#919191" stroke-linecap="round" stroke-linejoin="round"/>
<path d="M97.1875 88.1143C97.32 88.864 97.386 89.6241 97.3847 90.3855" stroke="#919191" stroke-linecap="round" stroke-linejoin="round"/>
<path d="M92.9002 92.8811C92.9002 92.8811 92.2186 99.9191 89.2605 104.006C86.3024 108.093 80.3997 110.126 80.611 114.451" stroke="#919191" stroke-linecap="round" stroke-linejoin="round"/>
<path d="M120.368 210.691C120.368 210.691 124.621 232.492 128.261 243.086C131.901 253.681 135.541 263.371 136.44 264.282C137.34 265.193 139.78 268.518 139.78 268.518C138.652 269.417 137.274 269.946 135.834 270.035C133.707 270.035 130.981 267.315 128.547 265.791C126.114 264.268 125.821 263.371 120.961 261.555C116.101 259.739 120.055 254.898 121.268 252.47C121.97 251.16 122.383 249.716 122.481 248.234C120.552 241.415 117.133 235.108 112.469 229.765C104.896 221.292 103.376 201.64 103.376 201.64L117.942 196.2L120.368 210.691Z" fill="white" stroke="#263238" stroke-linecap="round" stroke-linejoin="round"/>
<path d="M135.841 263.194L134.962 263.371C134.962 263.371 129.802 256.407 125.863 253.987C124.52 253.062 122.94 252.538 121.31 252.477C120.09 254.898 116.15 259.739 121.003 261.555C125.856 263.371 126.163 264.275 128.589 265.791C131.016 267.308 133.749 270.035 135.875 270.035C137.316 269.946 138.694 269.417 139.822 268.518C139.822 268.518 137.389 265.186 136.482 264.282C136.224 263.947 136.009 263.582 135.841 263.194V263.194Z" fill="#CBCBCB" stroke="#263238" stroke-linecap="round" stroke-linejoin="round"/>
<path d="M133.394 269.171C130.995 267.519 128.827 263.847 124.922 261.555C121.37 259.474 119.544 259.393 118.787 259.549C118.972 260.035 119.27 260.47 119.657 260.818C120.043 261.167 120.506 261.419 121.009 261.555C125.869 263.371 126.169 264.275 128.595 265.791C130.129 266.771 131.819 268.28 133.394 269.171Z" fill="#CBCBCB" stroke="#263238" stroke-linecap="round" stroke-linejoin="round"/>
<path d="M135.841 270.035C135.686 270.029 135.531 270.013 135.377 269.987C135.53 270.016 135.685 270.032 135.841 270.035V270.035Z" fill="#CBCBCB" stroke="#263238" stroke-linecap="round" stroke-linejoin="round"/>
<path d="M93.3225 177.84C93.3225 177.84 107.909 172.686 109.272 176.086C110.635 179.486 116.879 192.168 114.602 197.377C112.325 202.585 96.3215 182.417 94.045 181.981C91.7684 181.546 93.0567 179.363 93.3225 177.84Z" fill="white" stroke="#263238" stroke-linecap="round" stroke-linejoin="round"/>
<path d="M107.616 184.484C107.616 184.484 124.199 183.124 127.382 186.075C130.565 189.026 119.66 224.379 113.75 235.484C104.487 252.851 107.289 257.4 107.289 257.4C107.289 257.4 107.97 260.12 112.517 264.431C117.063 268.743 118.426 269.416 116.831 270.096C115.236 270.776 108.427 270.096 107.745 269.64C107.064 269.185 102.068 265.111 97.5214 263.751C92.9752 262.391 93.6568 261.48 95.7016 257.4C97.7464 253.32 97.5214 256.72 99.7912 249.696C102.512 241.039 104.661 232.215 106.225 223.278C107.432 215.995 109.272 207.998 108.754 200.593L107.616 184.484Z" fill="white" stroke="#263238" stroke-linecap="round" stroke-linejoin="round"/>
<path d="M119.762 195.554C118.026 191.375 115.038 187.831 111.208 185.409C103.956 180.791 97.808 176.48 97.808 176.48L85.8391 181.573C85.8391 181.573 88.7563 186.51 73.7611 189.006C62.2148 190.923 51.6159 188.142 45.8973 184.79C45.0999 188.741 44.2683 193.133 43.8525 196.35C43.0551 203.034 50.0755 209.719 54.3832 211.793C58.691 213.867 93.398 218.157 102.743 212.167C119.762 201.307 119.762 195.554 119.762 195.554Z" fill="#263238" stroke="#263238" stroke-linecap="round" stroke-linejoin="round"/>
<path d="M84.4825 185.32C82.8807 186.633 79.759 188.04 73.7609 189.013C62.2146 190.93 51.6158 188.149 45.8971 184.797C45.6927 185.81 45.4882 186.837 45.2837 187.891C49.2029 190.243 57.4366 194.228 66.72 193.093C77.796 191.739 82.7172 188.72 84.4825 185.32Z" fill="#CBCBCB" stroke="#263238" stroke-linecap="round" stroke-linejoin="round"/>
<path d="M75.6353 199.886C75.1037 200.566 74.5516 201.246 73.9927 201.926" stroke="white" stroke-linecap="round" stroke-linejoin="round"/>
<path d="M83.9844 186.979C81.8868 190.827 79.5464 194.539 76.9775 198.091" stroke="white" stroke-linecap="round" stroke-linejoin="round"/>
<path d="M78.9891 191.284C78.9891 191.284 74.8995 196.724 70.585 199.899" stroke="white" stroke-linecap="round" stroke-linejoin="round"/>
<path d="M112.517 264.418C107.97 260.12 107.289 257.4 107.289 257.4C107.137 257.259 107.016 257.088 106.934 256.897C106.628 257.217 105.701 257.822 103.431 256.951C101.461 256.197 99.5935 254.911 97.6237 254.048C97.1534 254.884 96.6967 255.408 95.7016 257.4C93.6568 261.48 92.9752 262.391 97.5214 263.751C102.068 265.111 107.064 269.191 107.745 269.64C108.427 270.089 115.243 270.776 116.831 270.096C118.419 269.416 117.063 268.722 112.517 264.418Z" fill="#CBCBCB" stroke="#263238" stroke-linecap="round" stroke-linejoin="round"/>
<path d="M116.702 197.859L124.431 193.099" stroke="#263238" stroke-linecap="round" stroke-linejoin="round"/>
<path d="M24.3657 154.761C24.3657 154.761 48.9851 151.687 64.7164 156.121L67.1089 215.832H30.1934C30.1934 215.832 32.5722 183.756 24.3657 154.761Z" fill="#919191" stroke="#263238" stroke-linecap="round" stroke-linejoin="round"/>
<path d="M64.7164 156.121C48.9851 151.687 24.3657 154.761 24.3657 154.761C27.0003 164.425 28.7501 174.307 29.5936 184.287C43.3407 191.135 55.9315 200.083 66.9112 210.807L64.7164 156.121Z" fill="#757575" stroke="#263238" stroke-linecap="round" stroke-linejoin="round"/>
<path d="M111.139 271.68C110.861 271.681 110.589 271.597 110.36 271.439C110.131 271.281 109.956 271.057 109.858 270.796C104.405 256.136 103.042 218.076 102.96 216.464C102.948 216.104 103.079 215.753 103.326 215.489C103.573 215.225 103.914 215.069 104.276 215.057C104.637 215.044 104.989 215.175 105.254 215.421C105.518 215.668 105.674 216.008 105.687 216.369C105.687 216.764 107.104 255.598 112.414 269.844C112.54 270.182 112.525 270.557 112.375 270.884C112.224 271.212 111.949 271.467 111.61 271.592C111.46 271.651 111.301 271.681 111.139 271.68Z" fill="white" stroke="#263238" stroke-linecap="round" stroke-linejoin="round"/>
<path d="M81.4564 271.68C81.179 271.68 80.9084 271.595 80.6807 271.437C80.4529 271.279 80.2789 271.056 80.1818 270.796C74.729 256.136 73.3658 218.076 73.2772 216.464C73.2645 216.104 73.396 215.753 73.6427 215.489C73.8894 215.225 74.2311 215.069 74.5927 215.057C74.9542 215.044 75.306 215.175 75.5706 215.421C75.8352 215.668 75.991 216.008 76.0036 216.369C76.0036 216.764 77.4213 255.598 82.7378 269.844C82.8634 270.182 82.8492 270.557 82.6984 270.884C82.5476 271.212 82.2724 271.467 81.9335 271.592C81.7815 271.651 81.6196 271.681 81.4564 271.68V271.68Z" fill="white" stroke="#263238" stroke-linecap="round" stroke-linejoin="round"/>
<path d="M110.772 215.805H29.5454V213.085H108.059C108.782 213.085 109.475 213.371 109.987 213.881C110.498 214.392 110.785 215.083 110.785 215.805H110.772Z" fill="#919191" stroke="#263238" stroke-linecap="round" stroke-linejoin="round"/>
<path d="M110.765 215.145H29.5454V217.845H110.765V215.145Z" fill="white" stroke="#263238" stroke-linecap="round" stroke-linejoin="round"/>
<path d="M64.1095 271.68C63.9043 271.685 63.7008 271.643 63.5142 271.558C63.3275 271.473 63.1625 271.347 63.0315 271.189C62.9004 271.032 62.8067 270.846 62.7573 270.648C62.708 270.449 62.7042 270.242 62.7463 270.041C70.4552 233.607 63.4279 156.991 63.3325 156.223C63.3159 156.044 63.3348 155.864 63.388 155.693C63.4412 155.522 63.5277 155.363 63.6426 155.225C63.7575 155.087 63.8985 154.973 64.0575 154.889C64.2166 154.805 64.3906 154.754 64.5696 154.737C64.9311 154.704 65.2911 154.815 65.5704 155.047C65.8497 155.278 66.0254 155.611 66.0589 155.971C66.1339 156.747 73.2157 233.763 65.425 270.599C65.3615 270.902 65.1966 271.173 64.9575 271.37C64.7184 271.567 64.4193 271.676 64.1095 271.68Z" fill="white" stroke="#263238" stroke-linecap="round" stroke-linejoin="round"/>
<path d="M21.8503 270.688C21.7232 270.689 21.5967 270.671 21.4754 270.633C21.1289 270.535 20.8354 270.304 20.6592 269.99C20.4829 269.677 20.4382 269.307 20.5348 268.96C38.2564 206.196 23.2135 155.659 23.0635 155.156C22.9776 154.817 23.0254 154.459 23.1971 154.154C23.3688 153.85 23.6512 153.624 23.9858 153.521C24.3204 153.419 24.6816 153.449 24.9946 153.605C25.3076 153.761 25.5484 154.032 25.6672 154.36C25.824 154.87 41.1259 206.128 23.1589 269.695C23.0788 269.98 22.9077 270.231 22.6715 270.41C22.4353 270.589 22.147 270.687 21.8503 270.688V270.688Z" fill="white" stroke="#263238" stroke-linecap="round" stroke-linejoin="round"/>
<path d="M271.057 158.562C271.057 158.562 262.68 153.918 262.06 164.444C261.439 174.971 259.892 243.386 259.892 243.386" stroke="#263238" stroke-width="2" stroke-linecap="round" stroke-linejoin="round"/>
<path d="M257.711 165.369C257.711 165.369 264.527 180.54 261.439 242.461" stroke="#263238" stroke-width="2" stroke-linecap="round" stroke-linejoin="round"/>
<path d="M264.425 160.684C264.425 160.684 261.214 162.724 259.394 160.385C257.575 158.045 260.628 153.748 257.936 151.912C255.243 150.076 250.588 152.877 250.588 152.877C250.588 152.877 254.167 153.925 254.051 155.876C253.935 157.828 252.21 158.562 252.006 157.712C251.801 156.862 250.063 152.565 247.16 154.353C246.321 154.846 245.591 155.505 245.014 156.288C244.438 157.071 244.027 157.963 243.806 158.909C243.806 158.909 250.574 158.188 250.983 160.725C251.392 163.261 248.209 160.283 245.415 160.119C242.62 159.956 240.071 160.364 240.255 162.051C240.317 163.543 240.228 165.037 239.989 166.511C241.519 165.244 243.453 164.564 245.442 164.594C248.516 164.777 248.4 166.729 245.606 166.566C242.811 166.403 240.412 169.055 240.412 169.055C240.412 169.055 242.961 173.4 246.199 175.549C249.436 177.697 250.602 176.909 250.97 175.27C251.338 173.631 250.479 169.367 252.435 169.483C254.391 169.599 249.198 176.841 251.692 177.269C254.187 177.697 256.198 176.977 256.852 175.338L257.534 173.699C257.534 173.699 256.661 169.449 257.043 167.797C257.425 166.144 257.881 167.844 258.324 169.837C258.767 171.829 259.047 176.589 259.899 176.358C260.751 176.127 263.484 172.659 264.125 171.292C264.765 169.925 260.526 165.77 260.574 164.934C260.621 164.097 263.893 165.689 264.404 166.559C264.775 167.22 265.11 167.901 265.406 168.599C265.406 168.599 267.451 167.321 267.396 163.404C267.342 159.487 264.425 160.684 264.425 160.684Z" fill="#CBCBCB"/>
<path opacity="0.3" d="M264.425 160.684C264.425 160.684 261.214 162.724 259.394 160.385C257.575 158.045 260.628 153.748 257.936 151.912C255.243 150.076 250.588 152.877 250.588 152.877C250.588 152.877 254.167 153.925 254.051 155.876C253.935 157.828 252.21 158.562 252.006 157.712C251.801 156.862 250.063 152.565 247.16 154.353C246.321 154.846 245.591 155.505 245.014 156.288C244.438 157.071 244.027 157.963 243.806 158.909C243.806 158.909 250.574 158.188 250.983 160.725C251.392 163.261 248.209 160.283 245.415 160.119C242.62 159.956 240.071 160.364 240.255 162.051C240.317 163.543 240.228 165.037 239.989 166.511C241.519 165.244 243.453 164.564 245.442 164.594C248.516 164.777 248.4 166.729 245.606 166.566C242.811 166.403 240.412 169.055 240.412 169.055C240.412 169.055 242.961 173.4 246.199 175.549C249.436 177.697 250.602 176.909 250.97 175.27C251.338 173.631 250.479 169.367 252.435 169.483C254.391 169.599 249.198 176.841 251.692 177.269C254.187 177.697 256.198 176.977 256.852 175.338L257.534 173.699C257.534 173.699 256.661 169.449 257.043 167.797C257.425 166.144 257.881 167.844 258.324 169.837C258.767 171.829 259.047 176.589 259.899 176.358C260.751 176.127 263.484 172.659 264.125 171.292C264.765 169.925 260.526 165.77 260.574 164.934C260.621 164.097 263.893 165.689 264.404 166.559C264.775 167.22 265.11 167.901 265.406 168.599C265.406 168.599 267.451 167.321 267.396 163.404C267.342 159.487 264.425 160.684 264.425 160.684Z" fill="#263238"/>
<path d="M248.176 169.87C250.268 167.293 253.342 163.805 255.926 162.139" stroke="#263238" stroke-linecap="round" stroke-linejoin="round"/>
<path d="M245.756 173.005C245.756 173.005 246.288 172.264 247.16 171.149" stroke="#263238" stroke-linecap="round" stroke-linejoin="round"/>
<path d="M257.288 162.778C257.288 162.778 260.396 167.158 260.969 171.666" stroke="#263238" stroke-linecap="round" stroke-linejoin="round"/>
<path d="M253.758 165.369C253.758 165.369 254.63 164.859 254.303 170.435" stroke="#263238" stroke-linecap="round" stroke-linejoin="round"/>
<path d="M256.041 160.16C256.041 160.16 257.82 158.589 256.879 155.455" stroke="#263238" stroke-linecap="round" stroke-linejoin="round"/>
<path d="M253.642 162.846L252.375 160.534" stroke="#263238" stroke-linecap="round" stroke-linejoin="round"/>
<path d="M250.977 165.206C250.977 165.206 246.956 162.173 244.44 162.023" stroke="#263238" stroke-linecap="round" stroke-linejoin="round"/>
<path d="M275.848 152.422C275.848 152.422 275.719 157.019 272.12 157.243C268.521 157.467 266.299 151.483 262.618 152.925C258.938 154.367 258.583 160.922 258.583 160.922C258.583 160.922 262.073 158.059 263.954 159.501C265.835 160.942 265.399 163.173 264.384 162.819C263.368 162.465 257.902 161.248 257.711 165.369C257.634 166.544 257.797 167.722 258.19 168.832C258.582 169.942 259.196 170.962 259.994 171.829C259.994 171.829 263.886 164.573 266.721 165.893C269.557 167.212 264.384 168.368 262.311 171.047C260.239 173.726 258.903 176.548 260.737 177.521C262.277 178.472 263.716 179.577 265.031 180.819C265.031 180.819 264.54 177.024 266.817 174.08C269.093 171.135 270.968 172.577 268.903 175.256C266.837 177.935 267.86 182.145 267.86 182.145C267.86 182.145 273.953 182.559 278.315 180.785C282.678 179.01 282.705 177.323 281.301 175.821C279.897 174.318 275.044 172.291 276.489 170.381C277.934 168.47 281.669 178.629 283.802 176.426C285.936 174.223 286.576 171.727 285.377 169.952L284.177 168.184C284.177 168.184 279.324 166.144 277.92 164.648C276.516 163.152 278.54 163.846 280.837 164.757C283.134 165.668 288.103 168.64 288.458 167.627C288.812 166.613 287.183 161.507 286.256 159.956C285.329 158.406 278.254 159.786 277.45 159.167C276.646 158.549 280.469 156.366 281.689 156.447C282.604 156.523 283.514 156.648 284.416 156.821C284.416 156.821 284.525 153.911 280.558 151.293C276.591 148.675 275.848 152.422 275.848 152.422Z" fill="#CBCBCB"/>
<path opacity="0.2" d="M275.848 152.422C275.848 152.422 275.719 157.019 272.12 157.243C268.521 157.467 266.299 151.483 262.618 152.925C258.938 154.367 258.583 160.922 258.583 160.922C258.583 160.922 262.073 158.059 263.954 159.501C265.835 160.942 265.399 163.173 264.384 162.819C263.368 162.465 257.902 161.248 257.711 165.369C257.634 166.544 257.797 167.722 258.19 168.832C258.582 169.942 259.196 170.962 259.994 171.829C259.994 171.829 263.886 164.573 266.721 165.893C269.557 167.212 264.384 168.368 262.311 171.047C260.239 173.726 258.903 176.548 260.737 177.521C262.277 178.472 263.716 179.577 265.031 180.819C265.031 180.819 264.54 177.024 266.817 174.08C269.093 171.135 270.968 172.577 268.903 175.256C266.837 177.935 267.86 182.145 267.86 182.145C267.86 182.145 273.953 182.559 278.315 180.785C282.678 179.01 282.705 177.323 281.301 175.821C279.897 174.318 275.044 172.291 276.489 170.381C277.934 168.47 281.669 178.629 283.802 176.426C285.936 174.223 286.576 171.727 285.377 169.952L284.177 168.184C284.177 168.184 279.324 166.144 277.92 164.648C276.516 163.152 278.54 163.846 280.837 164.757C283.134 165.668 288.103 168.64 288.458 167.627C288.812 166.613 287.183 161.507 286.256 159.956C285.329 158.406 278.254 159.786 277.45 159.167C276.646 158.549 280.469 156.366 281.689 156.447C282.604 156.523 283.514 156.648 284.416 156.821C284.416 156.821 284.525 153.911 280.558 151.293C276.591 148.675 275.848 152.422 275.848 152.422Z" fill="#263238"/>
<path d="M273.994 174.91C272.843 171.04 271.425 165.6 271.52 161.901" stroke="#263238" stroke-linecap="round" stroke-linejoin="round"/>
<path d="M275.487 179.472C275.487 179.472 275.105 178.425 274.581 176.8" stroke="#263238" stroke-linecap="round" stroke-linejoin="round"/>
<path d="M273.088 160.976C273.088 160.976 279.597 160.854 284.511 163.356" stroke="#263238" stroke-linecap="round" stroke-linejoin="round"/>
<path d="M273.292 166.28C273.292 166.28 273.374 165.063 278.745 169.191" stroke="#263238" stroke-linecap="round" stroke-linejoin="round"/>
<path d="M269.639 160.453C269.639 160.453 269.271 157.61 265.488 156.413" stroke="#263238" stroke-linecap="round" stroke-linejoin="round"/>
<path d="M270.668 164.662L267.485 164.349" stroke="#263238" stroke-linecap="round" stroke-linejoin="round"/>
<path d="M271.221 168.932C271.221 168.932 265.434 170.884 263.573 173.298" stroke="#263238" stroke-linecap="round" stroke-linejoin="round"/>
<path d="M237.236 183.022C237.236 183.022 255.544 195.092 255.237 241.842" stroke="#263238" stroke-width="2" stroke-linecap="round" stroke-linejoin="round"/>
<path d="M259.81 179.833C259.81 179.833 259.224 185.123 255.039 185.042C250.854 184.96 248.905 177.847 244.488 179.166C240.071 180.486 239.069 188.006 239.069 188.006C239.069 188.006 243.377 185.028 245.408 186.878C247.439 188.727 246.724 191.25 245.585 190.747C244.447 190.244 238.251 188.319 237.645 193.059C237.447 194.408 237.527 195.783 237.879 197.1C238.23 198.417 238.846 199.65 239.689 200.722C239.689 200.722 244.87 192.719 248.012 194.514C251.154 196.309 245.081 197.146 242.436 200.042C239.792 202.939 237.999 206.067 240.003 207.359C241.693 208.603 243.25 210.015 244.652 211.575C244.652 211.575 244.44 207.155 247.344 203.966C250.247 200.777 252.285 202.606 249.641 205.523C246.996 208.44 247.787 213.37 247.787 213.37C247.787 213.37 254.787 214.424 259.988 212.792C265.188 211.16 265.372 209.216 263.893 207.352C262.414 205.489 257.009 202.688 258.856 200.661C260.703 198.635 264.05 210.671 266.722 208.325C269.394 205.979 270.362 203.17 269.148 201.008L267.935 198.846C267.935 198.846 262.53 196.051 261.051 194.181C259.572 192.311 261.842 193.317 264.404 194.582C266.967 195.847 272.427 199.743 272.924 198.614C273.422 197.486 272.031 191.447 271.111 189.55C270.191 187.653 261.896 188.598 261.024 187.809C260.151 187.02 264.779 184.865 266.176 185.089C267.217 185.262 268.247 185.489 269.264 185.769C269.264 185.769 269.659 182.424 265.331 179.024C261.003 175.624 259.81 179.833 259.81 179.833Z" fill="#CBCBCB"/>
<path opacity="0.3" d="M259.81 179.833C259.81 179.833 259.224 185.123 255.039 185.042C250.854 184.96 248.905 177.847 244.488 179.166C240.071 180.486 239.069 188.006 239.069 188.006C239.069 188.006 243.377 185.028 245.408 186.878C247.439 188.727 246.724 191.25 245.585 190.747C244.447 190.244 238.251 188.319 237.645 193.059C237.447 194.408 237.527 195.783 237.879 197.1C238.23 198.417 238.846 199.65 239.689 200.722C239.689 200.722 244.87 192.719 248.012 194.514C251.154 196.309 245.081 197.146 242.436 200.042C239.792 202.939 237.999 206.067 240.003 207.359C241.693 208.603 243.25 210.015 244.652 211.575C244.652 211.575 244.44 207.155 247.344 203.966C250.247 200.777 252.285 202.606 249.641 205.523C246.996 208.44 247.787 213.37 247.787 213.37C247.787 213.37 254.787 214.424 259.988 212.792C265.188 211.16 265.372 209.216 263.893 207.352C262.414 205.489 257.009 202.688 258.856 200.661C260.703 198.635 264.05 210.671 266.722 208.325C269.394 205.979 270.362 203.17 269.148 201.008L267.935 198.846C267.935 198.846 262.53 196.051 261.051 194.181C259.572 192.311 261.842 193.317 264.404 194.582C266.967 195.847 272.427 199.743 272.924 198.614C273.422 197.486 272.031 191.447 271.111 189.55C270.191 187.653 261.896 188.598 261.024 187.809C260.151 187.02 264.779 184.865 266.176 185.089C267.217 185.262 268.247 185.489 269.264 185.769C269.264 185.769 269.659 182.424 265.331 179.024C261.003 175.624 259.81 179.833 259.81 179.833Z" fill="#263238"/>
<path d="M255.544 205.605C254.562 201.062 253.465 194.636 253.915 190.359" stroke="#263238" stroke-linecap="round" stroke-linejoin="round"/>
<path d="M256.838 211.011C256.838 211.011 256.498 209.766 256.041 207.842" stroke="#263238" stroke-linecap="round" stroke-linejoin="round"/>
<path d="M255.802 189.441C255.802 189.441 263.3 189.917 268.753 193.263" stroke="#263238" stroke-linecap="round" stroke-linejoin="round"/>
<path d="M255.55 195.52C255.55 195.52 255.762 194.126 261.569 199.396" stroke="#263238" stroke-linecap="round" stroke-linejoin="round"/>
<path d="M251.883 188.516C251.883 188.516 251.726 185.198 247.48 183.457" stroke="#263238" stroke-linecap="round" stroke-linejoin="round"/>
<path d="M252.674 193.467L249.035 192.807" stroke="#263238" stroke-linecap="round" stroke-linejoin="round"/>
<path d="M252.912 198.444C252.912 198.444 246.049 200.158 243.67 202.762" stroke="#263238" stroke-linecap="round" stroke-linejoin="round"/>
<path d="M244.372 219.858C244.372 219.858 256.164 228.834 257.404 242.148L254.923 197.56" stroke="#263238" stroke-width="2" stroke-linecap="round" stroke-linejoin="round"/>
<path d="M272.917 213.357C257.404 210.569 257.404 242.148 257.404 242.148" stroke="#263238" stroke-width="2" stroke-linecap="round" stroke-linejoin="round"/>
<path d="M259.265 241.842C259.265 241.842 250.268 176.521 276.305 176.521" stroke="#263238" stroke-width="2" stroke-linecap="round" stroke-linejoin="round"/>
<path d="M267.008 211.48C264.888 209.1 260.383 209.1 257.738 215.179C255.094 221.258 257.472 220.204 257.472 220.204C257.472 220.204 262.503 218.613 265.686 217.559C268.869 216.505 273.102 213.86 273.367 215.444C273.633 217.029 271.248 218.613 268.33 219.143C265.413 219.674 257.738 221.789 258.529 223.4C259.32 225.012 261.18 229.745 261.18 229.745C263.443 227.826 265.832 226.061 268.33 224.461C271.779 222.346 273.899 223.135 272.045 225.515C270.191 227.895 264.888 230.533 265.952 233.709C267.015 236.885 273.367 240.842 273.367 240.842C273.367 240.842 274.165 234.239 276.019 232.125C277.873 230.01 277.873 232.39 277.341 236.089C277.075 237.664 276.898 239.254 276.809 240.849L284.225 243.494C285.438 241.652 286.765 239.887 288.199 238.211L289.562 236.851C289.562 236.851 283.734 231.832 283.469 228.691C283.203 225.549 287.442 228.691 288.765 229.221C290.087 229.751 292.207 233.451 292.207 233.451C292.207 233.451 293.536 227.371 293.802 225.257L294.068 223.142C294.068 223.142 288.499 221.027 286.379 221.027C284.259 221.027 283.203 222.611 283.203 220.503C283.203 218.395 285.323 217.063 287.708 217.328C289.867 217.688 291.993 218.218 294.068 218.912C294.068 218.912 295.656 217.593 295.124 213.629C294.592 209.664 293.27 209.664 290.094 210.718C286.918 211.772 284.791 214.159 282.405 214.159C280.02 214.159 281.349 211.249 282.937 210.46C284.525 209.671 288.499 208.08 289.296 207.815C290.094 207.549 285.057 203.85 282.405 203.32C279.754 202.789 276.325 204.68 276.578 207.284C277.075 212.799 269.128 213.88 267.008 211.48Z" fill="#CBCBCB"/>
<path d="M284.062 238.693C284.143 239.487 284.198 240.282 284.225 241.08" stroke="#263238" stroke-linecap="round" stroke-linejoin="round"/>
<path d="M278.738 219.721C281.073 224.955 282.756 230.454 283.748 236.096" stroke="#263238" stroke-linecap="round" stroke-linejoin="round"/>
<path d="M277.784 217.6C276.476 214.785 275.487 213.064 275.487 213.064C276.933 212.385 278.135 211.279 278.929 209.895C279.549 208.643 280.458 207.554 281.581 206.72" stroke="#263238" stroke-linecap="round" stroke-linejoin="round"/>
<path d="M266.217 222.04C266.217 222.04 275.76 218.076 275.76 218.865" stroke="#263238" stroke-linecap="round" stroke-linejoin="round"/>
<path d="M281.021 217.029C281.021 217.029 285.261 214.914 288.969 214.914" stroke="#263238" stroke-linecap="round" stroke-linejoin="round"/>
<path d="M279.461 223.4C277.622 224.908 275.935 226.591 274.424 228.425C272.878 230.244 271.627 232.293 270.716 234.498" stroke="#263238" stroke-linecap="round" stroke-linejoin="round"/>
<path d="M282.385 224.434C282.385 224.434 287.954 222.843 290.864 225.488" stroke="#263238" stroke-linecap="round" stroke-linejoin="round"/>
<path d="M292.452 188.72C289.569 187.02 286.379 186.979 284.811 185.184C283.244 183.389 286.318 182.464 287.96 183.144C289.603 183.824 293.413 185.776 294.129 186.198C294.845 186.619 294.354 180.411 293.018 178.038C291.682 175.664 288.022 174.331 286.202 176.249C282.351 180.281 276.339 174.991 276.748 171.836C277.157 168.681 274.206 165.287 267.887 167.273C261.569 169.259 263.914 170.367 263.914 170.367C263.914 170.367 268.412 173.121 271.302 174.821C274.192 176.521 278.963 177.983 277.934 179.221C276.905 180.458 274.144 179.703 271.834 177.861C269.523 176.018 262.891 171.611 262.21 173.25C261.528 174.889 259.142 179.404 259.142 179.404C262.079 179.853 264.982 180.496 267.833 181.329C271.691 182.539 272.481 184.654 269.469 184.817C266.456 184.98 260.976 182.723 259.245 185.599C257.513 188.475 258.706 195.86 258.706 195.86C258.706 195.86 264.227 192.134 267.042 192.141C269.857 192.147 268.058 193.712 264.909 195.738C263.543 196.57 262.225 197.478 260.962 198.458L263.825 205.781C266.014 205.486 268.22 205.327 270.43 205.306L272.297 205.441C272.297 205.441 272.297 197.757 274.506 195.479C276.714 193.201 277.109 198.472 277.58 199.818C278.05 201.164 276.639 205.183 276.639 205.183C276.639 205.183 282.092 202.198 283.878 201.008L285.657 199.825C285.657 199.825 283.612 194.242 282.215 192.651C280.817 191.059 278.936 191.291 280.531 189.931C282.126 188.571 284.525 189.251 285.888 191.25C287.031 193.11 288.023 195.059 288.853 197.078C288.853 197.078 290.898 197.411 293.55 194.412C296.201 191.413 295.335 190.42 292.452 188.72ZM267.39 197.179C265.27 196.119 270.3 194.004 270.3 194.004C272.161 193.745 269.503 198.24 267.39 197.179ZM270.955 187.313C270.055 186.864 272.761 185.953 272.761 185.953C276.673 186.68 271.854 187.761 270.948 187.313H270.955Z" fill="#CBCBCB"/>
<path d="M267.321 202.565C266.776 203.143 266.203 203.707 265.624 204.251" stroke="#263238" stroke-linecap="round" stroke-linejoin="round"/>
<path d="M278.193 186.116C275.758 191.301 272.693 196.168 269.066 200.607" stroke="#263238" stroke-linecap="round" stroke-linejoin="round"/>
<path d="M279.175 184.008C280.449 181.172 281.097 179.302 281.097 179.302C282.562 179.944 284.189 180.124 285.759 179.819C287.112 179.462 288.53 179.432 289.896 179.731" stroke="#263238" stroke-linecap="round" stroke-linejoin="round"/>
<path d="M276.871 183.314C277.47 182.791 268.221 178.208 268.221 178.208" stroke="#263238" stroke-linecap="round" stroke-linejoin="round"/>
<path d="M281.744 186.089C281.744 186.089 286.127 187.897 288.56 190.692" stroke="#263238" stroke-linecap="round" stroke-linejoin="round"/>
<path d="M275.903 189.053C273.558 188.656 271.179 188.488 268.801 188.55C266.408 188.58 264.035 188.982 261.767 189.74" stroke="#263238" stroke-linecap="round" stroke-linejoin="round"/>
<path d="M277.014 191.943C277.014 191.943 281.86 195.092 281.785 199.022" stroke="#263238" stroke-linecap="round" stroke-linejoin="round"/>
<path d="M251.284 225.338C248.966 223.978 246.397 223.944 245.149 222.496C243.902 221.048 246.356 220.32 247.678 220.864C249 221.408 252.067 222.986 252.647 223.326C253.226 223.666 252.824 218.661 251.747 216.777C250.67 214.894 247.726 213.799 246.26 215.336C243.159 218.586 238.32 214.322 238.654 211.786C238.988 209.25 236.609 206.516 231.504 208.114C226.398 209.712 228.307 210.603 228.307 210.603C228.307 210.603 231.926 212.82 234.25 214.186C236.575 215.553 240.419 216.736 239.587 217.729C238.756 218.722 236.541 218.123 234.68 216.634C232.819 215.145 227.482 211.602 226.937 212.922C226.392 214.241 224.47 217.872 224.47 217.872C226.832 218.236 229.168 218.753 231.463 219.422C234.564 220.395 235.198 222.095 232.771 222.224C230.345 222.353 225.955 220.538 224.592 222.856C223.229 225.175 224.156 231.118 224.156 231.118C224.156 231.118 228.6 228.113 230.863 228.12C233.126 228.126 231.681 229.384 229.152 231.016C228.053 231.686 226.992 232.417 225.976 233.206L228.273 239.095C230.035 238.859 231.811 238.734 233.589 238.721L235.096 238.823C235.096 238.823 235.096 232.642 236.875 230.806C238.654 228.97 238.967 233.213 239.342 234.301C239.717 235.389 238.585 238.619 238.585 238.619C238.585 238.619 242.989 236.212 244.413 235.26L245.845 234.301C245.845 234.301 244.195 229.813 243.077 228.528C241.959 227.242 240.433 227.439 241.714 226.324C242.995 225.209 244.924 225.794 246.022 227.378C246.942 228.877 247.742 230.446 248.414 232.07C248.414 232.07 250.057 232.336 252.19 229.928C254.324 227.521 253.608 226.712 251.284 225.338ZM231.108 232.138C229.404 231.288 233.453 229.588 233.453 229.588C234.946 229.384 232.812 233.002 231.108 232.145V232.138ZM233.991 224.21C233.262 223.842 235.443 223.122 235.443 223.122C238.585 223.727 234.707 224.57 233.991 224.21Z" fill="#CBCBCB"/>
<path d="M231.067 236.483C230.624 236.946 230.168 237.401 229.704 237.843" stroke="#263238" stroke-linecap="round" stroke-linejoin="round"/>
<path d="M239.812 223.244C237.854 227.417 235.389 231.334 232.471 234.906" stroke="#263238" stroke-linecap="round" stroke-linejoin="round"/>
<path d="M240.603 221.544C241.625 219.266 242.15 217.763 242.15 217.763C243.329 218.277 244.636 218.422 245.899 218.178C246.986 217.891 248.127 217.867 249.225 218.11" stroke="#263238" stroke-linecap="round" stroke-linejoin="round"/>
<path d="M231.783 216.879C231.783 216.879 239.233 220.571 238.749 220.959" stroke="#263238" stroke-linecap="round" stroke-linejoin="round"/>
<path d="M242.668 223.223C242.668 223.223 246.192 224.679 248.121 226.929" stroke="#263238" stroke-linecap="round" stroke-linejoin="round"/>
<path d="M237.965 225.61C236.079 225.292 234.166 225.157 232.253 225.209C230.329 225.227 228.419 225.551 226.596 226.168" stroke="#263238" stroke-linecap="round" stroke-linejoin="round"/>
<path d="M238.865 227.936C238.865 227.936 242.763 230.472 242.689 233.627" stroke="#263238" stroke-linecap="round" stroke-linejoin="round"/>
<path d="M241.823 181.696C241.823 181.696 238.906 183.811 237.052 181.696C235.198 179.581 237.849 175.351 235.198 173.767C232.546 172.183 228.313 175.086 228.313 175.086C228.313 175.086 231.756 175.882 231.756 177.731C231.756 179.581 230.167 180.377 229.902 179.581C229.636 178.785 227.782 174.821 225.13 176.677C224.367 177.191 223.715 177.853 223.215 178.624C222.714 179.395 222.376 180.26 222.22 181.165C222.22 181.165 228.572 180.111 229.104 182.491C229.636 184.871 226.46 182.226 223.808 182.226C221.157 182.226 218.771 182.757 219.037 184.341C219.181 185.747 219.181 187.164 219.037 188.571C220.409 187.289 222.196 186.539 224.074 186.456C226.984 186.456 226.984 188.305 224.34 188.305C221.695 188.305 219.569 190.951 219.569 190.951C219.569 190.951 222.22 194.915 225.396 196.765C228.573 198.614 229.636 197.819 229.902 196.234C230.167 194.65 229.104 190.685 230.958 190.685C232.812 190.685 228.313 197.819 230.692 198.084C233.071 198.349 234.932 197.553 235.463 195.969L235.995 194.385C235.995 194.385 234.932 190.42 235.198 188.836C235.463 187.251 235.995 188.836 236.52 190.685C237.045 192.535 237.583 197.023 238.381 196.765C239.178 196.506 241.557 193.059 242.089 191.739C242.62 190.42 238.381 186.721 238.381 185.925C238.381 185.13 241.557 186.456 242.089 187.245C242.62 188.033 243.145 189.094 243.145 189.094C243.145 189.094 244.999 187.775 244.733 184.076C244.467 180.377 241.823 181.696 241.823 181.696Z" fill="#CBCBCB"/>
<path d="M226.978 191.284C228.812 188.734 231.531 185.266 233.876 183.545" stroke="#263238" stroke-linecap="round" stroke-linejoin="round"/>
<path d="M224.865 194.385C224.865 194.385 225.335 193.65 226.092 192.549" stroke="#263238" stroke-linecap="round" stroke-linejoin="round"/>
<path d="M235.198 184.076C235.198 184.076 238.381 188.04 239.171 192.27" stroke="#263238" stroke-linecap="round" stroke-linejoin="round"/>
<path d="M232.021 186.721C232.021 186.721 232.812 186.191 232.812 191.481" stroke="#263238" stroke-linecap="round" stroke-linejoin="round"/>
<path d="M233.875 181.696C233.875 181.696 235.464 180.111 234.407 177.201" stroke="#263238" stroke-linecap="round" stroke-linejoin="round"/>
<path d="M231.755 184.341L230.433 182.226" stroke="#263238" stroke-linecap="round" stroke-linejoin="round"/>
<path d="M229.371 186.721C229.371 186.721 225.397 184.076 223.011 184.076" stroke="#263238" stroke-linecap="round" stroke-linejoin="round"/>
<path d="M268.576 240.91H248.094V270.32H268.576V240.91Z" fill="#263238" stroke="#263238" stroke-width="2" stroke-linecap="round" stroke-linejoin="round"/>
</svg>
