<svg width="286" height="284" viewBox="0 0 286 284" fill="none" xmlns="http://www.w3.org/2000/svg">
<path d="M239.781 256.99C249.923 249.968 258.229 240.693 264.021 229.92C300.255 163.31 292.072 65.0904 222.291 22.9624C190.038 3.49375 143.618 -8.82807 108.753 11.1692C80.4807 27.3848 63.1498 57.9187 48.8109 85.6973C39.8031 103.194 32.3801 121.972 21.2741 138.318C6.87177 159.516 -8.98217 187.83 7.02391 212.461C28.8366 246.012 70.034 261.331 107.39 271.42C147.922 282.361 193.5 283.916 230.938 262.569C233.968 260.84 236.916 258.98 239.781 256.99Z" fill="#C8C8C8"/>
<path opacity="0.7" d="M239.781 256.99C249.923 249.968 258.229 240.693 264.021 229.92C300.255 163.31 292.072 65.0904 222.291 22.9624C190.038 3.49375 143.618 -8.82807 108.753 11.1692C80.4807 27.3848 63.1498 57.9187 48.8109 85.6973C39.8031 103.194 32.3801 121.972 21.2741 138.318C6.87177 159.516 -8.98217 187.83 7.02391 212.461C28.8366 246.012 70.034 261.331 107.39 271.42C147.922 282.361 193.5 283.916 230.938 262.569C233.968 260.84 236.916 258.98 239.781 256.99Z" fill="white"/>
<g opacity="0.3">
<path opacity="0.3" d="M271.666 36.9324H206.374V121.07H271.666V36.9324Z" stroke="black" stroke-miterlimit="10"/>
<path opacity="0.3" d="M259.686 52.3704H218.355V105.632H259.686V52.3704Z" stroke="black" stroke-miterlimit="10"/>
</g>
<path d="M191.078 27.5029H18.2124V178.487H191.078V27.5029Z" fill="#263238" stroke="#263238" stroke-miterlimit="10"/>
<path d="M187.801 23.8269H14.9351V174.811H187.801V23.8269Z" fill="white" stroke="#263238" stroke-linecap="round" stroke-linejoin="round"/>
<path d="M154.14 84.7581H162.736V76.3237H154.14V84.7581Z" fill="white" stroke="#263238" stroke-linecap="round" stroke-linejoin="round"/>
<path d="M165.392 84.7581H173.988V76.3237H165.392V84.7581Z" fill="white" stroke="#263238" stroke-linecap="round" stroke-linejoin="round"/>
<path d="M150.705 81.051H107.035" stroke="#263238" stroke-linecap="round" stroke-linejoin="round"/>
<path d="M154.14 104.668H162.736V96.2339H154.14V104.668Z" fill="white" stroke="#263238" stroke-linecap="round" stroke-linejoin="round"/>
<path d="M165.392 104.668H173.988V96.2339H165.392V104.668Z" fill="white" stroke="#263238" stroke-linecap="round" stroke-linejoin="round"/>
<path d="M150.705 100.955H107.035" stroke="#263238" stroke-linecap="round" stroke-linejoin="round"/>
<path d="M154.14 124.578H162.736V116.144H154.14V124.578Z" fill="white" stroke="#263238" stroke-linecap="round" stroke-linejoin="round"/>
<path d="M165.392 124.578H173.988V116.144H165.392V124.578Z" fill="white" stroke="#263238" stroke-linecap="round" stroke-linejoin="round"/>
<path d="M150.705 120.865H107.035" stroke="#263238" stroke-linecap="round" stroke-linejoin="round"/>
<path d="M71.9609 84.7581H80.5566V76.3237H71.9609V84.7581Z" fill="white" stroke="#263238" stroke-linecap="round" stroke-linejoin="round"/>
<path d="M83.2187 84.7581H91.8145V76.3237H83.2187V84.7581Z" fill="white" stroke="#263238" stroke-linecap="round" stroke-linejoin="round"/>
<path d="M68.5251 81.051H24.8555" stroke="#263238" stroke-linecap="round" stroke-linejoin="round"/>
<path d="M71.9609 104.668H80.5566V96.2339H71.9609V104.668Z" fill="white" stroke="#263238" stroke-linecap="round" stroke-linejoin="round"/>
<path d="M83.2187 104.668H91.8145V96.2339H83.2187V104.668Z" fill="white" stroke="#263238" stroke-linecap="round" stroke-linejoin="round"/>
<path d="M68.5251 100.955H24.8555" stroke="#263238" stroke-linecap="round" stroke-linejoin="round"/>
<path d="M71.9609 124.578H80.5566V116.144H71.9609V124.578Z" fill="white" stroke="#263238" stroke-linecap="round" stroke-linejoin="round"/>
<path d="M83.2187 124.578H91.8145V116.144H83.2187V124.578Z" fill="white" stroke="#263238" stroke-linecap="round" stroke-linejoin="round"/>
<path d="M68.5251 120.865H24.8555" stroke="#263238" stroke-linecap="round" stroke-linejoin="round"/>
<path d="M37.0389 153.576H27.5684V162.869H37.0389V153.576Z" fill="white" stroke="#263238" stroke-linecap="round" stroke-linejoin="round"/>
<path d="M75.6883 153.576H66.2178V162.869H75.6883V153.576Z" fill="white" stroke="#263238" stroke-linecap="round" stroke-linejoin="round"/>
<path d="M115.871 153.576H106.401V162.869H115.871V153.576Z" fill="white" stroke="#263238" stroke-linecap="round" stroke-linejoin="round"/>
<path d="M86.0396 79.1476L87.5039 82.0336L94.5973 75.3098" stroke="#263238" stroke-width="2" stroke-linecap="round" stroke-linejoin="round"/>
<path d="M86.0396 98.834L87.5039 101.714L94.5973 94.99" stroke="#263238" stroke-width="2" stroke-linecap="round" stroke-linejoin="round"/>
<path d="M73.8057 119.478L75.2763 122.358L82.3697 115.634" stroke="#263238" stroke-width="2" stroke-linecap="round" stroke-linejoin="round"/>
<path d="M167.744 78.9113L169.208 81.7912L176.302 75.0674" stroke="#263238" stroke-width="2" stroke-linecap="round" stroke-linejoin="round"/>
<path d="M155.902 99.0702L157.367 101.95L164.46 95.2324" stroke="#263238" stroke-width="2" stroke-linecap="round" stroke-linejoin="round"/>
<path d="M155.902 119.298L157.367 122.178L164.46 115.46" stroke="#263238" stroke-width="2" stroke-linecap="round" stroke-linejoin="round"/>
<path d="M187.801 23.8269H14.9351V47.4131H187.801V23.8269Z" fill="white" stroke="#263238" stroke-linecap="round" stroke-linejoin="round"/>
<path d="M187.801 23.8269H181.291V174.811H187.801V23.8269Z" fill="#DBDBDB" stroke="#263238" stroke-linecap="round" stroke-linejoin="round"/>
<path d="M187.801 46.5176H181.291V75.6583H187.801V46.5176Z" fill="#949494" stroke="#263238" stroke-linecap="round" stroke-linejoin="round"/>
<path d="M187.801 23.8269H14.9351V35.2966H187.801V23.8269Z" fill="#DBDBDB" stroke="#263238" stroke-linecap="round" stroke-linejoin="round"/>
<path d="M91.8717 27.167H23.7017V31.944H91.8717V27.167Z" fill="white" stroke="#263238" stroke-linecap="round" stroke-linejoin="round"/>
<path d="M177.595 27.3909H183.579" stroke="#263238" stroke-linecap="round" stroke-linejoin="round"/>
<path d="M177.595 29.8728H183.579" stroke="#263238" stroke-linecap="round" stroke-linejoin="round"/>
<path d="M177.595 32.3608H183.579" stroke="#263238" stroke-linecap="round" stroke-linejoin="round"/>
<path d="M75.3208 56.9547C75.3208 55.4806 76.1132 54.6409 77.5585 54.6409C79.0038 54.6409 79.7898 55.4806 79.7898 56.9547V61.7317C79.7898 63.1996 79.0038 64.0393 77.5585 64.0393C76.1132 64.0393 75.3208 63.1996 75.3208 61.7317V56.9547ZM76.7978 61.825C76.7978 62.4781 77.0894 62.7269 77.5585 62.7269C78.0276 62.7269 78.3192 62.4781 78.3192 61.825V56.849C78.3192 56.1896 78.0276 55.9408 77.5585 55.9408C77.0894 55.9408 76.7978 56.1896 76.7978 56.849V61.825Z" fill="#263238"/>
<path d="M82.0524 57.2843V63.9335H80.7275V54.7466H82.5722L84.0872 60.2451V54.7466H85.3994V63.9335H83.8844L82.0524 57.2843Z" fill="#263238"/>
<path d="M86.4517 54.7466H87.9286V62.6211H90.3692V63.9335H86.4707L86.4517 54.7466Z" fill="#263238"/>
<path d="M91.0034 54.7466H92.4741V63.9335H91.0034V54.7466Z" fill="#263238"/>
<path d="M94.8449 57.2843V63.9335H93.5391V54.7466H95.3837L96.8988 60.2451V54.7466H98.2046V63.9335H96.7086L94.8449 57.2843Z" fill="#263238"/>
<path d="M100.715 58.6216H102.737V59.9341H100.715V62.6211H103.25V63.9335H99.2441V54.7466H103.257V56.059H100.721L100.715 58.6216Z" fill="#263238"/>
<path d="M105.818 54.7466H110.363V56.059H108.823V63.9335H107.352V56.059H105.818V54.7466Z" fill="#263238"/>
<path d="M112.48 58.6216H114.496V59.9341H112.48V62.6211H115.016V63.9335H111.003V54.7466H115.016V56.059H112.48V58.6216Z" fill="#263238"/>
<path d="M117.906 54.6409C119.339 54.6409 120.074 55.4806 120.074 56.9547V57.2408H118.686V56.8614C118.686 56.2021 118.42 55.9533 117.951 55.9533C117.481 55.9533 117.215 56.2021 117.215 56.8614C117.215 58.7274 120.087 59.1068 120.087 61.7317C120.087 63.1996 119.339 64.0393 117.894 64.0393C116.448 64.0393 115.726 63.1996 115.726 61.7317V61.1656H117.12V61.825C117.12 62.4781 117.412 62.7144 117.881 62.7144C118.35 62.7144 118.642 62.4781 118.642 61.825C118.642 59.959 115.77 59.5796 115.77 56.9547C115.726 55.4806 116.48 54.6409 117.906 54.6409Z" fill="#263238"/>
<path d="M120.505 54.7466H125.05V56.059H123.516V63.9335H122.065V56.059H120.524L120.505 54.7466Z" fill="#263238"/>
<path d="M34.9407 151.337H33.4511L33.1975 149.67H31.4162L31.1627 151.337H29.7871L31.2831 142.15H33.4384L34.9407 151.337ZM31.5811 148.42H33.001L32.291 143.773L31.5811 148.42Z" fill="#263238"/>
<path d="M72.9686 144.246V144.569C72.9686 145.515 72.677 146.118 72.0178 146.435C72.8102 146.734 73.1144 147.431 73.1144 148.401V149.154C73.1144 150.572 72.3537 151.331 70.8831 151.331H68.5693V142.15H70.788C72.3157 142.15 72.9686 142.847 72.9686 144.246ZM70.04 143.444V145.869H70.6168C71.162 145.869 71.498 145.633 71.498 144.899V144.389C71.498 143.73 71.2698 143.444 70.75 143.444H70.04ZM70.04 147.176V150H70.8831C71.3775 150 71.6438 149.776 71.6438 149.091V148.295C71.6438 147.437 71.3649 147.176 70.6993 147.176H70.04Z" fill="#263238"/>
<path d="M113.532 147.91V149.154C113.532 150.628 112.784 151.467 111.339 151.467C109.894 151.467 109.146 150.628 109.146 149.154V144.377C109.146 142.909 109.894 142.069 111.339 142.069C112.784 142.069 113.532 142.909 113.532 144.377V145.272H112.144V144.246C112.144 143.587 111.846 143.338 111.377 143.338C110.908 143.338 110.616 143.587 110.616 144.246V149.222C110.616 149.881 110.914 150.118 111.377 150.118C111.84 150.118 112.144 149.881 112.144 149.222V147.91H113.532Z" fill="#263238"/>
<path d="M25.521 137.255H137.881" stroke="#263238" stroke-linecap="round" stroke-linejoin="round"/>
<path opacity="0.3" d="M210.07 24.5671H222.475V12.3946L210.07 12.3946V24.5671Z" stroke="black" stroke-linecap="round" stroke-linejoin="round"/>
<path opacity="0.3" d="M226.317 24.5671H238.723V12.3946L226.317 12.3946V24.5671Z" stroke="black" stroke-linecap="round" stroke-linejoin="round"/>
<path opacity="0.3" d="M212.738 17.2087L214.856 21.3637L221.08 14.6399" stroke="black" stroke-width="2" stroke-linecap="round" stroke-linejoin="round"/>
<path opacity="0.3" d="M22.2752 203.156H34.6807V190.983H22.2752V203.156Z" stroke="black" stroke-linecap="round" stroke-linejoin="round"/>
<path opacity="0.3" d="M38.5159 203.156H50.9214V190.983H38.5159V203.156Z" stroke="black" stroke-linecap="round" stroke-linejoin="round"/>
<path opacity="0.3" d="M24.9312 195.797L27.0484 199.952L33.2733 193.229" stroke="black" stroke-width="2" stroke-linecap="round" stroke-linejoin="round"/>
<path opacity="0.3" d="M81.0447 203.156H93.4502V190.983H81.0447V203.156Z" stroke="black" stroke-linecap="round" stroke-linejoin="round"/>
<path opacity="0.3" d="M97.2913 203.156H109.697V190.983H97.2913V203.156Z" stroke="black" stroke-linecap="round" stroke-linejoin="round"/>
<path opacity="0.3" d="M83.707 195.797L85.8243 199.952L92.0492 193.229" stroke="black" stroke-width="2" stroke-linecap="round" stroke-linejoin="round"/>
<g opacity="0.3">
<path opacity="0.3" d="M100.284 18.4826C104.624 17.7943 107.575 13.7834 106.873 9.524C106.172 5.26464 102.084 2.36975 97.7432 3.05809C93.4023 3.74643 90.452 7.75734 91.1535 12.0167C91.855 16.2761 95.9427 19.171 100.284 18.4826Z" stroke="black" stroke-linecap="round" stroke-linejoin="round"/>
<path opacity="0.3" d="M101.24 13.5949L99.0151 10.771V6.32373" stroke="black" stroke-linecap="round" stroke-linejoin="round"/>
</g>
<g opacity="0.3">
<path opacity="0.3" d="M247.628 160.617H246.449L246.246 159.298H244.814L244.611 160.617H243.54L244.731 153.333H246.437L247.628 160.617ZM244.966 158.309H246.088L245.524 154.621L244.966 158.309Z" fill="black"/>
<path opacity="0.3" d="M264.23 155.007V155.268C264.275 155.558 264.227 155.855 264.093 156.118C263.959 156.381 263.746 156.597 263.482 156.736C263.78 156.869 264.025 157.093 264.182 157.374C264.339 157.656 264.398 157.98 264.351 158.297V158.919C264.38 159.154 264.354 159.392 264.275 159.615C264.195 159.839 264.065 160.041 263.894 160.208C263.723 160.374 263.515 160.5 263.286 160.575C263.058 160.65 262.815 160.673 262.576 160.642H260.744V153.333H262.506C263.71 153.333 264.23 153.881 264.23 155.007ZM261.91 154.385V156.313H262.366C262.798 156.313 263.064 156.126 263.064 155.542V155.137C263.064 154.615 262.886 154.385 262.468 154.385H261.91ZM261.91 157.352V159.591H262.576C262.969 159.591 263.21 159.417 263.21 158.876V158.254C263.21 157.582 262.981 157.37 262.455 157.37L261.91 157.352Z" fill="black"/>
<path opacity="0.3" d="M281.041 157.93V158.894C281.041 160.063 280.452 160.729 279.304 160.729C278.157 160.729 277.561 160.063 277.561 158.894V155.106C277.561 153.937 278.157 153.271 279.304 153.271C280.452 153.271 281.041 153.937 281.041 155.106V155.815H279.938V155.007C279.938 154.484 279.704 154.291 279.336 154.291C278.968 154.291 278.702 154.484 278.702 155.007V158.944C278.702 159.466 278.937 159.653 279.336 159.653C279.735 159.653 279.938 159.466 279.938 158.944V157.93H281.041Z" fill="black"/>
<path opacity="0.3" d="M249.948 164.592H240.928V173.443H249.948V164.592Z" stroke="black" stroke-miterlimit="10"/>
<path opacity="0.3" d="M266.728 164.592H257.708V173.443H266.728V164.592Z" stroke="black" stroke-miterlimit="10"/>
<path opacity="0.3" d="M283.507 164.592H274.487V173.443H283.507V164.592Z" stroke="black" stroke-miterlimit="10"/>
</g>
<path d="M36.1328 267.128H17.0459" stroke="#263238" stroke-miterlimit="10"/>
<path d="M285.187 267.128H42.3511" stroke="#263238" stroke-miterlimit="10"/>
<path d="M211.851 266.917L215.933 206.085L218.938 177.162L210.697 168.137L206.564 165.189C206.564 165.189 200.745 170.165 196.618 171.266C192.491 172.367 188.523 173.48 188.523 173.48C188.523 173.48 174.444 199.455 173.309 211.242C172.175 223.029 170.305 266.693 170.305 266.693L171.87 266.917H211.851Z" fill="#9E9E9E" stroke="#263238" stroke-miterlimit="10"/>
<path d="M192.498 216.765C192.498 216.765 191.795 216.411 193.202 212.853" stroke="#263238" stroke-miterlimit="10"/>
<path d="M190.843 172.858C191.543 177.773 191.931 182.725 192.003 187.687C192.003 187.687 196.231 186.026 199.61 180.223C201.477 177.108 203.084 173.851 204.415 170.482L190.843 172.858Z" fill="#263238" stroke="#263238" stroke-miterlimit="10"/>
<path d="M211.851 266.917L215.522 212.224C211.921 214.028 204.815 217.008 196.974 217.138C187.579 217.294 175.947 210.135 175.947 210.135L173.329 211.142C173.329 211.173 173.329 211.211 173.329 211.242C172.201 223.06 170.324 266.693 170.324 266.693L171.89 266.917H211.851Z" fill="white" stroke="#263238" stroke-miterlimit="10"/>
<path d="M205.74 236.302C205.74 250.39 206.235 263.944 206.374 266.905H234.044C234.424 262.513 236.808 235.183 238.031 225.386C239.369 214.681 248.142 198.746 248.142 193.042C248.142 187.338 249.923 188.24 241.911 184.091C233.898 179.943 216.225 170.986 213.778 169.891C211.331 168.796 208.656 166.159 208.656 166.159C208.656 166.159 209.544 171.62 209.29 186.467C209.037 201.315 205.74 220.373 205.74 236.302Z" fill="white"/>
<g opacity="0.2">
<path opacity="0.2" d="M208.656 166.215C208.986 168.799 209.177 171.399 209.227 174.003V166.744C208.872 166.427 208.656 166.215 208.656 166.215Z" fill="black"/>
<path opacity="0.2" d="M245.042 201.762V203.628C245.258 203.062 245.473 202.515 245.676 201.974V201.75H245.759C245.841 201.545 245.917 201.333 245.993 201.128H245.676V193.384H248.13C248.13 193.291 248.13 193.191 248.13 193.098C248.13 193.005 248.13 192.874 248.13 192.762H245.676V186.132C245.48 186.013 245.271 185.901 245.042 185.777V192.762H238.386V184.987H243.534L242.342 184.365H238.386V182.312L237.753 181.983V184.346H231.097V178.587L230.463 178.263V184.346H223.807V176.59H227.122L225.892 175.968H223.807V174.917L223.173 174.593V175.968H216.517V171.272C216.295 171.16 216.086 171.054 215.883 170.961V175.968H209.29C209.29 176.173 209.29 176.379 209.29 176.59H215.883V184.365H209.347C209.347 184.57 209.347 184.776 209.347 184.987H215.883V192.762H209.227V189.808C209.1 192.843 208.872 196.028 208.593 199.268V201.134H208.428L208.371 201.756H208.593V209.556H207.642L207.579 210.178H208.625V217.953H206.824L206.767 218.575H208.625V226.35H206.152L206.114 226.972H208.65V234.747H205.842C205.842 234.959 205.842 235.164 205.842 235.369H208.656V243.144H205.861C205.861 243.356 205.861 243.561 205.861 243.766H208.65V251.541H205.988C205.988 251.753 205.988 251.958 205.988 252.163H208.637V266.936H209.271V252.144H215.883V266.917H216.517V252.144H223.173V266.917H223.807V252.144H230.463V266.917H231.097V252.144H235.363C235.363 251.939 235.363 251.734 235.42 251.522H231.097V243.766H236.168C236.168 243.561 236.212 243.356 236.231 243.144H231.097V235.369H236.954C236.954 235.158 236.992 234.959 237.017 234.747H231.097V226.972H237.753V227.799L238.031 225.417C238.12 224.72 238.241 223.999 238.386 223.259V218.575H239.572L239.762 217.953H238.386V210.178H242.507C242.589 209.973 242.665 209.761 242.748 209.556H238.386V201.781L245.042 201.762ZM238.386 193.384H245.042V201.159H238.386V193.384ZM215.883 251.522H209.227V243.766H215.883V251.522ZM215.883 243.125H209.227V235.35H215.883V243.125ZM215.883 234.728H209.227V226.972H215.883V234.728ZM215.883 226.331H209.227V218.556H215.883V226.331ZM215.883 217.934H209.227V210.178H215.883V217.934ZM215.883 209.537H209.227V201.762H215.883V209.537ZM215.883 201.14H209.227V193.384H215.883V201.14ZM223.173 251.522H216.517V243.766H223.173V251.522ZM223.173 243.125H216.517V235.35H223.173V243.125ZM223.173 234.728H216.517V226.972H223.173V234.728ZM223.173 226.331H216.517V218.556H223.173V226.331ZM223.173 217.934H216.517V210.178H223.173V217.934ZM223.173 209.537H216.517V201.762H223.173V209.537ZM223.173 201.14H216.517V193.384H223.173V201.14ZM223.173 192.743H216.517V184.968H223.173V192.743ZM223.173 184.346H216.517V176.59H223.173V184.346ZM230.463 251.522H223.807V243.766H230.463V251.522ZM230.463 243.125H223.807V235.35H230.463V243.125ZM230.463 234.728H223.807V226.972H230.463V234.728ZM230.463 226.331H223.807V218.556H230.463V226.331ZM230.463 217.934H223.807V210.178H230.463V217.934ZM230.463 209.537H223.807V201.762H230.463V209.537ZM230.463 201.14H223.807V193.384H230.463V201.14ZM230.463 192.743H223.807V184.968H230.463V192.743ZM237.753 226.331H231.097V218.556H237.753V226.331ZM237.753 217.934H231.097V210.178H237.753V217.934ZM237.753 209.537H231.097V201.762H237.753V209.537ZM237.753 201.14H231.097V193.384H237.753V201.14ZM237.753 192.743H231.097V184.968H237.753V192.743Z" fill="black"/>
</g>
<path d="M205.74 236.302C205.74 250.39 206.235 263.944 206.374 266.905H234.044C234.424 262.513 236.808 235.183 238.031 225.386C239.369 214.681 248.142 198.746 248.142 193.042C248.142 187.338 249.923 188.24 241.911 184.091C233.898 179.943 216.225 170.986 213.778 169.891C211.331 168.796 208.656 166.159 208.656 166.159C208.656 166.159 209.544 171.62 209.29 186.467C209.037 201.315 205.74 220.373 205.74 236.302Z" stroke="#263238" stroke-miterlimit="10"/>
<path d="M208.656 166.215C208.656 166.215 209.544 171.676 209.29 186.523C209.239 190.255 208.98 194.286 208.656 198.441C209.417 197.415 211.87 194.137 212.46 193.95C213.125 193.732 216.688 197.01 219.578 197.446C222.469 197.881 223.585 197.881 220.472 194.603C217.36 191.325 216.035 181.722 214.907 174.513C214.692 172.969 214.346 171.446 213.873 169.96H213.797C211.325 168.84 208.656 166.215 208.656 166.215Z" fill="#263238" stroke="#263238" stroke-miterlimit="10"/>
<path d="M226.919 233.764C228.967 232.85 230.577 232.06 230.577 232.06L231.331 237.77C231.331 237.77 220.25 242.559 214.057 242.926C207.864 243.293 207.3 243.48 207.3 243.48L207.484 237.957" stroke="#263238" stroke-miterlimit="10"/>
<path d="M221.372 235.997C222.507 235.624 223.838 235.095 225.137 234.542" stroke="#263238" stroke-miterlimit="10"/>
<path d="M209.543 237.403C212.784 237.322 216.015 237.033 219.217 236.538" stroke="#263238" stroke-miterlimit="10"/>
<path d="M231.331 237.77L231.705 242.192" stroke="#263238" stroke-miterlimit="10"/>
<path d="M146.4 266.917H177.538C177.607 264.522 178.508 234.088 179.116 218.556C179.75 202.384 190.932 177.853 190.932 177.853C190.932 177.853 192.428 174.394 190.843 172.839C189.259 171.284 185.455 171.906 182.603 174.083C179.75 176.26 153.443 187.456 151.858 189.011C150.273 190.566 150.59 195.853 149.956 202.073C149.323 208.293 138.863 251.211 138.863 251.211C138.863 251.211 136.011 251.833 135.06 252.455C134.109 253.077 134.109 254.943 134.109 254.943C134.109 254.943 135.377 255.254 139.18 257.12C142.679 258.837 145.906 265.804 146.4 266.917Z" fill="white"/>
<path opacity="0.2" d="M186.723 184.969V188.147C186.939 187.575 187.148 187.021 187.357 186.486V184.969H187.953L188.2 184.347H187.357V176.59H191.351C191.395 176.397 191.446 176.186 191.477 175.968H187.357V172.062C187.148 172.093 186.939 172.124 186.723 172.174V175.968H180.067V175.545L179.433 175.862V175.968H179.218L177.95 176.59H179.433V184.365H172.777V179.016L172.143 179.308V184.347H165.487V182.362L164.853 182.655V184.347H161.17L159.827 184.969H164.853V192.762H158.197V185.734L157.564 186.032V192.762H150.908V191.195C150.551 193.46 150.339 195.745 150.274 198.037V201.147H150.045L149.988 201.769H150.274V209.556H148.568L148.435 210.178H150.274V217.953H146.717C146.673 218.158 146.622 218.37 146.578 218.575H150.274V226.35H144.79C144.74 226.562 144.695 226.767 144.645 226.972H150.274V234.747H143.618V231.326L142.984 234.013V234.716H142.819L142.673 235.338H142.984V243.144H140.816L140.664 243.766H142.984V251.541H137.602C136.956 251.711 136.321 251.918 135.7 252.163V252.163V255.547C135.89 255.621 136.1 255.709 136.334 255.814V252.163H142.984V260.871C143.206 261.182 143.415 261.493 143.618 261.81V252.169H150.274V266.942H150.908V252.145H157.564V266.917H158.197V252.145H164.853V266.917H165.487V252.145H172.143V266.917H172.777V252.145H177.982V251.523H172.777V243.766H178.248V243.144H172.777V235.369H178.52V234.747H172.777V226.972H178.806C178.806 226.767 178.806 226.555 178.806 226.35H172.777V218.575H179.116C179.116 218.37 179.116 218.165 179.148 217.953H172.777V210.178H179.433V214.775C179.598 213.45 179.807 212.088 180.067 210.707V210.178H180.169C180.207 209.973 180.251 209.768 180.289 209.556H180.067V201.781H182.191C182.248 201.576 182.311 201.371 182.368 201.159H180.067V193.384H184.821C184.898 193.179 184.967 192.967 185.037 192.762H180.067V184.987L186.723 184.969ZM180.067 176.59H186.723V184.365H180.067V176.59ZM150.274 251.541H143.618V243.766H150.274V251.541ZM150.274 243.144H143.618V235.369H150.274V243.144ZM157.564 251.541H150.908V243.766H157.564V251.541ZM157.564 243.144H150.908V235.369H157.564V243.144ZM157.564 234.747H150.908V226.972H157.564V234.747ZM157.564 226.35H150.908V218.575H157.564V226.35ZM157.564 217.953H150.908V210.178H157.564V217.953ZM157.564 209.556H150.908V201.781H157.564V209.556ZM157.564 201.159H150.908V193.384H157.564V201.159ZM164.853 251.541H158.197V243.766H164.853V251.541ZM164.853 243.144H158.197V235.369H164.853V243.144ZM164.853 234.747H158.197V226.972H164.853V234.747ZM164.853 226.35H158.197V218.575H164.853V226.35ZM164.853 217.953H158.197V210.178H164.853V217.953ZM164.853 209.556H158.197V201.781H164.853V209.556ZM164.853 201.159H158.197V193.384H164.853V201.159ZM172.143 251.541H165.487V243.766H172.143V251.541ZM172.143 243.144H165.487V235.369H172.143V243.144ZM172.143 234.747H165.487V226.972H172.143V234.747ZM172.143 226.35H165.487V218.575H172.143V226.35ZM172.143 217.953H165.487V210.178H172.143V217.953ZM172.143 209.556H165.487V201.781H172.143V209.556ZM172.143 201.159H165.487V193.384H172.143V201.159ZM172.143 192.762H165.487V184.987H172.143V192.762ZM179.433 209.556H172.777V201.781H179.433V209.556ZM179.433 201.159H172.777V193.384H179.433V201.159ZM179.433 192.762H172.777V184.987H179.433V192.762Z" fill="black"/>
<path d="M146.4 266.917H177.538C177.607 264.522 178.508 234.088 179.116 218.556C179.75 202.384 190.932 177.853 190.932 177.853C190.932 177.853 192.428 174.394 190.843 172.839C189.259 171.284 185.455 171.906 182.603 174.083C179.75 176.26 153.443 187.456 151.858 189.011C150.273 190.566 150.59 195.853 149.956 202.073C149.323 208.293 138.863 251.211 138.863 251.211C138.863 251.211 136.011 251.833 135.06 252.455C134.109 253.077 134.109 254.943 134.109 254.943C134.109 254.943 135.377 255.254 139.18 257.12C142.679 258.837 145.906 265.804 146.4 266.917Z" stroke="#263238" stroke-miterlimit="10"/>
<path d="M134.109 254.962C134.109 254.962 135.377 255.273 139.18 257.139C142.984 259.005 146.47 267.091 146.47 267.091H152.613C152.999 265.959 153.944 261.841 149.64 256.828C144.568 250.919 138.863 251.23 138.863 251.23C138.863 251.23 136.011 251.852 135.06 252.474C134.109 253.096 134.109 254.962 134.109 254.962Z" fill="#263238" stroke="#263238" stroke-miterlimit="10"/>
<path d="M187.015 172.099C185.652 175.638 182.425 183.644 179.75 187.456C176.264 192.432 169.925 196.475 172.143 198.341C174.362 200.207 180.701 194.298 180.701 194.298C180.701 194.298 182.286 198.652 182.603 199.896C182.62 199.953 182.648 200.006 182.685 200.052C184.973 192.496 187.725 185.083 190.926 177.853C190.926 177.853 192.422 174.394 190.837 172.839C190.019 172.031 188.625 171.819 187.015 172.099Z" fill="#263238" stroke="#263238" stroke-miterlimit="10"/>
<path d="M163.864 202.123C164.046 200.973 164.165 199.815 164.219 198.652" stroke="#263238" stroke-miterlimit="10"/>
<path d="M158.831 267.694C158.831 267.694 159.782 247.79 159.782 236.283C159.782 227.992 162.083 214.047 163.376 205.507" stroke="#263238" stroke-miterlimit="10"/>
<path d="M160.416 231.948C160.416 231.948 165.487 233.503 168.023 233.814L175.629 234.747L175.053 241.794C175.053 241.794 174.679 241.589 168.973 239.723C163.268 237.857 159.782 236.302 159.782 236.302" stroke="#263238" stroke-miterlimit="10"/>
<path d="M175.053 241.776C175.053 241.776 174.679 255.584 174.679 257.45C174.679 259.316 168.974 258.072 168.974 258.072" stroke="#263238" stroke-miterlimit="10"/>
<path d="M179.604 165.531C179.604 165.531 185.582 173.965 190.932 177.853C196.282 181.74 200.846 176.298 204.415 170.463C207.984 164.629 210.361 160.35 212.143 155.293C213.924 150.236 212.143 141.876 205.011 135.264C197.88 128.653 181.221 118.925 177.062 123.981C172.904 129.038 168.936 140.153 171.706 149.651C173.361 155.361 176.035 160.738 179.604 165.531V165.531Z" fill="#9E9E9E" stroke="#263238" stroke-miterlimit="10"/>
<path d="M177.088 147.387C179.344 146.724 181.748 146.724 184.004 147.387" stroke="#263238" stroke-width="2" stroke-miterlimit="10" stroke-linecap="round"/>
<path d="M182.203 152.593C182.393 153.601 182.153 154.491 181.664 154.578C181.176 154.665 180.638 153.918 180.447 152.904C180.257 151.891 180.498 151.007 180.986 150.92C181.474 150.833 182.013 151.58 182.203 152.593Z" fill="#263238"/>
<path d="M199.839 152.861C200.022 153.868 199.781 154.727 199.3 154.845C198.818 154.963 198.273 154.186 198.083 153.172C197.892 152.158 198.133 151.275 198.621 151.188C199.11 151.1 199.648 151.847 199.839 152.861Z" fill="#263238"/>
<path d="M186.774 166.576C189.064 167.35 191.487 167.68 193.905 167.546C198.07 167.353 201.639 164.436 201.639 164.436" stroke="#263238" stroke-miterlimit="10"/>
<path d="M177.677 128.279C177.677 128.279 186.482 147.984 187.585 148.525C188.688 149.067 190.888 142.585 190.888 142.585C190.888 142.585 193.912 147.978 197.5 149.602C201.088 151.225 202.178 148.525 202.178 148.525C203.975 149.519 205.721 150.6 207.408 151.766L208.783 152.842L210.159 157.7C210.159 157.7 206.032 170.93 207.408 172.553C208.783 174.177 216.485 172.012 216.485 172.012C216.485 172.012 214.583 174.712 217.037 174.712C219.49 174.712 223.914 175.253 230.241 166.881C236.567 158.509 237.119 145.017 237.119 145.017C237.119 145.017 240.142 148.252 240.421 144.203C240.7 140.153 236.846 133.405 236.846 133.405C236.846 133.405 242.894 139.345 242.348 133.137C241.803 126.93 238.222 119.907 236.846 118.29C235.471 116.673 227.211 112.07 227.211 112.07C227.211 112.07 230.513 111.529 228.041 107.747C225.569 103.965 216.485 102.889 213.182 102.889C209.88 102.889 203.002 103.972 203.002 103.972C203.002 103.972 207.408 95.5995 202.729 95.0583C198.051 94.5172 189.798 103.43 189.798 103.43C189.798 103.43 181.557 96.9492 179.066 98.299C176.574 99.6487 178.242 101.54 178.242 101.54C178.242 101.54 167.516 102.348 164.486 106.939C161.456 111.529 165.037 114.228 165.037 114.228C165.037 114.228 145.779 127.185 148.803 132.042C151.827 136.9 157.335 132.316 157.335 132.316C157.335 132.316 149.627 151.754 150.73 153.103C151.833 154.453 157.069 152.562 157.069 152.562C157.069 152.562 156.797 168.218 160.923 169.841C165.05 171.465 165.874 168.492 165.874 168.492C165.874 168.492 168.074 170.65 173.031 170.917C177.988 171.185 179.63 165.519 179.63 165.519C179.63 165.519 174.128 152.83 174.407 142.305C174.685 131.781 177.677 128.279 177.677 128.279Z" fill="#263238" stroke="#263238" stroke-miterlimit="10"/>
<path d="M188.758 151.013C188.758 151.013 186.774 161.127 188.358 163.267C189.943 165.406 195.496 163.267 195.889 162.104" fill="#9E9E9E"/>
<path d="M188.758 151.013C188.758 151.013 186.774 161.127 188.358 163.267C189.943 165.406 195.496 163.267 195.889 162.104" stroke="#263238" stroke-miterlimit="10"/>
<path d="M180.529 157.24C184.853 157.24 188.358 154.714 188.358 151.598C188.358 148.482 184.853 145.957 180.529 145.957C176.206 145.957 172.701 148.482 172.701 151.598C172.701 154.714 176.206 157.24 180.529 157.24Z" stroke="#263238" stroke-miterlimit="10"/>
<path d="M199.357 156.854C203.68 156.854 207.185 154.328 207.185 151.213C207.185 148.097 203.68 145.571 199.357 145.571C195.033 145.571 191.528 148.097 191.528 151.213C191.528 154.328 195.033 156.854 199.357 156.854Z" stroke="#263238" stroke-miterlimit="10"/>
<path d="M188.758 151.013C188.758 151.013 190.343 149.85 191.528 151.212" stroke="#263238" stroke-miterlimit="10"/>
<path d="M123.529 258.638C123.529 258.638 133.481 255.883 136.543 255.385C139.605 254.887 145.734 260.392 146.755 263.396C147.776 266.401 146.47 267.072 146.47 267.072L126.077 266.407L123.529 258.638Z" fill="#9E9E9E" stroke="#263238" stroke-miterlimit="10"/>
<path d="M127.136 257.668C127.136 257.668 134.648 260.429 136.524 261.537C138.4 262.644 137.836 264.852 136.714 265.953C135.361 267.063 133.746 267.824 132.017 268.167C130.267 268.265 128.512 268.265 126.762 268.167C124.512 267.98 122.445 268.354 120.569 268.354C118.692 268.354 113.057 267.8 113.057 267.8L111.364 266.693C111.364 266.693 108.195 267.613 105.735 268.559C103.276 269.504 104.043 267.452 105.919 265.978C107.796 264.503 112.493 260.821 113.247 260.454C114.001 260.087 123.573 257.344 123.573 257.344L127.136 257.668Z" fill="#9E9E9E" stroke="#263238" stroke-miterlimit="10"/>
<path d="M129.951 258.402C129.951 258.402 125.063 256.194 123.751 256.194C122.439 256.194 113.051 259.304 111.738 260.243C110.426 261.182 109.108 270.008 110.046 270.562C110.984 271.115 111.738 269.455 111.948 268.354C112.157 267.253 114.769 261.35 114.769 261.35L112.867 270.748C112.867 270.748 113.621 272.216 114.369 270.929C115.117 269.641 119.814 260.796 120.188 260.243C120.68 259.729 121.252 259.295 121.881 258.955C121.881 258.955 120.943 263.011 120.188 266.88C119.434 270.748 120.005 271.856 121.133 272.036C122.261 272.216 122.819 269.641 123.383 268.354C123.947 267.066 126.388 259.689 126.388 259.689" fill="#9E9E9E"/>
<path d="M129.951 258.402C129.951 258.402 125.063 256.194 123.751 256.194C122.439 256.194 113.051 259.304 111.738 260.243C110.426 261.182 109.108 270.008 110.046 270.562C110.984 271.115 111.738 269.455 111.948 268.354C112.157 267.253 114.769 261.35 114.769 261.35L112.867 270.748C112.867 270.748 113.621 272.216 114.369 270.929C115.117 269.641 119.814 260.796 120.188 260.243C120.68 259.729 121.252 259.295 121.881 258.955C121.881 258.955 120.943 263.011 120.188 266.88C119.434 270.748 120.005 271.856 121.133 272.036C122.261 272.216 122.819 269.641 123.383 268.354C123.947 267.066 126.388 259.689 126.388 259.689" stroke="#263238" stroke-miterlimit="10"/>
<path d="M135.377 262.09C135.377 262.09 129.748 267.8 128.993 269.088C128.239 270.375 128.245 270.562 130.312 270.562C132.378 270.562 138.762 266.506 139.32 265.953C139.878 265.399 139.7 263.745 138.381 262.638C137.962 262.318 137.47 262.101 136.947 262.006C136.424 261.91 135.886 261.939 135.377 262.09V262.09Z" fill="#9E9E9E" stroke="#263238" stroke-miterlimit="10"/>
<path d="M170.533 261.456C170.533 261.456 163.022 263.838 161.177 265.188C159.332 266.537 156.67 268.024 157.247 268.478C157.824 268.932 159.675 268.478 160.251 268.024C160.828 267.57 163.484 267.116 163.484 267.116C163.484 267.116 166.603 265.3 169.031 263.832C171.459 262.364 173.303 260.772 170.533 261.456Z" fill="#9E9E9E" stroke="#263238" stroke-miterlimit="10"/>
<path d="M211.996 248.979C211.996 248.979 191.078 252.711 183.509 255.317C175.94 257.923 172.929 259.739 169.144 262.364C165.36 264.989 157.69 269.946 158.831 270.817C159.972 271.688 163.946 268.634 164.618 267.981C165.29 267.328 170.178 265.362 170.178 265.362L173.449 263.72C173.449 263.72 168.523 269.672 166.748 271.184C164.973 272.695 166.171 273.641 167.509 273.205C168.847 272.77 171.369 270.164 171.369 270.164L179.502 264.914C179.502 264.914 176.162 269.505 174.602 270.811C173.043 272.117 176.384 273.218 177.056 272.123C177.728 271.028 181.062 268.192 181.062 268.192C181.062 268.192 186.621 265.356 187.959 264.261C189.296 263.166 192.631 260.112 192.631 260.112L217.556 262.078C217.556 262.078 219.115 261.207 218.228 256.181C217.34 251.156 211.996 248.979 211.996 248.979Z" fill="#9E9E9E" stroke="#263238" stroke-miterlimit="10"/>
<path d="M228.909 210.327L241.15 240.034L221.34 246.801L226.906 262.743C226.906 262.743 241.131 262.781 252.262 262.121C263.394 261.462 271.203 254.875 269.422 247.019C267.641 239.163 260.966 227.799 255.622 214.258C250.278 200.717 251.933 192.644 249.486 188.495C247.039 184.346 240.136 183.252 240.136 183.252L236.332 182.63" fill="white"/>
<path opacity="0.2" d="M267.545 255.279V252.169H269.2C269.27 251.964 269.327 251.759 269.377 251.547H267.545V243.766H268.496C268.427 243.567 268.35 243.356 268.281 243.144H267.545V241.247C267.343 240.731 267.133 240.202 266.912 239.673V243.144H260.256V235.369H265.035C264.94 235.164 264.851 234.959 264.756 234.747H260.256V226.972H261.143C261.042 226.767 260.946 226.562 260.851 226.35H260.256V225.05C260.046 224.59 259.831 224.13 259.622 223.663V226.35H252.966V218.575H257.403C257.314 218.37 257.225 218.165 257.143 217.953H252.966V210.178H254.151C254.081 209.973 254.018 209.761 253.955 209.556H252.966V206.011C252.725 205.028 252.516 204.089 252.332 203.187V209.556H245.676V201.781H252.065L251.951 201.159H245.676V193.384H250.88L250.785 192.762H245.676V185.136C245.12 184.844 244.548 184.58 243.964 184.347H238.386V182.953L237.752 182.841V184.347H235.882L235.711 184.969H237.752V192.762H233.632L233.467 193.384H237.758V201.159H231.375L231.204 201.781H237.752V209.556H231.096V202.179L230.462 204.537V209.513H229.118L228.953 210.135H230.462V214.072L231.096 215.608V210.178H237.752V217.953H232.047L232.3 218.575H237.752V226.35H235.533L235.793 226.972H237.784V231.805L238.418 233.341V226.972H245.042V234.747H238.963L239.223 235.369H245.042V243.144H238.386V240.992L237.752 241.21V243.144H232.085L230.259 243.766H230.462V251.541H223.806V245.943L223.172 246.161V251.51H222.988L223.806 253.849V252.132H230.462V262.706H231.096V252.132H237.752V262.625H238.386V252.145H245.042V262.426H245.676V252.145H252.332V262.097L252.966 262.047V252.145H259.622V260.678L260.256 260.442V252.145H266.912V256.051C267.133 255.796 267.349 255.541 267.545 255.279ZM237.752 251.547H231.096V243.766H237.752V251.547ZM245.042 251.547H238.386V243.766H245.042V251.547ZM245.042 226.356H238.386V218.581H245.042V226.356ZM245.042 217.959H238.386V210.178H245.042V217.959ZM245.042 209.562H238.386V201.787H245.042V209.562ZM245.042 201.165H238.386V193.384H245.042V201.165ZM245.042 192.768H238.386V184.993H245.042V192.768ZM252.332 251.547H245.676V243.766H252.332V251.547ZM252.332 243.15H245.676V235.375H252.332V243.15ZM252.332 234.753H245.676V226.972H252.332V234.753ZM252.332 226.356H245.676V218.581H252.332V226.356ZM252.332 217.959H245.676V210.178H252.332V217.959ZM259.622 251.547H252.966V243.766H259.622V251.547ZM259.622 243.15H252.966V235.375H259.622V243.15ZM259.622 234.753H252.966V226.972H259.622V234.753ZM260.256 251.547V243.766H266.912V251.541L260.256 251.547Z" fill="#263238"/>
<path d="M228.909 210.327L241.15 240.034L221.34 246.801L226.906 262.743C226.906 262.743 241.131 262.781 252.262 262.121C263.394 261.462 271.203 254.875 269.422 247.019C267.641 239.163 260.966 227.799 255.622 214.258C250.278 200.717 251.933 192.644 249.486 188.495C247.039 184.346 240.136 183.252 240.136 183.252L236.332 182.63" stroke="#263238" stroke-miterlimit="10"/>
<path d="M253.067 237.011C249.028 237.745 245.046 238.753 241.15 240.028C241.15 240.028 249.606 234.567 254.278 234.131" stroke="#263238" stroke-miterlimit="10"/>
<path d="M258.735 236.75C257.857 236.626 256.969 236.597 256.085 236.663" stroke="#263238" stroke-miterlimit="10"/>
<path d="M227.128 244.388C227.128 244.388 231.628 248.611 232.96 251.883C234.291 255.155 233.803 264.043 232.915 264.914C232.028 265.785 215.464 265.679 212.738 262.339C212.028 261.468 216.89 259.459 214.443 254.651C211.996 249.843 210.881 249.414 210.881 249.414C210.881 249.414 208.878 248.319 212.662 245.918C216.446 243.517 225.125 241.776 227.128 244.388Z" fill="#263238" stroke="#263238" stroke-miterlimit="10"/>
<path d="M266.589 278.063H250.158L248.104 246.192H268.643L266.589 278.063Z" fill="#263238" stroke="#263238" stroke-linejoin="round"/>
<path d="M269.555 246.242H247.197V250.882H269.555V246.242Z" fill="white" stroke="#263238" stroke-linejoin="round"/>
<path d="M269.555 246.416H247.197L249.429 243.667H267.317L269.555 246.416Z" fill="white" stroke="#263238" stroke-linejoin="round"/>
<path d="M267.191 268.715L268.009 256.02H248.738L249.556 268.715H267.191Z" fill="white" stroke="#263238" stroke-linejoin="round"/>
<path d="M171.902 280.184L192.149 274.935V277.622L171.902 283.188V280.184Z" fill="#263238" stroke="#263238" stroke-linejoin="round"/>
<path d="M192.149 274.935H86.2935L65.8311 280.184H171.902L192.149 274.935Z" fill="white" stroke="#263238" stroke-linejoin="round"/>
<path d="M171.902 220.161H65.8311V283.188H171.902V220.161Z" fill="white" stroke="#263238" stroke-linejoin="round"/>
<path d="M171.902 229.28C148.828 230.356 135.085 251.224 114.667 265.206C96.0556 277.957 73.0703 280.134 65.8564 280.476V283.188H171.902V229.28Z" fill="#263238" stroke="#263238" stroke-linejoin="round"/>
<path d="M171.902 280.184H65.8311V283.188H171.902V280.184Z" fill="white" stroke="#263238" stroke-miterlimit="10"/>
<path d="M34.4275 259.391C34.4275 259.391 25.5908 245.52 32.6842 237.714C39.7776 229.908 51.2386 233.665 53.6031 240.892C55.9675 248.12 50.9533 260.261 50.9533 260.261L34.4275 259.391Z" fill="white" stroke="#263238" stroke-linecap="round" stroke-linejoin="round"/>
<path d="M34.7196 243.492C33.2489 243.492 27.6515 241.471 25.8829 238.871C24.1143 236.271 23.8101 230.486 28.8306 230.486C33.8511 230.486 35.607 239.157 35.607 239.157L35.8986 242.335" fill="white"/>
<path d="M34.7196 243.492C33.2489 243.492 27.6515 241.471 25.8829 238.871C24.1143 236.271 23.8101 230.486 28.8306 230.486C33.8511 230.486 35.607 239.157 35.607 239.157L35.8986 242.335" stroke="#263238" stroke-linecap="round" stroke-linejoin="round"/>
<path d="M39.2519 238.093C37.9333 237.471 33.8446 233.192 33.4453 230.088C33.0459 226.985 35.4167 221.685 39.8984 223.868C44.3801 226.052 42.0157 234.598 42.0157 234.598L40.8303 237.571" fill="white"/>
<path d="M39.2519 238.093C37.9333 237.471 33.8446 233.192 33.4453 230.088C33.0459 226.985 35.4167 221.685 39.8984 223.868C44.3801 226.052 42.0157 234.598 42.0157 234.598L40.8303 237.571" stroke="#263238" stroke-linecap="round" stroke-linejoin="round"/>
<path d="M44.6016 239.549C43.8663 238.305 42.8774 232.526 44.2974 229.727C45.7173 226.928 50.6871 223.806 53.172 228.073C55.6569 232.34 48.8678 238.149 48.8678 238.149L46.1991 239.978" fill="white"/>
<path d="M44.6016 239.549C43.8663 238.305 42.8774 232.526 44.2974 229.727C45.7173 226.928 50.6871 223.806 53.172 228.073C55.6569 232.34 48.8678 238.149 48.8678 238.149L46.1991 239.978" stroke="#263238" stroke-linecap="round" stroke-linejoin="round"/>
<path d="M46.3577 249.912C46.1168 248.481 47.2198 242.734 49.5272 240.582C51.8346 238.429 57.6095 237.192 58.4399 242.037C59.2703 246.882 50.833 250.036 50.833 250.036L47.6635 250.845" fill="white"/>
<path d="M46.3577 249.912C46.1168 248.481 47.2198 242.734 49.5272 240.582C51.8346 238.429 57.6095 237.192 58.4399 242.037C59.2703 246.882 50.833 250.036 50.833 250.036L47.6635 250.845" stroke="#263238" stroke-linecap="round" stroke-linejoin="round"/>
<path d="M26.5293 235.382L27.5245 236.918" stroke="white" stroke-linecap="round" stroke-linejoin="round"/>
<path d="M29.3755 239.151L30.9349 240.401" stroke="white" stroke-linecap="round" stroke-linejoin="round"/>
<path d="M27.6699 232.452L29.2293 234.685" stroke="white" stroke-linecap="round" stroke-linejoin="round"/>
<path d="M31.3662 236.501L33.0714 239.568" stroke="white" stroke-linecap="round" stroke-linejoin="round"/>
<path d="M35.3403 229.105L35.9108 230.779" stroke="white" stroke-linecap="round" stroke-linejoin="round"/>
<path d="M37.3311 233.845L38.3263 235.245" stroke="white" stroke-linecap="round" stroke-linejoin="round"/>
<path d="M36.9067 225.759L38.1872 228.546" stroke="white" stroke-linecap="round" stroke-linejoin="round"/>
<path d="M31.9302 245.427L32.3612 247.933" stroke="white" stroke-linecap="round" stroke-linejoin="round"/>
<path d="M33.2104 250.303L33.781 252.399" stroke="white" stroke-linecap="round" stroke-linejoin="round"/>
<path d="M34.6304 245.564L35.2009 248.35" stroke="white" stroke-linecap="round" stroke-linejoin="round"/>
<path d="M36.4814 250.303L36.9062 252.399" stroke="white" stroke-linecap="round" stroke-linejoin="round"/>
<path d="M37.4771 241.938L38.3265 245.844" stroke="white" stroke-linecap="round" stroke-linejoin="round"/>
<path d="M39.4673 249.607L39.6058 251.423" stroke="white" stroke-linecap="round" stroke-linejoin="round"/>
<path d="M41.0269 240.681L41.7368 244.307" stroke="white" stroke-linecap="round" stroke-linejoin="round"/>
<path d="M41.7363 248.076L42.0216 251.84" stroke="white" stroke-linecap="round" stroke-linejoin="round"/>
<path d="M45.1533 242.074V245.147" stroke="white" stroke-linecap="round" stroke-linejoin="round"/>
<path d="M44.7222 249.053L44.868 251.423" stroke="white" stroke-linecap="round" stroke-linejoin="round"/>
<path d="M48.7031 227.569L47.9932 229.248" stroke="white" stroke-linecap="round" stroke-linejoin="round"/>
<path d="M47.708 231.196L46.998 233.572" stroke="white" stroke-linecap="round" stroke-linejoin="round"/>
<path d="M51.8285 230.779L50.6938 233.012" stroke="white" stroke-linecap="round" stroke-linejoin="round"/>
<path d="M48.2785 235.525L46.998 236.918" stroke="white" stroke-linecap="round" stroke-linejoin="round"/>
<path d="M45.578 230.642L45.1533 232.452" stroke="white" stroke-linecap="round" stroke-linejoin="round"/>
<path d="M51.8285 240.681L50.269 243.194" stroke="white" stroke-linecap="round" stroke-linejoin="round"/>
<path d="M49.2737 244.724L48.418 246.957" stroke="white" stroke-linecap="round" stroke-linejoin="round"/>
<path d="M50.5547 248.076L53.1093 246.677" stroke="white" stroke-linecap="round" stroke-linejoin="round"/>
<path d="M54.6745 240.681L53.394 242.777" stroke="white" stroke-linecap="round" stroke-linejoin="round"/>
<path d="M55.9552 243.051L54.25 244.307" stroke="white" stroke-linecap="round" stroke-linejoin="round"/>
<path d="M54.1166 254.552H29.9521V278.262H54.1166V254.552Z" fill="#263238" stroke="#263238" stroke-linecap="round" stroke-linejoin="round"/>
</svg>
